<?xml version="1.0" encoding="UTF-8"?><svg id="_레이어_2" xmlns="http://www.w3.org/2000/svg" viewBox="0 0 39.44 16.04"><g id="_레이어_1-2"><path d="M19.62,.66c-1.93,2.73-3.97,5.29-6.39,7.59s-5.13,4.68-8.68,4.74c-.49,0-1.07-.26-1.52-.23-.18,.01-.19-.33-.11,.06,.06,.28,.45-.37,.72-.5,1.43-.71,3.79,.53,5.13,1.04,1.98,.74,3.89,1.29,6.01,1.46,2.34,.19,4.7,.23,7.05,.19,5.39-.07,10.77-.33,16.16-.34,1.93,0,1.93-3,0-3-5.72,0-11.42,.32-17.13,.34-2.71,.01-5.63,.11-8.27-.55-2.28-.57-4.37-1.76-6.69-2.16-2.18-.37-4.42,.14-5.53,2.23-.98,1.84,.17,3.56,1.98,4.16,3.66,1.2,8.05-.92,10.77-3.25,3.53-3.02,6.43-6.49,9.1-10.27,1.12-1.58-1.48-3.08-2.59-1.51h0Z" style="fill:#e8361e;"/></g></svg>