<svg width="394" height="472" viewBox="0 0 394 472" fill="none" xmlns="http://www.w3.org/2000/svg">
<g clip-path="url(#clip0_300_391)">
<path d="M193.245 471.369C186.512 471.369 180.28 467.49 173.873 459.386C167.449 451.263 161.307 439.42 154.802 426.882C152.976 423.364 151.109 419.765 149.182 416.136C139.485 420.603 128.608 424.153 116.623 426.75L116.56 426.764C99.4129 429.884 84.4415 431.274 71.4736 431.274C25.4729 431.274 4.63335 413.815 0.891875 394.319C-1.1335 383.757 1.94836 372.21 9.35194 362.639C17.0073 352.742 28.4151 345.842 41.4706 343.209C71.3313 337.187 96.0984 343.929 117.195 363.821C131.25 377.074 141.771 394.308 150.83 411.105C158.65 407.219 165.613 402.689 171.678 397.535C185.423 385.854 193.902 371.512 196.883 354.909C199.012 343.042 196.494 330.802 189.4 318.532C183.376 308.115 175.285 299.707 169.929 294.145C168.705 292.875 167.649 291.778 166.746 290.792C165.448 289.377 164.113 288.023 162.701 286.586C154.52 278.271 145.247 268.844 141.177 245.306C139.592 236.143 130.968 218.185 124.604 208.849C118.903 200.485 112.441 191.004 109.819 180.981C108.273 175.061 108.839 168.807 111.204 165.772C111.814 164.986 112.756 164.551 113.588 164.168C113.897 164.026 114.365 163.809 114.499 163.697C115.714 162.526 115.255 160.202 114.636 158.428L106.71 141.341C103.319 133.029 106.751 129.069 109.099 127.448C110.405 126.548 111.07 124.917 110.796 123.294L110.78 123.162L109.753 112.732C109.028 106.787 111.759 103.105 117.452 102.372C120.783 101.945 126.654 106.789 127.952 108.574L136.688 119.692C137.92 121.2 167.685 156.641 168.903 158.092C171.037 160.366 186.417 178.841 187.073 179.632C189.006 181.939 190.465 184.564 191.398 187.43L191.42 187.493C191.989 189.242 192.101 191.029 191.74 192.66C191.39 194.242 190.637 195.227 189.501 195.591C187.561 196.215 185.483 194.787 182.098 191.749C181.66 191.376 178.307 188.399 167.709 175.981C163.42 170.956 149.511 154.769 145.039 149.681C143.29 147.691 140.75 144.53 138.062 141.185C133.781 135.859 128.937 129.832 126.939 128.116C125.877 127.462 124.643 127.489 123.537 128.193C122.3 128.981 121.123 130.804 121.509 133.566C121.64 134.209 123.876 144.634 132.927 155.212L133.026 155.338L138.141 162.444C141.62 166.694 162.659 191.004 162.87 191.251L162.892 191.275C167.969 197.349 181.26 213.248 181.799 213.858L182.013 214.088C183.595 215.79 185.76 218.12 186.206 222.102C186.545 225.14 184.763 226.333 183.981 226.703C181.641 227.811 178.381 226.645 176.7 224.927L176.629 224.85L165.594 212.268L139.179 180.683C136.669 177.782 131.898 172.792 129.747 171.719C128.931 171.311 127.785 170.901 126.964 171.243C126.219 171.555 125.773 172.502 125.532 173.244C125.387 173.851 125.844 176.755 128.639 183.261C130.604 187.835 133.207 192.926 134.964 195.643L141.467 205.688C142.313 206.857 154.427 223.574 155.746 225.507C157.12 227.521 162.29 237.957 162.876 239.14C170.602 255.179 176.514 264.249 189.23 272.455L189.31 272.509C189.342 272.531 189.394 272.569 189.463 272.621C186.816 263.89 186.282 257.62 187.604 251.243C188.483 247.011 190.057 245.243 192.917 242.036C194.535 240.221 196.546 237.966 199.256 234.408C205.901 225.685 205.795 222.014 204.505 212.687C203.753 207.235 206.503 202.771 211.871 200.715C212.799 200.17 213.431 199.218 213.803 197.808C214.969 193.385 212.993 185.829 210.491 181.816L210.464 181.772L205.592 173.476C205.138 173.934 204.631 174.33 204.065 174.651C194.959 179.813 188.398 173.548 183.606 168.971L183.324 168.703C178.622 164.217 152.002 133.73 146.911 126.726C146.432 126.066 145.652 125.062 144.746 123.896C134.731 110.999 128.868 101.978 130.579 96.8733C130.946 95.7785 131.846 94.3471 134.047 93.7532C136.584 93.0662 141.423 93.6355 154.063 106.445C160.574 113.044 166.245 119.982 166.527 120.327L204.875 166.067C205.425 163.125 205.433 159.482 205.154 156.31C204.768 151.947 204.724 147.719 205.025 143.739C206.358 126.091 212.653 122.798 217.698 123.146C222.044 123.444 224.403 128.948 225.974 133.711C227.8 139.248 229.278 146.391 230.844 153.953C233.189 165.293 235.614 177.018 239.2 182.604C241.236 185.779 243.25 188.768 245.199 191.656C252.701 202.781 259.18 212.391 263.386 226.832C265.891 235.428 267.062 248.654 266.518 262.207C266.351 266.343 266.036 270.216 265.587 273.73C268.302 274.808 270.902 276.826 273.125 279.645C275.243 282.33 276.762 286.435 278.864 292.117C282.253 301.275 286.895 313.819 297.281 329.491C308.03 345.708 328.883 357.192 344.752 355.64C353.85 354.748 360.555 349.665 364.144 340.937C370.762 324.841 361.166 309.5 351.887 294.663C344.859 283.422 338.216 272.805 338.191 261.879C338.161 248.317 341.624 238.967 344.681 230.718C347.292 223.673 349.547 217.586 349.022 210.371C348.556 204.008 339.346 202.322 329.595 200.54C318.365 198.487 305.635 196.158 305.917 184.92C306.122 176.709 319.251 168.774 334.453 159.589C352.208 148.86 372.333 136.699 370.524 124.213C369.618 117.951 352.613 119.243 336.171 120.496C324.389 121.394 311.035 122.41 300.199 121.104C287.212 119.538 279.6 114.858 276.932 106.798C274.813 100.399 274.906 93.8845 277.206 87.4389C278.503 83.7987 280.512 80.1722 283.2 76.6031C275.054 73.2476 269.036 69.2515 263.165 65.3541C252.808 58.4787 243.026 51.9866 222.178 48.36C211.772 46.5509 197.611 48.8609 182.62 51.3078C171.18 53.1744 159.35 55.104 148.148 55.3914C135.257 55.7253 125.168 53.7519 117.316 49.3672C89.2285 33.6952 72.0347 8.49564 72.0347 0H75.861C75.861 3.01891 79.6983 10.6743 87.0362 19.4601C95.7344 29.8798 107.15 39.317 119.185 46.0336C126.424 50.0734 135.867 51.888 148.055 51.5733C158.995 51.2914 170.695 49.3837 182.007 47.5362C197.326 45.0373 211.794 42.6753 222.838 44.5967C244.477 48.36 255.055 55.3832 265.286 62.1737C271.499 66.2983 277.446 70.2451 285.723 73.5076C286.646 72.4511 287.628 71.4001 288.668 70.3546C300.44 58.5553 320.045 47.5991 342.456 40.2968C363.104 33.5693 381.849 31.3332 391.377 34.4643C396.763 36.2351 401.09 39.2896 403.89 43.2993C406.663 47.2707 407.769 51.888 407.087 56.6531C406.055 63.8816 401.003 70.5899 392.857 75.5439C383.606 81.1684 370.515 84.4227 355.002 84.951C328.106 85.8679 308.438 84.2968 293.108 80.0052C290.915 79.3921 288.86 78.7352 286.925 78.04C279.68 87.2008 277.539 96.4491 280.572 105.604C282.726 112.113 289.298 115.942 300.664 117.313C311.125 118.575 323.713 117.617 335.887 116.689C345.332 115.969 354.255 115.291 361.002 115.816C364.048 116.054 373.318 116.774 374.32 123.674C375.311 130.508 371.558 137.488 362.846 145.014C355.536 151.331 345.828 157.2 336.44 162.873C323.392 170.756 309.905 178.909 309.751 185.027C309.565 192.438 317.765 194.494 330.292 196.785C341.046 198.753 352.167 200.786 352.845 210.103C353.431 218.147 350.927 224.905 348.277 232.056C345.332 240.002 341.996 249.007 342.026 261.879C342.048 271.713 348.406 281.878 355.139 292.643C359.912 300.273 364.847 308.164 367.707 316.348C371.014 325.81 371.008 334.333 367.691 342.399C363.531 352.52 355.73 358.415 345.132 359.456C344.049 359.562 342.937 359.614 341.81 359.614C334.113 359.614 325.5 357.165 317.179 352.561C307.816 347.383 299.622 339.941 294.098 331.612C283.465 315.57 278.736 302.786 275.281 293.453C273.377 288.302 271.868 284.232 270.128 282.023C268.587 280.069 266.819 278.588 265.01 277.682C263.959 283.86 262.453 288.573 260.63 291.132C256.237 297.304 251.73 297.654 249.206 296.08C246.165 294.186 244.882 288.983 248.861 281.629C252.518 274.871 256.976 273.136 260.072 272.871C260.663 272.819 261.257 272.816 261.854 272.86C262.256 269.562 262.546 265.927 262.702 262.062C263.23 248.9 262.114 236.132 259.719 227.91C255.679 214.042 249.357 204.662 242.035 193.801C240.075 190.895 238.047 187.887 235.986 184.676C232.018 178.493 229.519 166.415 227.102 154.733C225.561 147.281 224.105 140.241 222.348 134.912C220.03 127.886 218.147 127.013 217.443 126.967C211.118 126.537 209.344 137.471 208.849 144.029C208.564 147.801 208.605 151.819 208.972 155.976C209.306 159.761 209.429 165.468 207.847 169.751L213.759 179.818C216.242 183.817 219.146 192.586 217.512 198.785C216.863 201.249 215.511 203.102 213.606 204.136L213.486 204.202L213.357 204.249C209.588 205.65 207.793 208.461 208.304 212.164C209.722 222.422 209.572 227.196 202.308 236.729C199.508 240.404 197.354 242.821 195.78 244.584C193.048 247.649 192.025 248.796 191.357 252.023C190.114 258.017 190.741 264.033 193.527 272.783C193.768 273.544 194.192 274.833 194.803 276.535C204.237 283.553 223.38 298.256 233.241 309.073C237.207 313.425 240.88 318.157 243.313 322.063C246.858 327.747 247.955 331.817 246.669 334.508C245.955 335.999 244.189 337.721 239.835 337.458C237.248 337.299 234.705 336.536 232.28 335.184C226.125 331.757 220.353 327.03 215.59 321.512C202.844 306.749 195 288.187 191.603 278.936C189.052 277.042 187.396 275.846 187.123 275.649C172.431 266.154 166.382 255.225 159.443 240.823C157.202 236.291 153.521 229.027 152.593 227.669C151.284 225.753 138.475 208.075 138.347 207.897L138.289 207.815L131.756 197.726C129.859 194.798 127.098 189.389 125.042 184.58C120.939 174.979 121.635 172.855 121.897 172.056C122.787 169.338 124.341 168.197 125.488 167.718C127.218 166.995 129.224 167.19 131.452 168.298C135.002 170.063 141.371 177.371 142.085 178.198L142.105 178.222L168.517 209.802L179.467 222.288C180.425 223.235 182.054 223.479 182.363 223.238C182.385 223.205 182.453 222.986 182.401 222.534C182.095 219.806 180.628 218.226 179.21 216.699L178.975 216.445C178.561 215.996 163.097 197.494 159.969 193.749C158.956 192.578 138.527 168.974 135.142 164.825L135.071 164.732L129.966 157.643C120.006 145.972 117.827 134.712 117.74 134.239L117.729 134.165C117.171 130.322 118.61 126.8 121.481 124.971C123.871 123.45 126.802 123.452 129.128 124.98L129.301 125.108C131.543 126.969 136.373 132.983 141.048 138.796C143.711 142.108 146.224 145.236 147.918 147.163C152.398 152.265 166.33 168.473 170.624 173.504C181.435 186.171 184.451 188.732 184.575 188.837L184.635 188.889C186.444 190.514 187.473 191.272 188.048 191.626C188.204 190.717 188.114 189.704 187.782 188.686L187.76 188.623C186.978 186.225 185.76 184.028 184.137 182.093C178.545 175.376 167.583 162.266 166.086 160.692L166.007 160.604C164.734 159.088 134.821 123.474 133.707 122.103L133.688 122.078L124.853 110.832C123.737 109.242 119.179 106.176 117.94 106.176C117.931 106.176 117.926 106.176 117.918 106.176C114.34 106.639 113.071 108.413 113.549 112.294L113.555 112.34L114.576 122.733C115.063 125.792 113.771 128.874 111.267 130.601C108.782 132.315 108.434 135.429 110.23 139.858L118.178 156.983L118.208 157.068C120.039 162.222 118.635 165.025 117.132 166.47C116.588 166.995 115.876 167.324 115.192 167.641C114.877 167.786 114.362 168.024 114.193 168.161C112.81 169.995 112.184 174.902 113.519 180.015C115.972 189.398 122.237 198.588 127.765 206.695C134.482 216.549 143.257 234.876 144.946 244.655C148.81 267.013 157.257 275.599 165.427 283.903C166.801 285.299 168.218 286.742 169.562 288.206C170.435 289.158 171.478 290.24 172.685 291.493C178.167 297.189 186.455 305.799 192.712 316.619C200.274 329.693 202.945 342.804 200.649 355.588C197.51 373.086 188.595 388.18 174.158 400.453C167.882 405.787 160.694 410.47 152.639 414.483C154.547 418.079 156.394 421.64 158.201 425.122C164.619 437.493 170.682 449.18 176.875 457.016C183.359 465.216 189.408 468.484 195.914 467.296C202.702 466.056 208.449 461.89 214 454.18C219.05 447.168 223.287 438.024 227.387 429.181C236.359 409.824 245.637 389.806 264.703 387.931C283.843 386.048 297.588 403.064 309.713 418.079C318.926 429.487 327.635 440.268 336.76 440.268C336.85 440.268 336.941 440.268 337.031 440.265C347.47 440.019 356.36 433.719 364.959 427.626C376.819 419.221 389.083 410.531 404.961 418.479L403.247 421.9C396.971 418.758 391.037 418.334 384.573 420.567C378.655 422.609 373.077 426.564 367.171 430.749C358.103 437.175 348.726 443.821 337.121 444.092C336.998 444.094 336.875 444.097 336.752 444.097C325.804 444.097 316.539 432.624 306.735 420.485C300.744 413.065 294.547 405.393 287.636 399.796C280.025 393.632 272.646 390.994 265.075 391.741C257.469 392.488 251.127 396.558 245.117 404.55C239.654 411.812 235.182 421.462 230.855 430.793C222.386 449.062 213.631 467.95 196.598 471.062C195.465 471.27 194.346 471.374 193.243 471.374L193.245 471.369ZM61.604 344.922C55.4047 344.922 48.9536 345.604 42.2288 346.958C30.0738 349.411 19.4734 355.81 12.3791 364.979C5.64604 373.682 2.82967 384.113 4.64977 393.597C7.0556 406.132 17.188 416.163 33.183 421.84C42.5709 425.171 53.924 427.038 66.9274 427.385C81.2912 427.768 97.7488 426.296 115.843 423.003C127.459 420.482 137.988 417.058 147.373 412.756C138.475 396.282 128.176 379.433 114.57 366.605C99.183 352.096 81.7291 344.922 61.604 344.922ZM197.4 283.304C201.393 293.018 208.345 307.275 218.481 319.016C222.956 324.197 228.367 328.634 234.136 331.845C236.058 332.915 238.05 333.52 240.062 333.643C240.872 333.692 242.804 333.714 243.212 332.863C244.318 330.553 239.829 321.991 230.408 311.659C222.34 302.811 207.445 290.959 197.4 283.307V283.304ZM261 276.659C260.797 276.659 260.595 276.667 260.395 276.683C257.299 276.949 254.475 279.292 252.222 283.452C249.431 288.611 249.959 292.046 251.226 292.834C252.428 293.581 254.97 292.476 257.507 288.912C259.057 286.736 260.373 282.398 261.306 276.664C261.202 276.659 261.101 276.659 260.997 276.659H261ZM135.426 97.4098C135.248 97.4098 135.123 97.4317 135.046 97.4536C134.362 97.6397 134.266 97.9243 134.208 98.0968C133.957 98.8467 133.858 101.362 138.349 108.517C141.333 113.265 145.206 118.255 147.767 121.556C148.731 122.795 149.492 123.775 150.004 124.481C155.034 131.401 181.323 161.513 185.965 165.941L186.247 166.21C191.863 171.572 196.004 174.826 202.173 171.328C202.62 171.076 203.011 170.696 203.35 170.217L163.563 122.757C163.505 122.689 157.837 115.726 151.317 109.119C140.859 98.5265 136.704 97.4098 135.421 97.4098H135.426ZM289.593 74.9199C291.036 75.4071 292.549 75.8751 294.139 76.3185C308.878 80.4431 328.743 82.0169 354.873 81.1246C369.733 80.6183 382.183 77.5583 390.873 72.2732C398.022 67.9268 402.437 62.1873 403.302 56.1112C404.435 48.1575 399.287 41.0878 390.186 38.099C381.526 35.2525 363.257 37.5434 343.646 43.9343C321.791 51.056 302.742 61.6701 291.381 73.056C290.762 73.6773 290.168 74.2958 289.596 74.9171L289.593 74.9199Z" fill="#E8361E"/>
<path d="M150.25 420.191C150.645 420.191 150.969 420.15 151.223 420.068C151.676 419.916 152.047 419.623 152.336 419.189C152.566 418.842 152.732 418.396 152.834 417.854C152.893 417.529 152.922 417.229 152.922 416.951C152.922 415.885 152.709 415.057 152.283 414.467C151.861 413.877 151.18 413.582 150.238 413.582H148.17V420.191H150.25ZM146.998 412.58H150.484C151.668 412.58 152.586 413 153.238 413.84C153.82 414.598 154.111 415.568 154.111 416.752C154.111 417.666 153.939 418.492 153.596 419.23C152.99 420.535 151.949 421.188 150.473 421.188H146.998V412.58ZM158.09 414.771C158.535 414.771 158.967 414.877 159.385 415.088C159.803 415.295 160.121 415.564 160.34 415.896C160.551 416.213 160.691 416.582 160.762 417.004C160.824 417.293 160.855 417.754 160.855 418.387H156.256C156.275 419.023 156.426 419.535 156.707 419.922C156.988 420.305 157.424 420.496 158.014 420.496C158.564 420.496 159.004 420.314 159.332 419.951C159.52 419.74 159.652 419.496 159.73 419.219H160.768C160.74 419.449 160.648 419.707 160.492 419.992C160.34 420.273 160.168 420.504 159.977 420.684C159.656 420.996 159.26 421.207 158.787 421.316C158.533 421.379 158.246 421.41 157.926 421.41C157.145 421.41 156.482 421.127 155.939 420.561C155.396 419.99 155.125 419.193 155.125 418.17C155.125 417.162 155.398 416.344 155.945 415.715C156.492 415.086 157.207 414.771 158.09 414.771ZM159.771 417.549C159.729 417.092 159.629 416.727 159.473 416.453C159.184 415.945 158.701 415.691 158.025 415.691C157.541 415.691 157.135 415.867 156.807 416.219C156.479 416.566 156.305 417.01 156.285 417.549H159.771ZM162.783 419.219C162.814 419.57 162.902 419.84 163.047 420.027C163.312 420.367 163.773 420.537 164.43 420.537C164.82 420.537 165.164 420.453 165.461 420.285C165.758 420.113 165.906 419.85 165.906 419.494C165.906 419.225 165.787 419.02 165.549 418.879C165.396 418.793 165.096 418.693 164.646 418.58L163.809 418.369C163.273 418.236 162.879 418.088 162.625 417.924C162.172 417.639 161.945 417.244 161.945 416.74C161.945 416.146 162.158 415.666 162.584 415.299C163.014 414.932 163.59 414.748 164.312 414.748C165.258 414.748 165.939 415.025 166.357 415.58C166.619 415.932 166.746 416.311 166.738 416.717H165.742C165.723 416.479 165.639 416.262 165.49 416.066C165.248 415.789 164.828 415.65 164.23 415.65C163.832 415.65 163.529 415.727 163.322 415.879C163.119 416.031 163.018 416.232 163.018 416.482C163.018 416.756 163.152 416.975 163.422 417.139C163.578 417.236 163.809 417.322 164.113 417.396L164.811 417.566C165.568 417.75 166.076 417.928 166.334 418.1C166.744 418.369 166.949 418.793 166.949 419.371C166.949 419.93 166.736 420.412 166.311 420.818C165.889 421.225 165.244 421.428 164.377 421.428C163.443 421.428 162.781 421.217 162.391 420.795C162.004 420.369 161.797 419.844 161.77 419.219H162.783ZM168.156 414.941H169.229V421.188H168.156V414.941ZM168.156 412.58H169.229V413.775H168.156V412.58ZM173.043 414.801C173.535 414.801 173.965 414.922 174.332 415.164C174.531 415.301 174.734 415.5 174.941 415.762V414.971H175.914V420.678C175.914 421.475 175.797 422.104 175.562 422.564C175.125 423.416 174.299 423.842 173.084 423.842C172.408 423.842 171.84 423.689 171.379 423.385C170.918 423.084 170.66 422.611 170.605 421.967H171.678C171.729 422.248 171.83 422.465 171.982 422.617C172.221 422.852 172.596 422.969 173.107 422.969C173.916 422.969 174.445 422.684 174.695 422.113C174.844 421.777 174.912 421.178 174.9 420.314C174.689 420.635 174.436 420.873 174.139 421.029C173.842 421.186 173.449 421.264 172.961 421.264C172.281 421.264 171.686 421.023 171.174 420.543C170.666 420.059 170.412 419.26 170.412 418.146C170.412 417.096 170.668 416.275 171.18 415.686C171.695 415.096 172.316 414.801 173.043 414.801ZM174.941 418.023C174.941 417.246 174.781 416.67 174.461 416.295C174.141 415.92 173.732 415.732 173.236 415.732C172.494 415.732 171.986 416.08 171.713 416.775C171.568 417.146 171.496 417.633 171.496 418.234C171.496 418.941 171.639 419.48 171.924 419.852C172.213 420.219 172.6 420.402 173.084 420.402C173.842 420.402 174.375 420.061 174.684 419.377C174.855 418.99 174.941 418.539 174.941 418.023ZM177.508 414.912H178.51V415.803C178.807 415.436 179.121 415.172 179.453 415.012C179.785 414.852 180.154 414.771 180.561 414.771C181.451 414.771 182.053 415.082 182.365 415.703C182.537 416.043 182.623 416.529 182.623 417.162V421.188H181.551V417.232C181.551 416.85 181.494 416.541 181.381 416.307C181.193 415.916 180.854 415.721 180.361 415.721C180.111 415.721 179.906 415.746 179.746 415.797C179.457 415.883 179.203 416.055 178.984 416.312C178.809 416.52 178.693 416.734 178.639 416.957C178.588 417.176 178.562 417.49 178.562 417.9V421.188H177.508V414.912ZM191.295 412.346C192.385 412.346 193.23 412.633 193.832 413.207C194.434 413.781 194.768 414.434 194.834 415.164H193.697C193.568 414.609 193.311 414.17 192.924 413.846C192.541 413.521 192.002 413.359 191.307 413.359C190.459 413.359 189.773 413.658 189.25 414.256C188.73 414.85 188.471 415.762 188.471 416.992C188.471 418 188.705 418.818 189.174 419.447C189.646 420.072 190.35 420.385 191.283 420.385C192.143 420.385 192.797 420.055 193.246 419.395C193.484 419.047 193.662 418.59 193.779 418.023H194.916C194.814 418.93 194.479 419.689 193.908 420.303C193.225 421.041 192.303 421.41 191.143 421.41C190.143 421.41 189.303 421.107 188.623 420.502C187.729 419.701 187.281 418.465 187.281 416.793C187.281 415.523 187.617 414.482 188.289 413.67C189.016 412.787 190.018 412.346 191.295 412.346ZM198.812 414.771C199.258 414.771 199.689 414.877 200.107 415.088C200.525 415.295 200.844 415.564 201.062 415.896C201.273 416.213 201.414 416.582 201.484 417.004C201.547 417.293 201.578 417.754 201.578 418.387H196.979C196.998 419.023 197.148 419.535 197.43 419.922C197.711 420.305 198.146 420.496 198.736 420.496C199.287 420.496 199.727 420.314 200.055 419.951C200.242 419.74 200.375 419.496 200.453 419.219H201.49C201.463 419.449 201.371 419.707 201.215 419.992C201.062 420.273 200.891 420.504 200.699 420.684C200.379 420.996 199.982 421.207 199.51 421.316C199.256 421.379 198.969 421.41 198.648 421.41C197.867 421.41 197.205 421.127 196.662 420.561C196.119 419.99 195.848 419.193 195.848 418.17C195.848 417.162 196.121 416.344 196.668 415.715C197.215 415.086 197.93 414.771 198.812 414.771ZM200.494 417.549C200.451 417.092 200.352 416.727 200.195 416.453C199.906 415.945 199.424 415.691 198.748 415.691C198.264 415.691 197.857 415.867 197.529 416.219C197.201 416.566 197.027 417.01 197.008 417.549H200.494ZM202.879 414.912H203.881V415.803C204.178 415.436 204.492 415.172 204.824 415.012C205.156 414.852 205.525 414.771 205.932 414.771C206.822 414.771 207.424 415.082 207.736 415.703C207.908 416.043 207.994 416.529 207.994 417.162V421.188H206.922V417.232C206.922 416.85 206.865 416.541 206.752 416.307C206.564 415.916 206.225 415.721 205.732 415.721C205.482 415.721 205.277 415.746 205.117 415.797C204.828 415.883 204.574 416.055 204.355 416.312C204.18 416.52 204.064 416.734 204.01 416.957C203.959 417.176 203.934 417.49 203.934 417.9V421.188H202.879V414.912ZM209.77 413.16H210.836V414.912H211.838V415.773H210.836V419.869C210.836 420.088 210.91 420.234 211.059 420.309C211.141 420.352 211.277 420.373 211.469 420.373C211.52 420.373 211.574 420.373 211.633 420.373C211.691 420.369 211.76 420.363 211.838 420.355V421.188C211.717 421.223 211.59 421.248 211.457 421.264C211.328 421.279 211.188 421.287 211.035 421.287C210.543 421.287 210.209 421.162 210.033 420.912C209.857 420.658 209.77 420.33 209.77 419.928V415.773H208.92V414.912H209.77V413.16ZM215.512 414.771C215.957 414.771 216.389 414.877 216.807 415.088C217.225 415.295 217.543 415.564 217.762 415.896C217.973 416.213 218.113 416.582 218.184 417.004C218.246 417.293 218.277 417.754 218.277 418.387H213.678C213.697 419.023 213.848 419.535 214.129 419.922C214.41 420.305 214.846 420.496 215.436 420.496C215.986 420.496 216.426 420.314 216.754 419.951C216.941 419.74 217.074 419.496 217.152 419.219H218.189C218.162 419.449 218.07 419.707 217.914 419.992C217.762 420.273 217.59 420.504 217.398 420.684C217.078 420.996 216.682 421.207 216.209 421.316C215.955 421.379 215.668 421.41 215.348 421.41C214.566 421.41 213.904 421.127 213.361 420.561C212.818 419.99 212.547 419.193 212.547 418.17C212.547 417.162 212.82 416.344 213.367 415.715C213.914 415.086 214.629 414.771 215.512 414.771ZM217.193 417.549C217.15 417.092 217.051 416.727 216.895 416.453C216.605 415.945 216.123 415.691 215.447 415.691C214.963 415.691 214.557 415.867 214.229 416.219C213.9 416.566 213.727 417.01 213.707 417.549H217.193ZM219.607 414.912H220.609V415.996C220.691 415.785 220.893 415.529 221.213 415.229C221.533 414.924 221.902 414.771 222.32 414.771C222.34 414.771 222.373 414.773 222.42 414.777C222.467 414.781 222.547 414.789 222.66 414.801V415.914C222.598 415.902 222.539 415.895 222.484 415.891C222.434 415.887 222.377 415.885 222.314 415.885C221.783 415.885 221.375 416.057 221.09 416.4C220.805 416.74 220.662 417.133 220.662 417.578V421.188H219.607V414.912ZM230.289 416.219C230.781 416.219 231.164 416.15 231.438 416.014C231.867 415.799 232.082 415.412 232.082 414.854C232.082 414.291 231.854 413.912 231.396 413.717C231.139 413.607 230.756 413.553 230.248 413.553H228.168V416.219H230.289ZM230.682 420.191C231.396 420.191 231.906 419.984 232.211 419.57C232.402 419.309 232.498 418.992 232.498 418.621C232.498 417.996 232.219 417.57 231.66 417.344C231.363 417.223 230.971 417.162 230.482 417.162H228.168V420.191H230.682ZM227.025 412.58H230.723C231.73 412.58 232.447 412.881 232.873 413.482C233.123 413.838 233.248 414.248 233.248 414.713C233.248 415.256 233.094 415.701 232.785 416.049C232.625 416.232 232.395 416.4 232.094 416.553C232.535 416.721 232.865 416.91 233.084 417.121C233.471 417.496 233.664 418.014 233.664 418.674C233.664 419.229 233.49 419.73 233.143 420.18C232.623 420.852 231.797 421.188 230.664 421.188H227.025V412.58ZM235.973 414.912V419.078C235.973 419.398 236.023 419.66 236.125 419.863C236.312 420.238 236.662 420.426 237.174 420.426C237.908 420.426 238.408 420.098 238.674 419.441C238.818 419.09 238.891 418.607 238.891 417.994V414.912H239.945V421.188H238.949L238.961 420.262C238.824 420.5 238.654 420.701 238.451 420.865C238.049 421.193 237.561 421.357 236.986 421.357C236.092 421.357 235.482 421.059 235.158 420.461C234.982 420.141 234.895 419.713 234.895 419.178V414.912H235.973ZM242.225 419.219C242.256 419.57 242.344 419.84 242.488 420.027C242.754 420.367 243.215 420.537 243.871 420.537C244.262 420.537 244.605 420.453 244.902 420.285C245.199 420.113 245.348 419.85 245.348 419.494C245.348 419.225 245.229 419.02 244.99 418.879C244.838 418.793 244.537 418.693 244.088 418.58L243.25 418.369C242.715 418.236 242.32 418.088 242.066 417.924C241.613 417.639 241.387 417.244 241.387 416.74C241.387 416.146 241.6 415.666 242.025 415.299C242.455 414.932 243.031 414.748 243.754 414.748C244.699 414.748 245.381 415.025 245.799 415.58C246.061 415.932 246.188 416.311 246.18 416.717H245.184C245.164 416.479 245.08 416.262 244.932 416.066C244.689 415.789 244.27 415.65 243.672 415.65C243.273 415.65 242.971 415.727 242.764 415.879C242.561 416.031 242.459 416.232 242.459 416.482C242.459 416.756 242.594 416.975 242.863 417.139C243.02 417.236 243.25 417.322 243.555 417.396L244.252 417.566C245.01 417.75 245.518 417.928 245.775 418.1C246.186 418.369 246.391 418.793 246.391 419.371C246.391 419.93 246.178 420.412 245.752 420.818C245.33 421.225 244.686 421.428 243.818 421.428C242.885 421.428 242.223 421.217 241.832 420.795C241.445 420.369 241.238 419.844 241.211 419.219H242.225ZM248.406 419.518C248.406 419.822 248.518 420.062 248.74 420.238C248.963 420.414 249.227 420.502 249.531 420.502C249.902 420.502 250.262 420.416 250.609 420.244C251.195 419.959 251.488 419.492 251.488 418.844V417.994C251.359 418.076 251.193 418.145 250.99 418.199C250.787 418.254 250.588 418.293 250.393 418.316L249.754 418.398C249.371 418.449 249.084 418.529 248.893 418.639C248.568 418.822 248.406 419.115 248.406 419.518ZM250.961 417.385C251.203 417.354 251.365 417.252 251.447 417.08C251.494 416.986 251.518 416.852 251.518 416.676C251.518 416.316 251.389 416.057 251.131 415.896C250.877 415.732 250.512 415.65 250.035 415.65C249.484 415.65 249.094 415.799 248.863 416.096C248.734 416.26 248.65 416.504 248.611 416.828H247.627C247.646 416.055 247.896 415.518 248.377 415.217C248.861 414.912 249.422 414.76 250.059 414.76C250.797 414.76 251.396 414.9 251.857 415.182C252.314 415.463 252.543 415.9 252.543 416.494V420.109C252.543 420.219 252.564 420.307 252.607 420.373C252.654 420.439 252.75 420.473 252.895 420.473C252.941 420.473 252.994 420.471 253.053 420.467C253.111 420.459 253.174 420.449 253.24 420.438V421.217C253.076 421.264 252.951 421.293 252.865 421.305C252.779 421.316 252.662 421.322 252.514 421.322C252.15 421.322 251.887 421.193 251.723 420.936C251.637 420.799 251.576 420.605 251.541 420.355C251.326 420.637 251.018 420.881 250.615 421.088C250.213 421.295 249.77 421.398 249.285 421.398C248.703 421.398 248.227 421.223 247.855 420.871C247.488 420.516 247.305 420.072 247.305 419.541C247.305 418.959 247.486 418.508 247.85 418.188C248.213 417.867 248.689 417.67 249.279 417.596L250.961 417.385ZM254.277 414.912H255.279V415.803C255.576 415.436 255.891 415.172 256.223 415.012C256.555 414.852 256.924 414.771 257.33 414.771C258.221 414.771 258.822 415.082 259.135 415.703C259.307 416.043 259.393 416.529 259.393 417.162V421.188H258.32V417.232C258.32 416.85 258.264 416.541 258.15 416.307C257.963 415.916 257.623 415.721 257.131 415.721C256.881 415.721 256.676 415.746 256.516 415.797C256.227 415.883 255.973 416.055 255.754 416.312C255.578 416.52 255.463 416.734 255.408 416.957C255.357 417.176 255.332 417.49 255.332 417.9V421.188H254.277V414.912ZM264.672 415.246V414.438C265.434 414.363 265.965 414.24 266.266 414.068C266.566 413.893 266.791 413.48 266.939 412.832H267.771V421.188H266.646V415.246H264.672ZM271.229 412.58H277.199V413.635H272.395V416.248H276.619V417.273H272.395V421.188H271.229V412.58ZM281.904 412.58H288.18V413.635H283.041V416.248H287.793V417.244H283.041V420.162H288.268V421.188H281.904V412.58ZM289.059 414.912H290.424L291.865 417.121L293.324 414.912L294.607 414.941L292.492 417.971L294.701 421.188H293.354L291.795 418.832L290.283 421.188H288.947L291.156 417.971L289.059 414.912ZM295.656 412.551H296.711V415.762C296.961 415.445 297.186 415.223 297.385 415.094C297.725 414.871 298.148 414.76 298.656 414.76C299.566 414.76 300.184 415.078 300.508 415.715C300.684 416.062 300.771 416.545 300.771 417.162V421.188H299.688V417.232C299.688 416.771 299.629 416.434 299.512 416.219C299.32 415.875 298.961 415.703 298.434 415.703C297.996 415.703 297.6 415.854 297.244 416.154C296.889 416.455 296.711 417.023 296.711 417.859V421.188H295.656V412.551ZM302.336 414.941H303.408V421.188H302.336V414.941ZM302.336 412.58H303.408V413.775H302.336V412.58ZM304.926 412.551H305.951V415.674C306.182 415.373 306.457 415.145 306.777 414.988C307.098 414.828 307.445 414.748 307.82 414.748C308.602 414.748 309.234 415.018 309.719 415.557C310.207 416.092 310.451 416.883 310.451 417.93C310.451 418.922 310.211 419.746 309.73 420.402C309.25 421.059 308.584 421.387 307.732 421.387C307.256 421.387 306.854 421.271 306.525 421.041C306.33 420.904 306.121 420.686 305.898 420.385V421.188H304.926V412.551ZM307.668 420.455C308.238 420.455 308.664 420.229 308.945 419.775C309.23 419.322 309.373 418.725 309.373 417.982C309.373 417.322 309.23 416.775 308.945 416.342C308.664 415.908 308.248 415.691 307.697 415.691C307.217 415.691 306.795 415.869 306.432 416.225C306.072 416.58 305.893 417.166 305.893 417.982C305.893 418.572 305.967 419.051 306.115 419.418C306.393 420.109 306.91 420.455 307.668 420.455ZM311.688 414.941H312.76V421.188H311.688V414.941ZM311.688 412.58H312.76V413.775H311.688V412.58ZM314.57 413.16H315.637V414.912H316.639V415.773H315.637V419.869C315.637 420.088 315.711 420.234 315.859 420.309C315.941 420.352 316.078 420.373 316.27 420.373C316.32 420.373 316.375 420.373 316.434 420.373C316.492 420.369 316.561 420.363 316.639 420.355V421.188C316.518 421.223 316.391 421.248 316.258 421.264C316.129 421.279 315.988 421.287 315.836 421.287C315.344 421.287 315.01 421.162 314.834 420.912C314.658 420.658 314.57 420.33 314.57 419.928V415.773H313.721V414.912H314.57V413.16ZM317.699 414.941H318.771V421.188H317.699V414.941ZM317.699 412.58H318.771V413.775H317.699V412.58ZM322.861 420.508C323.561 420.508 324.039 420.244 324.297 419.717C324.559 419.186 324.689 418.596 324.689 417.947C324.689 417.361 324.596 416.885 324.408 416.518C324.111 415.939 323.6 415.65 322.873 415.65C322.229 415.65 321.76 415.896 321.467 416.389C321.174 416.881 321.027 417.475 321.027 418.17C321.027 418.838 321.174 419.395 321.467 419.84C321.76 420.285 322.225 420.508 322.861 420.508ZM322.902 414.73C323.711 414.73 324.395 415 324.953 415.539C325.512 416.078 325.791 416.871 325.791 417.918C325.791 418.93 325.545 419.766 325.053 420.426C324.561 421.086 323.797 421.416 322.762 421.416C321.898 421.416 321.213 421.125 320.705 420.543C320.197 419.957 319.943 419.172 319.943 418.188C319.943 417.133 320.211 416.293 320.746 415.668C321.281 415.043 322 414.73 322.902 414.73ZM327.051 414.912H328.053V415.803C328.35 415.436 328.664 415.172 328.996 415.012C329.328 414.852 329.697 414.771 330.104 414.771C330.994 414.771 331.596 415.082 331.908 415.703C332.08 416.043 332.166 416.529 332.166 417.162V421.188H331.094V417.232C331.094 416.85 331.037 416.541 330.924 416.307C330.736 415.916 330.396 415.721 329.904 415.721C329.654 415.721 329.449 415.746 329.289 415.797C329 415.883 328.746 416.055 328.527 416.312C328.352 416.52 328.236 416.734 328.182 416.957C328.131 417.176 328.105 417.49 328.105 417.9V421.188H327.051V414.912ZM337.07 412.551H338.125V415.762C338.375 415.445 338.6 415.223 338.799 415.094C339.139 414.871 339.562 414.76 340.07 414.76C340.98 414.76 341.598 415.078 341.922 415.715C342.098 416.062 342.186 416.545 342.186 417.162V421.188H341.102V417.232C341.102 416.771 341.043 416.434 340.926 416.219C340.734 415.875 340.375 415.703 339.848 415.703C339.41 415.703 339.014 415.854 338.658 416.154C338.303 416.455 338.125 417.023 338.125 417.859V421.188H337.07V412.551ZM344.559 419.518C344.559 419.822 344.67 420.062 344.893 420.238C345.115 420.414 345.379 420.502 345.684 420.502C346.055 420.502 346.414 420.416 346.762 420.244C347.348 419.959 347.641 419.492 347.641 418.844V417.994C347.512 418.076 347.346 418.145 347.143 418.199C346.939 418.254 346.74 418.293 346.545 418.316L345.906 418.398C345.523 418.449 345.236 418.529 345.045 418.639C344.721 418.822 344.559 419.115 344.559 419.518ZM347.113 417.385C347.355 417.354 347.518 417.252 347.6 417.08C347.646 416.986 347.67 416.852 347.67 416.676C347.67 416.316 347.541 416.057 347.283 415.896C347.029 415.732 346.664 415.65 346.188 415.65C345.637 415.65 345.246 415.799 345.016 416.096C344.887 416.26 344.803 416.504 344.764 416.828H343.779C343.799 416.055 344.049 415.518 344.529 415.217C345.014 414.912 345.574 414.76 346.211 414.76C346.949 414.76 347.549 414.9 348.01 415.182C348.467 415.463 348.695 415.9 348.695 416.494V420.109C348.695 420.219 348.717 420.307 348.76 420.373C348.807 420.439 348.902 420.473 349.047 420.473C349.094 420.473 349.146 420.471 349.205 420.467C349.264 420.459 349.326 420.449 349.393 420.438V421.217C349.229 421.264 349.104 421.293 349.018 421.305C348.932 421.316 348.814 421.322 348.666 421.322C348.303 421.322 348.039 421.193 347.875 420.936C347.789 420.799 347.729 420.605 347.693 420.355C347.479 420.637 347.17 420.881 346.768 421.088C346.365 421.295 345.922 421.398 345.438 421.398C344.855 421.398 344.379 421.223 344.008 420.871C343.641 420.516 343.457 420.072 343.457 419.541C343.457 418.959 343.639 418.508 344.002 418.188C344.365 417.867 344.842 417.67 345.432 417.596L347.113 417.385ZM350.459 412.58H351.514V421.188H350.459V412.58ZM353.131 412.58H354.186V421.188H353.131V412.58ZM226.41 433.246V432.438C227.172 432.363 227.703 432.24 228.004 432.068C228.305 431.893 228.529 431.48 228.678 430.832H229.51V439.188H228.385V433.246H226.41ZM232.199 433.246V432.438C232.961 432.363 233.492 432.24 233.793 432.068C234.094 431.893 234.318 431.48 234.467 430.832H235.299V439.188H234.174V433.246H232.199ZM238.756 437.91H239.98V439.188H238.756V437.91ZM242.219 433.246V432.438C242.98 432.363 243.512 432.24 243.812 432.068C244.113 431.893 244.338 431.48 244.486 430.832H245.318V439.188H244.193V433.246H242.219ZM250.996 430.797C252.082 430.797 252.867 431.244 253.352 432.139C253.727 432.83 253.914 433.777 253.914 434.98C253.914 436.121 253.744 437.064 253.404 437.811C252.912 438.881 252.107 439.416 250.99 439.416C249.982 439.416 249.232 438.979 248.74 438.104C248.33 437.373 248.125 436.393 248.125 435.162C248.125 434.209 248.248 433.391 248.494 432.707C248.955 431.434 249.789 430.797 250.996 430.797ZM250.984 438.455C251.531 438.455 251.967 438.213 252.291 437.729C252.615 437.244 252.777 436.342 252.777 435.021C252.777 434.068 252.66 433.285 252.426 432.672C252.191 432.055 251.736 431.746 251.061 431.746C250.439 431.746 249.984 432.039 249.695 432.625C249.41 433.207 249.268 434.066 249.268 435.203C249.268 436.059 249.359 436.746 249.543 437.266C249.824 438.059 250.305 438.455 250.984 438.455ZM258.268 435.303H261.209V436.387H258.268V435.303ZM266.254 433.246V432.438C267.016 432.363 267.547 432.24 267.848 432.068C268.148 431.893 268.373 431.48 268.521 430.832H269.354V439.188H268.229V433.246H266.254ZM272.043 433.246V432.438C272.805 432.363 273.336 432.24 273.637 432.068C273.938 431.893 274.162 431.48 274.311 430.832H275.143V439.188H274.018V433.246H272.043ZM278.6 437.91H279.824V439.188H278.6V437.91ZM282.062 433.246V432.438C282.824 432.363 283.355 432.24 283.656 432.068C283.957 431.893 284.182 431.48 284.33 430.832H285.162V439.188H284.037V433.246H282.062ZM287.969 439.188C288.008 438.465 288.156 437.836 288.414 437.301C288.676 436.766 289.184 436.279 289.938 435.842L291.062 435.191C291.566 434.898 291.92 434.648 292.123 434.441C292.443 434.117 292.604 433.746 292.604 433.328C292.604 432.84 292.457 432.453 292.164 432.168C291.871 431.879 291.48 431.734 290.992 431.734C290.27 431.734 289.77 432.008 289.492 432.555C289.344 432.848 289.262 433.254 289.246 433.773H288.174C288.186 433.043 288.32 432.447 288.578 431.986C289.035 431.174 289.842 430.768 290.998 430.768C291.959 430.768 292.66 431.027 293.102 431.547C293.547 432.066 293.77 432.645 293.77 433.281C293.77 433.953 293.533 434.527 293.061 435.004C292.787 435.281 292.297 435.617 291.59 436.012L290.787 436.457C290.404 436.668 290.104 436.869 289.885 437.061C289.494 437.4 289.248 437.777 289.146 438.191H293.729V439.188H287.969ZM298.762 433.246V432.438C299.523 432.363 300.055 432.24 300.355 432.068C300.656 431.893 300.881 431.48 301.029 430.832H301.861V439.188H300.736V433.246H298.762ZM307.539 430.797C308.625 430.797 309.41 431.244 309.895 432.139C310.27 432.83 310.457 433.777 310.457 434.98C310.457 436.121 310.287 437.064 309.947 437.811C309.455 438.881 308.65 439.416 307.533 439.416C306.525 439.416 305.775 438.979 305.283 438.104C304.873 437.373 304.668 436.393 304.668 435.162C304.668 434.209 304.791 433.391 305.037 432.707C305.498 431.434 306.332 430.797 307.539 430.797ZM307.527 438.455C308.074 438.455 308.51 438.213 308.834 437.729C309.158 437.244 309.32 436.342 309.32 435.021C309.32 434.068 309.203 433.285 308.969 432.672C308.734 432.055 308.279 431.746 307.604 431.746C306.982 431.746 306.527 432.039 306.238 432.625C305.953 433.207 305.811 434.066 305.811 435.203C305.811 436.059 305.902 436.746 306.086 437.266C306.367 438.059 306.848 438.455 307.527 438.455ZM312.555 437.518C312.555 437.822 312.666 438.062 312.889 438.238C313.111 438.414 313.375 438.502 313.68 438.502C314.051 438.502 314.41 438.416 314.758 438.244C315.344 437.959 315.637 437.492 315.637 436.844V435.994C315.508 436.076 315.342 436.145 315.139 436.199C314.936 436.254 314.736 436.293 314.541 436.316L313.902 436.398C313.52 436.449 313.232 436.529 313.041 436.639C312.717 436.822 312.555 437.115 312.555 437.518ZM315.109 435.385C315.352 435.354 315.514 435.252 315.596 435.08C315.643 434.986 315.666 434.852 315.666 434.676C315.666 434.316 315.537 434.057 315.279 433.896C315.025 433.732 314.66 433.65 314.184 433.65C313.633 433.65 313.242 433.799 313.012 434.096C312.883 434.26 312.799 434.504 312.76 434.828H311.775C311.795 434.055 312.045 433.518 312.525 433.217C313.01 432.912 313.57 432.76 314.207 432.76C314.945 432.76 315.545 432.9 316.006 433.182C316.463 433.463 316.691 433.9 316.691 434.494V438.109C316.691 438.219 316.713 438.307 316.756 438.373C316.803 438.439 316.898 438.473 317.043 438.473C317.09 438.473 317.143 438.471 317.201 438.467C317.26 438.459 317.322 438.449 317.389 438.438V439.217C317.225 439.264 317.1 439.293 317.014 439.305C316.928 439.316 316.811 439.322 316.662 439.322C316.299 439.322 316.035 439.193 315.871 438.936C315.785 438.799 315.725 438.605 315.689 438.355C315.475 438.637 315.166 438.881 314.764 439.088C314.361 439.295 313.918 439.398 313.434 439.398C312.852 439.398 312.375 439.223 312.004 438.871C311.637 438.516 311.453 438.072 311.453 437.541C311.453 436.959 311.635 436.508 311.998 436.188C312.361 435.867 312.838 435.67 313.428 435.596L315.109 435.385ZM318.426 432.912H319.469V433.803C319.719 433.494 319.945 433.27 320.148 433.129C320.496 432.891 320.891 432.771 321.332 432.771C321.832 432.771 322.234 432.895 322.539 433.141C322.711 433.281 322.867 433.488 323.008 433.762C323.242 433.426 323.518 433.178 323.834 433.018C324.15 432.854 324.506 432.771 324.9 432.771C325.744 432.771 326.318 433.076 326.623 433.686C326.787 434.014 326.869 434.455 326.869 435.01V439.188H325.773V434.828C325.773 434.41 325.668 434.123 325.457 433.967C325.25 433.811 324.996 433.732 324.695 433.732C324.281 433.732 323.924 433.871 323.623 434.148C323.326 434.426 323.178 434.889 323.178 435.537V439.188H322.105V435.092C322.105 434.666 322.055 434.355 321.953 434.16C321.793 433.867 321.494 433.721 321.057 433.721C320.658 433.721 320.295 433.875 319.967 434.184C319.643 434.492 319.48 435.051 319.48 435.859V439.188H318.426V432.912ZM328.146 435.303H331.088V436.387H328.146V435.303ZM335.154 430.762C336.092 430.762 336.744 431.006 337.111 431.494C337.482 431.979 337.668 432.479 337.668 432.994H336.625C336.562 432.662 336.463 432.402 336.326 432.215C336.072 431.863 335.688 431.688 335.172 431.688C334.582 431.688 334.113 431.961 333.766 432.508C333.418 433.051 333.225 433.83 333.186 434.846C333.428 434.49 333.732 434.225 334.1 434.049C334.436 433.893 334.811 433.814 335.225 433.814C335.928 433.814 336.541 434.039 337.064 434.488C337.588 434.938 337.85 435.607 337.85 436.498C337.85 437.26 337.602 437.936 337.105 438.525C336.609 439.111 335.902 439.404 334.984 439.404C334.199 439.404 333.521 439.107 332.951 438.514C332.381 437.916 332.096 436.912 332.096 435.502C332.096 434.459 332.223 433.574 332.477 432.848C332.965 431.457 333.857 430.762 335.154 430.762ZM335.078 438.467C335.633 438.467 336.047 438.281 336.32 437.91C336.598 437.535 336.736 437.094 336.736 436.586C336.736 436.156 336.613 435.748 336.367 435.361C336.121 434.971 335.674 434.775 335.025 434.775C334.572 434.775 334.174 434.926 333.83 435.227C333.49 435.527 333.32 435.98 333.32 436.586C333.32 437.117 333.475 437.564 333.783 437.928C334.096 438.287 334.527 438.467 335.078 438.467ZM341.746 438.479C342.238 438.479 342.646 438.273 342.971 437.863C343.299 437.449 343.463 436.832 343.463 436.012C343.463 435.512 343.391 435.082 343.246 434.723C342.973 434.031 342.473 433.686 341.746 433.686C341.016 433.686 340.516 434.051 340.246 434.781C340.102 435.172 340.029 435.668 340.029 436.27C340.029 436.754 340.102 437.166 340.246 437.506C340.52 438.154 341.02 438.479 341.746 438.479ZM339.016 432.941H340.041V433.773C340.252 433.488 340.482 433.268 340.732 433.111C341.088 432.877 341.506 432.76 341.986 432.76C342.697 432.76 343.301 433.033 343.797 433.58C344.293 434.123 344.541 434.9 344.541 435.912C344.541 437.279 344.184 438.256 343.469 438.842C343.016 439.213 342.488 439.398 341.887 439.398C341.414 439.398 341.018 439.295 340.697 439.088C340.51 438.971 340.301 438.77 340.07 438.484V441.689H339.016V432.941ZM345.777 432.912H346.82V433.803C347.07 433.494 347.297 433.27 347.5 433.129C347.848 432.891 348.242 432.771 348.684 432.771C349.184 432.771 349.586 432.895 349.891 433.141C350.062 433.281 350.219 433.488 350.359 433.762C350.594 433.426 350.869 433.178 351.186 433.018C351.502 432.854 351.857 432.771 352.252 432.771C353.096 432.771 353.67 433.076 353.975 433.686C354.139 434.014 354.221 434.455 354.221 435.01V439.188H353.125V434.828C353.125 434.41 353.02 434.123 352.809 433.967C352.602 433.811 352.348 433.732 352.047 433.732C351.633 433.732 351.275 433.871 350.975 434.148C350.678 434.426 350.529 434.889 350.529 435.537V439.188H349.457V435.092C349.457 434.666 349.406 434.355 349.305 434.16C349.145 433.867 348.846 433.721 348.408 433.721C348.01 433.721 347.646 433.875 347.318 434.184C346.994 434.492 346.832 435.051 346.832 435.859V439.188H345.777V432.912Z" fill="black"/>
</g>
<defs>
<clipPath id="clip0_300_391">
<rect width="407" height="471.369" fill="white" transform="translate(0.28418)"/>
</clipPath>
</defs>
</svg>
