<svg width="1921" height="1081" viewBox="0 0 1921 1081" fill="none" xmlns="http://www.w3.org/2000/svg">
<g clip-path="url(#clip0_3_3)">
<path d="M3261.94 821.763C3261.94 821.763 3147.57 928.578 2992.45 922.849C2786.02 915.231 2635.94 516.044 2504.49 658.843C2440.36 728.514 2615.81 987.287 2408.62 1086.98C2298.89 1139.78 1986.27 894.257 1941.79 354.219C1901.6 -133.697 2226.2 -131.442 2251.37 231.396C2276.54 594.226 2082.31 802.128 1938.47 806.817C1740.31 813.276 1703.39 490.787 1572.07 511.022C1440.74 531.257 1398.72 789.601 1266.22 808.911L1266.17 808.748C1180.72 826.631 1148.17 740.846 1143.29 731.678C1138.42 722.518 1122.06 686.38 1097.99 686.38C1078.18 684.968 1065.44 733.09 1068.26 734.51C1083.83 740.173 1096.57 724.603 1100.81 710.445C1113.55 660.903 1112 604.409 1096.57 564.652C1081.14 524.896 1028.39 466.056 1018.71 428.767C1009.03 391.477 1001.73 363.655 993.236 329.684C988.992 318.357 986.16 307.039 977.665 298.544C972.001 294.301 964.925 295.712 959.262 299.956C933.783 329.684 949.354 369.31 946.522 403.282C945.11 414.608 940.859 425.927 928.119 427.347C916.792 428.758 906.884 423.103 899.808 416.02C860.17 377.805 731.9 249.068 765.266 232.857C779.912 225.741 838.943 298.536 850.263 311.274C882.817 345.246 911.136 379.217 942.278 413.188C949.354 423.095 952.559 425.497 962.093 442.917C971.628 460.336 976.253 476.888 972.001 491.046C969.169 499.541 957.842 502.373 952.186 508.028C949.354 510.859 947.942 516.523 947.942 520.766C950.774 539.168 947.942 558.981 942.278 575.971C935.203 592.952 918.212 604.279 911.136 621.269C902.64 638.25 905.472 658.072 911.136 676.473C912.548 680.717 937.702 746.761 960.682 776.968C983.661 807.183 1021.55 849.154 1055.53 846.322C1065.44 839.247 993.163 738.193 935.203 707.605C909.724 692.035 885.657 679.297 865.842 656.652C857.347 646.745 850.271 636.839 844.607 625.512C834.7 605.699 824.792 587.297 813.465 568.896C802.137 551.914 790.818 539.168 779.49 523.598C770.995 510.859 737.816 463.963 734.375 450.592C730.935 437.221 732.801 428.231 743.333 428.783C758.45 429.578 837.929 520.125 874.33 553.318C878.768 557.366 885.706 563.443 889.901 561.813C899.419 558.113 887.069 541.999 881.405 534.916C848.851 503.776 787.978 434.422 786.558 433.002C763.911 404.694 738.424 380.629 724.273 348.077C724.273 346.665 714.365 321.181 724.273 312.694C729.937 308.451 737.012 308.451 742.676 312.694C765.323 335.339 783.726 359.404 804.961 383.469C820.532 399.038 850.263 433.01 850.263 433.01C850.263 433.01 893.715 489.399 902.64 478.308C911.566 467.217 879.393 438.754 858.556 412.775C837.718 386.795 806.381 357.992 782.314 326.852C763.911 304.207 748.34 282.974 729.937 261.741C725.693 257.498 720.029 253.246 714.365 254.666C688.887 260.329 705.87 292.881 704.458 312.702C703.046 321.197 694.55 324.029 691.718 331.104C690.307 335.347 690.307 342.43 691.718 346.674C700.214 365.075 710.122 383.477 718.617 401.878C720.029 408.953 718.617 417.448 710.122 421.691C701.626 425.935 703.046 437.261 703.046 445.756C705.878 465.57 712.954 483.971 725.693 500.961C746.928 533.512 766.743 564.66 780.902 600.044C787.978 618.445 789.398 638.258 796.474 656.66C803.549 675.062 814.877 690.631 827.616 704.79C870.086 750.088 910.398 777.308 921.717 842.42C924.549 862.233 915.526 894.476 888.457 912.359C861.387 930.249 782.484 930.395 686.769 867.572L686.809 867.734C653.095 847.905 610.057 778.16 544.713 795.069C479.369 811.978 386.282 930.857 325.206 904.943C225.198 862.517 385.584 649.309 291.24 595.159C196.895 541.001 -11.0486 840.748 -201.247 870.063C-391.445 899.385 -594.342 675.159 -1125.83 788.935C-1657.32 902.703 -1057.64 1125.27 -829.59 1109.68C-525.801 1088.93 -72.936 666.291 -172.944 551.2C-248.845 463.858 -529.574 634.218 -603.162 560.636C-659.929 503.874 -619.609 319.25 -369.187 143.664C-118.765 -31.921 49.792 198.974 -307.186 330.471C-857.252 533.082 -1144.5 257.222 -1144.5 257.222" stroke="white" stroke-width="13.8219" stroke-miterlimit="10"/>
<path d="M585.871 69.121H598.781C601.333 69.121 603.391 69.8437 604.953 71.289C606.516 72.7213 607.297 74.7395 607.297 77.3437C607.297 79.5833 606.6 81.5364 605.207 83.2031C603.814 84.8567 601.672 85.6835 598.781 85.6835H589.758V97.8124H585.871V69.121ZM603.371 77.3632C603.371 75.2538 602.59 73.8216 601.027 73.0663C600.168 72.6627 598.989 72.4609 597.492 72.4609H589.758V82.4023H597.492C599.237 82.4023 600.65 82.0312 601.73 81.289C602.824 80.5468 603.371 79.2382 603.371 77.3632ZM615.226 76.8945V90.7812C615.226 91.8489 615.396 92.7213 615.734 93.3984C616.359 94.6484 617.525 95.2734 619.23 95.2734C621.678 95.2734 623.345 94.1796 624.23 91.9921C624.712 90.8203 624.953 89.2122 624.953 87.1679V76.8945H628.469V97.8124H625.148L625.187 94.7265C624.732 95.5208 624.165 96.1913 623.488 96.7382C622.147 97.832 620.519 98.3788 618.605 98.3788C615.624 98.3788 613.592 97.3828 612.512 95.3906C611.926 94.3229 611.633 92.8971 611.633 91.1132V76.8945H615.226ZM636.066 91.2499C636.17 92.4218 636.463 93.3203 636.945 93.9453C637.831 95.0781 639.367 95.6445 641.555 95.6445C642.857 95.6445 644.002 95.3645 644.992 94.8046C645.982 94.2317 646.476 93.3528 646.476 92.1679C646.476 91.2695 646.079 90.5859 645.285 90.1171C644.777 89.8307 643.775 89.4986 642.277 89.121L639.484 88.4179C637.7 87.9752 636.385 87.4804 635.539 86.9335C634.029 85.983 633.273 84.6679 633.273 82.9882C633.273 81.0091 633.983 79.4075 635.402 78.1835C636.835 76.9596 638.755 76.3476 641.164 76.3476C644.315 76.3476 646.587 77.2721 647.98 79.121C648.853 80.2929 649.276 81.5559 649.25 82.9101H645.93C645.864 82.1158 645.585 81.3932 645.09 80.7421C644.282 79.8176 642.883 79.3554 640.891 79.3554C639.562 79.3554 638.553 79.6093 637.863 80.1171C637.186 80.6249 636.848 81.2955 636.848 82.1288C636.848 83.0403 637.297 83.7695 638.195 84.3163C638.716 84.6419 639.484 84.9283 640.5 85.1757L642.824 85.7421C645.35 86.3541 647.043 86.9466 647.902 87.5195C649.269 88.4179 649.953 89.8307 649.953 91.7578C649.953 93.6197 649.243 95.2278 647.824 96.582C646.418 97.9361 644.269 98.6132 641.379 98.6132C638.267 98.6132 636.06 97.9101 634.758 96.5038C633.469 95.0846 632.779 93.3333 632.687 91.2499H636.066ZM656.672 92.246C656.672 93.2617 657.043 94.0624 657.785 94.6484C658.527 95.2343 659.406 95.5273 660.422 95.5273C661.659 95.5273 662.857 95.2408 664.016 94.6679C665.969 93.7174 666.945 92.1614 666.945 89.9999V87.1679C666.516 87.4413 665.962 87.6692 665.285 87.8515C664.608 88.0338 663.944 88.164 663.293 88.2421L661.164 88.5156C659.888 88.6848 658.931 88.9518 658.293 89.3163C657.212 89.9283 656.672 90.9049 656.672 92.246ZM665.187 85.1367C665.995 85.0325 666.535 84.6939 666.808 84.121C666.965 83.8085 667.043 83.3593 667.043 82.7734C667.043 81.5755 666.613 80.7096 665.754 80.1757C664.907 79.6288 663.69 79.3554 662.101 79.3554C660.266 79.3554 658.963 79.8502 658.195 80.8398C657.766 81.3867 657.486 82.2005 657.355 83.2812H654.074C654.139 80.7031 654.973 78.9127 656.574 77.9101C658.189 76.8945 660.057 76.3867 662.18 76.3867C664.641 76.3867 666.639 76.8554 668.176 77.7929C669.699 78.7304 670.461 80.1887 670.461 82.1679V94.2187C670.461 94.5833 670.532 94.8762 670.676 95.0976C670.832 95.3189 671.151 95.4296 671.633 95.4296C671.789 95.4296 671.965 95.4231 672.16 95.4101C672.355 95.3841 672.564 95.3515 672.785 95.3124V97.9101C672.238 98.0663 671.821 98.164 671.535 98.2031C671.249 98.2421 670.858 98.2617 670.363 98.2617C669.152 98.2617 668.273 97.832 667.726 96.9726C667.44 96.5169 667.238 95.8723 667.121 95.039C666.405 95.9765 665.376 96.7903 664.035 97.4804C662.694 98.1705 661.216 98.5156 659.601 98.5156C657.661 98.5156 656.073 97.9296 654.836 96.7578C653.612 95.5729 653 94.095 653 92.3242C653 90.3841 653.605 88.8801 654.816 87.8124C656.027 86.7447 657.616 86.0872 659.582 85.8398L665.187 85.1367ZM676.242 76.8945H679.582V79.8632C680.571 78.6393 681.62 77.7604 682.726 77.2265C683.833 76.6926 685.064 76.4257 686.418 76.4257C689.387 76.4257 691.392 77.4609 692.433 79.5312C693.006 80.664 693.293 82.2851 693.293 84.3945V97.8124H689.719V84.6288C689.719 83.3528 689.53 82.3242 689.152 81.5429C688.527 80.2408 687.394 79.5898 685.754 79.5898C684.92 79.5898 684.237 79.6744 683.703 79.8437C682.739 80.1301 681.893 80.7031 681.164 81.5624C680.578 82.2525 680.194 82.9687 680.012 83.7109C679.842 84.44 679.758 85.4882 679.758 86.8554V97.8124H676.242V76.8945ZM710.109 69.121H714.699L729.191 92.3632V69.121H732.883V97.8124H728.527L713.82 74.5898V97.8124H710.109V69.121ZM741.242 92.246C741.242 93.2617 741.613 94.0624 742.355 94.6484C743.098 95.2343 743.976 95.5273 744.992 95.5273C746.229 95.5273 747.427 95.2408 748.586 94.6679C750.539 93.7174 751.516 92.1614 751.516 89.9999V87.1679C751.086 87.4413 750.532 87.6692 749.855 87.8515C749.178 88.0338 748.514 88.164 747.863 88.2421L745.734 88.5156C744.458 88.6848 743.501 88.9518 742.863 89.3163C741.782 89.9283 741.242 90.9049 741.242 92.246ZM749.758 85.1367C750.565 85.0325 751.105 84.6939 751.379 84.121C751.535 83.8085 751.613 83.3593 751.613 82.7734C751.613 81.5755 751.183 80.7096 750.324 80.1757C749.478 79.6288 748.26 79.3554 746.672 79.3554C744.836 79.3554 743.534 79.8502 742.766 80.8398C742.336 81.3867 742.056 82.2005 741.926 83.2812H738.644C738.71 80.7031 739.543 78.9127 741.144 77.9101C742.759 76.8945 744.627 76.3867 746.75 76.3867C749.211 76.3867 751.21 76.8554 752.746 77.7929C754.269 78.7304 755.031 80.1887 755.031 82.1679V94.2187C755.031 94.5833 755.103 94.8762 755.246 95.0976C755.402 95.3189 755.721 95.4296 756.203 95.4296C756.359 95.4296 756.535 95.4231 756.73 95.4101C756.926 95.3841 757.134 95.3515 757.355 95.3124V97.9101C756.808 98.0663 756.392 98.164 756.105 98.2031C755.819 98.2421 755.428 98.2617 754.933 98.2617C753.723 98.2617 752.844 97.832 752.297 96.9726C752.01 96.5169 751.808 95.8723 751.691 95.039C750.975 95.9765 749.946 96.7903 748.605 97.4804C747.264 98.1705 745.786 98.5156 744.172 98.5156C742.232 98.5156 740.643 97.9296 739.406 96.7578C738.182 95.5729 737.57 94.095 737.57 92.3242C737.57 90.3841 738.176 88.8801 739.387 87.8124C740.598 86.7447 742.186 86.0872 744.152 85.8398L749.758 85.1367ZM761.516 71.0546H765.07V76.8945H768.41V79.7656H765.07V93.4179C765.07 94.1471 765.318 94.6354 765.812 94.8828C766.086 95.026 766.542 95.0976 767.18 95.0976C767.349 95.0976 767.531 95.0976 767.726 95.0976C767.922 95.0846 768.15 95.065 768.41 95.039V97.8124C768.006 97.9296 767.583 98.0143 767.141 98.0663C766.711 98.1184 766.242 98.1445 765.734 98.1445C764.094 98.1445 762.98 97.7278 762.394 96.8945C761.808 96.0481 761.516 94.9544 761.516 93.6132V79.7656H758.683V76.8945H761.516V71.0546ZM771.945 76.9921H775.519V97.8124H771.945V76.9921ZM771.945 69.121H775.519V73.1054H771.945V69.121ZM789.152 95.5468C791.483 95.5468 793.078 94.6679 793.937 92.9101C794.81 91.1393 795.246 89.1731 795.246 87.0117C795.246 85.0585 794.933 83.47 794.308 82.246C793.319 80.3189 791.613 79.3554 789.191 79.3554C787.043 79.3554 785.48 80.1757 784.504 81.8163C783.527 83.457 783.039 85.4361 783.039 87.7538C783.039 89.9804 783.527 91.8359 784.504 93.3203C785.48 94.8046 787.03 95.5468 789.152 95.5468ZM789.289 76.289C791.984 76.289 794.263 77.1874 796.125 78.9843C797.987 80.7812 798.918 83.4244 798.918 86.914C798.918 90.2864 798.098 93.0729 796.457 95.2734C794.816 97.4739 792.271 98.5742 788.82 98.5742C785.943 98.5742 783.657 97.6041 781.965 95.664C780.272 93.7109 779.426 91.0937 779.426 87.8124C779.426 84.2968 780.318 81.4973 782.101 79.414C783.885 77.3307 786.281 76.289 789.289 76.289ZM803.117 76.8945H806.457V79.8632C807.446 78.6393 808.495 77.7604 809.601 77.2265C810.708 76.6926 811.939 76.4257 813.293 76.4257C816.262 76.4257 818.267 77.4609 819.308 79.5312C819.881 80.664 820.168 82.2851 820.168 84.3945V97.8124H816.594V84.6288C816.594 83.3528 816.405 82.3242 816.027 81.5429C815.402 80.2408 814.269 79.5898 812.629 79.5898C811.795 79.5898 811.112 79.6744 810.578 79.8437C809.614 80.1301 808.768 80.7031 808.039 81.5624C807.453 82.2525 807.069 82.9687 806.887 83.7109C806.717 84.44 806.633 85.4882 806.633 86.8554V97.8124H803.117V76.8945ZM828.078 92.246C828.078 93.2617 828.449 94.0624 829.191 94.6484C829.933 95.2343 830.812 95.5273 831.828 95.5273C833.065 95.5273 834.263 95.2408 835.422 94.6679C837.375 93.7174 838.351 92.1614 838.351 89.9999V87.1679C837.922 87.4413 837.368 87.6692 836.691 87.8515C836.014 88.0338 835.35 88.164 834.699 88.2421L832.57 88.5156C831.294 88.6848 830.337 88.9518 829.699 89.3163C828.618 89.9283 828.078 90.9049 828.078 92.246ZM836.594 85.1367C837.401 85.0325 837.941 84.6939 838.215 84.121C838.371 83.8085 838.449 83.3593 838.449 82.7734C838.449 81.5755 838.019 80.7096 837.16 80.1757C836.314 79.6288 835.096 79.3554 833.508 79.3554C831.672 79.3554 830.37 79.8502 829.601 80.8398C829.172 81.3867 828.892 82.2005 828.762 83.2812H825.48C825.545 80.7031 826.379 78.9127 827.98 77.9101C829.595 76.8945 831.463 76.3867 833.586 76.3867C836.047 76.3867 838.045 76.8554 839.582 77.7929C841.105 78.7304 841.867 80.1887 841.867 82.1679V94.2187C841.867 94.5833 841.939 94.8762 842.082 95.0976C842.238 95.3189 842.557 95.4296 843.039 95.4296C843.195 95.4296 843.371 95.4231 843.566 95.4101C843.762 95.3841 843.97 95.3515 844.191 95.3124V97.9101C843.644 98.0663 843.228 98.164 842.941 98.2031C842.655 98.2421 842.264 98.2617 841.769 98.2617C840.558 98.2617 839.68 97.832 839.133 96.9726C838.846 96.5169 838.644 95.8723 838.527 95.039C837.811 95.9765 836.782 96.7903 835.441 97.4804C834.1 98.1705 832.622 98.5156 831.008 98.5156C829.068 98.5156 827.479 97.9296 826.242 96.7578C825.018 95.5729 824.406 94.095 824.406 92.3242C824.406 90.3841 825.012 88.8801 826.223 87.8124C827.433 86.7447 829.022 86.0872 830.988 85.8398L836.594 85.1367ZM847.746 69.121H851.262V97.8124H847.746V69.121ZM872.375 69.121V86.8554C872.375 88.9387 872.766 90.6705 873.547 92.0507C874.706 94.1341 876.659 95.1757 879.406 95.1757C882.7 95.1757 884.94 94.0494 886.125 91.7968C886.763 90.5729 887.082 88.9257 887.082 86.8554V69.121H891.027V85.2343C891.027 88.763 890.552 91.4778 889.601 93.3788C887.857 96.8424 884.562 98.5742 879.719 98.5742C874.875 98.5742 871.587 96.8424 869.855 93.3788C868.905 91.4778 868.43 88.763 868.43 85.2343V69.121H872.375ZM896.594 76.8945H899.933V79.8632C900.923 78.6393 901.971 77.7604 903.078 77.2265C904.185 76.6926 905.415 76.4257 906.769 76.4257C909.738 76.4257 911.743 77.4609 912.785 79.5312C913.358 80.664 913.644 82.2851 913.644 84.3945V97.8124H910.07V84.6288C910.07 83.3528 909.881 82.3242 909.504 81.5429C908.879 80.2408 907.746 79.5898 906.105 79.5898C905.272 79.5898 904.588 79.6744 904.055 79.8437C903.091 80.1301 902.245 80.7031 901.516 81.5624C900.93 82.2525 900.545 82.9687 900.363 83.7109C900.194 84.44 900.109 85.4882 900.109 86.8554V97.8124H896.594V76.8945ZM918.859 76.9921H922.433V97.8124H918.859V76.9921ZM918.859 69.121H922.433V73.1054H918.859V69.121ZM929.484 76.8945L935.07 93.9257L940.91 76.8945H944.758L936.867 97.8124H933.117L925.402 76.8945H929.484ZM945.637 93.5546H949.719V97.8124H945.637V93.5546ZM978.547 94.4921C979.862 94.4921 980.943 94.3554 981.789 94.082C983.299 93.5742 984.536 92.5976 985.5 91.1523C986.268 89.9934 986.821 88.5091 987.16 86.6992C987.355 85.6184 987.453 84.6158 987.453 83.6913C987.453 80.1367 986.743 77.3762 985.324 75.4101C983.918 73.4439 981.646 72.4609 978.508 72.4609H971.613V94.4921H978.547ZM967.707 69.121H979.328C983.273 69.121 986.333 70.5208 988.508 73.3203C990.448 75.8463 991.418 79.082 991.418 83.0273C991.418 86.0742 990.845 88.8281 989.699 91.289C987.681 95.638 984.211 97.8124 979.289 97.8124H967.707V69.121ZM1004.68 76.4257C1006.16 76.4257 1007.6 76.7773 1009 77.4804C1010.39 78.1705 1011.45 79.0689 1012.18 80.1757C1012.88 81.2304 1013.35 82.4609 1013.59 83.8671C1013.79 84.8307 1013.9 86.3671 1013.9 88.4765H998.566C998.631 90.5989 999.133 92.3046 1000.07 93.5937C1001.01 94.8697 1002.46 95.5078 1004.43 95.5078C1006.26 95.5078 1007.73 94.9023 1008.82 93.6913C1009.45 92.9882 1009.89 92.1744 1010.15 91.2499H1013.61C1013.51 92.0182 1013.21 92.8775 1012.69 93.8281C1012.18 94.7656 1011.61 95.5338 1010.97 96.1328C1009.9 97.1744 1008.58 97.8775 1007 98.2421C1006.16 98.4505 1005.2 98.5546 1004.13 98.5546C1001.53 98.5546 999.321 97.6106 997.512 95.7226C995.702 93.8216 994.797 91.1653 994.797 87.7538C994.797 84.3945 995.708 81.6666 997.531 79.5703C999.354 77.4739 1001.74 76.4257 1004.68 76.4257ZM1010.29 85.6835C1010.14 84.1601 1009.81 82.9426 1009.29 82.0312C1008.33 80.3385 1006.72 79.4921 1004.46 79.4921C1002.85 79.4921 1001.5 80.0781 1000.4 81.2499C999.308 82.4088 998.729 83.8867 998.664 85.6835H1010.29ZM1020.32 91.2499C1020.43 92.4218 1020.72 93.3203 1021.2 93.9453C1022.09 95.0781 1023.62 95.6445 1025.81 95.6445C1027.11 95.6445 1028.26 95.3645 1029.25 94.8046C1030.24 94.2317 1030.73 93.3528 1030.73 92.1679C1030.73 91.2695 1030.34 90.5859 1029.54 90.1171C1029.04 89.8307 1028.03 89.4986 1026.54 89.121L1023.74 88.4179C1021.96 87.9752 1020.64 87.4804 1019.8 86.9335C1018.29 85.983 1017.53 84.6679 1017.53 82.9882C1017.53 81.0091 1018.24 79.4075 1019.66 78.1835C1021.09 76.9596 1023.01 76.3476 1025.42 76.3476C1028.57 76.3476 1030.84 77.2721 1032.24 79.121C1033.11 80.2929 1033.53 81.5559 1033.51 82.9101H1030.19C1030.12 82.1158 1029.84 81.3932 1029.35 80.7421C1028.54 79.8176 1027.14 79.3554 1025.15 79.3554C1023.82 79.3554 1022.81 79.6093 1022.12 80.1171C1021.44 80.6249 1021.11 81.2955 1021.11 82.1288C1021.11 83.0403 1021.55 83.7695 1022.45 84.3163C1022.97 84.6419 1023.74 84.9283 1024.76 85.1757L1027.08 85.7421C1029.61 86.3541 1031.3 86.9466 1032.16 87.5195C1033.53 88.4179 1034.21 89.8307 1034.21 91.7578C1034.21 93.6197 1033.5 95.2278 1032.08 96.582C1030.68 97.9361 1028.53 98.6132 1025.64 98.6132C1022.52 98.6132 1020.32 97.9101 1019.02 96.5038C1017.73 95.0846 1017.04 93.3333 1016.95 91.2499H1020.32ZM1038.23 76.9921H1041.81V97.8124H1038.23V76.9921ZM1038.23 69.121H1041.81V73.1054H1038.23V69.121ZM1054.52 76.5234C1056.16 76.5234 1057.6 76.927 1058.82 77.7343C1059.48 78.19 1060.16 78.8541 1060.85 79.7265V77.0898H1064.09V96.1132C1064.09 98.7695 1063.7 100.866 1062.92 102.402C1061.46 105.241 1058.71 106.66 1054.66 106.66C1052.41 106.66 1050.51 106.152 1048.98 105.137C1047.44 104.134 1046.58 102.559 1046.4 100.41H1049.97C1050.14 101.348 1050.48 102.07 1050.99 102.578C1051.78 103.359 1053.03 103.75 1054.74 103.75C1057.43 103.75 1059.2 102.799 1060.03 100.898C1060.53 99.7786 1060.75 97.7799 1060.71 94.9023C1060.01 95.97 1059.17 96.7643 1058.18 97.2851C1057.19 97.8059 1055.88 98.0663 1054.25 98.0663C1051.98 98.0663 1050 97.2656 1048.29 95.664C1046.6 94.0494 1045.75 91.3867 1045.75 87.6757C1045.75 84.1731 1046.61 81.4387 1048.31 79.4726C1050.03 77.5064 1052.1 76.5234 1054.52 76.5234ZM1060.85 87.2656C1060.85 84.6744 1060.32 82.7538 1059.25 81.5038C1058.18 80.2538 1056.82 79.6288 1055.17 79.6288C1052.69 79.6288 1051 80.7877 1050.09 83.1054C1049.61 84.3424 1049.37 85.9635 1049.37 87.9687C1049.37 90.3255 1049.84 92.1223 1050.79 93.3593C1051.76 94.5833 1053.05 95.1953 1054.66 95.1953C1057.19 95.1953 1058.96 94.0559 1059.99 91.7773C1060.56 90.4882 1060.85 88.9843 1060.85 87.2656ZM1069.41 76.8945H1072.75V79.8632C1073.74 78.6393 1074.78 77.7604 1075.89 77.2265C1077 76.6926 1078.23 76.4257 1079.58 76.4257C1082.55 76.4257 1084.56 77.4609 1085.6 79.5312C1086.17 80.664 1086.46 82.2851 1086.46 84.3945V97.8124H1082.88V84.6288C1082.88 83.3528 1082.69 82.3242 1082.32 81.5429C1081.69 80.2408 1080.56 79.5898 1078.92 79.5898C1078.08 79.5898 1077.4 79.6744 1076.87 79.8437C1075.9 80.1301 1075.06 80.7031 1074.33 81.5624C1073.74 82.2525 1073.36 82.9687 1073.18 83.7109C1073.01 84.44 1072.92 85.4882 1072.92 86.8554V97.8124H1069.41V76.8945ZM1111.65 80.2734C1112.89 79.401 1113.74 78.6913 1114.21 78.1445C1114.98 77.2591 1115.36 76.276 1115.36 75.1953C1115.36 74.3489 1115.08 73.6197 1114.52 73.0078C1113.96 72.3958 1113.21 72.0898 1112.26 72.0898C1110.81 72.0898 1109.81 72.5716 1109.25 73.5351C1108.96 74.0299 1108.82 74.5703 1108.82 75.1562C1108.82 75.9505 1109.04 76.7122 1109.46 77.4413C1109.91 78.1705 1110.64 79.1145 1111.65 80.2734ZM1110.75 95.3906C1112.2 95.3906 1113.44 95.0585 1114.48 94.3945C1115.53 93.7304 1116.33 92.9882 1116.89 92.1679L1110.4 84.2578C1108.57 85.4817 1107.37 86.4192 1106.81 87.0703C1105.95 88.0468 1105.52 89.2382 1105.52 90.6445C1105.52 92.1679 1106.07 93.3398 1107.18 94.1601C1108.3 94.9804 1109.49 95.3906 1110.75 95.3906ZM1108.45 81.8554C1107.24 80.4622 1106.42 79.2903 1106.01 78.3398C1105.6 77.3893 1105.4 76.4713 1105.4 75.5859C1105.4 73.7369 1106.03 72.207 1107.28 70.996C1108.53 69.7721 1110.2 69.1601 1112.3 69.1601C1114.29 69.1601 1115.84 69.7265 1116.96 70.8593C1118.08 71.9921 1118.64 73.3463 1118.64 74.9218C1118.64 76.7578 1118.06 78.3658 1116.91 79.746C1116.23 80.5533 1115.1 81.4843 1113.51 82.539L1118.74 88.789C1119.09 87.7473 1119.33 86.9726 1119.46 86.4648C1119.61 85.9439 1119.75 85.2213 1119.89 84.2968H1123.23C1123.01 86.1328 1122.57 87.8971 1121.91 89.5898C1121.24 91.2695 1120.91 91.9466 1120.91 91.621L1126.01 97.8124H1121.48L1118.78 94.5312C1117.71 95.69 1116.74 96.5364 1115.85 97.0703C1114.3 98.0078 1112.52 98.4765 1110.5 98.4765C1107.52 98.4765 1105.35 97.6757 1104 96.0742C1102.64 94.4596 1101.96 92.6432 1101.96 90.6249C1101.96 88.4505 1102.62 86.6341 1103.94 85.1757C1104.74 84.2903 1106.25 83.1835 1108.45 81.8554ZM1161.26 69.121V72.539H1151.59V97.8124H1147.65V72.539H1137.98V69.121H1161.26ZM1168.62 76.4257C1170.11 76.4257 1171.55 76.7773 1172.94 77.4804C1174.33 78.1705 1175.4 79.0689 1176.12 80.1757C1176.83 81.2304 1177.3 82.4609 1177.53 83.8671C1177.74 84.8307 1177.84 86.3671 1177.84 88.4765H1162.51C1162.58 90.5989 1163.08 92.3046 1164.02 93.5937C1164.95 94.8697 1166.4 95.5078 1168.37 95.5078C1170.21 95.5078 1171.67 94.9023 1172.77 93.6913C1173.39 92.9882 1173.83 92.1744 1174.09 91.2499H1177.55C1177.46 92.0182 1177.15 92.8775 1176.63 93.8281C1176.12 94.7656 1175.55 95.5338 1174.91 96.1328C1173.85 97.1744 1172.52 97.8775 1170.95 98.2421C1170.1 98.4505 1169.15 98.5546 1168.08 98.5546C1165.47 98.5546 1163.27 97.6106 1161.46 95.7226C1159.65 93.8216 1158.74 91.1653 1158.74 87.7538C1158.74 84.3945 1159.65 81.6666 1161.48 79.5703C1163.3 77.4739 1165.68 76.4257 1168.62 76.4257ZM1174.23 85.6835C1174.09 84.1601 1173.76 82.9426 1173.23 82.0312C1172.27 80.3385 1170.66 79.4921 1168.41 79.4921C1166.8 79.4921 1165.44 80.0781 1164.35 81.2499C1163.25 82.4088 1162.67 83.8867 1162.61 85.6835H1174.23ZM1190.25 76.289C1192.6 76.289 1194.52 76.8619 1195.99 78.0078C1197.47 79.1536 1198.36 81.1262 1198.66 83.9257H1195.25C1195.04 82.6367 1194.56 81.5689 1193.82 80.7226C1193.08 79.8632 1191.89 79.4335 1190.25 79.4335C1188.01 79.4335 1186.4 80.5273 1185.44 82.7148C1184.82 84.1341 1184.5 85.8854 1184.5 87.9687C1184.5 90.065 1184.95 91.8294 1185.83 93.2617C1186.72 94.6939 1188.11 95.4101 1190.01 95.4101C1191.47 95.4101 1192.62 94.9674 1193.47 94.082C1194.33 93.1835 1194.92 91.9596 1195.25 90.4101H1198.66C1198.27 93.1835 1197.3 95.2148 1195.73 96.5038C1194.17 97.7799 1192.17 98.4179 1189.74 98.4179C1187 98.4179 1184.82 97.4218 1183.2 95.4296C1181.57 93.4244 1180.75 90.9244 1180.75 87.9296C1180.75 84.2578 1181.65 81.3997 1183.43 79.3554C1185.21 77.3111 1187.49 76.289 1190.25 76.289ZM1202.18 69.0234H1205.7V79.7265C1206.53 78.6718 1207.28 77.9296 1207.94 77.4999C1209.07 76.7578 1210.49 76.3867 1212.18 76.3867C1215.21 76.3867 1217.27 77.4479 1218.35 79.5703C1218.94 80.7291 1219.23 82.3372 1219.23 84.3945V97.8124H1215.62V84.6288C1215.62 83.0924 1215.42 81.9661 1215.03 81.2499C1214.39 80.1041 1213.2 79.5312 1211.44 79.5312C1209.98 79.5312 1208.66 80.0325 1207.47 81.0351C1206.29 82.0377 1205.7 83.9322 1205.7 86.7187V97.8124H1202.18V69.0234ZM1224.45 76.8945H1227.79V79.8632C1228.77 78.6393 1229.82 77.7604 1230.93 77.2265C1232.04 76.6926 1233.27 76.4257 1234.62 76.4257C1237.59 76.4257 1239.59 77.4609 1240.64 79.5312C1241.21 80.664 1241.5 82.2851 1241.5 84.3945V97.8124H1237.92V84.6288C1237.92 83.3528 1237.73 82.3242 1237.36 81.5429C1236.73 80.2408 1235.6 79.5898 1233.96 79.5898C1233.12 79.5898 1232.44 79.6744 1231.91 79.8437C1230.94 80.1301 1230.1 80.7031 1229.37 81.5624C1228.78 82.2525 1228.4 82.9687 1228.21 83.7109C1228.05 84.44 1227.96 85.4882 1227.96 86.8554V97.8124H1224.45V76.8945ZM1255.01 95.5468C1257.34 95.5468 1258.94 94.6679 1259.8 92.9101C1260.67 91.1393 1261.11 89.1731 1261.11 87.0117C1261.11 85.0585 1260.79 83.47 1260.17 82.246C1259.18 80.3189 1257.47 79.3554 1255.05 79.3554C1252.9 79.3554 1251.34 80.1757 1250.36 81.8163C1249.39 83.457 1248.9 85.4361 1248.9 87.7538C1248.9 89.9804 1249.39 91.8359 1250.36 93.3203C1251.34 94.8046 1252.89 95.5468 1255.01 95.5468ZM1255.15 76.289C1257.84 76.289 1260.12 77.1874 1261.98 78.9843C1263.85 80.7812 1264.78 83.4244 1264.78 86.914C1264.78 90.2864 1263.96 93.0729 1262.32 95.2734C1260.68 97.4739 1258.13 98.5742 1254.68 98.5742C1251.8 98.5742 1249.52 97.6041 1247.82 95.664C1246.13 93.7109 1245.29 91.0937 1245.29 87.8124C1245.29 84.2968 1246.18 81.4973 1247.96 79.414C1249.74 77.3307 1252.14 76.289 1255.15 76.289ZM1269.07 69.121H1272.59V97.8124H1269.07V69.121ZM1286.18 95.5468C1288.51 95.5468 1290.11 94.6679 1290.97 92.9101C1291.84 91.1393 1292.28 89.1731 1292.28 87.0117C1292.28 85.0585 1291.96 83.47 1291.34 82.246C1290.35 80.3189 1288.64 79.3554 1286.22 79.3554C1284.07 79.3554 1282.51 80.1757 1281.54 81.8163C1280.56 83.457 1280.07 85.4361 1280.07 87.7538C1280.07 89.9804 1280.56 91.8359 1281.54 93.3203C1282.51 94.8046 1284.06 95.5468 1286.18 95.5468ZM1286.32 76.289C1289.02 76.289 1291.29 77.1874 1293.16 78.9843C1295.02 80.7812 1295.95 83.4244 1295.95 86.914C1295.95 90.2864 1295.13 93.0729 1293.49 95.2734C1291.85 97.4739 1289.3 98.5742 1285.85 98.5742C1282.97 98.5742 1280.69 97.6041 1279 95.664C1277.3 93.7109 1276.46 91.0937 1276.46 87.8124C1276.46 84.2968 1277.35 81.4973 1279.13 79.414C1280.92 77.3307 1283.31 76.289 1286.32 76.289ZM1307.53 76.5234C1309.17 76.5234 1310.6 76.927 1311.83 77.7343C1312.49 78.19 1313.17 78.8541 1313.86 79.7265V77.0898H1317.1V96.1132C1317.1 98.7695 1316.71 100.866 1315.93 102.402C1314.47 105.241 1311.72 106.66 1307.67 106.66C1305.42 106.66 1303.52 106.152 1301.98 105.137C1300.45 104.134 1299.59 102.559 1299.41 100.41H1302.98C1303.15 101.348 1303.49 102.07 1304 102.578C1304.79 103.359 1306.04 103.75 1307.75 103.75C1310.44 103.75 1312.21 102.799 1313.04 100.898C1313.53 99.7786 1313.76 97.7799 1313.72 94.9023C1313.02 95.97 1312.17 96.7643 1311.18 97.2851C1310.19 97.8059 1308.89 98.0663 1307.26 98.0663C1304.99 98.0663 1303.01 97.2656 1301.3 95.664C1299.61 94.0494 1298.76 91.3867 1298.76 87.6757C1298.76 84.1731 1299.61 81.4387 1301.32 79.4726C1303.04 77.5064 1305.11 76.5234 1307.53 76.5234ZM1313.86 87.2656C1313.86 84.6744 1313.33 82.7538 1312.26 81.5038C1311.19 80.2538 1309.83 79.6288 1308.18 79.6288C1305.7 79.6288 1304.01 80.7877 1303.1 83.1054C1302.62 84.3424 1302.37 85.9635 1302.37 87.9687C1302.37 90.3255 1302.85 92.1223 1303.8 93.3593C1304.76 94.5833 1306.05 95.1953 1307.67 95.1953C1310.19 95.1953 1311.97 94.0559 1313 91.7773C1313.57 90.4882 1313.86 88.9843 1313.86 87.2656ZM1335.48 76.8945H1339.37C1338.87 78.2356 1337.77 81.2955 1336.07 86.0742C1334.79 89.6679 1333.72 92.5976 1332.86 94.8632C1330.83 100.202 1329.4 103.457 1328.57 104.629C1327.73 105.801 1326.3 106.387 1324.27 106.387C1323.77 106.387 1323.39 106.367 1323.12 106.328C1322.86 106.289 1322.53 106.217 1322.14 106.113V102.91C1322.75 103.079 1323.2 103.184 1323.47 103.223C1323.74 103.262 1323.98 103.281 1324.19 103.281C1324.84 103.281 1325.32 103.171 1325.62 102.949C1325.93 102.741 1326.19 102.48 1326.4 102.168C1326.46 102.064 1326.7 101.53 1327.1 100.566C1327.51 99.6028 1327.8 98.8867 1327.98 98.4179L1320.25 76.8945H1324.23L1329.84 93.9257L1335.48 76.8945ZM729.035 118.008V115.312C731.574 115.065 733.345 114.655 734.348 114.082C735.35 113.496 736.099 112.122 736.594 109.961H739.367V137.812H735.617V118.008H729.035ZM760.695 127.91V115.234L751.73 127.91H760.695ZM760.754 137.812V130.977H748.488V127.539L761.301 109.766H764.269V127.91H768.391V130.977H764.269V137.812H760.754ZM773.019 111.055H776.574V116.894H779.914V119.766H776.574V133.418C776.574 134.147 776.821 134.635 777.316 134.883C777.59 135.026 778.045 135.098 778.683 135.098C778.853 135.098 779.035 135.098 779.23 135.098C779.426 135.085 779.654 135.065 779.914 135.039V137.812C779.51 137.93 779.087 138.014 778.644 138.066C778.215 138.118 777.746 138.144 777.238 138.144C775.598 138.144 774.484 137.728 773.898 136.894C773.312 136.048 773.019 134.954 773.019 133.613V119.766H770.187V116.894H773.019V111.055ZM783.449 109.023H786.965V119.727C787.798 118.672 788.547 117.93 789.211 117.5C790.344 116.758 791.756 116.387 793.449 116.387C796.483 116.387 798.54 117.448 799.621 119.57C800.207 120.729 800.5 122.337 800.5 124.394V137.812H796.887V124.629C796.887 123.092 796.691 121.966 796.301 121.25C795.663 120.104 794.465 119.531 792.707 119.531C791.249 119.531 789.927 120.032 788.742 121.035C787.557 122.038 786.965 123.932 786.965 126.719V137.812H783.449V109.023ZM829.719 108.379C832.414 108.379 834.745 108.9 836.711 109.941C839.562 111.439 841.307 114.062 841.945 117.812H838.098C837.629 115.716 836.659 114.193 835.187 113.242C833.716 112.279 831.861 111.797 829.621 111.797C826.965 111.797 824.725 112.793 822.902 114.785C821.092 116.777 820.187 119.746 820.187 123.691C820.187 127.103 820.936 129.883 822.433 132.031C823.931 134.167 826.372 135.234 829.758 135.234C832.349 135.234 834.491 134.486 836.183 132.988C837.889 131.478 838.762 129.043 838.801 125.684H829.816V122.461H842.414V137.812H839.914L838.976 134.121C837.661 135.566 836.496 136.569 835.48 137.129C833.775 138.092 831.607 138.574 828.976 138.574C825.578 138.574 822.655 137.474 820.207 135.273C817.538 132.513 816.203 128.724 816.203 123.906C816.203 119.102 817.505 115.28 820.109 112.441C822.583 109.733 825.786 108.379 829.719 108.379ZM848.078 116.894H851.418V120.508C851.691 119.805 852.362 118.952 853.43 117.949C854.497 116.934 855.728 116.426 857.121 116.426C857.186 116.426 857.297 116.432 857.453 116.445C857.609 116.458 857.876 116.484 858.254 116.523V120.234C858.045 120.195 857.85 120.169 857.668 120.156C857.499 120.143 857.31 120.137 857.101 120.137C855.331 120.137 853.97 120.71 853.019 121.855C852.069 122.988 851.594 124.297 851.594 125.781V137.812H848.078V116.894ZM863.996 132.246C863.996 133.262 864.367 134.062 865.109 134.648C865.851 135.234 866.73 135.527 867.746 135.527C868.983 135.527 870.181 135.241 871.34 134.668C873.293 133.717 874.269 132.161 874.269 130V127.168C873.84 127.441 873.286 127.669 872.609 127.852C871.932 128.034 871.268 128.164 870.617 128.242L868.488 128.516C867.212 128.685 866.255 128.952 865.617 129.316C864.536 129.928 863.996 130.905 863.996 132.246ZM872.512 125.137C873.319 125.032 873.859 124.694 874.133 124.121C874.289 123.809 874.367 123.359 874.367 122.773C874.367 121.575 873.937 120.71 873.078 120.176C872.232 119.629 871.014 119.355 869.426 119.355C867.59 119.355 866.288 119.85 865.519 120.84C865.09 121.387 864.81 122.2 864.68 123.281H861.398C861.463 120.703 862.297 118.913 863.898 117.91C865.513 116.894 867.381 116.387 869.504 116.387C871.965 116.387 873.963 116.855 875.5 117.793C877.023 118.73 877.785 120.189 877.785 122.168V134.219C877.785 134.583 877.857 134.876 878 135.098C878.156 135.319 878.475 135.43 878.957 135.43C879.113 135.43 879.289 135.423 879.484 135.41C879.68 135.384 879.888 135.352 880.109 135.312V137.91C879.562 138.066 879.146 138.164 878.859 138.203C878.573 138.242 878.182 138.262 877.687 138.262C876.476 138.262 875.598 137.832 875.051 136.973C874.764 136.517 874.562 135.872 874.445 135.039C873.729 135.977 872.7 136.79 871.359 137.48C870.018 138.171 868.54 138.516 866.926 138.516C864.986 138.516 863.397 137.93 862.16 136.758C860.936 135.573 860.324 134.095 860.324 132.324C860.324 130.384 860.93 128.88 862.141 127.812C863.351 126.745 864.94 126.087 866.906 125.84L872.512 125.137ZM885.793 127.598C885.793 129.837 886.268 131.712 887.219 133.223C888.169 134.733 889.693 135.488 891.789 135.488C893.417 135.488 894.751 134.792 895.793 133.398C896.848 131.992 897.375 129.98 897.375 127.363C897.375 124.72 896.835 122.767 895.754 121.504C894.673 120.228 893.338 119.59 891.75 119.59C889.979 119.59 888.54 120.267 887.433 121.621C886.34 122.975 885.793 124.967 885.793 127.598ZM891.086 116.523C892.687 116.523 894.029 116.862 895.109 117.539C895.734 117.93 896.444 118.613 897.238 119.59V109.023H900.617V137.812H897.453V134.902C896.633 136.191 895.663 137.122 894.543 137.695C893.423 138.268 892.141 138.555 890.695 138.555C888.364 138.555 886.346 137.578 884.641 135.625C882.935 133.659 882.082 131.048 882.082 127.793C882.082 124.746 882.857 122.109 884.406 119.883C885.969 117.643 888.195 116.523 891.086 116.523ZM909.348 116.894V130.781C909.348 131.849 909.517 132.721 909.855 133.398C910.48 134.648 911.646 135.273 913.351 135.273C915.799 135.273 917.466 134.18 918.351 131.992C918.833 130.82 919.074 129.212 919.074 127.168V116.894H922.59V137.812H919.269L919.308 134.727C918.853 135.521 918.286 136.191 917.609 136.738C916.268 137.832 914.641 138.379 912.726 138.379C909.745 138.379 907.713 137.383 906.633 135.391C906.047 134.323 905.754 132.897 905.754 131.113V116.894H909.348ZM930.793 132.246C930.793 133.262 931.164 134.062 931.906 134.648C932.648 135.234 933.527 135.527 934.543 135.527C935.78 135.527 936.978 135.241 938.137 134.668C940.09 133.717 941.066 132.161 941.066 130V127.168C940.637 127.441 940.083 127.669 939.406 127.852C938.729 128.034 938.065 128.164 937.414 128.242L935.285 128.516C934.009 128.685 933.052 128.952 932.414 129.316C931.333 129.928 930.793 130.905 930.793 132.246ZM939.308 125.137C940.116 125.032 940.656 124.694 940.93 124.121C941.086 123.809 941.164 123.359 941.164 122.773C941.164 121.575 940.734 120.71 939.875 120.176C939.029 119.629 937.811 119.355 936.223 119.355C934.387 119.355 933.085 119.85 932.316 120.84C931.887 121.387 931.607 122.2 931.476 123.281H928.195C928.26 120.703 929.094 118.913 930.695 117.91C932.31 116.894 934.178 116.387 936.301 116.387C938.762 116.387 940.76 116.855 942.297 117.793C943.82 118.73 944.582 120.189 944.582 122.168V134.219C944.582 134.583 944.654 134.876 944.797 135.098C944.953 135.319 945.272 135.43 945.754 135.43C945.91 135.43 946.086 135.423 946.281 135.41C946.476 135.384 946.685 135.352 946.906 135.312V137.91C946.359 138.066 945.943 138.164 945.656 138.203C945.37 138.242 944.979 138.262 944.484 138.262C943.273 138.262 942.394 137.832 941.848 136.973C941.561 136.517 941.359 135.872 941.242 135.039C940.526 135.977 939.497 136.79 938.156 137.48C936.815 138.171 935.337 138.516 933.723 138.516C931.782 138.516 930.194 137.93 928.957 136.758C927.733 135.573 927.121 134.095 927.121 132.324C927.121 130.384 927.726 128.88 928.937 127.812C930.148 126.745 931.737 126.087 933.703 125.84L939.308 125.137ZM951.066 111.055H954.621V116.894H957.961V119.766H954.621V133.418C954.621 134.147 954.868 134.635 955.363 134.883C955.637 135.026 956.092 135.098 956.73 135.098C956.9 135.098 957.082 135.098 957.277 135.098C957.473 135.085 957.7 135.065 957.961 135.039V137.812C957.557 137.93 957.134 138.014 956.691 138.066C956.262 138.118 955.793 138.144 955.285 138.144C953.644 138.144 952.531 137.728 951.945 136.894C951.359 136.048 951.066 134.954 951.066 133.613V119.766H948.234V116.894H951.066V111.055ZM961.496 116.992H965.07V137.812H961.496V116.992ZM961.496 109.121H965.07V113.105H961.496V109.121ZM978.703 135.547C981.034 135.547 982.629 134.668 983.488 132.91C984.361 131.139 984.797 129.173 984.797 127.012C984.797 125.059 984.484 123.47 983.859 122.246C982.87 120.319 981.164 119.355 978.742 119.355C976.594 119.355 975.031 120.176 974.055 121.816C973.078 123.457 972.59 125.436 972.59 127.754C972.59 129.98 973.078 131.836 974.055 133.32C975.031 134.805 976.581 135.547 978.703 135.547ZM978.84 116.289C981.535 116.289 983.814 117.187 985.676 118.984C987.538 120.781 988.469 123.424 988.469 126.914C988.469 130.286 987.648 133.073 986.008 135.273C984.367 137.474 981.821 138.574 978.371 138.574C975.493 138.574 973.208 137.604 971.516 135.664C969.823 133.711 968.976 131.094 968.976 127.812C968.976 124.297 969.868 121.497 971.652 119.414C973.436 117.331 975.832 116.289 978.84 116.289ZM992.668 116.894H996.008V119.863C996.997 118.639 998.045 117.76 999.152 117.227C1000.26 116.693 1001.49 116.426 1002.84 116.426C1005.81 116.426 1007.82 117.461 1008.86 119.531C1009.43 120.664 1009.72 122.285 1009.72 124.394V137.812H1006.14V124.629C1006.14 123.353 1005.96 122.324 1005.58 121.543C1004.95 120.241 1003.82 119.59 1002.18 119.59C1001.35 119.59 1000.66 119.674 1000.13 119.844C999.165 120.13 998.319 120.703 997.59 121.562C997.004 122.253 996.62 122.969 996.437 123.711C996.268 124.44 996.183 125.488 996.183 126.855V137.812H992.668V116.894ZM1026.91 109.121H1047.82V112.637H1030.7V121.348H1046.54V124.668H1030.7V134.394H1048.12V137.812H1026.91V109.121ZM1050.75 116.894H1055.3L1060.11 124.258L1064.97 116.894L1069.25 116.992L1062.2 127.09L1069.56 137.812H1065.07L1059.87 129.961L1054.84 137.812H1050.38L1057.75 127.09L1050.75 116.894ZM1072.75 109.023H1076.26V119.727C1077.09 118.672 1077.84 117.93 1078.51 117.5C1079.64 116.758 1081.05 116.387 1082.75 116.387C1085.78 116.387 1087.84 117.448 1088.92 119.57C1089.5 120.729 1089.8 122.337 1089.8 124.394V137.812H1086.18V124.629C1086.18 123.092 1085.99 121.966 1085.6 121.25C1084.96 120.104 1083.76 119.531 1082 119.531C1080.55 119.531 1079.22 120.032 1078.04 121.035C1076.85 122.038 1076.26 123.932 1076.26 126.719V137.812H1072.75V109.023ZM1095.01 116.992H1098.59V137.812H1095.01V116.992ZM1095.01 109.121H1098.59V113.105H1095.01V109.121ZM1103.64 109.023H1107.06V119.434C1107.83 118.431 1108.75 117.669 1109.82 117.148C1110.88 116.615 1112.04 116.348 1113.29 116.348C1115.9 116.348 1118.01 117.246 1119.62 119.043C1121.25 120.827 1122.06 123.463 1122.06 126.953C1122.06 130.26 1121.26 133.008 1119.66 135.195C1118.06 137.383 1115.84 138.477 1113 138.477C1111.41 138.477 1110.07 138.092 1108.98 137.324C1108.33 136.868 1107.63 136.139 1106.89 135.137V137.812H1103.64V109.023ZM1112.79 135.371C1114.69 135.371 1116.11 134.616 1117.04 133.105C1117.99 131.595 1118.47 129.603 1118.47 127.129C1118.47 124.928 1117.99 123.105 1117.04 121.66C1116.11 120.215 1114.72 119.492 1112.88 119.492C1111.28 119.492 1109.87 120.085 1108.66 121.269C1107.47 122.454 1106.87 124.407 1106.87 127.129C1106.87 129.095 1107.11 130.69 1107.61 131.914C1108.53 134.219 1110.26 135.371 1112.79 135.371ZM1126.18 116.992H1129.76V137.812H1126.18V116.992ZM1126.18 109.121H1129.76V113.105H1126.18V109.121ZM1135.79 111.055H1139.35V116.894H1142.69V119.766H1139.35V133.418C1139.35 134.147 1139.59 134.635 1140.09 134.883C1140.36 135.026 1140.82 135.098 1141.46 135.098C1141.63 135.098 1141.81 135.098 1142 135.098C1142.2 135.085 1142.43 135.065 1142.69 135.039V137.812C1142.28 137.93 1141.86 138.014 1141.42 138.066C1140.99 138.118 1140.52 138.144 1140.01 138.144C1138.37 138.144 1137.26 137.728 1136.67 136.894C1136.09 136.048 1135.79 134.954 1135.79 133.613V119.766H1132.96V116.894H1135.79V111.055ZM1146.22 116.992H1149.8V137.812H1146.22V116.992ZM1146.22 109.121H1149.8V113.105H1146.22V109.121ZM1163.43 135.547C1165.76 135.547 1167.36 134.668 1168.21 132.91C1169.09 131.139 1169.52 129.173 1169.52 127.012C1169.52 125.059 1169.21 123.47 1168.59 122.246C1167.6 120.319 1165.89 119.355 1163.47 119.355C1161.32 119.355 1159.76 120.176 1158.78 121.816C1157.8 123.457 1157.32 125.436 1157.32 127.754C1157.32 129.98 1157.8 131.836 1158.78 133.32C1159.76 134.805 1161.31 135.547 1163.43 135.547ZM1163.57 116.289C1166.26 116.289 1168.54 117.187 1170.4 118.984C1172.26 120.781 1173.2 123.424 1173.2 126.914C1173.2 130.286 1172.37 133.073 1170.73 135.273C1169.09 137.474 1166.55 138.574 1163.1 138.574C1160.22 138.574 1157.93 137.604 1156.24 135.664C1154.55 133.711 1153.7 131.094 1153.7 127.812C1153.7 124.297 1154.59 121.497 1156.38 119.414C1158.16 117.331 1160.56 116.289 1163.57 116.289ZM1177.39 116.894H1180.73V119.863C1181.72 118.639 1182.77 117.76 1183.88 117.227C1184.99 116.693 1186.22 116.426 1187.57 116.426C1190.54 116.426 1192.54 117.461 1193.59 119.531C1194.16 120.664 1194.45 122.285 1194.45 124.394V137.812H1190.87V124.629C1190.87 123.353 1190.68 122.324 1190.3 121.543C1189.68 120.241 1188.55 119.59 1186.91 119.59C1186.07 119.59 1185.39 119.674 1184.86 119.844C1183.89 120.13 1183.05 120.703 1182.32 121.562C1181.73 122.253 1181.35 122.969 1181.16 123.711C1180.99 124.44 1180.91 125.488 1180.91 126.855V137.812H1177.39V116.894Z" fill="white"/>
</g>
<defs>
<clipPath id="clip0_3_3">
<rect width="4326" height="1081" fill="white" transform="translate(-1202.86 0.812439)"/>
</clipPath>
</defs>
</svg>
