<svg width="16" height="16" viewBox="0 0 16 16" fill="none" xmlns="http://www.w3.org/2000/svg">
<g clip-path="url(#clip0_788_266)">
<path d="M34.247 1.13647C34.7632 8.57858 30.7795 12.8429 27.8289 12.9391C23.7644 13.0716 23.0072 6.4569 20.3136 6.87195C17.62 7.287 16.7581 12.586 14.0402 12.982L14.0394 12.9787C12.2867 13.3455 11.6189 11.586 11.5189 11.3979C11.4298 11.2306 11.154 10.6244 10.746 10.4937M10.746 10.4937C10.6959 10.4777 10.6437 10.4688 10.5897 10.4688C10.1833 10.4398 9.92196 11.4269 9.97988 11.456C10.2993 11.5721 10.5606 11.2528 10.6476 10.9624C10.6871 10.8089 10.7199 10.6521 10.746 10.4937ZM10.746 10.4937C10.8928 9.60392 10.8293 8.66424 10.5606 7.97198C10.244 7.15653 9.16219 5.94965 8.96364 5.18479C8.76508 4.41992 8.61529 3.84927 8.44103 3.15247C8.35399 2.92015 8.2959 2.688 8.12165 2.51375C8.00547 2.42672 7.86035 2.45567 7.74418 2.54271C7.22157 3.15247 7.54095 3.96527 7.48287 4.66206C7.47244 4.74573 7.45446 4.82937 7.42351 4.90351M7.42351 4.90351C7.36852 5.03526 7.27261 5.13703 7.10541 5.15567C6.87307 5.18462 6.66985 5.06863 6.52471 4.92334C5.71168 4.13951 3.0807 1.49893 3.76507 1.16642C4.06548 1.02047 5.27629 2.51359 5.50847 2.77487C6.1762 3.47167 6.75705 4.16846 7.39583 4.86526C7.40538 4.87864 7.41459 4.89134 7.42351 4.90351ZM7.42351 4.90351C7.55017 5.07628 7.61957 5.14124 7.80226 5.47502C7.99782 5.83233 8.09269 6.17182 8.00547 6.46223C7.94739 6.63647 7.71505 6.69455 7.59904 6.81054C7.54096 6.86862 7.512 6.98478 7.512 7.07182C7.57008 7.44926 7.512 7.85566 7.39583 8.20414C7.2507 8.55246 6.90218 8.78478 6.75705 9.13326C6.5828 9.48158 6.64088 9.88814 6.75705 10.2656C6.76687 10.2951 6.83261 10.4702 6.9336 10.7129M6.9336 10.7129C7.1306 11.1864 7.4617 11.9172 7.7733 12.3269C8.24464 12.9466 9.02189 13.8075 9.71875 13.7494C9.92196 13.6043 8.43954 11.5315 7.2507 10.9041C7.14361 10.8387 7.03775 10.7757 6.9336 10.7129ZM6.9336 10.7129C6.52946 10.4692 6.15117 10.2283 5.82802 9.85902C5.65376 9.65582 5.50863 9.45262 5.39246 9.2203C5.18925 8.8139 4.98603 8.43646 4.75369 8.05902C4.52135 7.7107 4.28917 7.44926 4.05683 7.1299C3.88258 6.86862 3.20203 5.90672 3.13146 5.63246C3.06089 5.3582 3.09917 5.17381 3.3152 5.18512C3.62527 5.20143 5.25549 7.05867 6.00211 7.7395C6.09315 7.82254 6.23545 7.94719 6.3215 7.91374C6.51673 7.83785 6.26341 7.50734 6.14724 7.36206C5.47951 6.72334 4.23092 5.30078 4.20179 5.27166C3.73727 4.69102 3.21451 4.19742 2.92425 3.52975C2.92425 3.50079 2.72103 2.97806 2.92425 2.80399C3.04042 2.71695 3.18555 2.71695 3.30172 2.80399C3.76624 3.26847 4.14371 3.76207 4.57927 4.25567C4.89866 4.57503 5.50847 5.27183 5.50847 5.27183C5.50847 5.27183 6.39972 6.42844 6.5828 6.20095C6.76588 5.97345 6.10597 5.38965 5.67857 4.85678C5.25116 4.3239 4.60839 3.73311 4.11475 3.09439C3.73728 2.62991 3.41789 2.19439 3.04042 1.75887C2.95338 1.67184 2.8372 1.58463 2.72103 1.61376C2.19843 1.72992 2.54677 2.39759 2.51781 2.80416C2.48886 2.9784 2.3146 3.03648 2.25652 3.1816C2.22756 3.26863 2.22756 3.41392 2.25652 3.50095C2.43077 3.87839 2.63398 4.25583 2.80824 4.63327C2.8372 4.77839 2.80824 4.95263 2.63398 5.03967C2.45973 5.12671 2.48886 5.35903 2.48886 5.53327C2.54694 5.93967 2.69208 6.31711 2.95338 6.66559C3.38894 7.33326 3.79536 7.97215 4.08579 8.69791C4.23092 9.07535 4.26005 9.48174 4.40518 9.85918C4.55031 10.2366 4.78265 10.556 5.04395 10.8464C5.91506 11.7755 6.74191 12.3338 6.97408 13.6694C7.03217 14.0758 6.8471 14.7371 6.29187 15.1039C5.73665 15.4709 4.11825 15.4738 2.15499 14.1853L2.15582 14.1886C1.46429 13.7819 0.581526 12.3513 -0.758767 12.6981C-2.09906 13.045 -4.00839 15.4833 -5.26114 14.9518C-7.31244 14.0816 -4.0227 9.70841 -5.95783 8.59772C-7.89296 7.48687 -12.1582 13.6351 -16.0594 14.2364C-16.9657 14.3761 -17.8861 14.2351 -18.9019 13.9656M-18.9019 13.9656C-22.2581 13.075 -26.655 10.7808 -35.0239 12.5723C-45.9254 14.9059 -33.6251 19.4709 -28.9475 19.1512C-25.7563 18.9332 -21.7631 16.5531 -18.9019 13.9656ZM-18.9019 13.9656C-16.1764 11.5008 -14.4781 8.84773 -15.4788 7.69606C-17.0357 5.90455 -22.7938 9.39886 -24.3032 7.88961C-24.8757 7.31709 -24.9668 6.11041 -24.3007 4.60345M-24.3007 4.60345C-23.6121 3.04585 -22.1147 1.16747 -19.5041 -0.66303C-14.3676 -4.26452 -10.9102 0.471452 -18.2323 3.16861C-20.4681 3.99214 -22.4922 4.43028 -24.3007 4.60345ZM-24.3007 4.60345C-31.6186 5.30414 -35.4067 1.66618 -35.4067 1.66618" stroke="#27d2e9" stroke-width="0.5" stroke-miterlimit="10"/>
</g>
<defs>
<clipPath id="clip0_788_266">
<rect width="16" height="16" fill="white"/>
</clipPath>
</defs>
</svg>
