<svg width="300" height="254" viewBox="0 0 300 254" fill="none" xmlns="http://www.w3.org/2000/svg">
<g clip-path="url(#clip0_213_376)">
<path d="M637.912 170.961C637.912 170.961 613.658 193.613 580.761 192.398C536.984 190.783 505.157 106.127 477.28 136.41C463.679 151.185 500.887 206.064 456.949 227.205C433.679 238.403 367.382 186.335 357.948 71.8089C349.425 -31.6636 418.262 -31.1852 423.6 45.7618C428.938 122.707 387.749 166.797 357.243 167.791C315.219 169.161 307.39 100.771 279.541 105.062C251.691 109.353 242.779 164.14 214.679 168.235L214.67 168.201C196.549 171.993 189.645 153.801 188.611 151.857C187.576 149.914 184.107 142.25 179.003 142.25C174.801 141.951 172.1 152.156 172.699 152.457C176.001 153.658 178.702 150.356 179.602 147.354C182.304 136.847 181.975 124.867 178.702 116.435C175.429 108.004 164.244 95.5262 162.191 87.6181C160.139 79.7101 158.59 73.81 156.788 66.6057C155.888 64.2037 155.288 61.8034 153.486 60.0019C152.285 59.102 150.784 59.4013 149.583 60.3012C144.18 66.6057 147.482 75.0093 146.882 82.2136C146.582 84.6156 145.68 87.0159 142.979 87.317C140.577 87.6164 138.475 86.4171 136.975 84.915C128.569 76.8108 101.367 49.5094 108.443 46.0715C111.549 44.5625 124.067 60.0001 126.468 62.7015C133.372 69.9059 139.377 77.1102 145.982 84.3145C147.482 86.4154 148.162 86.9247 150.184 90.6189C152.206 94.3132 153.187 97.8233 152.285 100.826C151.684 102.627 149.282 103.228 148.083 104.427C147.482 105.028 147.183 106.229 147.183 107.128C147.783 111.031 147.183 115.233 145.982 118.836C144.481 122.437 140.878 124.839 139.377 128.442C137.576 132.043 138.176 136.247 139.377 140.149C139.677 141.049 145.011 155.055 149.884 161.461C154.758 167.869 162.794 176.77 169.999 176.169C172.1 174.669 156.773 153.238 144.481 146.751C139.078 143.449 133.974 140.748 129.772 135.946C127.97 133.845 126.47 131.744 125.268 129.342C123.167 125.14 121.066 121.238 118.664 117.335C116.262 113.734 113.861 111.031 111.459 107.729C109.657 105.028 102.621 95.0823 101.892 92.2467C101.162 89.411 101.558 87.5046 103.791 87.6216C106.997 87.7902 123.852 106.993 131.572 114.032C132.513 114.89 133.984 116.179 134.874 115.833C136.892 115.049 134.273 111.631 133.072 110.129C126.168 103.525 113.259 88.8174 112.958 88.5163C108.155 82.513 102.75 77.4096 99.7492 70.5064C99.7492 70.207 97.6481 64.8024 99.7492 63.0027C100.95 62.1028 102.451 62.1028 103.652 63.0027C108.455 67.805 112.357 72.9084 116.861 78.0118C120.163 81.3137 126.468 88.518 126.468 88.518C126.468 88.518 135.683 100.476 137.576 98.1244C139.468 95.7723 132.645 89.7362 128.227 84.2267C123.808 78.7173 117.162 72.609 112.058 66.0052C108.155 61.2029 104.853 56.6999 100.95 52.197C100.05 51.2971 98.8492 50.3955 97.648 50.6966C92.2448 51.8976 95.8464 58.8008 95.547 63.0044C95.2476 64.8059 93.4459 65.4064 92.8453 66.9068C92.5459 67.8067 92.5459 69.3088 92.8453 70.2087C94.647 74.1111 96.7481 78.0135 98.5497 81.9159C98.8492 83.4163 98.5497 85.2178 96.7481 86.1177C94.9464 87.0176 95.2476 89.4197 95.2476 91.2212C95.8481 95.423 97.3487 99.3254 100.05 102.928C104.554 109.832 108.756 116.437 111.759 123.941C113.259 127.843 113.56 132.045 115.061 135.947C116.561 139.85 118.963 143.152 121.665 146.154C130.672 155.761 139.221 161.533 141.621 175.342C142.222 179.543 140.308 186.381 134.568 190.173C128.827 193.967 112.094 193.998 91.7957 180.676L91.8043 180.71C84.6544 176.505 75.5273 161.714 61.6698 165.3C47.8123 168.886 28.0714 194.097 15.119 188.601C-6.08967 179.604 27.9234 134.389 7.91583 122.905C-12.0918 111.42 -56.1904 174.987 -96.5257 181.204C-136.861 187.422 -179.889 139.871 -292.603 163.999C-405.316 188.126 -278.141 235.325 -229.778 232.019C-165.354 227.618 -69.3149 137.99 -90.5236 113.583C-106.62 95.0599 -166.154 131.188 -181.76 115.584C-193.798 103.546 -185.248 64.3929 -132.141 27.1565C-79.0339 -10.0798 -43.288 38.8861 -118.992 66.7726C-235.645 109.74 -296.561 51.2386 -296.561 51.2386" stroke="white" stroke-opacity="0.5" stroke-width="1.58903" stroke-miterlimit="10"/>
<path d="M637.913 170.961C637.913 170.961 613.658 193.613 580.762 192.398C536.985 190.783 505.157 106.127 477.28 136.41C463.679 151.185 500.888 206.064 456.949 227.205C433.679 238.403 367.382 186.335 357.949 71.8089C349.426 -31.6636 418.262 -31.1852 423.6 45.7618C428.938 122.707 387.749 166.797 357.243 167.791C315.22 169.161 307.39 100.771 279.541 105.062C251.692 109.353 242.78 164.14 214.679 168.235L214.671 168.201C196.549 171.993 189.645 153.801 188.611 151.857C187.577 149.914 184.108 142.25 179.004 142.25C174.802 141.951 172.1 152.156 172.699 152.457C176.001 153.658 178.703 150.356 179.603 147.354C182.304 136.847 181.976 124.867 178.703 116.435C175.43 108.004 164.245 95.5262 162.192 87.6181C160.139 79.7101 158.59 73.81 156.789 66.6057C155.889 64.2037 155.288 61.8034 153.486 60.0019C152.285 59.102 150.785 59.4013 149.584 60.3012C144.18 66.6057 147.483 75.0093 146.882 82.2136C146.583 84.6156 145.681 87.0159 142.979 87.317C140.577 87.6164 138.476 86.4171 136.975 84.915C128.569 76.8108 101.367 49.5094 108.443 46.0715C111.549 44.5625 124.068 60.0001 126.468 62.7015C133.372 69.9059 139.378 77.1102 145.982 84.3145C147.482 86.4154 148.162 86.9247 150.184 90.6189C152.206 94.3132 153.187 97.8233 152.285 100.826C151.685 102.627 149.282 103.228 148.083 104.427C147.482 105.028 147.183 106.229 147.183 107.128C147.784 111.031 147.183 115.233 145.982 118.836C144.481 122.437 140.878 124.839 139.378 128.442C137.576 132.043 138.176 136.247 139.378 140.149C139.677 141.049 145.011 155.055 149.885 161.461C154.758 167.869 162.794 176.77 169.999 176.169C172.1 174.669 156.773 153.238 144.481 146.751C139.078 143.449 133.974 140.748 129.772 135.946C127.971 133.845 126.47 131.744 125.269 129.342C123.168 125.14 121.067 121.238 118.664 117.335C116.262 113.734 113.862 111.031 111.459 107.729C109.658 105.028 102.622 95.0823 101.892 92.2467C101.162 89.411 101.558 87.5046 103.792 87.6216C106.998 87.7902 123.853 106.993 131.572 114.032C132.513 114.89 133.985 116.179 134.874 115.833C136.893 115.049 134.274 111.631 133.073 110.129C126.169 103.525 113.259 88.8174 112.958 88.5163C108.156 82.513 102.751 77.4096 99.7496 70.5064C99.7496 70.207 97.6485 64.8024 99.7496 63.0027C100.951 62.1028 102.451 62.1028 103.652 63.0027C108.455 67.805 112.358 72.9084 116.861 78.0118C120.163 81.3137 126.468 88.518 126.468 88.518C126.468 88.518 135.683 100.476 137.576 98.1244C139.469 95.7723 132.646 89.7362 128.227 84.2267C123.808 78.7173 117.162 72.609 112.058 66.0052C108.156 61.2029 104.853 56.6999 100.951 52.197C100.051 51.2971 98.8495 50.3955 97.6484 50.6966" stroke="white" stroke-width="1.58903" stroke-miterlimit="10"/>
</g>
<defs>
<clipPath id="clip0_213_376">
<rect width="300" height="254" fill="white"/>
</clipPath>
</defs>
</svg>
