<?xml version="1.0" encoding="utf-8"?>
<!-- Generator: Adobe Illustrator 26.5.0, SVG Export Plug-In . SVG Version: 6.00 Build 0)  -->
<svg version="1.1" id="_레이어_2" xmlns="http://www.w3.org/2000/svg" xmlns:xlink="http://www.w3.org/1999/xlink" x="0px"
	 y="0px" viewBox="0 0 142.6 142.6" style="enable-background:new 0 0 142.6 142.6;" xml:space="preserve">
<style type="text/css">
	.st0{fill:#FFFFFF;}
</style>
<path class="st0" d="M142.6,71.3c0,39.4-31.9,71.3-71.3,71.3S0,110.7,0,71.3S31.9,0,71.3,0S142.6,31.9,142.6,71.3L142.6,71.3z
	 M71.3,1C32.5,1,1,32.5,1,71.3s31.5,70.3,70.3,70.3s70.3-31.5,70.3-70.3S110.2,1,71.3,1L71.3,1z"/>
<path class="st0" d="M123,71.3c0,28.5-23.1,51.7-51.7,51.7S19.6,99.9,19.6,71.3s23.1-51.7,51.7-51.7S123,42.8,123,71.3L123,71.3z
	 M71.3,20.6c-28,0-50.7,22.7-50.7,50.7S43.3,122,71.3,122S122,99.3,122,71.3S99.3,20.6,71.3,20.6L71.3,20.6z"/>
<path class="st0" d="M10.5,91.3c-0.7,0.2-1.2,0.4-1.4,1.2h0L8.3,90h0c0.4,0.5,1.3,0.2,1.9,0l5.6-1.8l-0.4-1.1
	c-0.2-0.5-0.5-1.1-1-1.3v0l1.6,0v0c0,0.2,0,0.3,0.1,0.5l0.1,0.3l1.5,4.7c0.1,0.2,0.1,0.4,0.3,0.6v0l-1.6,0.1v0
	c0.4-0.3,0.3-0.8,0.1-1.2l-0.4-1.1L10.5,91.3L10.5,91.3L10.5,91.3z"/>
<path class="st0" d="M19.4,94.9c0.7,1.6,0.3,2.9-0.8,3.4c-1.1,0.5-2.3-0.1-3-0.9l-1.4,2.7c-0.4,0.8-0.7,1.8-0.8,2.7l-0.5-1.1
	c-0.3-0.6-0.3-1.1,0-1.7l1.1-2.3l1.2-1.9c0.6,0.9,1.5,1.8,2.7,1.3c0.9-0.4,1-1.4,0.6-2.2c-0.1-0.3-0.3-0.5-0.5-0.8l-5.4,2.5
	c-0.6,0.2-1.5,0.6-1.4,1.3l0,0l-1.1-2.3l0,0c0.5,0.5,1.4,0,1.9-0.2l4.5-2.1c0.5-0.2,1.5-0.6,1.4-1.3l0,0L19.4,94.9L19.4,94.9
	L19.4,94.9z"/>
<path class="st0" d="M17.6,107.6c-1-0.1-1.8-0.8-2.3-1.6c-0.5-0.7-0.7-1.7-0.5-2.5c0.3-1,1-1.4,1.8-2l3-1.9c0.5-0.3,1.4-0.8,1.2-1.5
	l0,0l1.4,2.1l0,0c-0.6-0.4-1.3,0.2-1.8,0.5l-3,1.9c-1.5,0.9-1.8,2-1,3.2c0.4,0.6,1.1,1.1,1.8,1.1c0.5,0,0.8-0.2,1.2-0.4l3.4-2.1
	c0.5-0.3,1.4-0.8,1.2-1.5l0,0l1.4,2.1l0,0c-0.6-0.4-1.4,0.2-1.9,0.5l-4.2,2.7c-0.5,0.3-1.4,0.8-1.2,1.5l0,0l-1-1.6L17.6,107.6
	L17.6,107.6L17.6,107.6z"/>
<path class="st0" d="M22.5,112.6c-0.6,0.5-1,0.8-0.9,1.6l0,0l-1.7-2l0,0c0.6,0.3,1.3-0.3,1.8-0.7l4.5-3.8l-0.8-0.9
	c-0.4-0.4-0.9-0.8-1.4-0.9l0,0l1.5-0.7l0,0c0,0.2,0.2,0.3,0.2,0.4l0.2,0.2l3.2,3.8c0.1,0.2,0.3,0.3,0.5,0.4l0,0l-1.5,0.7l0,0
	c0.2-0.4,0-0.9-0.3-1.2l-0.8-0.9L22.5,112.6L22.5,112.6L22.5,112.6z"/>
<path class="st0" d="M28,114.8l-1.6,1.8c-0.4,0.4-1.1,1.1-0.8,1.7l0,0l-1.9-1.7l0,0c0.7,0.3,1.2-0.5,1.6-0.9l3.4-3.7
	c0.4-0.4,1.1-1.1,0.8-1.7l0,0l1.9,1.7l0,0c-0.7-0.3-1.2,0.5-1.7,1l-1.1,1.2l3.5,3.2l1.1-1.2c0.4-0.4,1.1-1.1,0.8-1.7l0,0l1.9,1.7
	l0,0c-0.7-0.3-1.3,0.5-1.7,0.9l-3.4,3.7c-0.4,0.4-1.1,1.1-0.8,1.7l0,0l-1.9-1.7l0,0c0.7,0.3,1.2-0.5,1.6-0.9l1.6-1.8L28,114.8
	L28,114.8L28,114.8z"/>
<path class="st0" d="M40.4,128.1c0.8,0.5,1.6,0.6,2.4,0.4l0,0l-1.5,1.2l-4.8-2.7l0,0c0.7,0.1,1.1-0.8,1.4-1.3l2.4-4.3
	c0.3-0.5,0.8-1.3,0.4-1.9l0,0l2.2,1.2l0,0c-0.7-0.1-1.1,0.8-1.4,1.3l-2.8,5L40.4,128.1L40.4,128.1L40.4,128.1z"/>
<path class="st0" d="M46.1,124.3c0.2-0.6,0.7-1.4,0.2-1.9l0,0l2.3,1.1l0,0c-0.7-0.1-1,0.9-1.3,1.4l-2.1,4.5
	c-0.2,0.5-0.7,1.4-0.2,1.9l0,0l-2.3-1.1l0,0c0.7,0.1,1-0.9,1.3-1.4L46.1,124.3L46.1,124.3L46.1,124.3z"/>
<path class="st0" d="M49.5,132l1-3.1l0.9,0.2c1.1,0.3,2.1,1.2,1.7,2.4c-0.4,1.2-1.6,1.3-2.6,0.9L49.5,132
	C49.5,132,49.5,132,49.5,132z M48.4,130.8c-0.2,0.6-0.4,1.5-1.1,1.6v0l2.1,0.7c0.9,0.3,1.9,0.7,2.9,0.5c1-0.1,1.9-0.7,2.2-1.7
	c0.4-1.2-0.3-2.3-1.3-2.9c0.8-0.1,1.5-0.4,1.8-1.2c0.4-1.1-0.4-2.1-2-2.7l-3-1v0c0.5,0.4,0.2,1.3,0,1.9L48.4,130.8L48.4,130.8
	L48.4,130.8z M50.8,128.1l0.8-2.5l0.9,0.2c0.8,0.2,1.4,0.9,1.2,1.8c-0.3,1-1.6,0.9-2.4,0.6L50.8,128.1L50.8,128.1z"/>
<path class="st0" d="M57.3,134.3l1.6,0.5c0.8,0.2,1.8,0.2,2.5-0.3h0l-0.9,1.6l-5.4-1.1v0c0.7-0.1,0.8-1.1,1-1.6l1-4.9
	c0.1-0.6,0.4-1.5-0.2-1.9v0l4.2,0.8c0.2,0,0.4,0.1,0.6,0.1h0l-0.3,1.5h0c-0.3-0.6-0.8-0.7-1.4-0.8c-0.5-0.1-0.9-0.2-1.3-0.2
	l-0.5,2.4l1.5,0.3c0.2,0,0.4,0.1,0.6,0h0l-0.3,1.4h0c-0.1-0.4-0.7-0.5-1.1-0.6l-1-0.2L57.3,134.3L57.3,134.3L57.3,134.3z"/>
<path class="st0" d="M66,127.9c1.8,0.1,2.7,1.2,2.5,2.4c-0.1,1.2-1.2,2-2.3,2.1L68,135c0.5,0.7,1.3,1.5,2,2l-1.2-0.1
	c-0.7-0.1-1.1-0.3-1.5-0.8l-1.4-2.1l-1.1-2c1.1-0.1,2.3-0.4,2.4-1.7c0.1-0.9-0.7-1.6-1.6-1.6c-0.3,0-0.6,0-0.9,0l-0.5,5.9
	c-0.1,0.6-0.2,1.6,0.4,1.9v0l-2.5-0.2v0c0.7-0.2,0.7-1.2,0.7-1.8l0.4-5c0-0.6,0.2-1.6-0.4-1.9v0L66,127.9L66,127.9L66,127.9z"/>
<path class="st0" d="M73.3,135.2c0,0.8,0,1.3,0.7,1.7v0l-2.6,0.1v0c0.7-0.3,0.6-1.2,0.5-1.8l-0.2-5.9l-1.2,0c-0.6,0-1.2,0.2-1.6,0.6
	h0l0.4-1.6h0c0.2,0.1,0.3,0.1,0.5,0.1h0.3l4.9-0.1c0.2,0,0.4,0,0.6-0.1h0l-0.4,1.6h0c-0.2-0.5-0.7-0.5-1.2-0.5l-1.2,0L73.3,135.2
	L73.3,135.2L73.3,135.2z"/>
<path class="st0" d="M80.4,134.6c0.1,0.8,0.2,1.2,0.9,1.6v0l-2.6,0.3v0c0.6-0.4,0.4-1.2,0.3-1.9l-0.3-1.9l-2.6-3.2
	c-0.4-0.5-0.8-0.9-1.4-1.2l1.2-0.2c0.4-0.1,0.8,0,1,0.2l2.6,3.1l1.3-2.7c0.2-0.4,0.4-1-0.4-1.3v0l2.3-0.3l-2.6,5.3L80.4,134.6
	L80.4,134.6L80.4,134.6z"/>
<path class="st0" d="M89.6,126.3c0.3-0.2,0.7-0.4,1.1-0.6c2.1-0.8,3.7-0.1,4.5,2c0.8,2.1-0.5,3.7-2.3,4.4c-0.3,0.1-0.6,0.2-0.9,0.3
	L89.6,126.3C89.6,126.3,89.6,126.3,89.6,126.3z M90.4,132.2c0.3,0.7,0.6,1.3,0.1,1.9v0l3-1.1c2.8-1,4-3.5,3.1-5.9
	c-0.9-2.5-3.3-3.3-6.1-2.3l-3,1.1v0c0.7-0.1,1,0.9,1.2,1.4L90.4,132.2L90.4,132.2L90.4,132.2z"/>
<path class="st0" d="M100.1,128.9l1.6-0.6c0.8-0.3,1.5-1,1.8-1.8l0,0l0.3,1.8l-4.9,2.6l0,0c0.5-0.5,0-1.4-0.3-1.9l-2.3-4.4
	c-0.3-0.5-0.7-1.4-1.4-1.3l0,0l3.8-2c0.2-0.1,0.4-0.2,0.5-0.3l0,0l0.7,1.4l0,0c-0.6-0.2-1.1,0-1.6,0.2c-0.4,0.2-0.8,0.4-1.2,0.7
	l1.1,2.2l1.4-0.7c0.2-0.1,0.4-0.2,0.5-0.3l0,0l0.7,1.2l0,0c-0.4-0.2-0.8,0-1.2,0.2l-0.9,0.4L100.1,128.9L100.1,128.9L100.1,128.9z"
	/>
<path class="st0" d="M106.1,119.2c-0.2-1-0.5-2.1-1.3-1.9l0,0l1.6-1.1l2.2,9.5c-1.1,0-1.4,0.1-2.3-0.6l-4.7-3.3
	c-0.6-0.4-1.2-0.9-1.9-1l0,0l1.6-1.1l0.1,0.1c0.2,0.2,0.7,0.6,1,0.8l5,3.6L106.1,119.2L106.1,119.2L106.1,119.2z"/>
<path class="st0" d="M109.9,114.1c1.5-1.4,3.7-0.8,5,0.6c1.3,1.5,1.4,3.4-0.1,4.8c-1.5,1.4-3.8,0.9-5-0.5
	C108.5,117.4,108.4,115.4,109.9,114.1L109.9,114.1z M109.4,113.3c-2.1,1.8-2.3,4.8-0.6,6.7c1.8,2,4.7,1.9,6.7,0.1
	c1.9-1.8,2.3-4.7,0.5-6.7C114.3,111.7,111.4,111.4,109.4,113.3L109.4,113.3z"/>
<path class="st0" d="M120.4,112.2c0.6,0.5,1,0.8,1.7,0.6l0,0l-1.7,2l0,0c0.2-0.7-0.6-1.2-1-1.6l-4.5-3.8l-0.8,0.9
	c-0.4,0.4-0.6,1-0.6,1.5l0,0l-0.9-1.4l0,0c0.2-0.1,0.3-0.2,0.4-0.3l0.2-0.2l3.2-3.8c0.2-0.2,0.3-0.3,0.3-0.5l0,0l0.9,1.3l0,0
	c-0.5-0.2-0.9,0.2-1.1,0.5l-0.8,0.9L120.4,112.2L120.4,112.2L120.4,112.2z"/>
<path class="st0" d="M119,105.5c-0.5-0.3-1.2-1-1.8-0.6l0,0l1.4-2.1l0,0c-0.2,0.7,0.7,1.2,1.2,1.5l4.1,2.9c0.5,0.3,1.2,1,1.8,0.6
	l0,0l-1.4,2.1l0,0c0.2-0.7-0.7-1.2-1.2-1.5L119,105.5L119,105.5L119,105.5z"/>
<path class="st0" d="M121.9,98.9c1-1.8,3.2-2,4.9-1.1c1.7,0.9,2.4,2.8,1.5,4.5c-1,1.8-3.3,2.1-4.9,1.2
	C121.6,102.6,120.9,100.7,121.9,98.9L121.9,98.9L121.9,98.9z M121.1,98.4c-1.4,2.4-0.6,5.3,1.6,6.5c2.4,1.3,5.1,0.2,6.3-2.1
	c1.3-2.3,0.6-5.2-1.8-6.5C125.2,95.2,122.4,95.9,121.1,98.4C121.1,98.4,121.1,98.4,121.1,98.4z"/>
<path class="st0" d="M130.6,95c0.7,0.2,1.2,0.4,1.8-0.1h0l-0.8,2.2h0c-0.1-0.8-0.7-1-1.4-1.2l-5-1.8c-0.7-0.2-1.2-0.4-1.8,0.1h0
	l0.6-1.8h0c0.2,0,0.2,0,0.4-0.1l0.3-0.1l7.4-2.5l-4.7-1.7c-0.7-0.2-1.2-0.4-1.8,0.1l0,0l0.8-2.2h0c0.1,0.8,0.7,1,1.3,1.2l7,2.5
	c-0.6,0.8-1.2,1-2.1,1.3l-6.9,2.4L130.6,95L130.6,95L130.6,95z"/>
<path class="st0" d="M5.1,72c0-1.9,0.9-3.4,2.5-3.4c1.7,0,2.8,1.5,2.8,3.2c0,0.4,0,0.7-0.2,1.1c-0.1-1.3-0.9-2.6-2.3-2.6
	c-1.3,0-1.8,0.9-1.8,2.1c0,0.3,0,0.7,0.1,1l6.6-0.1c0.8,0,1.4,0,1.8-0.8h0l0.1,2.9h-0.1c-0.3-0.7-1.4-0.6-2-0.6l-5.5,0.1
	c-0.7,0-1.7-0.1-2,0.7h0L5.1,72L5.1,72L5.1,72z"/>
<path class="st0" d="M14.4,62.2c0.8,0.7,1,2,0.9,3c-0.1,1-0.5,1.9-1.3,2.5C13,68.4,12,68.3,11,68.2l-3.9-0.5
	c-0.7-0.1-1.7-0.3-2.1,0.4h0l0.3-2.8h0c0.2,0.8,1.3,0.8,1.9,0.9l3.9,0.5c1.9,0.2,2.9-0.5,3.1-2c0.1-0.8-0.1-1.7-0.8-2.2
	c-0.4-0.4-0.8-0.4-1.3-0.5l-4.4-0.5c-0.7-0.1-1.7-0.3-2.1,0.4h0l0.3-2.8h0C6.3,59.9,7.4,59.9,8,60l5.5,0.6c0.7,0.1,1.7,0.3,2.1-0.4
	h0l-0.2,2.2L14.4,62.2L14.4,62.2L14.4,62.2z"/>
<path class="st0" d="M9.8,51.9c-0.7,0.4-1.3,1.2-1.5,2C8,54.7,8,55.8,9,56.1c1.9,0.6,3.3-4.3,5.9-3.5c1.5,0.4,2.5,2.4,1.8,4.6
	c-0.2,0.9-0.6,1.7-1.2,2.4l-1.9-0.1c1-0.6,1.8-1.6,2.1-2.7c0.2-0.8,0.1-2.2-0.9-2.5c-2.2-0.7-3.2,4.3-6.2,3.4
	c-1.8-0.5-1.9-2.5-1.4-4.2c0.2-0.7,0.5-1.4,0.9-2L9.8,51.9L9.8,51.9z"/>
<path class="st0" d="M15.3,46.3L14.2,49l-2.8-2.8L15.3,46.3L15.3,46.3z M16.5,46.4l2.2,0.1c1.1,0,1.3,0,1.3,0.8l0,0l1.2-2.8l0,0
	c-0.7,0.6-1.6,0.5-2.5,0.5l-8.1-0.1L9.7,47l0,0c0.5-0.6,0.9-0.1,1.3,0.3l4.7,4.6c0.6,0.6,1.3,1.2,1.4,2.1l0,0l1-2.5l0,0
	c-0.5,0.5-0.9,0.3-1.5-0.3L15,49.8L16.5,46.4L16.5,46.4L16.5,46.4z"/>
<path class="st0" d="M20.2,42.6c0.7,0.4,1.2,0.8,2,0.3l0,0l-1.4,2.2l0,0c0-0.9-0.5-1.2-1.2-1.7l-4.9-3.1c-0.7-0.4-1.2-0.8-2-0.3l0,0
	l1.1-1.8h0c0.2,0,0.3,0,0.4,0l0.4,0l8.6-0.9l-4.7-3c-0.7-0.4-1.2-0.8-2-0.3l0,0l1.4-2.2l0,0c0,0.9,0.5,1.2,1.1,1.6l6.9,4.4
	c-0.9,0.7-1.5,0.8-2.6,0.9l-8.1,0.8L20.2,42.6L20.2,42.6L20.2,42.6z"/>
<path class="st0" d="M30.2,29.6c0.5,0.6,0.9,1.1,1.8,0.9l0,0l-1.9,1.7l0,0c0.3-0.9-0.1-1.3-0.6-1.9l-3.9-4.4c-0.5-0.6-0.9-1-1.8-0.9
	l0,0l1.6-1.4l0,0c0.2,0.1,0.3,0.1,0.4,0.1l0.4,0.1l8.5,1.5l-3.7-4.2c-0.5-0.6-0.9-1.1-1.8-0.9l0,0l1.9-1.7l0,0
	c-0.3,0.8,0.1,1.3,0.7,1.9l5.5,6.1c-1,0.4-1.7,0.4-2.7,0.2l-8-1.4L30.2,29.6L30.2,29.6z"/>
<path class="st0" d="M39.9,18.8l-2.5,1.5l-0.7-3.9L39.9,18.8L39.9,18.8L39.9,18.8z M40.8,19.5l1.8,1.3c0.9,0.7,1.1,0.7,0.6,1.4l0,0
	l2.5-1.6l0,0c-0.9,0.1-1.6-0.5-2.3-1l-6.6-4.8l-2,1.2l0,0c0.7-0.2,0.8,0.5,0.9,1l1.2,6.5c0.2,0.9,0.4,1.7-0.1,2.5l0,0l2.3-1.4l0,0
	c-0.7,0.1-0.9-0.3-1-1.1l-0.5-2.2L40.8,19.5L40.8,19.5L40.8,19.5z"/>
<path class="st0" d="M47.3,18c0.4,0.8,0.6,1.3,1.5,1.4l0,0l-2.6,1.2l0,0c0.5-0.6,0-1.5-0.3-2.1l-2.8-5.9l-1.2,0.6
	c-0.6,0.3-1.1,0.7-1.3,1.3l0,0l-0.3-1.8l0,0c0.2,0,0.4-0.1,0.5-0.1l0.3-0.2l5-2.3c0.2-0.1,0.4-0.2,0.6-0.4l0,0l0.3,1.8l0,0
	c-0.4-0.4-1-0.2-1.4,0L44.4,12L47.3,18C47.3,18,47.3,18,47.3,18z"/>
<path class="st0" d="M49,11.2c-0.2-0.6-0.5-1.7-1.3-1.7v0l2.6-0.9v0c-0.6,0.5-0.1,1.5,0.1,2.1l1.8,5.2c0.2,0.6,0.5,1.7,1.3,1.7l0,0
	L51,18.5l0,0c0.6-0.5,0.2-1.5-0.1-2.1L49,11.2C49,11.2,49,11.2,49,11.2z"/>
<path class="st0" d="M57.2,7.5c2.3-0.5,4,1.2,4.5,3.3c0.5,2.1-0.6,4-2.8,4.5c-2.2,0.5-4.1-1.3-4.5-3.3C53.9,9.9,55,8,57.2,7.5
	C57.2,7.5,57.2,7.5,57.2,7.5z M57.1,6.5c-3,0.6-4.9,3.4-4.3,6.1c0.6,2.9,3.5,4.4,6.3,3.8c2.8-0.6,4.8-3.3,4.2-6.2
	C62.7,7.6,60.1,5.8,57.1,6.5L57.1,6.5L57.1,6.5z"/>
<path class="st0" d="M65.7,13.1c0.1,0.8,0.1,1.4,0.9,1.8v0l-2.6,0.2v0c0.7-0.5,0.7-1.1,0.7-1.9l-0.4-5.8c-0.1-0.8-0.1-1.4-0.9-1.8v0
	l2.1-0.1l0,0c0.1,0.2,0.1,0.3,0.2,0.4L66,6l5.8,6.4l-0.3-5.6c-0.1-0.8-0.1-1.4-0.9-1.8v0l2.6-0.2v0c-0.7,0.5-0.7,1.1-0.7,1.9
	l0.5,8.2c-1.1-0.3-1.5-0.7-2.2-1.5l-5.4-6.1L65.7,13.1L65.7,13.1L65.7,13.1z"/>
<path class="st0" d="M79.8,10.8L77,10.4l1.9-3.5L79.8,10.8L79.8,10.8L79.8,10.8z M80.1,11.9l0.5,2.1c0.3,1.1,0.4,1.2-0.4,1.5v0
	l3,0.4v0c-0.8-0.5-0.9-1.4-1.2-2.2L80,5.8l-2.3-0.3v0C78.3,5.9,78,6.5,77.7,7l-3.2,5.8c-0.4,0.8-0.8,1.6-1.7,1.9v0l2.7,0.3v0
	c-0.7-0.4-0.5-0.8-0.1-1.5l1-2L80.1,11.9L80.1,11.9z"/>
<path class="st0" d="M87.4,16.2c0.9,0.3,1.9,0.2,2.7-0.2h0l-1.2,1.7l-5.8-1.6v0c0.8-0.1,1-1.1,1.2-1.8l1.5-5.3
	c0.2-0.6,0.6-1.7-0.1-2.1v0l2.7,0.8v0c-0.8,0.1-1,1.1-1.2,1.8l-1.7,6.2L87.4,16.2C87.4,16.2,87.4,16.2,87.4,16.2z"/>
<path class="st0" d="M100.6,22c-1,0.4-2.2,0.2-3.1-0.3c-0.8-0.5-1.6-1.2-1.8-2.2c-0.3-1.1,0.2-2,0.7-2.9l1.9-3.4
	c0.3-0.6,0.9-1.5,0.4-2.1l0,0l2.4,1.3l0,0c-0.8-0.1-1.2,0.9-1.5,1.4l-1.9,3.4c-0.9,1.7-0.7,2.9,0.7,3.6c0.7,0.4,1.6,0.5,2.4,0.1
	c0.5-0.2,0.7-0.6,0.9-1l2.1-3.9c0.3-0.6,0.9-1.5,0.4-2.1l0,0l2.4,1.3v0.1c-0.8-0.1-1.2,0.9-1.6,1.5l-2.7,4.9
	c-0.3,0.6-0.9,1.5-0.4,2.1l0,0l-1.9-1L100.6,22L100.6,22L100.6,22z"/>
<path class="st0" d="M104.8,23.5c-0.5,0.6-0.9,1.1-0.6,1.9l0,0l-2-1.6l0,0c0.9,0.1,1.2-0.3,1.8-1l3.6-4.6c0.5-0.6,0.9-1.1,0.5-1.9
	l0,0l1.7,1.3l0,0c-0.1,0.2-0.1,0.3-0.1,0.4l0,0.4v8.6l3.5-4.4c0.5-0.6,0.9-1.1,0.6-1.9l0,0l2,1.6l0,0c-0.9-0.1-1.2,0.3-1.7,1
	l-5.1,6.5c-0.6-0.9-0.7-1.6-0.7-2.6v-8.1L104.8,23.5L104.8,23.5L104.8,23.5z"/>
<path class="st0" d="M116.4,25.8c0.5-0.5,1.3-1.1,1-1.9l0,0l1.9,2l0,0c-0.7-0.3-1.4,0.5-1.9,1l-3.9,3.9c-0.5,0.5-1.3,1.1-1,1.9l0,0
	l-1.9-2l0,0c0.7,0.3,1.4-0.5,1.9-0.9L116.4,25.8L116.4,25.8L116.4,25.8z"/>
<path class="st0" d="M122.3,33.4c1.1-0.3,2.3-0.7,2-1.6l0,0l1.3,1.7l-10.3,3.2c-0.1-1.2-0.2-1.6,0.4-2.6l3.3-5.5
	c0.4-0.7,0.9-1.4,0.9-2.2l0,0l1.3,1.7l-0.2,0.1c-0.2,0.2-0.6,0.9-0.8,1.2l-3.6,5.8L122.3,33.4L122.3,33.4L122.3,33.4z"/>
<path class="st0" d="M120,40.1l0.8,1.7c0.4,0.9,1.2,1.6,2.1,1.9l0,0l-2,0.4l-3.2-5.2l0,0c0.6,0.5,1.5-0.1,2.1-0.5l4.7-2.9
	c0.6-0.3,1.5-0.8,1.4-1.6l0,0l2.4,4c0.1,0.2,0.2,0.4,0.4,0.5l0,0l-1.5,0.9l0,0c0.2-0.7-0.1-1.2-0.4-1.8c-0.3-0.4-0.5-0.9-0.9-1.2
	l-2.3,1.4l0.9,1.5c0.1,0.2,0.2,0.4,0.4,0.5l0,0l-1.3,0.8l0,0c0.2-0.4-0.1-0.9-0.3-1.3l-0.6-0.9L120,40.1L120,40.1L120,40.1z"/>
<path class="st0" d="M131.4,44c0.8,1.8,0.3,3.2-0.9,3.7c-1.2,0.5-2.6-0.1-3.3-1.1l-1.6,3c-0.4,0.9-0.8,2-0.9,3l-0.6-1.2
	c-0.3-0.7-0.3-1.2,0-1.8l1.3-2.5l1.3-2.1c0.6,1,1.7,2,3,1.5c1-0.4,1.2-1.5,0.7-2.4c-0.1-0.3-0.3-0.6-0.5-0.9l-6,2.7
	c-0.6,0.3-1.6,0.6-1.6,1.4l0,0l-1.1-2.6l0,0c0.6,0.6,1.5,0,2.1-0.2l5.1-2.2c0.6-0.3,1.6-0.6,1.6-1.4l0,0L131.4,44L131.4,44L131.4,44
	z"/>
<path class="st0" d="M133.8,55.4c0.4-0.7,0.5-1.7,0.2-2.5c-0.2-0.8-0.9-1.7-1.8-1.4c-1.9,0.6-0.5,5.4-3.1,6.2
	c-1.5,0.4-3.4-0.7-4-2.9c-0.2-0.9-0.4-1.8-0.3-2.6l1.6-0.9c-0.5,1-0.6,2.3-0.3,3.4c0.2,0.8,1.1,1.9,2,1.6c2.2-0.6,0.4-5.4,3.4-6.2
	c1.8-0.5,3,1.1,3.5,2.8c0.2,0.7,0.3,1.5,0.3,2.2L133.8,55.4L133.8,55.4L133.8,55.4z"/>
<path class="st0" d="M134,58c0.7-0.1,1.7-0.2,1.9-1h0l0.5,2.7h-0.1c-0.4-0.7-1.5-0.4-2.1-0.2l-5.4,1.1c-0.6,0.1-1.7,0.2-1.8,1h0
	l-0.5-2.7h0c0.4,0.7,1.4,0.4,2.1,0.2L134,58L134,58L134,58z"/>
<path class="st0" d="M129.4,65.3c-0.8,0.1-1.4,0.1-1.8,1h0l-0.3-2.9h0c0.4,0.7,1.4,0.5,2.1,0.4l6.5-0.7l-0.1-1.3
	c-0.1-0.6-0.3-1.3-0.8-1.7v0l1.8,0.3v0c-0.1,0.2,0,0.4,0,0.6l0,0.4l0.6,5.4c0,0.2,0.1,0.5,0.2,0.7v0l-1.8-0.3v0
	c0.5-0.2,0.5-0.8,0.4-1.3l-0.1-1.3L129.4,65.3L129.4,65.3L129.4,65.3z"/>
<path class="st0" d="M129.7,72.3c-0.9,0-1.3,0-1.9,0.7h0v-2.9h0c0.4,0.7,1.3,0.6,2,0.6h2.2l3.9-2.4c0.6-0.4,1.1-0.7,1.5-1.4v1.3
	c0,0.5-0.1,0.9-0.4,1.1l-3.8,2.3l2.7,1.8c0.4,0.2,1.1,0.6,1.5-0.2h0v2.6l-5.4-3.6L129.7,72.3L129.7,72.3z"/>
<path class="st0" d="M11.7,81.3c0,0.8-0.6,1.4-1.4,1.4s-1.4-0.6-1.4-1.4s0.6-1.4,1.4-1.4S11.7,80.6,11.7,81.3L11.7,81.3z"/>
<path class="st0" d="M133.4,81.3c0,0.8-0.6,1.4-1.4,1.4s-1.4-0.6-1.4-1.4s0.6-1.4,1.4-1.4S133.4,80.6,133.4,81.3L133.4,81.3z"/>
<path class="st0" d="M103.5,99.3h-24c-7.4,0.1-8.3,4.9-8.3,4.9c-1.5-5.5-8.7-4.9-8.7-4.9H39.1V64.9h22.6c7.5,0.1,9.5,6.1,9.5,6.1
	c2.5-6,10.2-6.1,10.2-6.1h22.1L103.5,99.3L103.5,99.3L103.5,99.3z M79.9,61.5c-6.6,0.2-8.7,4.1-8.7,4.1c-2.1-4-8.4-4.1-8.4-4.1H35.7
	v41.2h26.6c3.6,0,4.9,1.7,5.3,2.9H75c1.3-3.1,5-2.9,5-2.9h27V61.5L79.9,61.5L79.9,61.5z"/>
<path class="st0" d="M57.3,80.8h-9.9v10l0,0h13.6v0h0v-6.5h3.5v6.6h13.6v-6.6h3.4v6.5h13.6v-3.4h-9.9v-3.1h9.9V73.9H81.6v6.9h-3.4
	v-6.9h-3.7v6.9h-6.2v-6.9h-3.7v6.9h-3.4v-6.9H47.4v3.4h9.9L57.3,80.8L57.3,80.8L57.3,80.8z M57.3,87.4h-6.2v-3.1h6.2V87.4L57.3,87.4
	z M74.4,87.4h-6.2v-3.1h6.2V87.4L74.4,87.4z M85.3,77.3h6.2v3.5h-6.2V77.3L85.3,77.3z"/>
<polygon class="st0" points="69.2,42.5 72.6,41.4 69.2,41.4 69.2,42.5 "/>
<path class="st0" d="M62.1,47.2c1.2-1.3,2.5-1.1,2.5-0.6S64,47.8,64,47.8h-7.8l-4.3-6.2l0,0c-1.1-1.6-2.4-2.3-4.7-2.3H35.7v18.6
	c7,0,24.2,0,26.3,0c7.8,0.1,9.3,3.4,9.3,3.4c1.6-2.6,4.8-3.4,9.6-3.4H107V39.3H95.3c-2.2,0-3.6,0.7-4.7,2.3l0,0l-4.4,6.2h-6.5v-5.5
	l4.4-4.3h-4.6l1.2-1h-9.3c-1.9,0-3.3,0.8-3.9,1.8h-3.3c-3,0-4.1,1.7-3.5,3.9L62.1,47.2L62.1,47.2L62.1,47.2z M103.5,54.5H81.6
	c-5.8,0-8.6,0.4-10.4,2.4c-2-1.9-3.6-2.4-9.4-2.4H39.1V42.8h7.2c0.7,0,1.3,0.2,1.7,0.3c0.3,0.2,0.8,0.5,1.2,1
	c0.5,0.7,4.7,6.9,4.7,6.9H66c0,0,1.1-2.4,1.8-4c0.7-1.7,0.5-2.8-1.1-2.9c-1.3-0.1-2.1,0.2-2.2,0.7L64.1,43c-0.3-0.9-0.1-1.6,1.2-1.6
	h3.9c0,0,0.1-1.3,2.3-1.3H78l-1.8,1.7V51h12.7c0,0,4-6.2,4.5-6.9c0.4-0.5,0.9-0.9,1.2-1c0.4-0.2,1-0.4,1.7-0.4h7.3L103.5,54.5
	L103.5,54.5L103.5,54.5z"/>
<path class="st0" d="M65.8,94.4c0.5-0.2,0.9-0.5,1.1-0.9h0v2.9c0,0.3,0,0.5,0.3,0.7v0h-1.1v0c0.3-0.2,0.3-0.4,0.3-0.7v-2L65.8,94.4
	L65.8,94.4z"/>
<path class="st0" d="M68.5,97c0.8-0.2,1.6-0.9,1.6-1.8c0-0.5-0.3-1.1-0.9-1.1c-0.4,0-0.8,0.3-0.8,0.8c0,0.5,0.3,0.8,0.8,0.8
	c0.2,0,0.4-0.1,0.6-0.2L69.5,96C69.3,96,69.2,96,69,96c-0.6,0-1.1-0.5-1.1-1.1c0-0.8,0.6-1.3,1.4-1.3c0.8,0,1.4,0.6,1.4,1.4
	c0,0.6-0.3,1.2-0.8,1.5c-0.5,0.4-1,0.6-1.6,0.6L68.5,97L68.5,97L68.5,97z"/>
<path class="st0" d="M72.7,96.1c-0.5,0-0.8,0-1.1,0l1.1-1.9V96.1L72.7,96.1z M72.7,96.5v0.1c0,0.3,0,0.4-0.3,0.6v0h1v0
	c-0.2-0.1-0.2-0.4-0.2-0.6v-0.1h0.4l0.2-0.6c-0.2,0.2-0.4,0.2-0.7,0.2v-2.3h-0.7l-1.6,2.7H72.7L72.7,96.5z"/>
<path class="st0" d="M76.4,94c-0.3,0.1-0.8,0.3-1,0.6c-0.4,0.3-0.6,0.8-0.6,1.3c0,0.5,0.3,1.1,0.9,1.1c0.5,0,0.7-0.3,0.7-0.8
	c0-0.5-0.3-0.9-0.8-0.9c-0.2,0-0.4,0.1-0.6,0.2l0.3-0.4c0.1-0.1,0.3-0.1,0.5-0.1c0.7,0,1.1,0.4,1.1,1.1c0,0.7-0.6,1.3-1.3,1.3
	c-0.8,0-1.4-0.7-1.4-1.5c0-1.2,1.3-2.1,2.4-2.2L76.4,94L76.4,94L76.4,94z"/>
</svg>
