<?xml version="1.0" encoding="UTF-8"?><svg id="_레이어_2" xmlns="http://www.w3.org/2000/svg" viewBox="0 0 142.63 142.63"><path d="m142.63,71.32c0,39.38-31.93,71.31-71.31,71.31S0,110.7,0,71.32,31.93,0,71.32,0s71.31,31.93,71.31,71.32h0ZM71.32.97C32.47.97.97,32.47.97,71.32s31.49,70.34,70.34,70.34,70.33-31.49,70.33-70.34S110.16.97,71.32.97h0Z"/><path d="m122.99,71.32c0,28.54-23.14,51.68-51.68,51.68s-51.68-23.14-51.68-51.68,23.14-51.68,51.68-51.68,51.68,23.14,51.68,51.68h0Zm-51.68-50.71c-28.01,0-50.71,22.7-50.71,50.71s22.7,50.71,50.71,50.71,50.71-22.7,50.71-50.71-22.7-50.71-50.71-50.71h0Z"/><path d="m10.52,91.33c-.72.23-1.21.37-1.39,1.17h-.04s-.8-2.48-.8-2.48h.04c.44.54,1.34.17,1.9-.01l5.62-1.81-.35-1.11c-.17-.54-.5-1.06-.99-1.33v-.04s1.63-.04,1.63-.04v.04c0,.17.05.34.08.51l.1.32,1.51,4.7c.07.21.15.41.28.55v.04s-1.62.08-1.62.08v-.04c.38-.31.28-.83.14-1.25l-.37-1.13-5.74,1.85h0Z"/><path d="m19.42,94.89c.74,1.62.3,2.88-.8,3.38-1.06.48-2.31-.06-2.99-.95l-1.38,2.73c-.39.79-.67,1.84-.79,2.72l-.51-1.11c-.29-.64-.32-1.11-.04-1.67l1.15-2.3,1.19-1.88c.58.9,1.54,1.81,2.67,1.29.87-.4,1.03-1.37.63-2.16-.14-.27-.29-.52-.47-.77l-5.39,2.46c-.55.25-1.46.58-1.4,1.29l-.04.02-1.05-2.3.04-.02c.5.51,1.35.02,1.89-.22l4.53-2.07c.55-.25,1.47-.57,1.42-1.29l.04-.02,1.31,2.86h0Z"/><path d="m17.58,107.57c-.96-.08-1.81-.82-2.3-1.61-.47-.74-.73-1.67-.5-2.52.27-1,1.03-1.45,1.84-1.96l2.98-1.9c.5-.32,1.37-.76,1.22-1.46l.03-.02,1.35,2.12-.03.02c-.57-.42-1.34.16-1.84.48l-2.98,1.89c-1.49.94-1.78,2.01-1.05,3.16.4.62,1.06,1.1,1.82,1.13.49.03.76-.15,1.16-.41l3.36-2.13c.5-.32,1.36-.77,1.22-1.46l.03-.02,1.35,2.12-.03.03c-.57-.44-1.35.15-1.86.48l-4.21,2.67c-.5.32-1.36.77-1.21,1.47l-.04.02-1.04-1.64.74-.47h0Z"/><path d="m22.5,112.58c-.58.48-.98.8-.85,1.6l-.03.03-1.68-2.01.03-.03c.62.35,1.31-.33,1.76-.72l4.53-3.78-.75-.9c-.36-.44-.86-.8-1.41-.87l-.03-.03,1.5-.65.03.03c.05.17.16.3.25.45l.21.25,3.17,3.79c.14.17.29.33.46.41l.03.03-1.48.68-.03-.03c.24-.43-.04-.88-.33-1.21l-.76-.91-4.63,3.87h0Z"/><path d="m27.97,114.83l-1.62,1.77c-.4.44-1.11,1.1-.79,1.73l-.03.03-1.85-1.7.03-.03c.66.26,1.25-.51,1.65-.94l3.38-3.69c.4-.44,1.12-1.09.79-1.73l.03-.03,1.86,1.7-.03.03c-.66-.26-1.25.51-1.66.96l-1.11,1.21,3.52,3.22,1.11-1.21c.41-.45,1.13-1.1.8-1.74l.03-.03,1.86,1.7-.03.03c-.67-.27-1.26.5-1.66.94l-3.38,3.69c-.4.44-1.11,1.1-.78,1.74l-.03.03-1.86-1.71.03-.03c.67.27,1.25-.51,1.65-.94l1.62-1.77-3.52-3.22h0Z"/><path d="m40.38,128.05c.76.49,1.59.6,2.44.44l.04.02-1.46,1.2-4.75-2.65.02-.04c.71.12,1.11-.77,1.4-1.29l2.43-4.35c.3-.53.84-1.33.37-1.88l.02-.04,2.2,1.23-.02.04c-.71-.11-1.11.79-1.4,1.31l-2.82,5.04,1.51.98h0Z"/><path d="m46.11,124.35c.25-.55.74-1.39.23-1.9l.02-.04,2.29,1.05-.02.04c-.71-.05-1.04.88-1.29,1.42l-2.07,4.54c-.25.54-.72,1.38-.22,1.89l-.02.04-2.29-1.05.02-.03c.7.06,1.04-.87,1.28-1.41l2.08-4.53h0Z"/><path d="m49.47,132l1.03-3.1.89.24c1.12.3,2.13,1.22,1.73,2.44-.4,1.19-1.6,1.32-2.59.88l-1.06-.46h0Zm-1.03-1.19c-.19.58-.42,1.52-1.12,1.55v.04s2.06.69,2.06.69c.94.31,1.92.68,2.94.54.98-.12,1.92-.73,2.24-1.7.41-1.23-.26-2.29-1.31-2.9.82-.08,1.52-.37,1.8-1.21.37-1.12-.36-2.14-2.02-2.69l-2.97-.99v.04c.55.45.16,1.34-.03,1.9l-1.57,4.74h0Zm2.33-2.74l.82-2.46.87.19c.78.17,1.43.89,1.15,1.76-.34,1.03-1.6.92-2.42.65l-.42-.14h0Z"/><path d="m57.28,134.34l1.61.49c.84.25,1.79.16,2.55-.28h.04s-.93,1.59-.93,1.59l-5.41-1.1v-.04c.71-.1.83-1.07.95-1.65l.99-4.89c.12-.6.39-1.53-.22-1.91v-.04s4.16.84,4.16.84c.22.04.44.12.62.06h.04s-.31,1.53-.31,1.53h-.04c-.31-.56-.83-.72-1.42-.84-.45-.09-.91-.17-1.34-.18l-.49,2.41,1.54.31c.21.04.41.08.58.04h.04s-.28,1.38-.28,1.38h-.04c-.13-.43-.68-.52-1.08-.61l-.96-.2-.62,3.07h0Z"/><path d="m66.04,127.92c1.77.15,2.65,1.16,2.54,2.36-.1,1.16-1.2,1.98-2.3,2.13l1.69,2.55c.5.73,1.26,1.49,1.97,2.03l-1.21-.1c-.7-.06-1.12-.27-1.47-.79l-1.43-2.13-1.05-1.97c1.07-.06,2.34-.45,2.44-1.68.08-.95-.69-1.57-1.57-1.61-.3-.01-.6,0-.9.03l-.52,5.9c-.05.61-.22,1.56.43,1.86v.04s-2.52-.22-2.52-.22v-.04c.7-.18.69-1.16.74-1.76l.43-4.97c.05-.61.23-1.56-.42-1.87v-.04s3.14.28,3.14.28h0Z"/><path d="m73.32,135.24c.02.75.02,1.27.73,1.66v.04l-2.62.07v-.04c.65-.27.55-1.23.53-1.83l-.15-5.9-1.16.03c-.57.01-1.16.17-1.56.57h-.04s.42-1.58.42-1.58h.04c.16.06.33.06.51.08h.33s4.93-.13,4.93-.13c.22,0,.44-.03.61-.11h.04s-.39,1.58-.39,1.58h-.04c-.18-.46-.71-.51-1.15-.5l-1.19.03.16,6.03h0Z"/><path d="m80.44,134.61c.1.79.16,1.18.89,1.58v.04s-2.55.34-2.55.34v-.04c.59-.41.39-1.25.31-1.87l-.26-1.94-2.64-3.21c-.43-.53-.75-.93-1.42-1.19l1.19-.16c.42-.05.83-.02,1.03.24l2.55,3.14,1.3-2.66c.18-.36.4-1.03-.38-1.28v-.04s2.29-.31,2.29-.31l-2.58,5.28.28,2.07h0Z"/><path d="m89.62,126.35c.34-.23.69-.41,1.06-.56,2.07-.78,3.69-.14,4.51,2.02.8,2.14-.48,3.73-2.32,4.42-.31.12-.62.2-.94.26l-2.31-6.14h0Zm.75,5.81c.27.73.57,1.29.11,1.95v.04s2.99-1.12,2.99-1.12c2.77-1.04,4-3.46,3.08-5.89-.93-2.46-3.26-3.34-6.08-2.27l-3.03,1.14v.04c.71-.05.97.88,1.18,1.45l1.76,4.67h0Z"/><path d="m100.14,128.94l1.56-.64c.81-.33,1.49-1,1.81-1.82l.04-.02.28,1.81-4.89,2.55-.02-.03c.49-.52-.04-1.36-.31-1.88l-2.31-4.42c-.28-.54-.66-1.43-1.37-1.34l-.02-.04,3.75-1.96c.2-.1.41-.19.52-.35l.04-.02.72,1.37-.03.02c-.59-.23-1.09-.03-1.63.25-.41.21-.81.44-1.15.71l1.14,2.18,1.39-.73c.19-.1.37-.2.48-.34l.04-.02.65,1.24-.03.02c-.37-.24-.85.03-1.21.22l-.87.45,1.45,2.78h0Z"/><path d="m106.09,119.25c-.24-.97-.47-2.12-1.34-1.94l-.02-.03,1.63-1.11,2.24,9.49c-1.11.02-1.42.1-2.33-.55l-4.7-3.35c-.59-.42-1.19-.94-1.92-.98l-.02-.03,1.59-1.09.08.14c.17.24.74.64.99.82l4.98,3.57-1.19-4.94h0Z"/><path d="m109.95,114.05c1.54-1.4,3.71-.85,5.01.58,1.33,1.46,1.37,3.41-.12,4.76-1.54,1.4-3.79.87-5.03-.5-1.34-1.48-1.37-3.46.14-4.84h0Zm-.57-.76c-2.1,1.82-2.3,4.85-.61,6.71,1.83,2,4.72,1.9,6.66.14,1.94-1.77,2.28-4.72.47-6.72-1.6-1.76-4.48-2.01-6.52-.13h0Z"/><path d="m120.41,112.24c.58.49.96.83,1.73.56l.03.03-1.69,2-.03-.02c.24-.67-.55-1.23-1.01-1.62l-4.5-3.81-.75.89c-.37.43-.64.98-.61,1.54l-.03.03-.9-1.37.03-.03c.15-.08.26-.21.4-.32l.21-.25,3.19-3.77c.15-.17.27-.34.32-.52l.03-.03.93,1.34-.03.03c-.46-.17-.86.2-1.14.53l-.77.91,4.6,3.9h0Z"/><path d="m118.98,105.52c-.5-.35-1.24-.98-1.83-.57l-.03-.02,1.44-2.06.03.02c-.17.69.68,1.18,1.16,1.52l4.09,2.86c.49.34,1.23.96,1.82.56l.03.02-1.44,2.06-.04-.02c.18-.68-.66-1.17-1.15-1.51l-4.09-2.86h0Z"/><path d="m121.9,98.92c1-1.84,3.22-2.03,4.92-1.11,1.73.94,2.41,2.77,1.45,4.54-.99,1.82-3.29,2.06-4.92,1.18-1.75-.96-2.43-2.81-1.45-4.62h0Zm-.79-.54c-1.38,2.41-.58,5.33,1.63,6.53,2.38,1.29,5.09.25,6.34-2.05,1.26-2.31.6-5.21-1.77-6.5-2.09-1.14-4.89-.43-6.2,2.02h0Z"/><path d="m130.64,94.98c.7.24,1.19.43,1.81-.09h.04s-.78,2.22-.78,2.22h-.04c-.15-.81-.66-.98-1.35-1.23l-4.98-1.75c-.7-.24-1.2-.42-1.8.1h-.04s.64-1.83.64-1.83h.01c.17,0,.25-.02.38-.07l.31-.09,7.37-2.54-4.73-1.66c-.7-.25-1.19-.44-1.8.1l-.04-.02.77-2.19h.04c.14.79.65.97,1.35,1.21l7,2.46c-.61.78-1.16,1.02-2.06,1.32l-6.93,2.37,4.83,1.7h0Z"/><path d="m5.08,72.04c-.03-1.91.86-3.37,2.5-3.4,1.69-.03,2.78,1.52,2.81,3.17,0,.37-.03.73-.19,1.07-.09-1.26-.9-2.61-2.3-2.58-1.29.02-1.79.94-1.76,2.11,0,.35.04.69.11,1.03l6.61-.12c.82-.01,1.41,0,1.83-.79h.04l.05,2.92h-.05c-.28-.74-1.36-.63-2.02-.62l-5.52.1c-.66,0-1.73-.06-2.01.68h-.04l-.06-3.56h0Z"/><path d="m14.41,62.23c.77.74.98,1.97.86,3-.11.96-.53,1.94-1.33,2.52-.93.67-1.91.53-2.95.41l-3.89-.46c-.65-.08-1.7-.3-2.07.41h-.04s.32-2.77.32-2.77h.04c.19.77,1.26.8,1.92.88l3.89.46c1.94.23,2.93-.48,3.11-1.98.1-.81-.14-1.68-.77-2.24-.4-.37-.76-.4-1.29-.46l-4.38-.51c-.66-.08-1.71-.29-2.07.41h-.04s.33-2.77.33-2.77h.04c.19.77,1.26.8,1.94.88l5.49.64c.66.08,1.71.29,2.07-.42h.04s-.25,2.15-.25,2.15l-.96-.12h0Z"/><path d="m9.79,51.92c-.72.38-1.3,1.16-1.54,1.95-.24.8-.23,1.9.74,2.19,1.92.57,3.33-4.28,5.93-3.51,1.51.44,2.45,2.43,1.8,4.63-.25.86-.63,1.68-1.16,2.39l-1.88-.11c.96-.62,1.75-1.64,2.08-2.74.24-.8.12-2.15-.87-2.45-2.19-.65-3.23,4.31-6.21,3.43-1.77-.52-1.91-2.54-1.41-4.25.21-.7.52-1.39.93-2l1.59.47h0Z"/><path d="m15.29,46.35l-1.12,2.66-2.84-2.78,3.96.12h0Zm1.16.03l2.21.08c1.1.04,1.29-.01,1.31.78l.04.02,1.17-2.77-.04-.02c-.71.61-1.57.53-2.48.51l-8.11-.12-.9,2.13.04.02c.47-.56.94-.07,1.34.33l4.68,4.64c.64.62,1.3,1.17,1.36,2.12l.04.02,1.05-2.48-.04-.02c-.52.54-.87.29-1.5-.32l-1.61-1.51,1.44-3.4h0Z"/><path d="m20.25,42.59c.69.44,1.18.77,1.98.35l.04.02-1.39,2.2-.04-.02c.03-.9-.46-1.22-1.16-1.66l-4.94-3.14c-.7-.44-1.19-.76-1.97-.35l-.04-.02,1.14-1.81h.01c.18.05.27.04.43.02l.36-.02,8.59-.91-4.69-2.98c-.7-.44-1.18-.76-1.97-.35l-.04-.02,1.38-2.18.04.02c-.04.88.46,1.19,1.15,1.63l6.95,4.41c-.85.69-1.5.82-2.56.91l-8.08.83,4.79,3.04h0Z"/><path d="m30.21,29.6c.54.61.92,1.06,1.8.89l.03.03-1.94,1.72-.03-.03c.28-.86-.11-1.3-.65-1.91l-3.88-4.38c-.54-.61-.93-1.05-1.8-.88l-.03-.03,1.6-1.42h0c.16.11.26.12.41.14l.35.08,8.51,1.51-3.69-4.16c-.54-.62-.92-1.06-1.79-.88l-.03-.03,1.93-1.71.03.03c-.28.83.11,1.27.66,1.89l5.46,6.15c-1.01.43-1.67.37-2.71.17l-8-1.43,3.77,4.25h0Z"/><path d="m39.88,18.76l-2.45,1.54-.74-3.9,3.18,2.37h0Zm.94.69l1.77,1.33c.88.66,1.07.73.63,1.39l.02.04,2.55-1.6-.02-.04c-.94.09-1.6-.47-2.33-1l-6.58-4.75-1.96,1.23.02.04c.71-.19.81.48.91,1.04l1.18,6.48c.17.88.4,1.71-.1,2.52l.03.04,2.28-1.43-.02-.04c-.74.15-.88-.26-1.05-1.12l-.45-2.16,3.13-1.96h0Z"/><path d="m47.27,18.02c.36.76.58,1.28,1.48,1.36l.02.04-2.63,1.23-.02-.04c.55-.56.01-1.49-.26-2.09l-2.77-5.92-1.17.55c-.57.27-1.1.69-1.33,1.27l-.04.02-.27-1.8.04-.02c.19,0,.36-.09.55-.14l.33-.16,4.95-2.32c.23-.11.43-.22.57-.38l.04-.02.31,1.78-.04.02c-.39-.38-.95-.2-1.39,0l-1.2.56,2.83,6.06h0Z"/><path d="m49.05,11.18c-.23-.63-.49-1.68-1.29-1.69v-.04s2.62-.93,2.62-.93v.04c-.59.51-.14,1.5.08,2.12l1.85,5.21c.22.62.49,1.66,1.28,1.68l.02.04-2.63.93-.02-.04c.6-.49.16-1.48-.06-2.11l-1.85-5.21h0Z"/><path d="m57.19,7.51c2.27-.49,4.04,1.24,4.49,3.33.46,2.13-.58,4.03-2.76,4.5-2.25.49-4.11-1.27-4.55-3.27-.47-2.16.6-4.08,2.82-4.56h0Zm-.12-1.05c-3.02.58-4.89,3.37-4.3,6.1.64,2.94,3.47,4.45,6.31,3.83,2.85-.62,4.81-3.27,4.18-6.19-.56-2.58-3.18-4.41-6.18-3.74h0Z"/><path d="m65.66,13.09c.05.82.07,1.41.87,1.81v.04s-2.59.16-2.59.16v-.04c.75-.5.71-1.09.66-1.91l-.36-5.84c-.05-.82-.08-1.4-.87-1.8v-.04s2.13-.13,2.13-.13h0c.07.19.13.26.24.37l.22.28,5.77,6.44-.34-5.55c-.05-.82-.07-1.41-.87-1.8v-.04s2.57-.15,2.57-.15v.04c-.73.49-.7,1.07-.65,1.89l.5,8.21c-1.06-.29-1.54-.74-2.24-1.54l-5.41-6.06.35,5.66h0Z"/><path d="m79.84,10.78l-2.87-.35,1.89-3.49.97,3.84h0Zm.29,1.13l.53,2.15c.27,1.07.36,1.24-.39,1.47v.04s2.98.37,2.98.37v-.04c-.77-.52-.93-1.37-1.17-2.24l-2.11-7.84-2.3-.28v.04c.67.31.31.88.05,1.38l-3.18,5.77c-.42.79-.77,1.57-1.66,1.89v.04s2.67.33,2.67.33v-.04c-.66-.35-.51-.76-.1-1.53l1.01-1.96,3.67.45h0Z"/><path d="m87.4,16.16c.95.32,1.87.23,2.74-.17h.04s-1.25,1.69-1.25,1.69l-5.81-1.61v-.04c.81-.05,1.01-1.12,1.19-1.76l1.48-5.33c.18-.65.55-1.66-.1-2.13v-.04s2.71.75,2.71.75v.04c-.81.07-1,1.14-1.18,1.78l-1.71,6.16,1.89.66h0Z"/><path d="m100.63,22.04c-.98.43-2.2.16-3.1-.33-.85-.47-1.6-1.23-1.83-2.18-.27-1.12.23-1.97.73-2.89l1.88-3.43c.32-.58.92-1.47.4-2.07l.02-.04,2.44,1.34-.02.04c-.78-.11-1.21.87-1.53,1.45l-1.88,3.43c-.94,1.71-.65,2.9.67,3.63.72.39,1.61.5,2.37.13.49-.23.66-.56.91-1.02l2.12-3.87c.32-.58.91-1.47.4-2.07l.02-.04,2.44,1.34v.05c-.8-.12-1.24.87-1.56,1.46l-2.66,4.85c-.32.58-.91,1.47-.39,2.08l-.02.04-1.89-1.04.47-.85h0Z"/><path d="m104.82,23.54c-.51.64-.89,1.1-.56,1.93l-.02.04-2.04-1.61.03-.04c.89.12,1.25-.34,1.76-.98l3.62-4.59c.51-.64.87-1.1.54-1.92l.03-.03,1.68,1.33h0c-.06.19-.06.28-.05.44l-.02.36v8.64s3.46-4.36,3.46-4.36c.51-.64.88-1.1.55-1.92l.02-.03,2.03,1.6-.03.04c-.87-.13-1.23.33-1.74.98l-5.1,6.46c-.6-.92-.66-1.58-.65-2.64v-8.12s-3.51,4.45-3.51,4.45h0Z"/><path d="m116.45,25.75c.48-.47,1.32-1.15,1-1.88l.03-.03,1.95,1.99-.03.03c-.71-.33-1.43.49-1.9.95l-3.95,3.87c-.47.46-1.3,1.15-.98,1.87l-.03.03-1.95-1.99.03-.03c.7.34,1.42-.48,1.89-.94l3.95-3.87h0Z"/><path d="m122.31,33.41c1.06-.34,2.32-.69,2.04-1.63l.04-.03,1.35,1.71-10.31,3.23c-.11-1.23-.23-1.56.42-2.62l3.33-5.46c.41-.68.95-1.38.94-2.2l.03-.03,1.33,1.68-.15.1c-.25.2-.64.86-.83,1.16l-3.55,5.79,5.36-1.71h0Z"/><path d="m120,40.13l.81,1.69c.42.87,1.21,1.58,2.14,1.87l.02.04-1.99.43-3.16-5.24.04-.02c.61.51,1.5-.13,2.06-.47l4.74-2.86c.58-.35,1.54-.83,1.39-1.61l.04-.02,2.42,4.02c.13.21.23.44.42.55l.02.04-1.47.89-.02-.04c.22-.66-.05-1.21-.39-1.79-.27-.44-.54-.87-.86-1.23l-2.33,1.41.9,1.5c.12.2.24.4.41.51l.02.04-1.33.8-.02-.04c.24-.42-.09-.94-.32-1.33l-.56-.93-2.98,1.8h0Z"/><path d="m131.44,44.03c.8,1.8.3,3.19-.92,3.74-1.18.52-2.56-.1-3.31-1.08l-1.56,3.01c-.45.87-.77,2.03-.91,3l-.55-1.23c-.32-.71-.34-1.23-.02-1.85l1.3-2.54,1.34-2.07c.64,1,1.69,2.03,2.95,1.47.96-.43,1.16-1.51.71-2.39-.15-.3-.32-.58-.51-.87l-6,2.67c-.62.28-1.63.63-1.57,1.42l-.04.02-1.14-2.56.04-.02c.55.58,1.5.04,2.1-.22l5.05-2.25c.62-.28,1.64-.62,1.59-1.41l.04-.02,1.42,3.19h0Z"/><path d="m133.76,55.37c.4-.71.47-1.68.24-2.47-.24-.8-.85-1.72-1.81-1.44-1.93.57-.48,5.4-3.08,6.16-1.5.44-3.37-.72-4.02-2.92-.25-.86-.38-1.75-.32-2.64l1.64-.92c-.47,1.04-.58,2.32-.26,3.42.23.8,1.07,1.87,2.05,1.58,2.2-.64.38-5.37,3.36-6.25,1.77-.52,2.98,1.1,3.49,2.81.21.7.32,1.45.31,2.19l-1.59.47h0Z"/><path d="m133.98,57.97c.66-.13,1.73-.24,1.86-1.03h.04s.54,2.72.54,2.72h-.05c-.41-.66-1.46-.36-2.11-.23l-5.42,1.07c-.65.13-1.71.25-1.84,1.02h-.04s-.54-2.72-.54-2.72h.04c.4.66,1.45.36,2.1.23l5.42-1.07h0Z"/><path d="m129.38,65.34c-.83.09-1.4.14-1.77.96h-.04l-.32-2.88h.04c.36.69,1.41.49,2.07.42l6.5-.72-.14-1.28c-.07-.62-.3-1.27-.78-1.67v-.04s1.79.32,1.79.32v.04c-.05.18-.03.37-.03.57l.04.36.6,5.44c.03.25.07.48.18.66v.04s-1.78-.28-1.78-.28v-.04c.48-.25.49-.84.44-1.32l-.14-1.31-6.64.74h0Z"/><path d="m129.66,72.29c-.88,0-1.32,0-1.87.74h-.04s0-2.86,0-2.86h.04c.36.72,1.32.62,2.01.62h2.17s3.92-2.42,3.92-2.42c.64-.39,1.13-.69,1.51-1.39v1.33c0,.47-.11.91-.42,1.1l-3.83,2.34,2.72,1.82c.37.25,1.07.59,1.46-.23h.04s0,2.57,0,2.57l-5.42-3.62h-2.31Z"/><path d="m11.7,81.32c0,.77-.63,1.39-1.4,1.39s-1.39-.62-1.39-1.39.62-1.39,1.39-1.39,1.4.63,1.4,1.39h0Z"/><path d="m133.38,81.32c0,.77-.62,1.39-1.39,1.39s-1.39-.62-1.39-1.39.62-1.39,1.39-1.39,1.39.63,1.39,1.39h0Z"/><path d="m103.52,99.35h-23.99c-7.41.05-8.34,4.94-8.34,4.94-1.52-5.54-8.66-4.94-8.66-4.94h-23.45v-34.4h22.61c7.52.14,9.52,6.09,9.52,6.09,2.46-6.03,10.24-6.09,10.24-6.09h22.07s0,34.39,0,34.39h0Zm-23.6-37.82c-6.59.21-8.67,4.07-8.67,4.07-2.09-4.05-8.43-4.06-8.43-4.06h-27.17v41.2h26.61c3.63,0,4.91,1.71,5.34,2.93h7.36c1.27-3.09,4.98-2.91,4.98-2.91h27.05v-41.24h-27.06Z"/><path d="m57.34,80.8h-9.91v9.98h0s13.64,0,13.64,0v-.03h-.01v-6.52h3.46v6.55h13.61v-6.55h3.45v6.54h13.62v-3.45h-9.89v-3.1h9.89v-10.36h-13.63v6.92h-3.45v-6.92h-3.73v6.92h-6.17v-6.92h-3.72v6.92h-3.44v-6.92h-13.65v3.44h9.92v3.49h0Zm0,6.55h-6.19v-3.12h6.19v3.12h0Zm17.06,0h-6.17v-3.12h6.17v3.12h0Zm10.9-10.05h6.17v3.49h-6.17v-3.49h0Z"/><polygon points="69.25 42.46 72.55 41.37 69.25 41.37 69.25 42.46 69.25 42.46"/><path d="m62.14,47.18c1.21-1.27,2.47-1.11,2.47-.57s-.62,1.19-.62,1.19h-7.82l-4.28-6.18h0c-1.07-1.59-2.44-2.27-4.71-2.27h-11.52v18.6c7,0,24.24-.02,26.26,0,7.76.07,9.28,3.37,9.28,3.37,1.63-2.57,4.75-3.36,9.58-3.37h26.19v-18.61h-11.68c-2.25,0-3.62.69-4.69,2.27h0l-4.37,6.18h-6.49v-5.5l4.44-4.34h-4.59s1.16-1.01,1.16-1.01h-9.29c-1.87,0-3.34.76-3.88,1.82h-3.27c-3.01,0-4.11,1.7-3.5,3.92l1.33,4.48h0Zm41.38,7.35h-21.88c-5.83,0-8.55.39-10.41,2.41-2-1.94-3.56-2.4-9.39-2.4h-22.76v-11.75h7.15c.71-.01,1.3.15,1.69.35.29.16.8.51,1.18,1.03.47.66,4.72,6.87,4.72,6.87h12.22s1.14-2.36,1.84-4c.71-1.66.47-2.82-1.05-2.93-1.27-.1-2.07.2-2.21.73l-.54-1.86c-.32-.94-.09-1.62,1.22-1.62h3.95s.08-1.29,2.26-1.29h6.53l-1.84,1.7v9.26h12.68s4.03-6.21,4.51-6.87c.37-.52.88-.87,1.18-1.03.38-.2.97-.37,1.68-.39h7.29v11.78h0Z"/><path d="m65.83,94.44c.47-.16.89-.5,1.13-.91h.02v2.94c0,.3-.02.54.26.72v.02h-1.1v-.02c.32-.15.3-.4.3-.72v-2.01h-.61Z"/><path d="m68.53,96.98c.85-.17,1.61-.94,1.61-1.81,0-.53-.3-1.11-.91-1.11-.45,0-.77.35-.77.78,0,.48.32.85.8.85.2,0,.39-.06.56-.17l-.36.44c-.13.05-.28.07-.43.07-.62,0-1.1-.46-1.1-1.07,0-.77.62-1.28,1.37-1.28.82,0,1.37.64,1.37,1.43,0,.59-.32,1.18-.79,1.54-.47.38-1.01.57-1.61.64l.26-.32h0Z"/><path d="m72.7,96.08c-.46,0-.84-.02-1.12-.04l1.12-1.89v1.93h0Zm0,.41v.14c0,.27.04.45-.26.56v.02h1.02v-.02c-.23-.11-.24-.36-.24-.59v-.11h.42l.25-.62c-.18.15-.42.21-.67.21v-2.31h-.73l-1.63,2.72h1.83Z"/><path d="m76.42,94c-.35.05-.77.32-1.03.56-.36.33-.57.77-.57,1.27,0,.54.31,1.12.92,1.12.46,0,.73-.35.73-.79,0-.52-.28-.87-.81-.87-.2,0-.4.06-.58.17l.34-.43c.14-.06.3-.1.46-.1.66,0,1.13.45,1.13,1.1,0,.74-.6,1.26-1.33,1.26-.83,0-1.4-.66-1.4-1.46,0-1.24,1.26-2.05,2.39-2.15l-.26.33h0Z"/></svg>