<svg xmlns="http://www.w3.org/2000/svg" width="24" height="24" id="_레이어_2" x="0" y="0" style="enable-background:new 0 0 32 32" version="1.1" ><style>.st0{fill:#fff}</style><path d="M24 12c0 6.6-5.4 12-12 12S0 18.6 0 12 5.4 0 12 0s12 5.4 12 12zM12 .2C5.5.2.2 5.5.2 12S5.5 23.8 12 23.8 23.8 18.5 23.8 12 18.5.2 12 .2z" class="st0"/><path d="M20.7 12c0 4.8-3.9 8.7-8.7 8.7S3.3 16.8 3.3 12 7.2 3.3 12 3.3s8.7 3.9 8.7 8.7zM12 3.5c-4.7 0-8.5 3.8-8.5 8.5s3.8 8.5 8.5 8.5 8.5-3.8 8.5-8.5-3.8-8.5-8.5-8.5zM1.8 15.4c-.1 0-.2.1-.2.2l-.1-.4c.1.1.2 0 .3 0l.9-.3-.1-.2c0-.1-.1-.2-.2-.2h.3v.2l.3.8s0 .1.1.1h-.3c.1-.1.1-.1 0-.2l-.1-.3-.9.3zm1.5.6c.1.3.1.5-.1.6-.2.1-.4 0-.5-.2l-.2.5c-.1.1-.1.3-.1.5l-.1-.2c-.1-.1-.1-.2 0-.3l.2-.4.2-.3c.1.2.3.3.5.2.2-.1.2-.2.1-.4 0-.1-.1-.1-.1-.1l-.9.4c-.1 0-.3.1-.2.2l-.4-.4c.1.1.2 0 .3 0l.8-.4c.1 0 .3-.1.2-.2l.3.5zM3 18.1c-.2 0-.3-.1-.4-.3-.1-.1-.1-.3-.1-.4.1-.2.2-.2.3-.3l.5-.3c.1-.1.2-.1.2-.3l.2.4c-.1-.1-.2 0-.3.1l-.5.3c-.3.2-.3.3-.2.5.1.1.2.2.3.2s.1 0 .2-.1l.6-.4c.1-.1.2-.1.2-.3l.2.4c-.1-.1-.2 0-.3.1l-.7.5c-.1.1-.2.1-.2.3v-.4c-.1.1 0 0 0 0zM3.8 19c-.1.1-.2.1-.2.3l-.3-.3c.1.1.2-.1.3-.1l.8-.6-.1-.2c-.1-.1-.2-.1-.2-.2l.3-.1v.1l.5.6.1.1h-.3c0-.1 0-.2-.1-.2l-.1-.2c0 .1-.7.8-.7.8zm.9.3-.3.3c-.1.1-.2.2-.1.3l-.3-.3c.1.1.2-.1.3-.2l.6-.6c.1-.1.2-.2.1-.3l.3.3c-.1-.1-.2.1-.3.2l-.2.2.6.5.2-.2c.1-.1.2-.2.1-.3l.3.3c-.1-.1-.2.1-.3.2l-.6.6c-.1.1-.2.2-.1.3l-.3-.3c.1.1.2-.1.3-.2l.3-.3c0 .1-.6-.5-.6-.5zm2.1 2.3c.1.1.3.1.4.1l-.3.2-.8-.5c.1 0 .2-.1.2-.2l.4-.7c.1-.1.1-.2.1-.3l.4.2c-.1 0-.2.1-.2.2l-.5.8.3.2zm1-.7c0-.1.1-.2 0-.3l.4.2c-.1 0-.2.2-.2.2l-.4.8c0 .1-.1.2 0 .3l-.4-.2c.1 0 .2-.2.2-.2l.4-.8zm.5 1.3.2-.5h.2c.2.1.4.2.3.4-.1.2-.3.2-.4.2l-.3-.1zm-.2-.2c0 .1-.1.3-.2.3l.4.1c.2.1.3.1.5.1s.3-.1.4-.3c.1-.2-.1-.4-.2-.5.1 0 .3-.1.3-.2.1-.2-.1-.4-.3-.5l-.5-.2c.1.1 0 .2 0 .3l-.4.9zm.4-.4.1-.4h.2c.1 0 .2.2.2.3 0 .1-.2.1-.5.1zm1.1 1 .3.1c.1 0 .3 0 .4-.1l-.2.3-.8-.2c.1 0 .1-.2.2-.3l.2-.8c0-.1.1-.3 0-.3l.7.1h.1l-.2.3c-.1-.1-.1-.1-.2-.1h-.2l-.1.4.3.1h.1l-.1.2c0-.1-.1-.1-.2-.1h-.2l-.1.4zm1.5-1.1c.3 0 .5.2.4.4 0 .2-.2.3-.4.4l.3.4c.1.1.2.3.3.3h-.2c-.1 0-.2-.1-.3-.1l-.2-.4-.2-.3c.2 0 .4-.1.4-.3 0-.2-.1-.3-.3-.3h-.2l-.1 1c0 .1 0 .3.1.3h-.4c.1 0 .1-.2.1-.3l.1-.8c0-.1 0-.3-.1-.3h.7zm1.2 1.3c0 .1 0 .2.1.3H12c.1-.1.1-.2.1-.3v-1h-.2c-.1 0-.2 0-.3.1l.1-.3h1.1l-.1.2c0-.1-.1-.1-.2-.1h-.2v1.1z" class="st0"/><path d="M13.5 22.7c0 .1 0 .2.2.3l-.4.1c.1-.1.1-.2.1-.3l-.1-.3-.4-.5c-.2-.3-.2-.4-.3-.4h.4l.4.5.2-.5c0-.1.1-.2-.1-.2l.4-.1-.4.9v.5zm1.6-1.4c.1 0 .1-.1.2-.1.4-.1.6 0 .8.3s-.1.6-.4.7l-.2.1-.4-1zm.1.9c.1.1.1.2 0 .3l.5-.2c.5-.2.7-.6.5-1s-.6-.6-1-.4l-.5.3c.1 0 .2.2.2.2l.3.8zm1.6-.5.3-.1c.1-.1.3-.2.3-.3l.1.3-.8.4c.1-.1 0-.2-.1-.3l-.4-.7c-.1-.1-.1-.2-.2-.2l.6-.3s.1 0 .1-.1l.1.2h-.3c-.1 0-.1.1-.2.1l.2.4.2-.1s.1 0 .1-.1l.1.2h-.2l-.2.1.3.5zm1.1-1.6c0-.2-.1-.4-.2-.3l.3-.2.4 1.6c-.2 0-.2 0-.4-.1l-.8-.6c-.1-.1-.2-.2-.3-.2l.3-.2s.1.1.2.1l.8.6-.3-.7zm.6-.9c.3-.2.6-.1.8.1.2.3.2.6 0 .8-.3.2-.6.2-.8-.1-.2-.2-.3-.6 0-.8zm-.1-.1c-.4.3-.4.8-.1 1.1.3.3.8.3 1.1 0 .3-.3.4-.8.1-1.1-.3-.3-.8-.4-1.1 0zm1.9-.2c.1.1.2.1.3.1l-.3.3c0-.1-.1-.2-.2-.3l-.8-.6-.1.2c-.1.1-.1.2-.1.3l-.2-.2s.1 0 .1-.1l.5-.6.1-.1.2.2c-.1 0-.2 0-.2.1l-.1.2c0-.2.8.5.8.5zm-.3-1.1c-.1-.1-.2-.2-.3-.1l.2-.4c0 .1.1.2.2.3l.7.5c.1.1.2.2.3.1l-.2.4c0-.1-.1-.2-.2-.3l-.7-.5zm.5-1.2c.2-.3.5-.3.8-.2s.4.5.3.8c-.2.3-.6.4-.8.2-.3-.1-.5-.5-.3-.8zm-.1 0c-.2.4-.1.9.3 1.1s.9 0 1.1-.4.1-.9-.3-1.1c-.4-.2-.9-.1-1.1.4zM22 16c.1 0 .2.1.3 0l-.1.4c0-.1-.1-.2-.2-.2l-.8-.3c-.1 0-.2-.1-.3 0l.1-.3h.2l1.2-.4-.8-.3c-.1 0-.2-.1-.3 0l.1-.4c0 .1.1.2.2.2l1.2.4c-.1.1-.2.2-.4.2l-1.2.4.8.3zM.9 12.1c0-.3.2-.6.4-.6.3 0 .5.3.5.5v.2c0-.2-.2-.4-.4-.4s-.3.2-.3.4v.2h1.1c.1 0 .2 0 .3-.1v.5c-.1-.1-.2-.1-.3-.1h-.9c-.1 0-.3 0-.3.1-.1-.1-.1-.7-.1-.7zm1.5-1.6c.1.1.2.3.2.5s-.1.3-.2.4c-.2.1-.3.1-.5.1l-.7-.1c-.1 0-.3-.1-.4.1l.1-.5c0 .1.2.1.3.2l.7.1c.3 0 .5-.1.5-.3 0-.1 0-.3-.1-.4s-.1-.1-.2-.1l-.7-.1c-.1 0-.3-.1-.4.1l.1-.5c.1.1.3.1.4.2l.9.1c.1 0 .3.1.4-.1v.4c-.2-.1-.4-.1-.4-.1zm-.8-1.8-.3.3c-.1.1-.1.3.1.4.3.1.6-.7 1-.6.3.1.4.4.3.8 0 .2-.1.3-.2.4h-.3c.2-.1.3-.3.4-.5 0-.1 0-.4-.2-.4-.4-.1-.5.7-1 .6-.3-.1-.3-.4-.2-.7 0-.1.1-.2.2-.3h.2zm1-.9-.2.5-.5-.5h.7zm.2 0h.4c.2 0 .2 0 .2.1l.2-.5c-.1.1-.3.1-.4.1H1.8l-.2.4c.1-.1.2 0 .2.1l.8.8c.1.1.2.2.2.4l.2-.4c-.1.1-.2.1-.3-.1l-.3-.2.4-.7z" class="st0"/><path d="M3.4 7.2c.1.1.2.1.3.1l-.2.4c0-.2-.1-.2-.2-.3l-.8-.5c-.1-.1-.2-.1-.3-.1l.2-.3h.1l1.4-.2-.8-.5c-.1-.1-.2-.1-.3-.1l.2-.4c0 .2.1.2.2.3l1.2.7c-.2.1-.3.1-.4.2l-1.4.1.8.6zM5.1 5c.1.1.2.2.3.2l-.3.3c.1-.2 0-.2-.1-.3l-.7-.7c-.1-.1-.2-.2-.3-.2l.3-.2h.2l1.4.3-.6-.7c-.1-.1-.2-.2-.3-.2l.3-.3c-.1.1 0 .2.1.3l.9 1c-.2.1-.3.1-.5 0l-1.3-.2.6.7zM6.7 3.2l-.4.3-.1-.7.5.4zm.2.1.3.2c.2.1.2.1.1.2l.4-.3c-.2 0-.3-.1-.4-.2l-1.1-.8-.3.3c.1 0 .1.1.2.2L6.3 4c0 .2.1.3 0 .4l.4-.2c-.1 0-.2-.1-.2-.2l-.1-.4c-.1 0 .5-.3.5-.3zM8 3c.1.1.1.2.3.2l-.4.2c.1-.1 0-.3-.1-.4l-.5-1-.2.1c-.1.1-.2.1-.2.2L6.8 2H7l.8-.4s.1 0 .1-.1l.1.3c-.1-.1-.2 0-.2 0l-.2.1L8 3zm.2-1.1c0-.1-.1-.3-.2-.3l.4-.2c-.1.1 0 .3 0 .4l.3.9c0 .1.1.3.2.3l-.4.2c.1-.1 0-.3 0-.4l-.3-.9zm1.4-.6c.4-.1.7.2.8.6s-.1.7-.5.8-.7-.2-.8-.6c0-.4.2-.8.5-.8zm0-.2c-.5.1-.8.6-.7 1 .1.5.6.7 1.1.6.5-.1.8-.6.7-1-.1-.4-.6-.7-1.1-.6zm1.5 1.1c0 .1 0 .2.2.3h-.4c.1-.1.1-.2.1-.3l-.1-1c0-.1 0-.2-.2-.3h.4V1h.1l1 1.1-.1-.9c0-.1 0-.2-.2-.3h.4c-.1.1-.1.2-.1.3l.1 1.4c-.2-.1-.3-.1-.4-.3l-.9-1c0-.1.1.9.1.9z" class="st0"/><path d="m13.4 1.8-.5-.1.3-.6c.1.1.2.7.2.7zm.1.2.1.4c.1.2.1.2-.1.3l.5.1c-.1-.1-.2-.2-.2-.4l-.3-1.3-.4-.1c.1.1.1.2 0 .3l-.5 1c-.1.1-.1.3-.3.3l.5.1c-.1-.1-.1-.1 0-.3l.2-.3c-.1-.2.5-.1.5-.1zM14.7 2.7c.2.1.3 0 .5 0L15 3l-1-.3c.1 0 .2-.2.2-.3l.3-.9c0-.1.1-.3 0-.4l.5.1c-.1 0-.2.2-.2.3l-.3 1c-.1.1.2.2.2.2zm2.2 1c-.2.1-.4 0-.5-.1s-.3-.2-.3-.4c-.1-.2 0-.3.1-.5l.3-.6c.1-.1.2-.3.1-.4l.4.2c-.1 0-.2.2-.3.2l-.3.6c-.2.3-.1.5.1.6.1.1.3.1.4 0 .1 0 .1-.1.2-.2l.4-.7c.1-.1.2-.3.1-.4l.4.2c-.1 0-.2.2-.3.3l-.5 1.2c-.1.1-.2.3-.1.4l-.3-.2c0-.1.1-.2.1-.2zm.7.3c-.1.1-.2.2-.1.3l-.3-.3c.2 0 .2-.1.3-.2l.6-.8c.1-.1.2-.2.1-.3l.3.2v1.6l.6-.7c.1-.1.2-.2.1-.3l.3.3c-.2 0-.2.1-.3.2l-.9 1.1c-.1-.2-.1-.3-.1-.4V3.3c0-.1-.6.7-.6.7zm2 .3c.1-.1.2-.2.2-.3l.3.3c-.1-.1-.2.1-.3.2l-.7.7c-.1.1-.2.2-.2.3l-.3-.3c.1.1.2-.1.3-.2l.7-.7zm1 1.3c.2-.1.4-.1.3-.3l.2.3-1.7.5c0-.2 0-.3.1-.4l.6-.9c.1-.1.2-.2.2-.4l.2.3-.1.2-.6 1c-.2 0 .8-.3.8-.3zm-.4 1.1.1.3c.1.2.2.3.4.3l-.3.1-.5-.9c.1.1.3 0 .4-.1l.8-.5c.1-.1.3-.1.2-.3l.4.7s0 .1.1.1l-.3.2c0-.1 0-.2-.1-.3-.1-.1-.1-.2-.2-.2l-.4.2.2.3s0 .1.1.1l-.2.1c0-.1 0-.2-.1-.2l-.1-.2-.5.3zm1.9.7c.1.3.1.5-.2.6-.2.1-.4 0-.6-.2l-.3.5c-.1.2-.1.3-.2.5l.1-.1c-.1-.1-.1-.2 0-.3l.2-.4.2-.4c.1.2.3.3.5.3.2-.1.2-.3.1-.4 0-.1-.1-.1-.1-.2l-1 .5c-.1.1-.3.1-.3.2l-.2-.4c.1.1.3 0 .4 0l.9-.4c.1-.1.3-.1.3-.2l.2.4zM22.5 9.3c.1-.1.1-.3 0-.4 0-.1-.2-.3-.3-.2-.3.1-.1.9-.5 1-.3.1-.6-.1-.7-.5 0-.2-.1-.3-.1-.4l.3-.2c-.1.2-.1.4-.1.6 0 .1.2.3.3.3.4-.1.1-.9.6-1 .3-.1.5.2.6.5 0 .1.1.3.1.4l-.2-.1zm.1.5c.1 0 .3 0 .3-.2l.1.5c-.1-.1-.3-.1-.4 0l-.9.1c-.1 0-.3 0-.3.2l-.1-.5c.1.1.2.1.4 0l.9-.1zm-.8 1.2c-.1 0-.2 0-.3.2l-.1-.5c.1.1.2.1.4.1l1.1-.1v-.2c0-.1-.1-.2-.1-.3l.3.1v.2l.1.9v.1l-.3-.1c.1 0 .1-.1.1-.2V11h-1.2z" class="st0"/><path d="M21.8 12.2c-.2 0-.2 0-.3.1v-.5c.1.1.2.1.3.1h.4l.7-.4c.1-.1.2-.1.3-.2v.2c0 .1 0 .2-.1.2l-.6.4.5.3c.1 0 .2.1.3 0v.4l-.9-.6h-.6zM2 13.7c0 .1-.1.2-.2.2s-.2-.1-.2-.2.1-.2.2-.2.2.1.2.2zm20.5 0c0 .1-.1.2-.2.2s-.2-.1-.2-.2.1-.2.2-.2.2.1.2.2zm-5.1 3h-4c-1.2 0-1.4.8-1.4.8-.3-.9-1.5-.8-1.5-.8H6.6v-5.8h3.8c1.3 0 1.6 1 1.6 1 .4-1 1.7-1 1.7-1h3.7v5.8zm-4-6.3c-1.1 0-1.5.7-1.5.7-.4-.7-1.4-.7-1.4-.7H5.9v6.9h4.5c.6 0 .8.3.9.5h1.2c.2-.5.8-.5.8-.5h4.5v-6.9h-4.4z" class="st0"/><path d="M9.6 13.6H7.9v1.7h2.3v-1.1h.6v1.1h2.3v-1.1h.6v1.1H16v-.6h-1.7v-.5H16v-1.8h-2.3v1.2h-.6v-1.2h-.6v1.2h-1v-1.2h-.6v1.2h-.6v-1.2H8v.6h1.7c-.1 0-.1.6-.1.6zm0 1.1h-1v-.5h1v.5zm2.9 0h-1v-.5h1v.5zm1.9-1.7h1v.6h-1V13zm-2.8-5.8.6-.2h-.6v.2z" class="st0"/><path d="M10.5 7.9c.2-.2.4-.2.4-.1s-.1.2-.1.2H9.5l-.7-1c-.2-.3-.4-.4-.8-.4H6.1v3.1h4.4c1.3 0 1.6.6 1.6.6.3-.4.8-.6 1.6-.6h4.4V6.6h-2c-.4 0-.6.1-.8.4l-.7 1h-1.1v-.9l.7-.7h-.8l.2-.2H12c-.3 0-.6.1-.7.3h-.6c-.5 0-.7.3-.6.7l.4.7zm6.9 1.3h-3.7c-1 0-1.4.1-1.8.4-.3-.3-.6-.4-1.6-.4H6.5v-2h1.2c.1 0 .2 0 .3.1.1 0 .1.1.2.2S9 8.7 9 8.7h2s.2-.4.3-.7c.1-.3.1-.5-.2-.5-.2 0-.4 0-.4.1l-.1-.3c-.1-.2 0-.3.2-.3h.7s0-.2.4-.2H13l-.3.3v1.5h2.1s.7-1 .8-1.2l.2-.2c.1 0 .2-.1.3-.1h1.2c.1.1.1 2.1.1 2.1zm-6.3 6.7c.1 0 .2-.1.2-.2v.5c0 .1 0 .1.1.1h-.2c.1 0 .1-.1.1-.1v-.3h-.2zm.4.4c.1 0 .3-.2.3-.3 0-.1-.1-.2-.2-.2s-.1.1-.1.1l.1.1h.1v.2l-.2.1c0-.1-.1-.2-.1-.3 0-.1.1-.2.2-.2s.2.1.2.2-.1.2-.1.3h-.2zm.7-.1H12l.2-.3v.3zm0 0c0 .1 0 .1 0 0 .1.1.1.1 0 0h.2v-.1c0 .1 0 .1-.2.1l.1-.5h-.1l-.3.5h.3zm.7-.4c-.1 0-.1.1-.2.1-.1.1-.1.1-.1.2s.1.2.2.2.1-.1.1-.1l-.1-.2h-.1l.2-.2c.1.1.2.2.2.3 0 .1-.1.2-.2.2s-.2-.1-.2-.3c-.2-.1 0-.2.2-.2z" class="st0"/></svg>