<?xml version="1.0" encoding="UTF-8"?><svg id="_레이어_2" xmlns="http://www.w3.org/2000/svg" viewBox="0 0 160.82 38.25"><g id="_레이어_1-2"><path d="M98.36,26.29c-13.06,1.09-26.15,1.71-39.25,1.86-12.91,.14-25.9-.01-38.78-.98-4.74-.36-10.11-.77-14.36-3.08-1.43-.77-3.2-2.07-2.95-3.92,.31-2.33,2.8-4.01,4.67-5.04,5.07-2.77,11.07-3.77,16.67-4.88,5.98-1.18,11.99-2.21,18.03-3.09,25-3.66,50.38-4.86,75.62-3.78,6.33,.27,12.66,.69,18.97,1.26,5,.45,10.08,1.13,14.84,2.79,2.02,.7,7.14,2.63,5.95,5.69-.61,1.56-2.41,2.57-3.8,3.3-2.13,1.12-4.44,1.89-6.75,2.56-5.7,1.65-11.6,2.65-17.41,3.82-6.34,1.28-12.69,2.53-19.04,3.75-12.85,2.47-25.71,4.84-38.6,7.09-3.25,.57-6.51,1.13-9.77,1.69-1.9,.32-1.09,3.22,.8,2.89,13.81-2.36,27.59-4.84,41.35-7.44,6.77-1.28,13.53-2.59,20.28-3.93s12.97-2.46,19.38-3.98c4.72-1.12,9.99-2.46,13.86-5.53,2.96-2.35,3.85-6.13,1.12-9.06-2.97-3.2-8.07-4.39-12.16-5.23-5.87-1.21-11.89-1.61-17.85-2.03C102.53-.86,75.67-.14,49.17,3.24c-6.45,.82-12.88,1.79-19.28,2.94s-12.54,2.14-18.51,4.16C6.9,11.85,.38,14.69,.01,20.21c-.32,4.86,5.29,7.23,9.13,8.28,5.51,1.5,11.31,1.74,16.98,2.02,6.88,.34,13.77,.56,20.66,.64,13.78,.16,27.57-.2,41.32-1.09,3.42-.22,6.84-.48,10.26-.76,1.91-.16,1.93-3.16,0-3h0Z" style="fill:#e8361e;"/></g></svg>