<?xml version="1.0" encoding="UTF-8"?><svg id="_레이어_2" xmlns="http://www.w3.org/2000/svg" viewBox="0 0 285.66 60"><defs><style>.cls-1{fill:none;}.cls-1,.cls-2,.cls-3{stroke-width:0px;}.cls-2{fill:#97a1ad;}.cls-3{fill:#eaecee;}</style></defs><g id="_레이어_1-2"><path class="cls-1" d="m214.12,35.28c-2.86,0-4.77,2.24-4.77,5.8s1.91,5.72,4.81,5.72c3.56,0,5.02-2.61,5.02-5.76s-1.66-5.76-5.06-5.76Z"/><path class="cls-1" d="m188.08,46.47c0,1.99,1.33,2.69,3.32,2.69,3.23,0,5.02-1.99,5.02-4.06v-3.19c-.99.58-2.53.91-3.94,1.24-2.94.66-4.39,1.33-4.39,3.32Z"/><path class="cls-1" d="m102.03,49.59c-3.74,0-6.06-2.91-6.06-7.6s2.32-7.64,6.06-7.64c1.88,0,3.45.76,4.52,2.2,1.01,1.34,1.54,3.22,1.54,5.44s-.53,4.09-1.54,5.42c-1.08,1.42-2.64,2.17-4.52,2.17Z"/><path class="cls-1" d="m102.03,35.03c-3.48,0-5.39,2.82-5.39,6.96s1.91,6.92,5.39,6.92,5.39-2.78,5.39-6.92-1.95-6.96-5.39-6.96Z"/><path class="cls-1" d="m231.46,40.35l.14-.79c.28-1.59.86-2.83,1.72-3.68.96-.95,2.26-1.43,3.88-1.43,1.44,0,2.7.51,3.64,1.47.92.94,1.46,2.23,1.55,3.72l.04.72h-10.98Z"/><path class="cls-1" d="m237.2,35.11c-2.98,0-4.44,1.78-4.93,4.56h9.45c-.17-2.69-1.95-4.56-4.52-4.56Z"/><polygon class="cls-3" points="82.25 34.57 70.61 34.57 70.61 22.97 64.6 22.97 64.6 52.6 70.61 52.6 70.61 39.55 82.25 39.55 82.25 52.6 88.26 52.6 88.26 22.97 82.25 22.97 82.25 34.57"/><path class="cls-3" d="m102.03,30.76c-6.59,0-11.11,4.89-11.11,11.23s4.52,11.23,11.11,11.23,11.11-4.89,11.11-11.23-4.52-11.23-11.11-11.23Zm0,18.16c-3.48,0-5.39-2.78-5.39-6.92s1.91-6.96,5.39-6.96,5.39,2.82,5.39,6.96-1.95,6.92-5.39,6.92Z"/><path class="cls-3" d="m139.42,30.76c-2.69,0-4.93,1.41-6.38,3.73h-.08c-1.04-2.24-3.19-3.73-5.89-3.73-2.94,0-5.02,1.49-6.18,3.44h-.12v-2.86h-5.43v21.27h5.64v-12.35c0-2.82,1.53-4.64,3.81-4.64,2.07,0,3.27,1.24,3.27,3.65v13.35h5.64v-12.35c0-2.82,1.45-4.64,3.81-4.64,2.07,0,3.27,1.24,3.27,3.65v13.35h5.64v-14.3c0-4.64-2.53-7.54-7.01-7.54Z"/><path class="cls-3" d="m173.57,30.76c-2.69,0-4.93,1.41-6.38,3.73h-.08c-1.04-2.24-3.19-3.73-5.89-3.73-2.94,0-5.02,1.49-6.18,3.44h-.12v-2.86h-5.43v21.27h5.64v-12.35c0-2.82,1.53-4.64,3.81-4.64,2.07,0,3.27,1.24,3.27,3.65v13.35h5.64v-12.35c0-2.82,1.45-4.64,3.81-4.64,2.07,0,3.27,1.24,3.27,3.65v13.35h5.64v-14.3c0-4.64-2.53-7.54-7.01-7.54Z"/><path class="cls-3" d="m201.72,49.45v-10.82c0-4.97-2.57-7.83-8.95-7.83s-9,3.27-9.16,7.01h5.02c.17-2.03,1.45-2.98,4.1-2.98,2.36,0,3.57.99,3.57,2.53,0,1.62-1.62,1.91-5.14,2.4-4.73.66-8.54,2.16-8.54,6.84,0,4.23,3.07,6.51,7.42,6.51,3.65,0,5.18-1.24,6.26-2.86h.08c.12.95.33,1.95.66,2.36h5.43v-.21c-.5-.37-.75-1.33-.75-2.94Zm-5.31-4.35c0,2.07-1.78,4.06-5.02,4.06-1.99,0-3.32-.7-3.32-2.69s1.45-2.65,4.39-3.32c1.41-.33,2.94-.66,3.94-1.24v3.19Z"/><path class="cls-3" d="m219.01,33.58h-.08c-1.28-1.78-3.23-2.82-5.89-2.82-5.39,0-9.2,4.06-9.2,10.4s4.64,10.16,9.37,10.16c2.69,0,4.31-1.08,5.55-2.49h.12v2.32c0,2.9-1.53,4.44-4.73,4.44-2.61,0-3.81-1.04-4.27-2.36h-5.6c.58,4.15,4.15,6.63,9.95,6.63,3.15,0,5.89-.75,7.67-2.4,1.58-1.45,2.53-3.48,2.53-6.47v-19.65h-5.43v2.24Zm-4.85,13.22c-2.9,0-4.81-2.11-4.81-5.72s1.91-5.8,4.77-5.8c3.4,0,5.06,2.65,5.06,5.76s-1.45,5.76-5.02,5.76Z"/><path class="cls-3" d="m237.62,48.87c-3.19,0-5.02-2.03-5.43-5.31h15.42c0-7.59-3.65-12.81-10.49-12.81-6.22,0-10.49,4.89-10.49,11.19s3.98,11.28,11.03,11.28c5.47,0,8.83-3.19,9.62-6.96h-5.55c-.62,1.62-1.91,2.61-4.1,2.61Zm-.42-13.76c2.57,0,4.35,1.87,4.52,4.56h-9.45c.5-2.78,1.95-4.56,4.93-4.56Z"/><path class="cls-2" d="m62.65,51.35l-.63.13c-2.96.62-5.28-.82-6.9-4.28-.05-.1-.08-.18-.11-.24-.02-.04-.05-.1-.08-.16-.35-.68-1.05-2.06-2.14-2.7.37-2.71.13-5.48-.69-7.59-.48-1.23-1.46-2.7-2.42-4.12-1.06-1.58-2.16-3.22-2.46-4.37l-.3-1.17c-.46-1.77-.86-3.3-1.3-5.07v-.04s-.02-.04-.02-.04c-.05-.12-.09-.24-.13-.36-.22-.63-.46-1.29-1.01-1.84l-.03-.03-.04-.03c-.57-.43-1.33-.39-1.97.09l-.06.04-.05.06c-1.29,1.51-1.15,3.34-1.02,4.95.03.41.06.81.07,1.19-.48-.53-.95-1.06-1.41-1.58-1.12-1.27-2.27-2.57-3.51-3.87-.09-.1-.23-.26-.4-.46-3.39-3.97-4.79-5.1-5.75-4.63-.39.19-.64.53-.71.96-.12.75.18,2.12,3.6,6.03,2.17,2.48,4.69,4.94,5.41,5.65.69.68,1.52,1.01,2.34.9.29-.03.6-.12.88-.33.16.22.33.5.59.97.56,1.03.76,1.87.57,2.5-.04.1-.28.25-.46.35-.2.12-.43.26-.62.45-.34.34-.47.89-.47,1.28v.1c.15.95.04,2.07-.31,3.14-.18.43-.51.82-.86,1.23-.4.47-.82.96-1.08,1.58-.31.62-.63,1.64-.17,3.47-.56-.41-1.09-.86-1.56-1.4-.55-.64-.94-1.22-1.24-1.82-.7-1.4-1.33-2.55-1.99-3.62v-.02c-.46-.66-.9-1.23-1.33-1.78-.27-.35-.56-.71-.83-1.09-.09-.13-.22-.32-.37-.54-.61-.89-2.22-3.25-2.38-3.84-.06-.23-.08-.38-.08-.48.2.12.65.46,1.63,1.41.88.85,1.94,1.94,2.96,3,1.22,1.26,2.37,2.46,3.21,3.22.38.35,1.01.93,1.68.67.31-.12.53-.36.61-.67.18-.65-.31-1.38-.87-2.08l-.03-.04-.03-.03c-1.14-1.09-3.05-3.13-5.66-6.07-.17-.19-.24-.27-.27-.31-.37-.46-.75-.91-1.13-1.34-1.05-1.22-2.04-2.38-2.67-3.78,0-.04-.02-.08-.04-.12-.31-1.03-.2-1.32-.17-1.38.1-.06.19-.06.29,0,.9.91,1.69,1.84,2.52,2.82.43.51.88,1.04,1.34,1.57l.03.03c.91.91,2.64,2.88,2.81,3.08.09.12.63.8,1.26,1.5,1.36,1.49,1.95,1.69,2.35,1.7.3,0,.56-.12.74-.34.17-.21.33-.56.19-1.09-.07-.26-.21-.54-.43-.87-.36-.53-.89-1.12-1.44-1.75-.38-.42-.77-.86-1.1-1.27-.61-.76-1.35-1.55-2.12-2.37-.92-.98-1.87-1.99-2.67-3.03h-.01c-.44-.55-.85-1.08-1.25-1.59-.68-.87-1.33-1.7-2.06-2.54l-.03-.04c-.54-.54-1.09-.75-1.61-.63-.77.17-1.26.68-1.38,1.44-.09.55.01,1.14.11,1.72.07.38.14.78.12,1.07-.02.07-.09.14-.23.28-.18.17-.39.39-.52.71v.04c-.15.41-.15,1-.01,1.41v.04s.03.03.03.03c.27.59.57,1.18.86,1.76.27.54.55,1.1.8,1.64.04.33-.13.41-.19.44-.85.43-.83,1.37-.82,1.93,0,.06,0,.13,0,.19v.1c.21,1.42.71,2.65,1.55,3.77,1.41,2.16,2.56,3.99,3.41,6.11.2.53.33,1.09.46,1.68.14.62.28,1.25.52,1.88.42,1.1,1.09,2.13,2.09,3.24h0c.52.57,1.04,1.08,1.54,1.58,2.06,2.04,3.68,3.66,4.22,6.75.12.91-.25,2.72-1.8,3.74-1.25.82-5.81,1.22-11.97-2.82l-.45-.29c-.43-.32-.9-.76-1.38-1.21-1.83-1.7-4.33-4.02-7.66-3.16-1.79.46-3.74,1.94-5.81,3.5-2.78,2.1-5.66,4.28-7.6,3.46-1.18-.5-1.72-1.47-1.75-3.12-.02-1.62.47-3.68.95-5.67.5-2.06,1.01-4.19,1.02-6.04,0-2.25-.74-3.78-2.3-4.67l-.67,1.17c1.11.64,1.62,1.75,1.62,3.49,0,1.69-.5,3.74-.98,5.72C.49,50.55-.03,52.69,0,54.48c.03,2.17.9,3.64,2.57,4.35,2.66,1.13,5.86-1.29,8.94-3.62,1.87-1.42,3.81-2.88,5.33-3.27,2.62-.68,4.63,1.19,6.41,2.84.71.66,1.39,1.29,2.04,1.67l.12.07c3.44,2.23,6.3,3.04,8.1,3.32.69.11,1.35.16,1.96.16,1.35,0,2.49-.26,3.25-.76,1.87-1.24,2.62-3.49,2.39-5.07v-.02c-.62-3.53-2.46-5.36-4.6-7.49-.49-.49-.99-.99-1.5-1.53-.89-.99-1.47-1.89-1.83-2.82-.2-.53-.33-1.09-.46-1.69-.14-.62-.28-1.25-.52-1.88h0c-.89-2.24-2.13-4.21-3.54-6.37l-.02-.04c-.7-.93-1.12-1.95-1.29-3.13,0-.05,0-.11,0-.17,0-.18-.01-.65.08-.7.72-.36,1.07-1.12.9-1.99l-.02-.08-.03-.07c-.27-.59-.57-1.18-.86-1.76-.28-.55-.56-1.12-.82-1.68-.03-.13-.03-.38,0-.51.03-.06.12-.15.21-.24.08-.08.17-.17.26-.27.02.56.18,1.1.27,1.4,0,.01,0,.02.01.03v.06l.06.13c.7,1.62,1.82,2.92,2.91,4.18.37.43.75.87,1.11,1.32l.02.03.02.02s.14.15.26.29c.11.12.24.27.39.43-1.6-1.58-2.32-2.11-2.85-2.14-.57-.03-.9.22-1.08.43-.33.4-.38.98-.18,1.79.18.68,1.11,2.14,2.57,4.27.15.22.28.41.37.54l.02.02c.29.4.59.78.87,1.14.43.55.84,1.07,1.25,1.68.64,1.04,1.25,2.15,1.93,3.51.35.71.81,1.38,1.43,2.1h0c1.01,1.16,2.16,1.91,3.37,2.65.62,1.48,1.61,3.63,2.58,4.9,2.35,3.09,4.47,4.65,6.31,4.65.09,0,.18,0,.27-.01h.19s.15-.12.15-.12c.11-.08.37-.32.34-.78-.06-.92-1.51-2.96-2.73-4.43-1.06-1.27-3.14-3.56-5.25-4.68-.22-.13-.43-.26-.64-.39-.04-.03-.09-.05-.13-.08-.24-.57-.39-.99-.44-1.12-.4-1.29-.41-2.23-.04-2.97l.02-.04c.18-.44.52-.83.87-1.25.41-.48.83-.97,1.09-1.61l.02-.05c.42-1.26.56-2.58.39-3.73,0-.12.05-.25.08-.29.07-.07.22-.16.35-.24.36-.22.86-.51,1.05-1.09v-.02c.31-1.01.09-2.17-.67-3.55-.47-.85-.72-1.18-.99-1.54,0,0-.01-.01-.02-.02.04-.16.08-.34.1-.53v-.03c.06-.72,0-1.45-.05-2.16-.12-1.45-.23-2.83.65-3.9.07-.04.19-.1.27-.07.3.33.46.78.64,1.29.04.12.08.23.13.35.44,1.76.84,3.28,1.29,5.04l.31,1.17c.36,1.38,1.47,3.03,2.65,4.79.91,1.36,1.86,2.77,2.28,3.85.71,1.83.93,4.33.63,6.75-1.5.04-2.21,2.36-2.35,2.83-.12.44-.33,1.19.26,1.48l.04.02h.04c.5.19,1.01.16,1.49-.08.77-.38,1.25-1.22,1.44-1.87v-.03c.05-.17.09-.34.13-.51.56.56,1.02,1.44,1.21,1.82.04.07.07.13.09.18.01.03.05.1.08.17.27.58.99,2.11,2.3,3.35,1.62,1.52,3.63,2.12,5.85,1.73l.21-.03c.58-.08,1.13-.25,1.66-.5v-1.53c-.41.25-.83.44-1.27.56h0Zm-21.88-23.93h0c-.54.07-1-.3-1.22-.52h0c-.73-.71-3.27-3.19-5.42-5.67-2.61-3.01-3.1-4.23-3.18-4.65.26.16.79.55,1.74,1.53.89.92,1.8,1.99,2.35,2.63.18.21.33.38.42.49l.02.02c1.22,1.27,2.37,2.58,3.48,3.83.66.75,1.34,1.52,2.04,2.28-.08.05-.15.05-.2.06Zm-13.22-7.07s-.09.09-.14.13c-.02-.33-.08-.68-.14-1.01-.24-1.38-.13-1.53.23-1.61.03,0,.14.05.34.25.7.81,1.34,1.62,2.01,2.47.05.06.09.12.14.18-.12-.13-.24-.25-.37-.38l-.03-.03-.04-.03c-.3-.22-.64-.34-.98-.34s-.69.11-.99.34l-.03.03Zm18.24,30.32c1.1,1.32,1.82,2.4,2.18,3.06-1.27-.39-2.84-1.77-4.54-4-.55-.72-1.13-1.8-1.63-2.86,1.22.84,2.63,2.18,3.99,3.8Zm5.29-4.91c-.12.38-.35.73-.59.93.15-.46.4-1.03.7-1.37-.03.15-.07.29-.1.43Z"/><path class="cls-2" d="m277.6,53.23c-1.55,1.43-3.31,3.05-3.88,2.48-.42-.42-.39-1.36-.35-2.35.06-1.45.12-3.08-1.17-4.12-1.5-1.2-4.5-1.15-9.43.17-4.38,1.17-6.18-.06-6.92-1.31-.46-.77-.65-1.76-.64-2.81,3.17-1.22,6.44-3.08,7.22-5.12.3-.78.47-2.25-1.69-3.37-1.27-.65-2.74-.23-4.04,1.15-1.16,1.24-2.12,3.16-2.57,5.14-.1.42-.16.84-.21,1.24-.12.04-.25.09-.37.13-1.87.63-3.73,1.07-5.48,1.31l-.14.65c-.05.25-.12.5-.19.75,1.95-.23,4.04-.69,6.12-1.38.05,1.15.33,2.19.83,3.02.98,1.64,3.24,3.3,8.43,1.92,4.36-1.16,7.13-1.3,8.23-.42.76.61.72,1.78.67,3.01-.05,1.24-.1,2.52.74,3.36.71.71,1.67.7,2.86-.04.87-.54,1.85-1.44,2.89-2.4,2.22-2.04,4.73-4.35,6.86-3.89l.29-1.32c-2.82-.62-5.61,1.95-8.07,4.21Zm-19.92-14.36c.48-.51,1.13-1.03,1.82-1.03.2,0,.41.05.62.15,1.41.73,1.16,1.4,1.05,1.69-.48,1.27-2.73,2.83-5.8,4.09.34-1.87,1.22-3.74,2.31-4.9Z"/><path class="cls-2" d="m235.27,40.15c-.27-.39-.53-.77-.81-1.15-.29-.39-.59-.78-.9-1.16-1.28-1.51-2.88-2.76-5.4-3.19-.89-.15-1.89-.2-3.04-.12v1.36c.84-.07,1.6-.06,2.28.02,3.57.39,5.07,2.56,6.77,5.01.77,1.11,1.58,2.29,2.65,3.33,1.03,1.01,2.29,1.88,3.96,2.44.12-.2.23-.42.33-.66l.22-.58c-1.17-.31-1.62-.63-2.42-1.2-1.53-1.09-2.56-2.56-3.62-4.09Z"/><path class="cls-2" d="m190.7,44.34c-2.23-1.21-3.51-2.62-4.24-4.13-.27-.56-.46-1.14-.6-1.72-.39-1.68-.32-3.45-.25-5.19.01-.35.03-.7.04-1.04.04-1.36.02-2.65-.32-3.82-.49-1.71-1.6-2.92-3.39-3.69-2.84-1.22-6.58.26-11.43,4.52-1.23,1.08-2.46,2.28-3.66,3.52.12.16.24.33.35.5,1.09-1.41,2.47-2.38,4.03-2.85.06-.05.11-.1.17-.15,4.36-3.83,7.73-5.28,10-4.3,1.41.61,2.24,1.5,2.62,2.82.36,1.26.3,2.8.23,4.44,0,.18-.01.36-.02.54-.06,1.5-.08,3.11.24,4.71.16.78.4,1.55.76,2.3.74,1.54,1.99,3.02,4.05,4.29.6.38,1.28.73,2.03,1.07,1.16.52,2.32.89,3.5,1.11h0c.35-.34.62-.75.78-1.23-1.25-.18-2.48-.56-3.72-1.11-.42-.19-.82-.39-1.18-.59Z"/><path class="cls-2" d="m97.64,39.35c-.6-.75-1.18-1.51-1.76-2.27-.85-1.12-1.7-2.24-2.61-3.29-1.29-1.48-2.68-2.8-4.32-3.7-1.4-.77-2.98-1.23-4.83-1.23-.87,0-1.71.13-2.53.38-1.86.58-3.61,1.82-5.29,3.75-.25.29-.5.59-.74.9-1.47,1.88-2.77,4.1-4.02,6.33-.08.14-.16.29-.24.43v2.78c.24-.43.48-.86.72-1.3.35-.64.71-1.28,1.07-1.91,1.31-2.31,2.68-4.55,4.22-6.33,1.28-1.47,2.69-2.62,4.29-3.22.79-.3,1.63-.46,2.53-.46,1.87,0,3.44.55,4.83,1.46,1.27.82,2.39,1.94,3.47,3.2.81.95,1.6,1.98,2.39,3.03.82,1.08,1.65,2.18,2.54,3.22.93,1.08,1.92,2.1,3.02,2.97,1.6,1.27,3.3,2.09,5.12,2.49.27-.36.5-.77.69-1.24-1.78-.31-3.4-1.07-4.97-2.32-1.31-1.03-2.47-2.32-3.56-3.68Z"/><path class="cls-2" d="m113.04,46.46c.52-.07,1.06-.15,1.62-.25v-1.37c-.41.07-.81.13-1.19.19-.11.49-.26.96-.43,1.42Z"/><path class="cls-2" d="m159.52,41.03c-1.45,1.71-2.76,3.26-3.72,4.25v1.86c1.02-.84,2.62-2.72,4.75-5.23.32-.38.65-.77.99-1.16v-1.49c0-.2,0-.38-.03-.56-.69.8-1.36,1.59-1.99,2.34Z"/><path class="cls-2" d="m148.82,48.71v1.39c-.58.13-1.15.23-1.72.3-2.49.32-4.86.12-6.99-.6-.49-.16-.96-.36-1.42-.58-1.59-.76-3.04-1.84-4.32-3.22-1.13-1.22-2.13-2.67-3-4.35-.05-.09-.45-.87-.78-1.65s-2.1-6.06-2.71-9.86c-.27-1.67-.48-3.44-.63-5.31-.5-6.1-.15-11.32,1.06-15.52,1.07-3.75,2.81-6.53,5.02-8.04,2.14-1.47,4.59-1.66,6.91-.54,2.04.99,3.85,2.93,5.21,5.61,1.46,2.86,2.38,6.54,2.66,10.64.37,5.38-1.01,10.22-4.1,14.41-.47.63-.97,1.25-1.52,1.85-1.06,1.17-2.26,2.28-3.61,3.34-1.36,1.06-2.85,2.06-4.48,2.99.07-.76.27-1.41.59-1.92.69-.43,1.35-.87,1.98-1.32,1.73-1.24,3.24-2.57,4.52-3.99.47-.52.91-1.06,1.32-1.61,2.98-3.97,4.3-8.56,3.95-13.66-.27-3.92-1.14-7.42-2.52-10.12-1.23-2.42-2.82-4.15-4.6-5.01-.81-.39-1.64-.59-2.45-.59-1.07,0-2.12.34-3.12,1.03-1.95,1.34-3.5,3.86-4.48,7.3-1.16,4.04-1.5,9.1-1.01,15.04.17,2.02.4,3.92.7,5.71.59,3.46,1.43,6.47,2.52,9,.01,0,.69,1.48.76,1.6.55,1.06,1.15,2.02,1.8,2.87,1.4,1.85,3.04,3.22,4.9,4.1.27.13.55.25.84.36,2.11.81,4.45,1.04,6.99.68.52-.07,1.05-.17,1.58-.3.05-.01.09-.02.14-.03Z"/><path class="cls-2" d="m211.74,40.32c-.57.36-1.14.72-1.71,1.08-2.07,1.29-4.19,2.53-6.35,3.42-.43.18-.86.34-1.28.48v1.42c.06-.02.12-.04.17-.06.53-.17,1.06-.37,1.59-.58,2.08-.85,4.09-2,6.06-3.21.75-.46,1.5-.94,2.24-1.41,1.85-1.17,3.65-2.31,5.45-3.26-.22-.44-.49-.8-.8-1.1-1.82.97-3.61,2.1-5.37,3.22Z"/><path class="cls-2" d="m127.38,41.38v1.45c-.93.35-1.88.69-2.86,1-.97.31-1.93.6-2.88.85v-1.4c.81-.23,1.63-.47,2.46-.74,1.12-.36,2.22-.75,3.28-1.16Z"/></g></svg>