<svg width="1080" height="1512" viewBox="0 0 1080 1512" fill="none" xmlns="http://www.w3.org/2000/svg">
<g clip-path="url(#clip0_951_179)">
<rect width="1080" height="1512" fill="white"/>
<path d="M410.01 389.05C388.96 368.49 382.85 333.53 381.36 302.71C381.84 278.59 379.909 250.99 391.719 234.1C411.5 163 427.881 173.564 465.95 154.95C470.405 152.771 477.58 149.85 477.58 149.85C477.58 149.85 505.804 132.794 525.459 134.02C542.549 135.085 565.679 150.486 565.679 150.486L569.54 147.89C569.54 147.89 589.809 140.721 603.2 141.23C616.639 141.74 636.37 150.486 636.37 150.486M411.03 381.93C397.38 373.88 410.32 328.69 418.91 318.66M418.91 318.66C416.47 326.28 415.37 334.79 416.63 338.75M418.91 318.66C431.73 279.15 434 241 478.875 218.5C467.465 230.77 447.829 267.41 451.279 283.63C454.429 292.47 468.549 291.77 468.549 291.77M478.6 283.38C470.62 276.68 468.575 264.114 474.02 255.23M474.02 255.23C478.45 279.13 513.985 283.998 524.68 262.17M474.02 255.23C473.719 226.99 485.26 189.67 501.45 166.53M524.68 262.17C531.283 263.111 541.59 264.58 541.59 264.58M524.68 262.17C494.876 246.158 490.56 228.55 509.58 200.57M565.84 245.43C554.85 243.81 541.639 239.36 533.959 230.34C525.079 220.12 524.08 197.67 530.92 188.88C538.57 186.87 565.67 192.13 572.68 198.27C576.89 185.35 599.32 197.323 613.54 205.03C624.192 210.804 634.45 223.88 636.37 226.04L639.229 221.6C639.229 221.6 658.96 288.7 702.94 302.58C702.72 300.16 695.94 292.02 695.52 291.44C691.24 285.26 686.16 277.95 684.9 276.35C689.17 287.5 705.65 307.95 705.5 320.52C706.13 342.41 704.41 352.32 698.28 369.62M538.53 177.2C539.41 177.36 550.66 186.86 555.76 189.81C563.32 193.99 572.08 197.31 572.68 198.53M649.29 155.87C671.45 165.95 709.81 192.47 718.9 217.54C721.69 226.45 722.79 237 714.82 239.69M714.82 239.69L714.32 231.56M714.82 239.69C706.67 241.19 721.9 283.82 723.62 298.71C723.84 304.19 721.92 315.32 719.7 320.52C715.07 329.93 709.93 334.11 707.93 341.59M409.39 361.48C409.96 354.42 421.2 345.58 427.86 341.69C432.22 339.45 440.22 339.07 440.44 338.13M440.44 338.13C442.567 341.754 447.14 344.83 447.66 346.11C447.94 347.18 448.2 357.903 450.5 365C455.199 379.5 460.402 389.589 474.24 395.98C483.935 400.458 501.45 398.72 501.45 398.72M440.44 338.13C430.145 320.587 489.319 320.14 489.319 320.14M489.319 320.14C489.319 320.14 441.75 328.72 447.19 339.35M489.319 320.14C489.319 320.14 512.372 319.688 526.3 323.76M526.3 323.76C535.608 325.126 542.39 330.78 545.41 339.69M526.3 323.76C536.272 326.296 545.279 337.94 545.229 348.23C544.729 347.33 546.25 334.48 548.13 334.1C551.99 333.62 565.04 332.89 570.62 333.98M550.469 339.65L549.61 339.59L576.44 335.29L574.44 330.21C574.44 330.21 575.866 340.979 576.78 347.88M576.78 347.88C576.372 335.29 588.13 321.694 599.5 316.274M576.78 347.88C576.482 357.645 586.67 376.2 595.07 381.19M577.82 328.6L576.719 328.56C589.759 313.33 605.308 312.684 625.52 310C646.741 307.182 680 316.08 680 316.08C680 316.08 677.42 313.95 666 315.37C668.24 317.88 672.11 338.24 671.4 344.45M591.65 294.47C603.08 288.57 636.92 279.99 648.2 283.41M600.5 290.842C604.3 289.462 633.89 282.21 634.09 282.15C646 281.5 655.925 282.926 666.677 290.47C681.074 300.57 631.498 281.398 621.958 285.168M453.41 295.41C472.74 294.77 482.89 295.59 511.64 300.89C515.12 301.59 519 303 519 303L524.64 306.95M453.41 295.41C454.08 295.6 452.81 295.32 453.41 295.41ZM453.41 295.41C453.41 295.41 450.87 294.77 446.09 297.13C435.05 302.65 432.94 306.03 432.88 306.69L433.06 307.09M434.36 306.56C440.34 304 469 295.307 483 296.336M601.83 343.99C606.81 333.81 620.819 331.25 631.719 330.64C637.859 329.34 644.656 330.512 650.8 335.07C652.405 336.26 654.57 338.53 654.57 338.53M621.28 335.49C619.24 339.08 622.98 345.37 627.38 345.41C628.98 345.35 633.28 342.35 633.74 341.73C634.34 340.65 634.82 334.31 634.08 331.71M464.31 346.43C467.56 340.78 477.76 340.37 486.92 340.37C495.04 340.37 512.66 346.1 515.93 352.77M517 394.69C519.006 394.188 526.099 389.91 527.479 388.37M528.42 387.55C534.35 382.32 543.5 365.5 545.154 347.88M607.5 387.55C613.1 389.57 636.747 394.784 649.969 384.71C659.473 377.469 666.71 368.8 668.5 359.5M553.45 349.77C553.45 349.77 557.21 369.85 552.61 380.96C550.71 386.58 550.85 388.08 551.29 388.52M550.969 389.45C550.749 389.81 551.14 407.43 555.69 416.88M526.219 468.67L526.3 468.15C526.62 467.85 532.88 464.23 545.29 456.5C548.05 454.78 554.03 451.04 554.37 450.72C555.74 451.16 565.5 453.5 574.9 451.68C575.72 452.22 585.14 453.88 589.03 455.16C594.54 456.71 599.77 460.63 603.58 462.18C603.54 462.95 605.74 465.08 606.55 465.76M411.95 358.22C410.93 357.24 410.89 357.42 411.87 359.72C415.24 367.82 420.084 393.21 423.284 408C410.144 414.98 402.609 438.246 417 442.5C424.321 444.664 424.067 438.323 430.999 441.52C435.134 443.427 439 450 439 450C439 450 454.168 506.618 485.74 530.97C513.361 552.274 548.5 558.38 570.76 558.36C591.31 555.75 628.876 539.61 645.136 527.5M707.28 344.45C705.41 349.66 704.989 378.89 702.959 390.79M702.959 390.79C699.349 413.5 691.133 445.25 687.153 466M702.959 390.79C704.929 385.62 708.602 368.319 714.5 373.77C715.156 374.377 715.431 374.81 716 375.5C726.19 387.857 724.75 406.19 725.28 415.45C723.38 432.28 697.513 458.63 687.153 466M687.153 466L685.57 470.53M687.153 466L679.8 484.96C669.06 501.38 648 525 645.77 526.807C644.21 529.027 620.42 547.98 608.35 555.56C580.72 572.97 554.73 592.32 555.13 593.16C555.13 593.16 560.969 593.808 564.249 595.46C578.168 602.465 567.79 617.92 561.43 635.26C556.66 649.34 554.209 650.94 556.789 667M411.55 398.72L409.93 387.38C400.48 386 393.97 395.63 391.02 405.57C389.21 415.72 392.664 433.266 399.56 449.2C417 489.5 441.7 477.22 445 470.5M447.578 474.5C453 499.5 453.462 503.646 455.5 518C459.479 546.03 459.56 573.6 460 597.48C473.52 621.63 500.19 656.1 520.7 674.16C530.31 683.8 554.22 692.51 555.13 710.5C545.37 701.66 497.43 683 487.86 681.4C476.34 696.76 435.979 749.19 435.979 749.19L426.719 756.67C426.719 756.67 435.24 680.8 421.5 664C433.28 638.38 467.219 615.946 438.5 617C414.403 617.884 408.729 653.81 408.729 653.81C408.729 653.81 373.295 681.278 355.61 703.51C313.712 756.179 297.11 800.032 301.65 867.18C302.789 884.03 303.956 893.63 308.63 909.86C331.257 988.439 391.457 791.911 376.02 711.61C374.3 702.664 371.88 695.5 370.36 688.98C355.35 671.72 313.693 729.453 271.5 739.18C260.839 741.637 254.81 743.788 243.87 743.8C232.86 743.811 217.54 739.14 216.06 739.18C191.62 742.73 187.975 767.072 174 788C161.074 807.358 151.731 812.954 152.5 830.5C152.845 838.374 160.16 845.58 164 846.5M164 846.5C151.73 849.04 141.889 864.45 131.539 871.75C59.6794 936.74 -101.67 927 -198.701 872.14C-299.181 851.08 -350.311 926.08 -396.271 1000.5C-426.331 1011.78 -377.62 863.33 -372.4 855.26L-372.181 861.78M164 846.5C179.92 843.58 208.704 882.123 229.32 908.24C258.456 945.152 252.22 990.69 267 1034.5C294.74 1107.52 329.51 1152.38 340.81 1216.95C333.33 1211.16 329.634 1208.7 321.88 1204.38C294.24 1189 261.8 1180.71 242.93 1186.27C214.39 1194.15 220.54 1210.27 242.81 1221.35C262.38 1230.51 316.7 1236.06 329.13 1251.12C328.61 1254.77 322.106 1256.18 319.5 1259.71C316.695 1263.51 319.5 1267.02 319.5 1269.5C306.66 1263.96 268.61 1268.35 253.27 1271.61C217.86 1282.62 171.17 1330 171.795 1359C160.515 1354.37 165.65 1314.94 167.03 1298.85C168.29 1292.13 179.148 1279.45 171.17 1273.16C165.026 1268.31 159.004 1274.69 151.18 1274.56C146.495 1274.48 143.767 1274.83 139.21 1273.74C114.305 1267.79 174.25 1221.8 180.39 1222.72C176.46 1223.24 151.14 1227.14 152.7 1234C152.7 1234 158.19 1225.74 152.7 1227.34C147.21 1228.94 143.72 1232.71 144.62 1238.87C137.53 1235.87 132.953 1224.64 130.769 1213.6C128.956 1204.43 130.452 1198.9 132.15 1189.71C136.172 1167.93 155.017 1161.35 158.459 1139.47C160.5 1126.5 159.37 1119.8 145.09 1116.88C148.02 1079.75 141.159 1022.86 147.57 963.17C150.939 931.794 166.51 920.56 160.02 883.33C156.8 861.36 167.04 835.047 189.01 817.6C195.805 812.203 201.289 808.51 208.219 806.43C221.389 802.5 222.689 808.41 227.209 819.02C241.809 860.34 257.391 907.646 280 963.17C296.696 1004.17 332.739 1041.36 325.5 1067C318.021 1093.49 287.081 1085.32 270 1089.5C244.45 1095.75 226.446 1104.22 209.28 1118.64C193.1 1132.23 177.53 1159.16 176.87 1161.96C174.55 1170.43 186.215 1175.37 192 1186.27C197.469 1196.58 200.872 1207.14 209.28 1221.35C213.263 1228.08 222.159 1234.37 221.759 1241.63C211.699 1272.42 180.97 1310.13 173.98 1343.72C169.76 1362.79 171.01 1370.67 183.39 1381.12C193.12 1387.63 241.5 1393.56 241.5 1393.56C241.5 1393.56 384.913 1420.15 476.76 1412.43C500.858 1410.41 596.972 1401.67 621 1398.93C625.83 1419.05 576.57 1498.03 569.33 1513M890.479 1243.12C877.979 1246.19 818.595 1237.03 772.57 1239.13C757.276 1239.83 746.129 1237.16 733.469 1241.95C732.025 1233.34 725.16 1202 725.16 1202L712.5 1168.5C712.5 1168.5 705.41 1133.17 688.54 1069.73C684.24 1054.83 682.38 1047.96 680.76 1024.27C679.92 1012.85 682.777 1004.51 682.5 995C681.665 966.353 694.501 944.386 715.5 939C738.363 933.135 745.767 977.287 731.5 995C715.838 1014.44 684.852 1000.42 669.11 981.04C665.571 976.683 656.5 946.5 656.5 946.5C656.5 946.5 651.06 920.63 648.92 912.89C640.01 878.32 615.45 807.59 625.12 772.5C633.72 755.14 634.75 731.63 634.75 731.63C634.75 731.63 656.365 708.293 674.33 700C694.157 690.847 713.249 710.815 718 689.5C719.562 682.492 721 675.5 727.83 672.5C730.07 668.92 743.892 671.103 753.83 668.5C769.644 664.358 791.29 651.48 792.03 651.38C788.29 650.18 756.028 637.239 735.87 646.12C732.102 647.779 726.65 651.23 726.65 651.23C711.83 651.52 676.68 596.49 672.33 590.54C669.09 584.88 668.81 573.53 668.79 572.67C656.58 590.2 666.895 602.904 660.95 621.13C644.212 672.439 606.56 700.35 565.27 720.85C568.58 720.85 577.42 720.97 579.02 721.43C585.17 725.97 583.53 732.64 582.28 738.44C568 825.37 516.52 952.29 533.86 1043.33C542.96 1098.02 577.94 1135.76 573.56 1193.98C568 1236 494.14 1255.54 453.25 1257.03C416.75 1258.49 379.95 1263.31 343.36 1258.43M888.979 1317.48C885.159 1334.88 895.394 1361.76 878.85 1380.31C877.239 1382.11 868.076 1388.22 861.33 1392.5C843.882 1403.57 838.19 1428.93 818.42 1429.48C806.414 1429.82 789.33 1419.5 789.33 1419.5C789.33 1419.5 761.81 1401.42 739.66 1391.82C724.78 1384.06 682.82 1375.02 663.13 1372.97C660.91 1372.51 637.74 1365.29 635.3 1364.71C635.28 1364.69 654.091 1345.64 666.39 1333.68C684.077 1316.48 712.5 1290.5 712.5 1290.5C712.5 1290.5 722.986 1255.49 715 1247C705.962 1237.4 688.54 1250 666.39 1265C624.139 1293.61 597.389 1289.08 539.709 1297.01C471.819 1303.95 396.59 1296.62 333.5 1275.5M901.83 1523C891.28 1502.81 894.567 1459.28 899.83 1419C901.862 1403.45 907.084 1395.22 907.31 1379.54C907.867 1340.76 885.74 1308.5 866.35 1289.08C846.96 1269.66 841.63 1269.94 841.63 1269.94C861.33 1269.94 868.72 1273.23 882.27 1268.26C892.48 1263.19 897.69 1249.74 894.64 1241.03C914.47 1187.57 908.46 1125.97 867.64 1086.53C849.8 1072.23 817.249 1059 806.329 1042.59C803.269 1036.91 804.085 1029.62 802.41 1021.36C800.523 1012.05 799.115 1006.91 797.109 997.63C787.388 952.635 769.44 913.9 776.12 881.64C779.8 858.91 801.64 840.86 816.18 821.49C829.27 803.51 843.052 797.362 845.83 769.5C848.251 745.213 844.686 747.208 840.5 730.5C838.204 721.336 841.056 696.603 833.33 689.5C820.973 678.141 807.3 695.79 802.5 710C799.66 715.9 800.27 751.44 794.5 752C781.4 736.57 782.64 711.41 786.89 693.33C793.2 679.5 799.719 664.11 816.259 664.12C835.599 685.36 871.84 688.326 906.579 705.66C923.489 714.096 941.499 725.89 949.539 727.93C952.699 728.73 958.389 762.96 959.749 763.24C960.749 766.24 972.19 775.44 975.2 778.27C986.83 790.68 993.169 802.56 986.829 819.39C979.269 831.38 943.09 910.84 934.69 928.94C930.15 939.67 896.81 976.49 882.17 983.32C876.17 985.93 866.129 987.15 861.319 981.04C858.999 977.42 859.02 961.59 859.92 958.33C862 951.49 880.369 925.94 889.509 913.21C918.119 877.84 941.429 827.33 990.779 835.84C1005.89 844.33 989.739 873.36 987.559 895.5C983.609 926 969.98 1005.06 969.94 1044.01C970.78 1056.6 976.368 1063.14 978.18 1075.86C981.511 1099.25 974.18 1131.6 974.26 1136.22C979.47 1204.33 951.89 1326.25 929.8 1274.15C917.507 1245.16 922.783 1208.58 927.5 1193.54C932.217 1178.5 937.41 1172.95 948.87 1165.09C977.53 1145.43 1022.55 1186.33 1043 1205C1115.47 1263.84 1248.88 1114.8 1308.79 1094.68M242.81 1393.8C254.262 1402.14 267.098 1424.9 274.15 1437.19C277.988 1443.88 280.783 1448.24 280.37 1455.94C279.373 1474.51 249.1 1472.64 237.29 1476.23C225.48 1479.82 237.29 1542.5 237.29 1542.5M626.6 339.17L624.38 338.05C623.18 342.73 626.99 345.2 629.82 340.35C627.73 332.22 619.78 345.87 627.84 346.25C630.46 344.75 630.17 338.02 626.14 337.89C621.45 338.09 619.5 345.68 625.52 346.75C633.97 347.25 626.04 336.07 623.6 343.79C623.81 347.98 629.17 346.12 629.4 342.89C627.54 344.19 632.54 340.53 630.24 339.81C627.74 339.15 628.16 342.05 628.34 342.35C629.98 342.95 632.059 337.71 629.719 337.03C628.169 336.56 626.68 340.49 626.06 340.77C625.16 341.31 622.419 341.51 621.219 341.73C619.829 339.85 619.85 339.09 619.18 337.89M489.72 345.53L487.84 345.93C486.2 348.27 487.18 354.07 489.5 355.05C492.4 355.69 497.88 354.87 497.3 350.47C495.64 344.81 493.04 344.59 490.2 345.87M489.2 347.89L488.24 345.93C481.31 348.28 486.75 355.47 491.58 357.05C492.86 357.09 496.78 354.51 497.22 353.15C497.74 350.71 498.1 347.08 497.38 345.91M670.68 243.11C670.68 243.11 696.06 275.8 701.05 285.49C705.43 293.55 709.61 320.04 710.5 322.5M667.62 216.64C667.62 216.64 713.274 248.19 719.334 277.5" stroke="#E72F1E" stroke-width="12" stroke-linecap="round" stroke-linejoin="round"/>
</g>
<defs>
<clipPath id="clip0_951_179">
<rect width="1080" height="1512" fill="white"/>
</clipPath>
</defs>
</svg>
