<svg width="1080" height="1512" viewBox="0 0 1080 1512" fill="none" xmlns="http://www.w3.org/2000/svg">
<g clip-path="url(#clip0_951_177)">
<rect width="1080" height="1512" fill="white"/>
<path d="M415.03 264.95C391.8 302.38 377.019 401.39 395.449 437.6C387.409 425.98 370.585 395.356 366.09 370.98C354.877 310.171 387.849 254.46 421.11 222.51C430 213.97 441.56 205.95 454 210.5C456.5 208.5 462.325 207.088 467.84 205.45C484.372 200.541 504.31 198.5 514.85 200C546.2 204.41 578.638 219.866 609.9 247.03C622.4 257.891 631.26 267.92 638.93 277.94C645.86 288.28 661.16 317.18 662.14 333.16C661.87 338.44 661.21 340.77 659.3 346.33M510.45 367.14C512.44 344.18 543.55 346.17 559.23 350.69L563.5 350.89H566M526.06 350.89C526.37 356.7 528.23 361.58 533.34 362.54M533.54 362.66L533.12 363.18C533.32 363.48 540.74 363.42 541.92 363.16C543.99 362.47 546.37 361.56 545.38 361M546.59 360C546.5 359.27 547.8 353.06 545.81 351.4M399.52 389.51C399.82 389.47 406.02 382.83 407.9 381.43C409.91 380.009 415.405 378.261 419.5 376.987M419.5 376.987C421.803 376.27 423.663 375.704 424.21 375.43C430.43 373.91 444.7 376.64 445.64 382.01L445.66 384.88C446.76 389.18 425.49 390.83 425.77 390.98C424.49 389.22 420.87 382.72 420.65 381.54L419.5 376.987ZM490.52 323.62C497.33 320.14 532.14 310 544.38 315.52M398.6 347.53C407.83 340.71 431.8 340.6 440.14 341.87M456.81 359.16C457.83 361.56 463.73 370.36 464.27 371.29C468.29 380.97 467.57 395.1 467.92 402.13C462.2 416.91 460.13 428.38 470.61 437.6M466.31 483.57L470.79 482.65M470.79 482.65H470.33C474.45 479.98 488.74 470.54 493.57 469.48C500.5 468.56 509.1 468.18 515.5 469.48C519.66 470.77 530.49 468.243 533 468.103M470.79 482.65C474.78 482.18 488.33 483.37 492.41 482.97C498.17 482.93 506.18 481.57 506.44 481.43C507.64 480.47 509.55 478.97 511.63 478.25C520.68 474.7 523.21 472.06 527.9 470.09C528.43 469.76 536.22 467.02 538 466.5M386.38 411.74C390.9 423.67 406.81 472.21 413.29 485.21C422.38 508.8 443.403 533.512 476.5 548.06M476.5 548.06C489.165 553.627 497.29 555.81 510.61 557.62C516.06 556.73 529.53 553.9 534.94 550.98C551.17 542.66 595.5 515.5 595.5 515.5C595.5 515.5 588.668 531.812 577.5 543C562.171 558.356 527.12 582.89 527.12 582.89C527.12 582.89 530.155 586.142 532.3 588.01C534.83 590.212 537.222 590.427 539.18 593.15C544.611 600.705 532.04 616.979 529.76 626C525.497 642.861 531.394 646.581 532.3 662.5C533.032 675.366 536.992 686.777 534.94 699.5C532.699 713.395 523.1 733.54 523.1 733.54C523.1 733.54 565.01 704.07 582.14 690.72C600.91 672.89 608.013 663.886 597.5 651C593.457 646.044 583.836 642.372 577.5 641.5C570.096 640.482 564.316 640.579 561 645C552.323 656.57 577.158 666.93 586.06 679.8C602.474 703.531 610.084 726.95 601.224 749.5M476.5 548.06L481.76 563.12C481.42 564.98 484.6 576.19 486.5 582.65C489.66 594.4 489.56 621.37 487 633.65C485.45 649.39 466.97 675.78 463.55 682.61L408.21 843.19C393.73 886.25 361.39 1012.76 361.39 1012.76C361.39 1012.76 362.624 1007.7 365.584 996.5C382.649 931.91 417.53 900.54 438.33 867.4C448.11 851.33 458.82 827.66 458.5 824C450.87 818.31 432.922 830.555 424 843.19C406.712 867.672 479.87 835.12 501.14 834.2C520.44 832.81 548.61 825.73 567.19 838.66M608.96 503.5C611.96 497.235 617.97 484.76 621 478.51C624.15 469.78 626.041 458.938 628.275 446.09M628.275 446.09C620.785 471.13 624.86 518.07 634.59 548.06C677.88 604.03 612.68 616.24 613.31 674.34C615 724.39 609.29 734.31 586.06 780.35C550.42 862.54 532.69 983.56 517.97 1076.04C512.26 1131.64 503.56 1204.42 502.74 1256.84C502.8 1262.68 501.25 1289.86 502.73 1292.54M628.275 446.09C629.203 440.753 628.535 442.53 630.255 432.36C632.625 417.81 625.506 403.969 629 389C630.431 382.869 632.153 380.891 636.09 377.71C642.477 372.549 652.32 370.91 657.1 376.91C661.7 391.11 644 413 642.5 429.5C642.209 432.701 643.35 443.82 643.35 443.82M482.86 234.34C490.36 238.78 509.33 250.75 518.96 257.87C524.98 263.35 534.93 279.3 534.93 279.3C534.93 279.3 550.653 306.357 565.2 319.63C589.056 341.396 616.47 346.13 640.39 354.05M640.39 354.05C641 345.35 653.47 348.88 658.26 350.64C672.83 359.1 668.05 385.24 665.44 402.22C657.28 431.05 645.47 442.12 643.35 443.82M640.39 354.05C605.42 336.9 563.45 296.53 547.31 253.15M643.35 443.82C641.87 469.6 654.2 483.59 657.84 505.24C658.67 521.12 643.855 539.77 629.725 528M598.5 340.796C620.5 376.91 706.233 426.901 667.78 460.58C654.673 472.06 637.25 487.11 626.31 477.04M427.7 239.56C415.63 261.75 405.42 360.15 419.32 369.38M440.98 239.979C434.09 253.159 434.65 313.289 436.46 328.679C439.89 347.559 440.05 356.509 452.67 367.059M451.79 236.22C448.45 251.56 468.45 306.51 475.58 325.12C481.27 336.99 485.08 346.5 496.03 350.09M469.67 248.45C475 277.39 502.13 338.97 532.14 347.89M482.5 234C484.12 251.32 530.72 322.64 538.48 327.18C547.61 334.35 556.59 337.87 566.51 339.18M632.75 499.08L632.31 498.18C637.22 500.39 652.41 516.3 651.22 522.89M488.875 612L478.09 609.93C466.07 625.99 436.2 639.2 418.22 647.97C404.41 655.75 364.29 655.78 335.99 656.75C319.41 655.63 299.41 664.35 294.89 676.06M293.96 680.66C286.92 686.7 272.83 699.85 270.03 704.11C265.64 713.9 267.67 741.99 268 751C270.37 786.96 290.34 842.22 312.88 868.76C319.15 873.79 327.75 877.7 333.03 868.76C340.83 845.41 323.342 785.999 285.49 758.05C275.293 750.521 271.69 746.26 257 742.5C-30.34 707.01 -142.81 958.53 -336 973.79M356.7 1053.36C354.13 1125.78 319.52 1205.76 306.24 1275.98M306.24 1275.98C289.5 1379 290.5 1389 311.5 1400C323.27 1406.17 325.802 1408.24 325 1421.5C322.482 1463.12 276.914 1481.03 233 1491.33C223.209 1493.63 212 1495.23 207.5 1494.91C186.984 1493.45 228.632 1468.62 247.68 1460.86C285.636 1445.4 306.799 1484.3 348.5 1490C349.887 1490.19 351.06 1490.19 351.06 1490.19L351.52 1525.79C326.2 1523.68 273.44 1520.75 244.31 1523.54C218.64 1522.83 174.71 1518.86 152.01 1517.3C151.83 1516.08 152.77 1513 154.41 1509.88C156.23 1506.34 156.55 1504.52 156.41 1498.92C156.17 1491.48 159.87 1476.97 159.87 1476.97C159.87 1476.97 184.21 1447.51 185.84 1412.52C184.98 1409.76 178.981 1401.15 176.85 1393.05C169.591 1365.47 199.79 1337.17 203.84 1325.18C203.82 1317.12 186.32 1311.07 183.79 1298.19C182.258 1290.39 183.05 1283.24 185.21 1277.88C197.37 1249.74 200.32 1234.87 200.76 1216.09C185.53 1205.46 188.26 1209.17 195.06 1189.9C227.85 1091.64 194.804 976.78 239.7 851.11C242.987 841.908 238.927 829.735 248.48 827.68C255.651 826.137 261.37 830.13 265.21 836.22C269.05 842.31 270.299 851.257 274.5 860.5C279.872 872.32 280.692 873.269 288 884C293.602 892.227 302.622 900.377 306.39 909.59C310.964 920.774 312.338 926.323 312.88 937.5C313.572 951.779 307.42 961.599 306.24 973.5C302.716 1009.05 294.378 1028.56 294.89 1064.28C295.381 1098.56 299.914 1110.69 307.78 1151.11C321.286 1220.51 317.257 1217.73 306.24 1275.98ZM502.73 1292.54H506.69L509.85 1300.19M502.73 1292.54C500.57 1296.76 495.35 1304.81 491.71 1306.41C479.36 1310.95 416.96 1339.82 393.55 1351.57C374.55 1361.59 306.416 1401.85 317.88 1373.32C322.844 1360.97 335.77 1350.97 340.63 1347.93C347.53 1345.06 361.34 1343.83 368 1348.85C384.58 1366.1 376.39 1401.74 376.16 1427.83C373.08 1472.39 372.52 1519.29 373.8 1522.51L377.08 1521.85C397.26 1469.06 413.32 1388.99 452.35 1349.23C456.29 1352.29 448.44 1532.46 475.9 1525.79L477.44 1523.63M509.85 1300.19C503.55 1233.16 528.91 1153.63 553.71 1086.48C582.54 1021.05 680.23 888.91 680.23 888.91C680.23 888.91 694.64 858.88 677.99 856.29C662.96 852.91 649.53 853.54 638.51 841.02C637.25 839.1 638.99 835.14 642.33 831.8C659.98 814.2 753.617 777.97 768.51 711.55C771.088 700.052 772.846 693.378 772.25 681.61C771.331 663.482 765.88 653.642 757.54 637.52C739.528 602.703 684.27 568.91 684.27 568.91C684.27 568.91 681.911 569.673 680.49 570.37C664.913 578.008 677.84 601.65 687.55 614.23C705.57 631.05 720.95 633.713 744.4 640.87C773.397 649.72 806.01 652.4 821.47 650.19C847.59 648.65 864.57 647.36 884.24 661.75C890.23 666.71 913.48 670.49 921.16 677.36C923.84 679.94 923.38 685.12 920.48 693.79C912.46 725.09 898.31 743.72 912.54 761.46C918.14 768.36 923.2 775.55 923.68 780.67C925.32 832.66 930.55 893.11 935.53 955.01C939.49 996.58 942.74 1027.23 937.03 1064.28C936.47 1071.38 938.03 1077.13 940.75 1081.97C945.97 1091.23 955.26 1119.35 955.86 1127.93C955.97 1162.93 946.44 1264.01 946.44 1264.01C946.44 1264.01 915.94 1441.04 925.77 1523.74C901.57 1525.54 890.12 1502.89 878.71 1479.98C846.36 1394.85 851.075 1316.93 812.5 1219.2C808.986 1210.3 806.882 1205.36 803.24 1196.51C795.224 1177.03 792.66 1168.18 782.39 1146.77C766.59 1115.84 751.83 1068.39 745.17 1041.94C739.23 1017.91 735.47 931.91 735.47 931.91C735.47 931.91 736.155 919.899 730.97 916.14C729.883 915.352 727.95 914.5 727.95 914.5C711.49 928.33 701.02 979.27 701.02 979.27C701.02 979.27 617.86 1368.54 631.89 1547.92M509.85 1300.19C509.85 1300.19 482.02 1327.45 483.54 1342.14C486.97 1353.34 512.37 1352.25 518.92 1353.06C522.4 1353.26 527.06 1353.52 527.34 1354.38C528.74 1359.08 525.117 1364 523.78 1370.18C512.665 1421.57 501.44 1462.57 504.79 1503.46M852.18 1526.91C807.61 1455.21 796.813 1346.95 799.56 1228.74C799.808 1218.07 800.167 1212.09 800.68 1201.43C806.254 1085.64 817.126 1020.98 837.82 906.92C851.444 831.829 871.5 767.5 867 719C864.725 694.48 834.651 738.804 815.5 780.67C792.658 830.604 776.14 896.225 780 951C781.891 977.829 786.026 1009.11 795.52 1018.1C809.841 1031.66 845 1008 845 1008C845 1008 883.089 992.625 913.5 1013.5C948.842 1037.76 867.53 1106.74 847.21 1116.74C959.54 905.62 1124.01 1006.37 1290.88 934.23C1346.75 895.8 1379.7 876.33 1398.29 805.14C1398.17 798.26 1392.47 785.59 1388.88 782.25C1281.85 913.53 1337.57 1153.69 1329.11 1303.5C1282.19 1175.63 1264.24 1005.69 1279.29 865.85L1275.13 873.11L1273.17 872.27C1287.51 846.23 1353.71 796.84 1362.15 768.48M423 379L443 388M529 353L547 359" stroke="#E72F1E" stroke-width="12" stroke-linecap="round" stroke-linejoin="round"/>
</g>
<defs>
<clipPath id="clip0_951_177">
<rect width="1080" height="1512" fill="white"/>
</clipPath>
</defs>
</svg>
