<svg width="1080" height="1512" viewBox="0 0 1080 1512" fill="none" xmlns="http://www.w3.org/2000/svg">
<g clip-path="url(#clip0_951_178)">
<rect width="1080" height="1512" fill="white"/>
<path d="M445.33 256.7L446.777 262.523C446.8 262.517 446.822 262.512 446.844 262.506L445.33 256.7ZM485.63 249L486.009 243.012C485.883 243.004 485.756 243 485.63 243V249ZM511.63 251.5L510.415 257.376L511.63 251.5ZM539.67 260.99L542.199 255.549L539.67 260.99ZM586.25 296.51L590.536 292.311C590.523 292.298 590.51 292.284 590.496 292.271L586.25 296.51ZM645.17 369.31L639.995 372.346L645.17 369.31ZM717.99 617.79L723.982 618.101L717.99 617.79ZM642 709L647.665 707.024L642 709ZM682.77 645.33L686.067 640.317C684.007 638.962 681.328 639.005 679.313 640.426L682.77 645.33ZM476.38 306.14L470.903 303.69C469.997 305.716 470.283 308.077 471.647 309.828C473.012 311.579 475.231 312.433 477.417 312.049L476.38 306.14ZM502.63 324.19L507.406 320.558C507.379 320.522 507.351 320.487 507.323 320.452L502.63 324.19ZM517.62 373.75L511.62 373.764C511.62 373.803 511.621 373.843 511.621 373.882L517.62 373.75ZM479.944 426.629C477.342 428.682 476.897 432.454 478.949 435.056C481.002 437.658 484.775 438.103 487.376 436.05L479.944 426.629ZM515.935 303.86C513.626 301.483 509.828 301.427 507.45 303.735C505.073 306.044 505.017 309.842 507.325 312.22L515.935 303.86ZM493.779 426.727C490.551 427.478 488.545 430.704 489.297 433.931C490.048 437.159 493.274 439.165 496.501 438.414L493.779 426.727ZM533.163 326.692C530.348 324.945 526.649 325.811 524.902 328.627C523.155 331.442 524.021 335.141 526.837 336.888L533.163 326.692ZM552.73 378.43L558.649 377.447C558.597 377.133 558.52 376.823 558.418 376.522L552.73 378.43ZM537.696 429.132C535.223 431.338 535.006 435.131 537.212 437.604C539.418 440.077 543.211 440.293 545.684 438.088L537.696 429.132ZM549.188 327.983C547.086 325.422 543.305 325.05 540.743 327.152C538.182 329.254 537.81 333.035 539.912 335.597L549.188 327.983ZM616.15 458.55L610.237 459.569L610.254 459.669L610.275 459.768L616.15 458.55ZM354.576 499.577C355.514 502.755 358.851 504.57 362.029 503.632C365.207 502.693 367.023 499.356 366.084 496.178L354.576 499.577ZM336.42 481.38L331.358 478.159C331.235 478.352 331.123 478.553 331.022 478.76L336.42 481.38ZM346.08 550.55L350.707 546.731L346.08 550.55ZM359.51 562.9L356.23 567.924L359.51 562.9ZM391.36 571.9L392.461 577.798C394.065 577.499 395.478 576.559 396.374 575.195C397.27 573.831 397.572 572.161 397.211 570.57L391.36 571.9ZM360.33 506.63L362.758 501.143C361.531 500.6 360.158 500.484 358.858 500.813L360.33 506.63ZM355.05 530.02L349.792 532.91C349.925 533.153 350.076 533.386 350.242 533.609L355.05 530.02ZM377.9 549.79L382.511 545.951L381.959 545.288L381.242 544.807L377.9 549.79ZM544.123 459.698C544.47 462.993 547.423 465.384 550.718 465.037C554.014 464.69 556.404 461.737 556.057 458.442L544.123 459.698ZM571.22 439.46L571.508 433.467C571.433 433.463 571.357 433.461 571.281 433.46L571.22 439.46ZM577.76 438.76L578.153 432.773C578.004 432.763 577.856 432.759 577.707 432.76L577.76 438.76ZM597.084 454.186C599.125 456.796 602.896 457.257 605.506 455.216C608.116 453.175 608.578 449.404 606.536 446.794L597.084 454.186ZM555.25 454.696C551.94 454.552 549.139 457.119 548.996 460.43C548.852 463.74 551.419 466.541 554.73 466.684L555.25 454.696ZM573.388 465.763C576.698 465.924 579.512 463.372 579.673 460.062C579.834 456.752 577.282 453.938 573.972 453.777L573.388 465.763ZM567.209 455.427C565.076 457.963 565.402 461.748 567.937 463.881C570.473 466.015 574.258 465.689 576.391 463.153L567.209 455.427ZM577.656 435.998C574.97 434.057 571.219 434.659 569.278 437.345C567.336 440.03 567.939 443.781 570.624 445.723L577.656 435.998ZM479.839 468.264C481.702 471.004 485.434 471.715 488.174 469.852C490.914 467.988 491.625 464.256 489.762 461.516L479.839 468.264ZM453.026 442.226C449.782 442.902 447.7 446.08 448.376 449.324C449.052 452.568 452.23 454.65 455.474 453.974L453.026 442.226ZM449.829 453.824C453.123 454.189 456.089 451.814 456.453 448.521C456.818 445.227 454.444 442.262 451.151 441.897L449.829 453.824ZM421.866 454.629C418.905 456.117 417.711 459.723 419.199 462.684C420.687 465.645 424.293 466.839 427.254 465.351L421.866 454.629ZM464.03 452.3L469.963 451.404L469.178 446.207L463.923 446.301L464.03 452.3ZM457.79 469.93L457.609 475.927L458.993 475.969L460.256 475.4L457.79 469.93ZM438.52 457.884C441.085 459.982 444.865 459.604 446.964 457.04C449.062 454.475 448.684 450.695 446.12 448.597L438.52 457.884ZM441.66 452.7L441.553 446.701L437.805 446.768L436.221 450.166L441.66 452.7ZM441.62 468.53L435.92 470.402L436.366 471.761L437.377 472.773L441.62 468.53ZM457.338 473.812C460.288 475.321 463.903 474.153 465.412 471.202C466.921 468.252 465.752 464.637 462.802 463.128L457.338 473.812ZM442.56 469.47L438.317 473.713L439.127 474.523L440.178 474.977L442.56 469.47ZM484.717 429.802C488.026 429.98 490.853 427.442 491.031 424.134C491.21 420.825 488.672 417.998 485.363 417.819L484.717 429.802ZM426.068 432.2L422.458 427.407C420.753 428.692 419.858 430.786 420.109 432.907L426.068 432.2ZM591.944 421.163C594.796 422.851 598.476 421.908 600.163 419.056C601.851 416.204 600.908 412.524 598.056 410.837L591.944 421.163ZM588.17 414.25L588.92 408.297C588.86 408.289 588.8 408.283 588.74 408.277L588.17 414.25ZM549.341 411.542C547.492 414.292 548.222 418.02 550.972 419.869C553.722 421.718 557.45 420.988 559.299 418.238L549.341 411.542ZM538.804 433.153C539.33 429.881 537.104 426.802 533.832 426.276C530.561 425.75 527.482 427.976 526.956 431.248L538.804 433.153ZM541.88 490.27L547.39 487.896C547.325 487.744 547.253 487.595 547.175 487.449L541.88 490.27ZM550.44 508.46L544.479 509.146L544.588 510.089L544.982 510.953L550.44 508.46ZM542.26 522.39C540.001 524.814 540.135 528.611 542.56 530.87C544.984 533.129 548.781 532.995 551.04 530.57L542.26 522.39ZM570.12 575.4C572.693 573.312 573.087 569.534 571 566.96C568.912 564.387 565.134 563.993 562.56 566.08L570.12 575.4ZM556.38 572.78L555.244 566.888L556.38 572.78ZM532.68 576.68L532.249 582.665C532.296 582.668 532.344 582.671 532.391 582.673L532.68 576.68ZM486.2 575.8L482.956 570.753C480.961 572.035 479.908 574.372 480.27 576.716C480.632 579.059 482.34 580.97 484.629 581.591L486.2 575.8ZM489.724 580.667C492.512 578.876 493.319 575.163 491.527 572.376C489.736 569.588 486.023 568.781 483.236 570.573L489.724 580.667ZM421.5 614L416.718 617.624C416.812 617.748 416.912 617.869 417.016 617.986L421.5 614ZM451.65 636.05L455.357 631.332C455.136 631.158 454.902 631 454.659 630.859L451.65 636.05ZM512.36 662.18L517.372 658.882L515.746 656.41L512.795 656.196L512.36 662.18ZM535.87 656.65L533.588 651.101C531.713 651.872 530.354 653.537 529.976 655.529L535.87 656.65ZM569.73 635.32L573.291 640.149C573.316 640.13 573.342 640.111 573.367 640.092L569.73 635.32ZM584.41 623.93L580.564 619.325C580.534 619.35 580.505 619.375 580.476 619.4L584.41 623.93ZM610.39 592.93L615.586 595.931C615.7 595.733 615.803 595.529 615.894 595.319L610.39 592.93ZM446.243 321.624L440.858 318.977L446.243 321.624ZM453.01 314.096C449.832 313.157 446.495 314.972 445.556 318.15C444.617 321.328 446.432 324.665 449.61 325.604L453.01 314.096ZM470.12 316.95L469.547 310.978C469.537 310.979 469.527 310.98 469.517 310.981L470.12 316.95ZM493.335 322.31C496.649 322.329 499.351 319.658 499.37 316.345C499.389 313.031 496.718 310.329 493.405 310.31L493.335 322.31ZM443.35 333.1L437.385 332.453C437.383 332.473 437.381 332.494 437.379 332.515L443.35 333.1ZM414.914 461.98C415.268 465.275 418.225 467.66 421.52 467.306C424.815 466.953 427.199 463.995 426.846 460.7L414.914 461.98ZM364.197 506.46C361.137 507.732 359.688 511.244 360.96 514.303C362.232 517.363 365.744 518.812 368.803 517.54L364.197 506.46ZM414.228 374.335C414.893 371.089 412.801 367.918 409.555 367.252C406.309 366.587 403.138 368.678 402.472 371.925L414.228 374.335ZM380.56 460.15L375.048 457.78L380.56 460.15ZM346.77 517.787C346.099 521.032 348.187 524.206 351.432 524.876C354.677 525.546 357.851 523.459 358.522 520.213L346.77 517.787ZM285.7 546.45L291.679 545.95C291.677 545.926 291.675 545.903 291.673 545.88L285.7 546.45ZM311.53 350.98L316.632 354.137L316.634 354.135L311.53 350.98ZM295.74 657.04L301.734 656.776C301.73 656.679 301.723 656.582 301.714 656.485L295.74 657.04ZM276.5 759.5L271.023 757.05L276.5 759.5ZM419.78 673.03L425.394 675.146L419.78 673.03ZM400.41 702.36L394.497 701.345L400.41 702.36ZM432.73 752.14L426.793 753.005C426.801 753.064 426.811 753.123 426.821 753.182L432.73 752.14ZM403.96 769.47L399.822 773.815C400.091 774.071 400.383 774.301 400.694 774.503L403.96 769.47ZM357.59 718L351.647 718.826L357.59 718ZM357.59 684L363.549 684.7L357.59 684ZM362.5 666L357.47 662.729L362.5 666ZM366.78 744.42L372.548 746.072C372.562 746.024 372.575 745.975 372.588 745.927L366.78 744.42ZM266.27 1080.12L272.261 1079.79C272.249 1079.58 272.227 1079.37 272.193 1079.16L266.27 1080.12ZM531.32 730.99L537.128 732.496C537.142 732.443 537.155 732.39 537.167 732.337L531.32 730.99ZM487.52 771.45L489.941 776.94C489.997 776.915 490.053 776.889 490.109 776.863L487.52 771.45ZM480.62 797.96L474.83 799.532C474.876 799.702 474.929 799.869 474.99 800.033L480.62 797.96ZM549.67 853.03L547.463 858.609C548.979 859.209 550.674 859.166 552.157 858.49C553.641 857.814 554.785 856.564 555.328 855.027L549.67 853.03ZM564.42 830.82L569.307 834.301C569.402 834.167 569.493 834.028 569.577 833.886L564.42 830.82ZM585.29 748.48L590.146 744.955L585.29 748.48ZM610.5 770.73L609.224 776.593L610.5 770.73ZM643.87 781.43L647.147 776.404L643.87 781.43ZM584.98 642.1L590.884 643.171C591.334 640.688 590.182 638.188 588.002 636.917C585.822 635.645 583.079 635.875 581.14 637.49L584.98 642.1ZM568.656 698.459C568.065 701.719 570.228 704.842 573.489 705.434C576.749 706.025 579.872 703.862 580.464 700.601L568.656 698.459ZM246.3 1372.69L240.311 1372.33C240.307 1372.39 240.304 1372.46 240.302 1372.52L246.3 1372.69ZM266.27 1441.64L271.7 1439.09L266.27 1441.64ZM316 1519.5L321.854 1520.82C321.977 1520.27 322.022 1519.71 321.99 1519.15L316 1519.5ZM289.5 1519.5L288.416 1513.6C288.19 1513.64 287.965 1513.7 287.745 1513.76L289.5 1519.5ZM271 1500.5L265.231 1498.85C265.216 1498.9 265.201 1498.96 265.187 1499.01L271 1500.5ZM318.07 1431.26L312.793 1428.4L318.07 1431.26ZM334.32 1397.71L340.159 1396.33C339.568 1393.83 337.449 1391.98 334.89 1391.74C332.331 1391.49 329.901 1392.91 328.847 1395.25L334.32 1397.71ZM371.27 1517.64L376.422 1514.56C376.316 1514.39 376.202 1514.22 376.078 1514.05L371.27 1517.64ZM386.035 1530.49C389.344 1530.32 391.886 1527.49 391.712 1524.19C391.538 1520.88 388.714 1518.33 385.405 1518.51L386.035 1530.49ZM614.55 1559.03C614.738 1562.34 617.572 1564.87 620.881 1564.68C624.189 1564.49 626.718 1561.66 626.53 1558.35L614.55 1559.03ZM620.44 1556.93L626.43 1556.59C626.323 1554.71 625.336 1552.98 623.767 1551.94L620.44 1556.93ZM545.73 1486.75L550.549 1483.18C550.52 1483.14 550.49 1483.1 550.459 1483.06L545.73 1486.75ZM487.52 1388.5L481.563 1387.79C481.522 1388.13 481.51 1388.47 481.528 1388.82L487.52 1388.5ZM460.51 1306.76L454.869 1308.8L460.51 1306.76ZM388.74 1140.47L394.354 1138.35C394.344 1138.33 394.334 1138.3 394.324 1138.28L388.74 1140.47ZM374.24 1102.5L379.775 1100.18L374.24 1102.5ZM361.5 1074L355.753 1075.72L361.5 1074ZM357.33 1054.2L351.363 1053.57C351.308 1054.08 351.321 1054.61 351.401 1055.12L357.33 1054.2ZM374.24 993.85L369.114 990.731L374.24 993.85ZM435.11 944.61L441.031 945.579C441.395 943.357 440.484 941.12 438.673 939.783C436.862 938.446 434.456 938.235 432.44 939.237L435.11 944.61ZM426.41 977.46L420.42 977.805C420.569 980.4 422.373 982.604 424.888 983.264L426.41 977.46ZM476.55 946.47L481.505 943.086C480.518 941.641 478.95 940.699 477.21 940.506C475.471 940.314 473.734 940.89 472.455 942.084L476.55 946.47ZM497.06 963.17L497.993 957.243L497.06 963.17ZM531.5 950.5L532.99 956.312L531.5 950.5ZM558.99 948.13L563.622 951.944C564.995 950.276 565.366 947.999 564.592 945.982C563.818 943.964 562.02 942.519 559.884 942.197L558.99 948.13ZM542.12 974.86L547.732 976.982L542.12 974.86ZM600.09 1071.48L594.83 1068.59L600.09 1071.48ZM508.99 1329.23L504.082 1332.68L508.99 1329.23ZM520 1343.24L518.378 1349.02L520 1343.24ZM535.11 1318.38L529.309 1316.85C529.253 1317.06 529.208 1317.28 529.176 1317.49L535.11 1318.38ZM616.21 1113.79L619.063 1108.51C616.605 1107.18 613.556 1107.73 611.709 1109.82L616.21 1113.79ZM632.5 1141.5L638.43 1140.59L632.5 1141.5ZM618.37 1268.42L624.304 1269.31C624.307 1269.29 624.31 1269.27 624.313 1269.24L618.37 1268.42ZM613 1296.5L618.846 1297.85L613 1296.5ZM606.05 1324.58L611.608 1326.84C611.75 1326.49 611.859 1326.13 611.933 1325.76L606.05 1324.58ZM601 1337L595.442 1334.74C594.721 1336.51 594.889 1338.52 595.896 1340.15C596.902 1341.78 598.625 1342.83 600.534 1342.98L601 1337ZM655 1318.38L655.949 1324.3L655 1318.38ZM713.64 1061.5L709.867 1066.17L713.64 1061.5ZM693.64 1185.63L687.729 1186.66C687.732 1186.68 687.736 1186.7 687.74 1186.72L693.64 1185.63ZM724.5 1339.5L730.485 1339.93L724.5 1339.5ZM722.19 1352.36L716.56 1350.29C716.537 1350.35 716.515 1350.41 716.494 1350.47L722.19 1352.36ZM694.036 1520.8C697.131 1521.99 700.6 1520.44 701.784 1517.34C702.968 1514.25 701.419 1510.78 698.324 1509.6L694.036 1520.8ZM580.648 699.255C581.341 696.014 579.276 692.826 576.036 692.133C572.795 691.44 569.606 693.505 568.913 696.745L580.648 699.255ZM702.72 770.73L699.409 775.734C699.416 775.738 699.423 775.743 699.43 775.747L702.72 770.73ZM796.02 846.04L791.478 849.961L796.02 846.04ZM854.65 943.38L860.635 942.961L860.558 941.856L860.091 940.851L854.65 943.38ZM848.42 1233L842.562 1234.3L848.42 1233ZM841.249 1525.37C840.748 1528.65 842.997 1531.71 846.272 1532.21C849.548 1532.71 852.609 1530.46 853.111 1527.19L841.249 1525.37ZM635.65 1351.62L641.433 1353.22C641.877 1351.61 641.633 1349.89 640.759 1348.47C639.886 1347.06 638.461 1346.06 636.827 1345.74L635.65 1351.62ZM595.99 1506.31L590.066 1505.36C590.063 1505.38 590.059 1505.4 590.056 1505.42L595.99 1506.31ZM587.066 1525.39C586.575 1528.67 588.834 1531.72 592.112 1532.21C595.389 1532.7 598.443 1530.45 598.934 1527.17L587.066 1525.39ZM685.5 1323L691.351 1321.67C691.336 1321.6 691.32 1321.54 691.303 1321.47L685.5 1323ZM690.18 1446.36C690.18 1449.67 692.866 1452.36 696.18 1452.36C699.494 1452.36 702.18 1449.67 702.18 1446.36H690.18ZM815.5 1134.5L810.048 1137L815.5 1134.5ZM827.48 1301.98L821.76 1303.79C821.825 1304 821.901 1304.2 821.988 1304.4L827.48 1301.98ZM861 1332.5L862.332 1338.35L861 1332.5ZM877 1263L871.015 1263.42L871.015 1263.42L877 1263ZM685.71 838.43L679.867 839.796C679.918 840.013 679.981 840.227 680.056 840.437L685.71 838.43ZM680.71 909.78L674.759 909.013C674.402 911.783 676.004 914.433 678.622 915.405C681.24 916.377 684.183 915.413 685.72 913.081L680.71 909.78ZM730.17 846.59L733.997 841.969C733.667 841.695 733.308 841.458 732.928 841.261L730.17 846.59ZM735 870.5L740.685 872.418L740.885 871.827L740.958 871.206L735 870.5ZM713.64 1011.59L715.748 1017.21C716.992 1016.74 718.046 1015.87 718.745 1014.74L713.64 1011.59ZM911.21 883.23L913.127 877.544C912.902 877.469 912.673 877.406 912.441 877.357L911.21 883.23ZM1241.45 882.84L1237.99 877.937C1237.79 878.076 1237.6 878.227 1237.43 878.39L1241.45 882.84ZM1274.39 864.06L1273.31 858.158C1273.26 858.167 1273.22 858.175 1273.17 858.184L1274.39 864.06ZM1300.31 885.661C1300.48 888.97 1303.3 891.514 1306.61 891.342C1309.92 891.17 1312.46 888.348 1312.29 885.039L1300.31 885.661ZM653 938.5L652.713 944.493C652.809 944.498 652.904 944.5 653 944.5V938.5ZM633.71 1042.6L635.649 1048.28C635.941 1048.18 636.224 1048.06 636.496 1047.91L633.71 1042.6ZM673.13 979.63L678.748 977.523C678.407 976.614 677.851 975.802 677.127 975.155L673.13 979.63ZM650.48 990.78L645.923 986.877C645.774 987.05 645.636 987.232 645.508 987.421L650.48 990.78ZM-291.688 1056.46C-292.743 1059.6 -291.052 1063 -287.911 1064.06C-284.77 1065.11 -281.368 1063.42 -280.312 1060.28L-291.688 1056.46ZM-166.95 999.68L-162.226 995.981C-162.99 995.005 -164.038 994.289 -165.226 993.933L-166.95 999.68ZM-252.79 1115.55L-258.087 1112.73C-259.31 1115.03 -258.911 1117.85 -257.099 1119.72C-255.288 1121.59 -252.477 1122.08 -250.141 1120.93L-252.79 1115.55ZM190.88 933.04L193.261 938.547C193.618 938.393 193.96 938.204 194.28 937.983L190.88 933.04ZM288 790.5L291.748 795.185L288 790.5ZM229.11 1302.31L224.276 1305.86C225.853 1308.01 228.654 1308.86 231.156 1307.95C233.658 1307.04 235.263 1304.6 235.098 1301.94L229.11 1302.31ZM179.29 864.66L174.034 861.766C173.651 862.462 173.41 863.227 173.324 864.018L179.29 864.66ZM444.5 454C441.186 454 438.5 456.686 438.5 460C438.5 463.314 441.186 466 444.5 466V454ZM462.5 466C465.814 466 468.5 463.314 468.5 460C468.5 456.686 465.814 454 462.5 454V466ZM554.098 450.249C551.198 451.851 550.146 455.502 551.749 458.402C553.351 461.302 557.002 462.354 559.902 460.751L554.098 450.249ZM578.902 450.251C581.802 448.649 582.854 444.998 581.251 442.098C579.649 439.198 575.998 438.146 573.098 439.749L578.902 450.251ZM445.33 256.7C446.844 262.506 446.844 262.506 446.844 262.506C446.844 262.506 446.844 262.506 446.844 262.506C446.845 262.506 446.846 262.505 446.847 262.505C446.85 262.504 446.855 262.503 446.861 262.501C446.874 262.498 446.894 262.493 446.921 262.486C446.974 262.472 447.055 262.451 447.161 262.424C447.374 262.369 447.69 262.288 448.098 262.184C448.913 261.977 450.093 261.68 451.545 261.323C454.45 260.609 458.429 259.658 462.733 258.709C471.62 256.749 481.023 255 485.63 255V243C479.466 243 468.72 245.101 460.149 246.991C455.725 247.966 451.648 248.941 448.68 249.67C447.195 250.035 445.984 250.34 445.142 250.554C444.721 250.661 444.392 250.745 444.167 250.803C444.055 250.832 443.968 250.855 443.909 250.87C443.88 250.877 443.857 250.883 443.842 250.887C443.834 250.889 443.828 250.891 443.823 250.892C443.821 250.893 443.82 250.893 443.818 250.893C443.818 250.894 443.817 250.894 443.817 250.894C443.816 250.894 443.816 250.894 445.33 256.7ZM485.251 254.988C503.648 256.152 500.971 255.423 510.415 257.376L512.845 245.624C502.311 243.447 503.632 244.127 486.009 243.012L485.251 254.988ZM510.415 257.376C521.199 259.605 526.992 261.714 537.141 266.431L542.199 255.549C531.382 250.521 524.703 248.076 512.845 245.624L510.415 257.376ZM537.141 266.431C546.742 270.893 557.876 279.326 566.859 286.942C571.291 290.7 575.092 294.166 577.784 296.691C579.128 297.953 580.192 298.976 580.916 299.68C581.278 300.032 581.555 300.304 581.739 300.486C581.83 300.577 581.899 300.645 581.944 300.689C581.966 300.711 581.982 300.727 581.992 300.737C581.997 300.742 582.001 300.746 582.003 300.748C582.004 300.749 582.004 300.749 582.004 300.75C582.005 300.75 582.004 300.75 582.004 300.75C582.004 300.749 582.004 300.749 586.25 296.51C590.496 292.271 590.496 292.27 590.495 292.27C590.495 292.269 590.494 292.269 590.493 292.268C590.492 292.267 590.49 292.265 590.488 292.263C590.484 292.258 590.478 292.252 590.47 292.245C590.455 292.23 590.434 292.209 590.407 292.182C590.352 292.128 590.273 292.049 590.171 291.948C589.966 291.746 589.668 291.452 589.283 291.078C588.513 290.329 587.396 289.256 585.995 287.94C583.194 285.312 579.239 281.706 574.62 277.789C565.499 270.056 553.343 260.728 542.199 255.549L537.141 266.431ZM586.25 296.51C581.964 300.709 581.964 300.709 581.964 300.709C581.964 300.709 581.964 300.709 581.965 300.709C581.965 300.71 581.967 300.712 581.969 300.714C581.973 300.718 581.979 300.724 581.988 300.734C582.006 300.752 582.033 300.78 582.07 300.818C582.144 300.893 582.255 301.007 582.401 301.158C582.695 301.461 583.13 301.911 583.693 302.498C584.818 303.671 586.452 305.387 588.472 307.547C592.513 311.868 598.094 317.957 604.245 325.02C616.619 339.227 631.039 357.079 639.995 372.346L650.345 366.274C640.795 349.994 625.755 331.446 613.295 317.139C607.03 309.946 601.35 303.75 597.236 299.35C595.178 297.15 593.509 295.397 592.352 294.191C591.774 293.587 591.323 293.121 591.015 292.804C590.861 292.645 590.743 292.524 590.663 292.441C590.622 292.4 590.592 292.368 590.57 292.346C590.56 292.335 590.552 292.327 590.546 292.321C590.543 292.318 590.541 292.316 590.539 292.314C590.538 292.313 590.538 292.313 590.537 292.312C590.536 292.312 590.536 292.311 586.25 296.51ZM682.351 517.224C686.492 529.175 690.603 539.01 694.377 547.645C698.189 556.364 701.528 563.579 704.338 570.717C709.809 584.619 713.027 597.649 711.998 617.479L723.982 618.101C725.115 596.271 721.488 581.526 715.504 566.322C712.586 558.908 709.045 551.239 705.373 542.838C701.664 534.354 697.688 524.835 693.689 513.295L682.351 517.224ZM711.998 617.479C710.865 639.305 697.652 667.275 684.029 690.487C677.309 701.937 670.656 711.956 665.682 719.114C663.197 722.691 661.135 725.546 659.7 727.501C658.982 728.478 658.421 729.23 658.043 729.734C657.853 729.985 657.71 730.175 657.615 730.3C657.567 730.363 657.532 730.409 657.509 730.439C657.498 730.454 657.49 730.464 657.485 730.471C657.482 730.474 657.481 730.476 657.48 730.478C657.479 730.478 657.479 730.478 657.479 730.479C657.479 730.478 657.479 730.478 662.24 734.13C667 737.782 667.001 737.781 667.002 737.78C667.003 737.779 667.004 737.778 667.005 737.776C667.007 737.773 667.01 737.769 667.014 737.764C667.022 737.753 667.034 737.739 667.048 737.72C667.076 737.683 667.118 737.629 667.171 737.558C667.278 737.417 667.434 737.211 667.636 736.942C668.04 736.405 668.627 735.618 669.372 734.603C670.862 732.574 672.985 729.634 675.536 725.962C680.635 718.625 687.464 708.342 694.378 696.561C708.022 673.313 722.684 643.113 723.982 618.101L711.998 617.479ZM662.24 734.13C666.051 729.496 666.052 729.497 666.052 729.497C666.052 729.497 666.053 729.498 666.053 729.498C666.054 729.498 666.054 729.498 666.054 729.498C666.054 729.498 666.053 729.497 666.051 729.496C666.047 729.493 666.039 729.486 666.028 729.477C666.005 729.458 665.968 729.427 665.917 729.384C665.815 729.298 665.657 729.165 665.451 728.988C665.039 728.634 664.435 728.105 663.691 727.432C662.201 726.08 660.174 724.162 658.033 721.901C653.574 717.192 649.293 711.69 647.665 707.024L636.335 710.976C638.858 718.208 644.697 725.271 649.32 730.152C651.72 732.686 653.975 734.82 655.631 736.321C656.461 737.074 657.146 737.673 657.63 738.089C657.872 738.297 658.064 738.459 658.199 738.573C658.267 738.63 658.321 738.675 658.359 738.706C658.378 738.722 658.394 738.735 658.405 738.745C658.411 738.75 658.416 738.754 658.42 738.757C658.422 738.759 658.424 738.76 658.425 738.761C658.426 738.762 658.427 738.762 658.427 738.763C658.428 738.763 658.429 738.764 662.24 734.13ZM647.665 707.024C643.769 695.857 647.496 685.76 655.611 676.004C663.844 666.105 675.783 657.596 686.227 650.234L679.313 640.426C669.117 647.614 655.808 657.001 646.385 668.33C636.843 679.802 630.505 694.266 636.335 710.976L647.665 707.024ZM679.473 650.343C677.599 649.11 677.384 647.28 677.367 646.887C677.352 646.537 677.422 646.589 677.215 647.306C676.822 648.671 675.931 650.787 674.502 653.796C671.82 659.441 667.391 667.881 663.46 676.775C659.469 685.805 655.634 696.045 653.843 706.26C652.057 716.452 652.209 727.176 656.839 736.744L667.641 731.516C664.518 725.065 664.113 717.174 665.663 708.331C667.209 699.512 670.604 690.296 674.436 681.626C678.328 672.82 682.315 665.315 685.341 658.945C686.766 655.946 688.052 653.037 688.746 650.631C689.082 649.462 689.424 647.943 689.356 646.369C689.286 644.751 688.694 642.045 686.067 640.317L679.473 650.343ZM477.417 312.049C477.845 311.974 478.888 312.009 480.733 312.826C482.516 313.616 484.566 314.925 486.746 316.644C491.105 320.08 495.282 324.594 497.937 327.928L507.323 320.452C504.268 316.615 499.45 311.379 494.176 307.221C491.54 305.142 488.614 303.192 485.593 301.854C482.634 300.543 479.045 299.58 475.343 300.23L477.417 312.049ZM497.854 327.822C507.561 340.586 511.582 357.127 511.62 373.764L523.62 373.736C523.578 355.372 519.159 336.013 507.406 320.558L497.854 327.822ZM511.621 373.882C512.067 394.052 498.077 412.324 479.944 426.629L487.376 436.05C506.383 421.056 524.193 399.588 523.619 373.617L511.621 373.882ZM507.325 312.22C521.484 326.802 530.242 353.097 528.931 377.358C527.627 401.489 516.669 421.394 493.779 426.727L496.501 438.414C526.621 431.397 539.453 405.046 540.914 378.005C542.368 351.093 532.866 321.298 515.935 303.86L507.325 312.22ZM526.837 336.888C528.646 338.011 530.765 340.336 533.018 344.011C535.211 347.589 537.24 351.959 539.074 356.576C542.806 365.968 545.307 375.168 547.042 380.338L558.418 376.522C557.003 372.302 554.094 361.877 550.226 352.144C548.26 347.198 545.941 342.131 543.248 337.739C540.615 333.443 537.309 329.264 533.163 326.692L526.837 336.888ZM546.811 379.413C550.103 399.225 551.418 416.895 537.696 429.132L545.684 438.088C564.882 420.966 561.817 396.515 558.649 377.447L546.811 379.413ZM539.912 335.597C572.138 374.86 602.515 414.775 610.237 459.569L622.063 457.531C613.725 409.165 581.162 366.94 549.188 327.983L539.912 335.597ZM366.084 496.178C363.301 486.756 358.742 478.222 352.907 473.712C349.879 471.37 345.92 469.697 341.509 470.521C337.122 471.341 333.778 474.356 331.358 478.159L341.482 484.602C342.154 483.545 342.726 482.96 343.118 482.651C343.488 482.36 343.683 482.323 343.714 482.317C343.742 482.312 343.852 482.29 344.122 482.375C344.42 482.469 344.909 482.696 345.568 483.205C348.473 485.451 352.078 491.122 354.576 499.577L366.084 496.178ZM331.022 478.76C326.893 487.265 324.94 500.469 326.126 514.029C327.32 527.691 331.776 542.645 341.452 554.369L350.707 546.731C343.022 537.419 339.133 525.029 338.08 512.984C337.019 500.839 338.917 489.975 341.818 484.001L331.022 478.76ZM341.452 554.369C346.248 560.179 349.614 563.605 356.23 567.924L362.79 557.876C357.473 554.405 354.983 551.911 350.707 546.731L341.452 554.369ZM356.23 567.924C362.575 572.066 371.029 574.571 377.652 576.016C381.046 576.757 384.143 577.258 386.522 577.558C387.709 577.708 388.755 577.812 389.597 577.87C390.014 577.898 390.427 577.918 390.806 577.922C391.041 577.925 391.731 577.934 392.461 577.798L390.259 566.002C390.801 565.901 391.163 565.926 390.941 565.923C390.865 565.922 390.694 565.917 390.412 565.897C389.857 565.86 389.047 565.782 388.023 565.653C385.981 565.395 383.239 564.953 380.211 564.292C373.989 562.934 367.268 560.799 362.79 557.876L356.23 567.924ZM397.211 570.57C396.172 565.999 390.802 550.411 384.531 535.608C381.368 528.143 377.877 520.639 374.464 514.643C372.761 511.653 371 508.9 369.23 506.674C367.591 504.612 365.424 502.323 362.758 501.143L357.902 512.117C357.8 512.072 358.47 512.422 359.838 514.142C361.074 515.698 362.491 517.868 364.035 520.58C367.116 525.991 370.398 533.01 373.482 540.289C379.703 554.974 384.718 569.751 385.509 573.23L397.211 570.57ZM358.858 500.813C350.952 502.814 347.759 509.875 346.918 515.671C346.07 521.522 347.167 528.134 349.792 532.91L360.308 527.13C359.053 524.846 358.285 520.903 358.794 517.394C359.311 513.83 360.698 512.726 361.802 512.447L358.858 500.813ZM350.242 533.609C358.634 544.853 364.943 548.323 374.558 554.773L381.242 544.807C371.357 538.176 366.826 535.767 359.858 526.431L350.242 533.609ZM373.289 553.629C376.007 556.893 382.003 565.837 388.026 575.275C393.999 584.635 399.595 593.841 401.493 597.409L412.087 591.771C409.935 587.729 404.096 578.15 398.142 568.82C392.237 559.567 385.813 549.917 382.511 545.951L373.289 553.629ZM556.057 458.442C556.131 459.147 556.049 459.685 556.003 459.926C555.952 460.197 555.891 460.379 555.868 460.445C555.825 460.57 555.82 460.55 555.926 460.349C556.129 459.96 556.516 459.321 557.115 458.461C558.296 456.764 560.027 454.6 562.011 452.482C564.011 450.347 566.116 448.423 568.027 447.085C570.159 445.592 571.162 445.459 571.159 445.459L571.281 433.46C567.368 433.42 563.745 435.434 561.145 437.254C558.323 439.229 555.589 441.785 553.254 444.278C550.903 446.787 548.802 449.398 547.266 451.604C546.506 452.696 545.813 453.79 545.291 454.79C545.033 455.283 544.754 455.871 544.535 456.501C544.38 456.946 543.964 458.188 544.123 459.698L556.057 458.442ZM570.932 445.453C572.811 445.543 574.3 445.21 575.132 445.049C575.916 444.897 576.628 444.77 577.813 444.76L577.707 432.76C575.482 432.78 573.964 433.052 572.85 433.268C571.785 433.474 571.709 433.476 571.508 433.467L570.932 445.453ZM577.367 444.747C584.631 445.223 593.065 449.047 597.084 454.186L606.536 446.794C599.935 438.353 587.969 433.416 578.153 432.773L577.367 444.747ZM554.73 466.684C558.203 466.835 561.908 466.489 565.052 466.201C568.406 465.894 571.125 465.653 573.388 465.763L573.972 453.777C570.695 453.617 567.064 453.966 563.956 454.251C560.637 454.556 557.767 454.805 555.25 454.696L554.73 466.684ZM576.391 463.153C578.877 460.198 580.767 455.203 581.572 450.887C581.993 448.629 582.214 446.077 581.88 443.645C581.561 441.32 580.58 438.113 577.656 435.998L570.624 445.723C569.74 445.083 569.878 444.452 569.992 445.278C570.09 445.997 570.058 447.17 569.775 448.687C569.502 450.156 569.044 451.674 568.508 452.982C567.94 454.368 567.429 455.166 567.209 455.427L576.391 463.153ZM489.762 461.516C488.524 459.697 486.314 457.533 483.986 455.535C481.523 453.422 478.473 451.109 475.196 449.009C471.941 446.924 468.306 444.948 464.692 443.619C461.214 442.341 457.034 441.391 453.026 442.226L455.474 453.974C456.241 453.814 457.885 453.903 460.552 454.883C463.083 455.813 465.916 457.315 468.722 459.113C471.506 460.897 474.111 462.874 476.171 464.642C478.366 466.525 479.546 467.833 479.839 468.264L489.762 461.516ZM451.151 441.897C448.018 441.549 444.983 442.26 442.393 443.204C439.765 444.161 437.161 445.522 434.764 446.907C432.372 448.289 429.939 449.842 427.788 451.184C425.556 452.576 423.603 453.756 421.866 454.629L427.254 465.351C429.537 464.204 431.91 462.755 434.138 461.366C436.446 459.927 438.606 458.546 440.766 457.298C442.921 456.053 444.83 455.088 446.501 454.479C448.211 453.856 449.262 453.761 449.829 453.824L451.151 441.897ZM458.097 453.195C458.349 454.866 458.2 457.802 457.398 460.538C457.01 461.864 456.534 462.909 456.061 463.626C455.579 464.355 455.28 464.48 455.324 464.46L460.256 475.4C465.355 473.101 467.784 467.77 468.914 463.911C470.135 459.742 470.511 455.034 469.963 451.404L458.097 453.195ZM446.12 448.597L445.46 448.057L437.86 457.344L438.52 457.884L446.12 448.597ZM436.221 450.166C434.85 453.109 434.44 456.921 434.44 460.154C434.44 463.527 434.89 467.268 435.92 470.402L447.32 466.658C446.79 465.042 446.44 462.628 446.44 460.154C446.44 457.539 446.83 455.811 447.099 455.234L436.221 450.166ZM462.802 463.128C461.843 462.638 460.937 462.476 460.522 462.411C460.005 462.331 459.505 462.297 459.088 462.281C458.25 462.25 457.32 462.279 456.428 462.327C454.626 462.426 452.462 462.639 450.454 462.849C448.37 463.067 446.481 463.28 444.979 463.416C444.229 463.483 443.695 463.521 443.358 463.532C443.183 463.538 443.165 463.533 443.248 463.537C443.29 463.54 443.437 463.548 443.647 463.582C443.799 463.606 444.312 463.691 444.941 463.963L440.178 474.977C441.333 475.476 442.432 475.511 442.593 475.519C443.013 475.542 443.426 475.536 443.761 475.525C444.446 475.502 445.252 475.44 446.06 475.367C447.673 475.221 449.766 474.987 451.704 474.784C453.717 474.573 455.613 474.39 457.084 474.309C457.828 474.269 458.338 474.262 458.639 474.273C458.791 474.279 458.786 474.286 458.676 474.269C458.667 474.267 458.08 474.191 457.338 473.812L462.802 463.128ZM446.803 465.228L445.863 464.288L437.377 472.773L438.317 473.713L446.803 465.228ZM463.923 446.301L441.553 446.701L441.767 458.699L464.137 458.299L463.923 446.301ZM457.971 463.933L442.741 463.473L442.379 475.467L457.609 475.927L457.971 463.933ZM485.363 417.819C479.802 417.519 467.898 417.254 455.712 418.276C449.62 418.787 443.318 419.63 437.64 421.001C432.079 422.344 426.56 424.319 422.458 427.407L429.677 436.993C431.83 435.372 435.467 433.871 440.456 432.666C445.328 431.49 450.972 430.716 456.715 430.234C468.201 429.271 479.529 429.522 484.717 429.802L485.363 417.819ZM598.056 410.837C596.556 409.949 594.843 409.429 593.454 409.094C591.974 408.737 590.396 408.483 588.92 408.297L587.42 420.203C588.644 420.357 589.746 420.543 590.639 420.759C591.622 420.996 591.974 421.181 591.944 421.163L598.056 410.837ZM588.74 408.277C581.444 407.581 573.265 406.989 566.589 406.954C563.279 406.936 560.124 407.053 557.556 407.42C556.285 407.602 554.932 407.875 553.69 408.328C552.641 408.711 550.667 409.57 549.341 411.542L559.299 418.238C558.465 419.478 557.467 419.724 557.803 419.601C557.947 419.549 558.39 419.423 559.254 419.299C560.957 419.056 563.428 418.937 566.526 418.954C572.665 418.986 580.427 419.539 587.6 420.223L588.74 408.277ZM526.956 431.248C525.667 439.269 527.026 452.657 529.011 464.403C530.03 470.428 531.263 476.302 532.531 481.23C533.753 485.976 535.137 490.375 536.585 493.091L547.175 487.449C546.468 486.121 545.371 482.972 544.152 478.239C542.981 473.687 541.815 468.149 540.844 462.403C538.849 450.604 537.864 439.002 538.804 433.153L526.956 431.248ZM536.37 492.645C537.688 495.703 539.956 499.657 541.577 502.691C542.45 504.326 543.19 505.782 543.731 507.025C543.999 507.641 544.191 508.144 544.32 508.544C544.383 508.74 544.424 508.891 544.45 509.001C544.476 509.113 544.481 509.158 544.479 509.146L556.401 507.774C556.175 505.816 555.429 503.833 554.735 502.239C553.996 500.54 553.071 498.74 552.161 497.037C550.214 493.393 548.442 490.338 547.39 487.896L536.37 492.645ZM544.982 510.953C544.662 510.253 544.695 509.839 544.723 510.238C544.74 510.484 544.746 510.916 544.71 511.546C544.638 512.796 544.428 514.425 544.095 516.138C543.762 517.853 543.336 519.497 542.884 520.797C542.349 522.333 542.03 522.637 542.26 522.39L551.04 530.57C552.635 528.858 553.611 526.481 554.216 524.743C554.904 522.769 555.463 520.547 555.875 518.427C556.287 516.306 556.582 514.13 556.69 512.231C556.744 511.287 556.758 510.309 556.693 509.386C556.638 508.616 556.495 507.275 555.898 505.967L544.982 510.953ZM562.56 566.08C563.006 565.719 563.279 565.7 562.946 565.794C562.65 565.877 562.163 565.972 561.365 566.077C560.112 566.241 557.395 566.474 555.244 566.888L557.516 578.671C559.263 578.334 560.627 578.277 562.929 577.974C563.909 577.846 565.068 577.663 566.199 577.344C567.293 577.036 568.774 576.491 570.12 575.4L562.56 566.08ZM555.244 566.888C550.655 567.773 545.348 568.766 540.921 569.523C538.703 569.902 536.747 570.214 535.231 570.423C533.482 570.664 532.875 570.682 532.969 570.687L532.391 582.673C533.625 582.733 535.399 582.513 536.869 582.311C538.571 582.076 540.671 581.739 542.941 581.351C547.492 580.574 552.895 579.562 557.516 578.671L555.244 566.888ZM533.111 570.696C528.305 570.35 518.428 570.778 509.478 570.946C504.834 571.033 500.281 571.059 496.352 570.915C492.287 570.765 489.376 570.445 487.771 570.009L484.629 581.591C487.669 582.415 491.779 582.755 495.911 582.907C500.179 583.063 504.998 583.032 509.702 582.944C519.447 582.762 528.165 582.371 532.249 582.665L533.111 570.696ZM489.444 580.847L489.724 580.667L483.236 570.573L482.956 570.753L489.444 580.847ZM402.008 598.214L416.718 617.624L426.282 610.376L411.572 590.966L402.008 598.214ZM417.016 617.986C418.142 619.253 420.31 621.064 422.55 622.847C424.956 624.761 427.94 627.024 431.066 629.316C437.252 633.852 444.289 638.719 448.642 641.241L454.659 630.859C450.901 628.681 444.303 624.143 438.162 619.639C435.123 617.411 432.271 615.245 430.021 613.456C428.894 612.559 427.946 611.779 427.214 611.146C426.849 610.83 426.557 610.568 426.333 610.358C426.223 610.254 426.138 610.171 426.075 610.108C426.01 610.043 425.984 610.013 425.984 610.014L417.016 617.986ZM447.943 640.768C449.694 642.143 453.684 644.45 458.34 646.942C463.205 649.546 469.342 652.637 475.788 655.635C482.224 658.629 489.042 661.565 495.25 663.834C501.298 666.044 507.311 667.829 511.925 668.164L512.795 656.196C509.974 655.991 505.31 654.734 499.369 652.563C493.588 650.45 487.102 647.663 480.849 644.755C474.606 641.851 468.669 638.86 464.002 636.362C459.126 633.752 456.126 631.937 455.357 631.332L447.943 640.768ZM538.152 662.199C544.38 659.637 553.329 653.957 560.335 649.241C563.926 646.824 567.158 644.556 569.491 642.893C570.659 642.061 571.604 641.379 572.259 640.903C572.587 640.665 572.842 640.478 573.017 640.35C573.104 640.286 573.172 640.237 573.218 640.203C573.241 640.186 573.258 640.173 573.271 640.164C573.277 640.159 573.282 640.156 573.285 640.153C573.287 640.152 573.288 640.151 573.289 640.15C573.29 640.15 573.29 640.15 573.29 640.149C573.291 640.149 573.291 640.149 569.73 635.32C566.169 630.491 566.169 630.491 566.169 630.491C566.169 630.491 566.169 630.491 566.169 630.491C566.168 630.491 566.168 630.492 566.167 630.493C566.165 630.494 566.161 630.497 566.156 630.5C566.147 630.507 566.132 630.518 566.111 630.533C566.071 630.563 566.009 630.608 565.928 630.668C565.765 630.787 565.521 630.965 565.207 631.194C564.577 631.651 563.661 632.312 562.526 633.121C560.254 634.741 557.114 636.945 553.635 639.286C546.501 644.088 538.519 649.073 533.588 651.101L538.152 662.199ZM569.73 635.32C573.367 640.092 573.367 640.092 573.367 640.092C573.367 640.092 573.367 640.092 573.368 640.092C573.368 640.091 573.369 640.091 573.369 640.09C573.371 640.089 573.373 640.087 573.377 640.085C573.383 640.08 573.392 640.073 573.404 640.063C573.429 640.045 573.465 640.017 573.512 639.981C573.607 639.909 573.746 639.803 573.923 639.668C574.278 639.397 574.786 639.009 575.401 638.538C576.632 637.597 578.294 636.324 580.017 634.999C583.35 632.434 587.221 629.436 588.344 628.46L580.476 619.4C579.699 620.074 576.23 622.771 572.698 625.489C570.989 626.804 569.337 628.069 568.112 629.006C567.5 629.474 566.994 629.86 566.643 630.129C566.467 630.263 566.329 630.368 566.235 630.439C566.189 630.475 566.153 630.502 566.129 630.52C566.117 630.53 566.108 630.536 566.102 630.541C566.099 630.543 566.097 630.545 566.095 630.546C566.094 630.547 566.094 630.547 566.094 630.547C566.093 630.548 566.093 630.548 566.093 630.548C566.093 630.548 566.093 630.548 569.73 635.32ZM588.256 628.535C596.552 621.606 603.366 613.453 608.067 607.121C610.431 603.937 612.291 601.172 613.568 599.192C614.207 598.2 614.701 597.403 615.04 596.845C615.21 596.566 615.341 596.347 615.432 596.192C615.478 596.115 615.514 596.055 615.539 596.011C615.552 595.989 615.562 595.971 615.57 595.958C615.574 595.951 615.577 595.946 615.58 595.941C615.581 595.939 615.582 595.937 615.583 595.935C615.584 595.934 615.584 595.933 615.584 595.933C615.585 595.932 615.586 595.931 610.39 592.93C605.194 589.929 605.195 589.928 605.195 589.927C605.195 589.927 605.196 589.927 605.196 589.926C605.196 589.926 605.197 589.925 605.197 589.925C605.197 589.925 605.196 589.926 605.195 589.928C605.193 589.932 605.188 589.941 605.18 589.953C605.166 589.978 605.141 590.02 605.107 590.077C605.039 590.193 604.932 590.372 604.787 590.61C604.498 591.086 604.059 591.794 603.481 592.691C602.324 594.487 600.614 597.029 598.433 599.967C594.044 605.877 587.869 613.224 580.564 619.325L588.256 628.535ZM615.894 595.319C634.514 552.424 631.541 503.235 622.025 457.332L610.275 459.768C619.619 504.845 622.026 551.056 604.886 590.541L615.894 595.319ZM481.857 308.59C482.417 307.337 482.781 305.327 481.734 303.265C480.823 301.472 479.349 300.68 478.662 300.378C477.346 299.799 476.077 299.779 475.646 299.773C474.435 299.757 473.041 299.949 471.749 300.19C469.033 300.697 465.442 301.682 461.689 303.107C457.94 304.531 453.821 306.472 450.155 308.969C446.55 311.426 442.956 314.71 440.858 318.977L451.627 324.271C452.449 322.601 454.187 320.743 456.912 318.886C459.578 317.07 462.788 315.526 465.949 314.326C469.107 313.126 472.009 312.348 473.952 311.986C474.427 311.897 474.812 311.84 475.101 311.806C475.411 311.77 475.526 311.773 475.491 311.772C475.471 311.772 475.335 311.77 475.119 311.739C474.947 311.714 474.449 311.635 473.83 311.362C473.281 311.121 471.901 310.404 471.036 308.702C470.034 306.73 470.396 304.824 470.903 303.69L481.857 308.59ZM449.61 325.604C450.757 325.943 451.837 325.861 451.861 325.86C452.21 325.846 452.56 325.814 452.855 325.782C453.461 325.716 454.196 325.612 454.969 325.494C456.532 325.256 458.541 324.912 460.581 324.56C464.849 323.823 469.017 323.092 470.723 322.92L469.517 310.981C467.263 311.208 462.466 312.057 458.539 312.735C456.482 313.09 454.586 313.414 453.157 313.632C452.435 313.742 451.904 313.814 451.562 313.852C451.383 313.871 451.339 313.871 451.384 313.87C451.405 313.869 451.525 313.864 451.704 313.872C451.79 313.876 452.331 313.895 453.01 314.096L449.61 325.604ZM470.693 322.923C477.212 322.297 489.802 322.29 493.335 322.31L493.405 310.31C490.018 310.291 476.788 310.283 469.547 310.978L470.693 322.923ZM440.858 318.977C439.924 320.878 439.076 322.505 438.522 324.657C438.019 326.605 437.765 328.95 437.385 332.453L449.315 333.748C449.735 329.881 449.907 328.561 450.142 327.651C450.324 326.944 450.523 326.518 451.627 324.271L440.858 318.977ZM437.379 332.515C436.151 345.029 430.524 376.036 425.156 404.665C422.496 418.857 419.899 432.465 418.008 442.595C417.06 447.673 416.278 451.936 415.741 455.029C415.474 456.57 415.261 457.86 415.118 458.831C415.047 459.311 414.986 459.764 414.944 460.153C414.929 460.297 414.824 461.138 414.914 461.98L426.846 460.7C426.917 461.362 426.833 461.833 426.876 461.429C426.893 461.27 426.928 460.996 426.989 460.581C427.11 459.762 427.303 458.59 427.565 457.079C428.087 454.068 428.857 449.87 429.804 444.797C431.703 434.625 434.271 421.171 436.951 406.876C442.266 378.53 448.029 346.862 449.321 333.686L437.379 332.515ZM420.109 432.907C420.818 438.88 419.149 445.973 415.403 453.74C411.688 461.444 406.157 469.338 399.839 476.697C393.536 484.038 386.574 490.703 380.128 495.963C373.59 501.298 367.915 504.914 364.197 506.46L368.803 517.54C374.105 515.336 380.834 510.875 387.715 505.26C394.689 499.569 402.163 492.412 408.944 484.514C415.71 476.633 421.912 467.868 426.212 458.953C430.481 450.1 433.107 440.611 432.026 431.493L420.109 432.907ZM402.472 371.925C398.495 391.318 388.963 425.42 375.048 457.78L386.072 462.52C400.342 429.334 410.104 394.442 414.228 374.335L402.472 371.925ZM375.048 457.78C369.425 470.857 363.853 479.558 358.796 488.28C353.723 497.029 349.277 505.647 346.77 517.787L358.522 520.213C360.645 509.933 364.352 502.622 369.177 494.299C374.018 485.95 380.088 476.436 386.072 462.52L375.048 457.78ZM291.673 545.88C287.638 503.633 283.36 473.026 285.356 444.012C287.321 415.436 295.42 388.415 316.632 354.137L306.428 347.823C284.31 383.565 275.498 412.449 273.384 443.188C271.3 473.489 275.772 505.607 279.727 547.02L291.673 545.88ZM316.634 354.135C320.684 347.582 345.411 313.614 363.58 295.884L355.2 287.296C336.169 305.866 310.856 340.658 306.426 347.825L316.634 354.135ZM279.721 546.95C282.084 575.195 287.107 628.983 289.766 657.595L301.714 656.485C299.053 627.837 294.036 574.125 291.679 545.95L279.721 546.95ZM289.746 657.304C290.984 685.383 287.19 720.904 271.023 757.05L281.977 761.95C299.056 723.767 303.036 686.317 301.734 656.776L289.746 657.304ZM400.794 594.378C400.709 596.786 401.239 599.376 401.888 601.759C402.56 604.23 403.505 606.975 404.544 609.829C406.676 615.685 409.233 622.105 411.523 629.213C416.136 643.532 418.868 658.436 414.165 670.914L425.394 675.146C431.642 658.569 427.669 640.198 422.945 625.533C420.566 618.149 417.796 611.15 415.82 605.724C414.806 602.937 414.002 600.575 413.466 598.606C412.906 596.549 412.766 595.366 412.786 594.802L400.794 594.378ZM414.165 670.914C412.277 675.925 409.055 678.955 404.861 683.243C400.773 687.424 395.987 692.666 394.497 701.345L406.323 703.376C407.156 698.526 409.635 695.525 413.44 691.634C417.14 687.851 422.442 682.98 425.394 675.146L414.165 670.914ZM394.497 701.345C391.918 716.362 402.047 726.194 410.109 733.295C414.502 737.164 418.382 740.284 421.564 743.738C424.662 747.101 426.361 750.043 426.793 753.005L438.667 751.275C437.734 744.872 434.22 739.764 430.389 735.607C426.643 731.54 421.877 727.669 418.041 724.29C409.645 716.895 404.979 711.202 406.323 703.376L394.497 701.345ZM426.821 753.182C428.052 760.159 428.063 764.872 427.45 767.845C426.866 770.678 425.918 771.187 425.591 771.334C424.928 771.634 423.218 771.926 419.746 770.829C416.39 769.768 412.185 767.654 407.226 764.437L400.694 774.503C406.115 778.02 411.339 780.757 416.129 782.271C420.803 783.748 425.953 784.339 430.531 782.27C435.445 780.051 438.119 775.526 439.203 770.268C440.258 765.15 439.983 758.716 438.639 751.097L426.821 753.182ZM408.098 765.125C401.667 759.001 395.692 754.334 390.366 750.397C384.907 746.362 380.558 743.391 376.693 740.215C372.959 737.146 370.142 734.238 368.031 730.788C365.938 727.369 364.359 723.12 363.533 717.174L351.647 718.826C352.664 726.142 354.712 732.014 357.795 737.052C360.86 742.06 364.768 745.946 369.074 749.486C373.25 752.917 378.257 756.369 383.234 760.048C388.345 763.825 393.888 768.164 399.822 773.815L408.098 765.125ZM363.533 717.174C362.066 706.619 362.331 695.063 363.549 684.7L351.631 683.3C350.328 694.388 350.004 707.006 351.647 718.826L363.533 717.174ZM363.549 684.7C363.945 681.333 364.577 677.959 365.342 675.094C366.145 672.088 366.966 670.138 367.53 669.271L357.47 662.729C355.852 665.218 354.643 668.65 353.749 671.996C352.817 675.483 352.086 679.43 351.631 683.3L363.549 684.7ZM367.53 669.271C368.431 667.885 369.065 667.168 369.409 666.853C369.823 666.474 369.393 667.053 368.195 667.154C366.632 667.285 365.531 666.493 365.122 666.046C364.864 665.765 364.997 665.776 365.273 666.576C365.807 668.126 366.285 670.838 366.573 674.732C366.853 678.52 366.93 683.053 366.838 688.028C366.465 708.125 363.378 733.64 360.972 742.913L372.588 745.927C375.322 735.39 378.454 708.839 378.836 688.25C378.932 683.053 378.857 678.126 378.54 673.847C378.232 669.674 377.669 665.712 376.617 662.663C376.1 661.164 375.303 659.394 373.966 657.936C372.478 656.313 370.148 654.948 367.194 655.195C364.606 655.412 362.624 656.797 361.31 657.998C359.927 659.263 358.659 660.901 357.47 662.729L367.53 669.271ZM361.012 742.768C355.562 761.797 345.753 786.737 334.171 815.094C322.639 843.327 309.403 874.825 297.316 906.589C285.227 938.357 274.202 970.605 267.086 1000.47C259.995 1030.22 256.646 1058.15 260.347 1081.08L272.193 1079.16C268.869 1058.57 271.794 1032.47 278.759 1003.25C285.699 974.126 296.515 942.435 308.531 910.856C320.55 879.273 333.687 848.014 345.28 819.631C356.822 791.37 366.888 765.833 372.548 746.072L361.012 742.768ZM507.348 665.478C515.873 678.433 521.883 686.779 525.174 695.949C528.292 704.637 528.997 714.343 525.473 729.644L537.167 732.337C541.063 715.417 540.553 703.278 536.469 691.896C532.557 680.996 525.377 671.047 517.372 658.882L507.348 665.478ZM525.512 729.484C520.165 750.098 506.206 755.862 484.931 766.037L490.109 776.863C510.274 767.218 530.155 759.382 537.128 732.496L525.512 729.484ZM485.099 765.96C481.13 767.71 478.073 770.165 475.949 773.252C473.84 776.317 472.883 779.663 472.568 782.859C471.963 788.977 473.68 795.297 474.83 799.532L486.41 796.387C485.17 791.823 484.157 787.613 484.51 784.039C484.673 782.388 485.117 781.097 485.834 780.055C486.535 779.036 487.73 777.915 489.941 776.94L485.099 765.96ZM474.99 800.033C475.909 802.53 477.739 805.067 479.653 807.349C481.673 809.756 484.228 812.388 487.098 815.112C492.847 820.57 500.162 826.684 507.717 832.545C515.283 838.415 523.179 844.101 530.125 848.697C536.929 853.2 543.23 856.935 547.463 858.609L551.877 847.45C548.93 846.285 543.555 843.196 536.747 838.69C530.081 834.279 522.43 828.772 515.073 823.064C507.705 817.348 500.723 811.5 495.36 806.409C492.674 803.86 490.47 801.571 488.846 799.636C487.118 797.576 486.421 796.349 486.25 795.887L474.99 800.033ZM555.328 855.027C555.183 855.438 555.087 855.528 555.456 854.894C555.72 854.441 556.101 853.819 556.592 853.041C557.57 851.494 558.891 849.482 560.37 847.272C563.326 842.857 566.83 837.778 569.307 834.301L559.533 827.338C556.98 830.922 553.409 836.098 550.398 840.597C548.893 842.845 547.507 844.955 546.449 846.629C545.922 847.462 545.453 848.224 545.084 848.86C544.819 849.314 544.307 850.197 544.012 851.033L555.328 855.027ZM569.577 833.886C573.174 827.838 583.828 813.044 590.682 797.026C597.487 781.124 601.885 761.128 590.146 744.955L580.434 752.004C588.181 762.677 586.149 777.117 579.65 792.305C573.2 807.378 563.676 820.332 559.263 827.753L569.577 833.886ZM567.487 765.297C572.534 772.969 581.033 774.445 587.994 774.96C591.461 775.216 595.566 775.271 598.951 775.428C602.572 775.596 605.995 775.89 609.224 776.593L611.776 764.867C607.566 763.951 603.358 763.62 599.507 763.441C595.422 763.251 592.214 763.239 588.879 762.992C582.237 762.501 579.176 761.231 577.513 758.702L567.487 765.297ZM609.224 776.593C622.564 779.495 632.146 780.948 640.593 786.456L647.147 776.404C636.36 769.37 623.896 767.504 611.776 764.867L609.224 776.593ZM529.976 655.529C529.149 659.872 529.06 664.274 530.982 667.856C533.226 672.041 537.253 673.504 540.884 673.592C544.238 673.673 547.786 672.661 550.992 671.396C554.306 670.088 557.798 668.287 561.201 666.314C568.01 662.364 574.924 657.447 580.074 653.575C582.664 651.628 584.839 649.921 586.37 648.699C587.136 648.087 587.742 647.595 588.159 647.254C588.368 647.083 588.53 646.95 588.642 646.858C588.697 646.812 588.74 646.777 588.77 646.752C588.785 646.739 588.797 646.73 588.805 646.723C588.81 646.719 588.813 646.716 588.815 646.714C588.817 646.713 588.818 646.712 588.819 646.712C588.82 646.711 588.821 646.71 584.98 642.1C581.14 637.49 581.14 637.49 581.14 637.49C581.14 637.49 581.14 637.49 581.14 637.49C581.139 637.491 581.137 637.492 581.135 637.494C581.13 637.498 581.121 637.505 581.11 637.515C581.087 637.534 581.051 637.563 581.003 637.603C580.906 637.683 580.76 637.804 580.567 637.962C580.181 638.277 579.609 638.74 578.881 639.322C577.424 640.486 575.343 642.119 572.863 643.984C567.874 647.735 561.393 652.33 555.18 655.934C552.07 657.737 549.145 659.224 546.587 660.233C543.921 661.285 542.145 661.619 541.174 661.596C540.481 661.579 541.183 661.487 541.556 662.184C541.607 662.278 541.101 661.26 541.764 657.771L529.976 655.529ZM579.076 641.029L568.656 698.459L580.464 700.601L590.884 643.171L579.076 641.029ZM260.279 1080.45C262.767 1124.97 259.265 1173.58 254.371 1223.35C249.494 1272.96 243.215 1323.89 240.311 1372.33L252.289 1373.05C255.175 1324.9 261.396 1274.55 266.314 1224.52C271.215 1174.66 274.803 1125.28 272.261 1079.79L260.279 1080.45ZM240.302 1372.52C239.7 1393.92 241.727 1405.76 245.826 1415.67C247.823 1420.5 250.255 1424.72 252.755 1429.06C255.279 1433.44 257.977 1438.1 260.84 1444.19L271.7 1439.09C268.601 1432.49 265.673 1427.44 263.151 1423.06C260.604 1418.64 258.567 1415.08 256.915 1411.08C253.715 1403.34 251.72 1393.39 252.298 1372.86L240.302 1372.52ZM260.84 1444.19C268.275 1460.01 280.98 1475.53 291.324 1488.71C296.605 1495.44 301.266 1501.53 304.676 1507.02C308.171 1512.65 309.836 1516.85 310.01 1519.85L321.99 1519.15C321.634 1513.01 318.586 1506.67 314.869 1500.69C311.065 1494.57 306.013 1487.99 300.763 1481.3C290.044 1467.64 278.414 1453.37 271.7 1439.09L260.84 1444.19ZM310.146 1518.18C310.205 1517.92 310.44 1517.44 310.896 1517.1C311.234 1516.84 311.361 1516.91 310.89 1516.98C309.812 1517.14 307.907 1516.99 305.11 1516.43C302.347 1515.87 299.744 1515.14 296.882 1514.46C295.553 1514.14 294.163 1513.84 292.877 1513.65C291.721 1513.47 290.055 1513.3 288.416 1513.6L290.584 1525.4C290.197 1525.47 290.24 1525.39 291.122 1525.52C291.874 1525.63 292.852 1525.83 294.095 1526.13C296.376 1526.68 299.731 1527.58 302.73 1528.19C305.695 1528.79 309.358 1529.34 312.644 1528.85C314.353 1528.6 316.361 1528.02 318.152 1526.66C320.061 1525.21 321.323 1523.18 321.854 1520.82L310.146 1518.18ZM287.745 1513.76C282.634 1515.33 279.231 1515.89 277.062 1515.86C274.98 1515.83 274.986 1515.3 275.243 1515.63C275.293 1515.7 274.79 1515.06 274.913 1512.41C275.03 1509.89 275.664 1506.48 276.813 1501.99L265.187 1499.01C263.986 1503.71 263.101 1508.08 262.926 1511.86C262.757 1515.51 263.188 1519.7 265.794 1523.03C268.608 1526.62 272.791 1527.8 276.905 1527.86C280.932 1527.91 285.741 1526.92 291.255 1525.24L287.745 1513.76ZM276.769 1502.15C277.599 1499.25 279.658 1495.44 282.986 1490.58C286.258 1485.8 290.416 1480.49 295.076 1474.57C304.274 1462.88 315.278 1449.03 323.347 1434.12L312.793 1428.4C305.302 1442.25 294.985 1455.28 285.646 1467.14C281.038 1473 276.623 1478.64 273.085 1483.8C269.603 1488.88 266.616 1494.01 265.231 1498.85L276.769 1502.15ZM323.347 1434.12C326.895 1427.56 331.016 1419.05 334.221 1412.24C335.831 1408.82 337.221 1405.81 338.21 1403.65C338.705 1402.57 339.099 1401.7 339.371 1401.1C339.506 1400.8 339.611 1400.57 339.683 1400.41C339.718 1400.33 339.746 1400.27 339.764 1400.23C339.773 1400.21 339.78 1400.2 339.785 1400.19C339.788 1400.18 339.789 1400.18 339.791 1400.17C339.791 1400.17 339.792 1400.17 339.792 1400.17C339.792 1400.17 339.793 1400.17 339.793 1400.17C339.793 1400.17 339.793 1400.17 334.32 1397.71C328.847 1395.25 328.847 1395.25 328.847 1395.25C328.847 1395.25 328.847 1395.25 328.847 1395.25C328.847 1395.25 328.846 1395.25 328.846 1395.25C328.845 1395.26 328.843 1395.26 328.841 1395.26C328.837 1395.27 328.831 1395.29 328.822 1395.31C328.805 1395.35 328.779 1395.4 328.744 1395.48C328.676 1395.63 328.574 1395.86 328.441 1396.15C328.175 1396.74 327.787 1397.59 327.3 1398.65C326.324 1400.78 324.952 1403.76 323.365 1407.13C320.177 1413.9 316.173 1422.16 312.793 1428.4L323.347 1434.12ZM328.481 1399.09C331.374 1411.34 338.724 1438.86 346.305 1464.59C350.097 1477.47 353.968 1489.96 357.386 1499.91C359.094 1504.89 360.71 1509.29 362.166 1512.82C363.543 1516.15 364.997 1519.27 366.462 1521.23L376.078 1514.05C375.623 1513.44 374.661 1511.64 373.258 1508.24C371.933 1505.03 370.405 1500.88 368.736 1496.02C365.4 1486.3 361.586 1474 357.815 1461.2C350.271 1435.6 342.986 1408.3 340.159 1396.33L328.481 1399.09ZM366.118 1520.72C368.329 1524.42 371.074 1527.26 374.836 1528.92C378.432 1530.5 382.281 1530.69 386.035 1530.49L385.405 1518.51C382.309 1518.67 380.703 1518.39 379.672 1517.94C378.806 1517.56 377.751 1516.79 376.422 1514.56L366.118 1520.72ZM626.53 1558.35L626.43 1556.59L614.45 1557.27L614.55 1559.03L626.53 1558.35ZM623.767 1551.94C593.253 1531.61 576.368 1517.99 550.549 1483.18L540.911 1490.32C567.732 1526.49 585.727 1541.01 617.113 1561.92L623.767 1551.94ZM550.459 1483.06C541.624 1471.74 533.673 1463.46 526.744 1456.57C519.711 1449.57 514.138 1444.37 509.447 1438.72C500.621 1428.09 494.983 1415.93 493.512 1388.18L481.528 1388.82C483.097 1418.39 489.319 1433.26 500.215 1446.39C505.386 1452.61 511.639 1458.47 518.279 1465.07C525.023 1471.79 532.591 1479.67 541 1490.44L550.459 1483.06ZM493.477 1389.22C495.634 1371.25 491.312 1357.55 485.221 1344.59C482.257 1338.28 478.719 1331.85 475.454 1325.5C472.125 1319.02 468.889 1312.27 466.151 1304.72L454.869 1308.8C457.857 1317.05 461.354 1324.31 464.78 1330.98C468.27 1337.77 471.51 1343.63 474.361 1349.69C479.899 1361.48 483.357 1372.84 481.563 1387.79L493.477 1389.22ZM466.151 1304.72C454.011 1271.21 440.291 1240.89 427.506 1213.32C414.675 1185.66 402.884 1160.98 394.354 1138.35L383.126 1142.59C391.855 1165.75 403.904 1190.96 416.62 1218.37C429.381 1245.88 442.916 1275.81 454.869 1308.8L466.151 1304.72ZM394.324 1138.28C388.956 1124.62 385.862 1114.74 379.775 1100.18L368.705 1104.82C374.869 1119.55 377.323 1127.82 383.156 1142.66L394.324 1138.28ZM379.775 1100.18C377.311 1094.3 374.84 1089.78 372.77 1085.7C370.689 1081.6 368.854 1077.64 367.247 1072.28L355.753 1075.72C357.646 1082.04 359.828 1086.71 362.066 1091.12C364.315 1095.56 366.463 1099.46 368.705 1104.82L379.775 1100.18ZM367.247 1072.28C366.207 1068.81 365.211 1064.11 364.459 1060.14C364.089 1058.19 363.787 1056.46 363.579 1055.23C363.474 1054.61 363.394 1054.12 363.339 1053.78C363.312 1053.61 363.292 1053.49 363.278 1053.4C363.271 1053.36 363.266 1053.33 363.263 1053.31C363.261 1053.29 363.26 1053.29 363.259 1053.28C363.259 1053.28 363.259 1053.28 363.259 1053.28C363.259 1053.28 363.259 1053.28 363.259 1053.28V1053.28C363.259 1053.28 363.259 1053.28 357.33 1054.2C351.401 1055.12 351.401 1055.12 351.401 1055.12C351.401 1055.12 351.401 1055.12 351.401 1055.12C351.401 1055.12 351.402 1055.12 351.402 1055.13C351.402 1055.13 351.403 1055.13 351.403 1055.13C351.404 1055.14 351.406 1055.15 351.408 1055.17C351.412 1055.19 351.418 1055.23 351.426 1055.28C351.441 1055.38 351.464 1055.52 351.493 1055.7C351.551 1056.06 351.637 1056.58 351.746 1057.23C351.965 1058.52 352.281 1060.33 352.669 1062.38C353.435 1066.42 354.524 1071.62 355.753 1075.72L367.247 1072.28ZM357.33 1054.2C363.296 1054.83 363.296 1054.83 363.296 1054.83C363.296 1054.83 363.296 1054.83 363.296 1054.83C363.296 1054.83 363.296 1054.83 363.296 1054.83C363.297 1054.83 363.297 1054.82 363.298 1054.82C363.3 1054.8 363.302 1054.78 363.306 1054.74C363.313 1054.68 363.325 1054.57 363.341 1054.44C363.373 1054.16 363.422 1053.75 363.489 1053.21C363.623 1052.13 363.831 1050.55 364.119 1048.58C364.697 1044.65 365.597 1039.19 366.884 1033.11C369.5 1020.74 373.565 1006.5 379.366 996.969L369.114 990.731C362.192 1002.11 357.803 1018.05 355.144 1030.62C353.794 1037.01 352.852 1042.72 352.247 1046.84C351.944 1048.9 351.725 1050.56 351.581 1051.72C351.509 1052.3 351.455 1052.76 351.419 1053.07C351.401 1053.22 351.388 1053.34 351.379 1053.43C351.374 1053.47 351.37 1053.5 351.368 1053.53C351.367 1053.54 351.366 1053.55 351.365 1053.55C351.365 1053.56 351.364 1053.56 351.364 1053.56C351.364 1053.56 351.364 1053.56 351.364 1053.56C351.364 1053.57 351.363 1053.57 357.33 1054.2ZM379.366 996.969C394.287 972.444 415.051 961.278 437.78 949.983L432.44 939.237C409.609 950.582 385.978 963.015 369.114 990.731L379.366 996.969ZM429.189 943.641C428.456 948.118 426.467 952.717 424.251 958.706C422.2 964.251 420.022 970.889 420.42 977.805L432.4 977.115C432.158 972.921 433.475 968.359 435.506 962.869C437.373 957.823 440.054 951.552 441.031 945.579L429.189 943.641ZM424.888 983.264C427.971 984.072 431.159 983.659 433.917 982.92C436.752 982.16 439.697 980.898 442.575 979.415C448.333 976.447 454.496 972.235 460.047 968.062C465.633 963.862 470.773 959.568 474.504 956.335C476.374 954.716 477.899 953.355 478.961 952.395C479.492 951.915 479.908 951.535 480.193 951.273C480.336 951.142 480.446 951.04 480.522 950.969C480.56 950.934 480.589 950.907 480.61 950.888C480.62 950.878 480.628 950.871 480.634 950.866C480.637 950.863 480.639 950.861 480.641 950.859C480.642 950.858 480.643 950.857 480.643 950.857C480.644 950.856 480.645 950.856 476.55 946.47C472.455 942.084 472.456 942.084 472.456 942.084C472.456 942.084 472.456 942.084 472.456 942.084C472.455 942.084 472.454 942.085 472.453 942.087C472.449 942.09 472.444 942.095 472.437 942.102C472.421 942.116 472.398 942.138 472.365 942.168C472.301 942.228 472.202 942.319 472.071 942.439C471.809 942.68 471.419 943.037 470.915 943.492C469.907 944.404 468.445 945.708 466.648 947.265C463.045 950.385 458.13 954.49 452.836 958.47C447.505 962.478 441.96 966.231 437.077 968.748C434.633 970.008 432.524 970.869 430.809 971.329C429.016 971.81 428.157 971.715 427.932 971.656L424.888 983.264ZM476.55 946.47C471.595 949.854 471.596 949.855 471.597 949.856C471.597 949.856 471.598 949.857 471.598 949.858C471.6 949.86 471.601 949.862 471.602 949.864C471.606 949.869 471.609 949.874 471.614 949.881C471.622 949.893 471.634 949.91 471.647 949.93C471.675 949.969 471.712 950.023 471.76 950.09C471.854 950.224 471.987 950.412 472.157 950.645C472.495 951.112 472.981 951.766 473.593 952.548C474.811 954.106 476.558 956.214 478.67 958.393C480.769 960.558 483.324 962.894 486.165 964.836C488.965 966.75 492.367 968.505 496.126 969.097L497.993 957.243C496.651 957.032 494.939 956.297 492.936 954.929C490.976 953.589 489.041 951.85 487.287 950.041C485.547 948.246 484.081 946.48 483.047 945.158C482.533 944.501 482.134 943.963 481.869 943.598C481.737 943.415 481.638 943.277 481.577 943.189C481.546 943.146 481.524 943.115 481.512 943.097C481.506 943.088 481.503 943.083 481.501 943.081C481.501 943.08 481.501 943.08 481.501 943.081C481.502 943.081 481.502 943.082 481.503 943.083C481.503 943.083 481.503 943.084 481.504 943.084C481.504 943.085 481.505 943.086 476.55 946.47ZM496.126 969.097C499.654 969.652 503.464 968.768 506.637 967.742C509.987 966.659 513.548 965.099 516.883 963.538C518.567 962.751 520.241 961.939 521.837 961.166C523.446 960.385 524.966 959.647 526.403 958.975C529.389 957.576 531.572 956.675 532.99 956.312L530.01 944.688C527.37 945.365 524.253 946.731 521.314 948.107C519.789 948.821 518.19 949.598 516.601 950.368C514.997 951.146 513.394 951.922 511.797 952.67C508.572 954.179 505.561 955.478 502.946 956.324C500.154 957.226 498.604 957.339 497.993 957.243L496.126 969.097ZM532.99 956.312C540.461 954.397 546.857 953.85 551.342 953.776C553.582 953.739 555.338 953.821 556.501 953.907C557.083 953.95 557.516 953.994 557.786 954.025C557.921 954.04 558.016 954.052 558.068 954.059C558.094 954.063 558.11 954.065 558.115 954.066C558.117 954.066 558.117 954.066 558.114 954.066C558.112 954.065 558.11 954.065 558.107 954.065C558.105 954.064 558.104 954.064 558.102 954.064C558.101 954.064 558.1 954.063 558.099 954.063C558.098 954.063 558.096 954.063 558.99 948.13C559.884 942.197 559.882 942.197 559.88 942.196C559.88 942.196 559.878 942.196 559.877 942.196C559.874 942.195 559.872 942.195 559.869 942.195C559.863 942.194 559.857 942.193 559.849 942.192C559.835 942.19 559.818 942.187 559.798 942.184C559.759 942.179 559.708 942.172 559.646 942.164C559.522 942.147 559.354 942.126 559.143 942.102C558.723 942.054 558.133 941.995 557.387 941.94C555.896 941.829 553.778 941.735 551.145 941.778C545.885 941.864 538.536 942.502 530.01 944.688L532.99 956.312ZM558.99 948.13C554.358 944.316 554.358 944.316 554.357 944.317C554.357 944.317 554.357 944.318 554.356 944.318C554.355 944.319 554.354 944.321 554.353 944.322C554.35 944.325 554.347 944.329 554.343 944.334C554.335 944.344 554.324 944.358 554.31 944.375C554.282 944.409 554.242 944.457 554.192 944.52C554.09 944.644 553.945 944.825 553.76 945.055C553.391 945.516 552.865 946.181 552.222 947.012C550.938 948.672 549.181 951.008 547.279 953.722C543.558 959.031 538.971 966.224 536.508 972.738L547.732 976.982C549.635 971.95 553.483 965.778 557.106 960.609C558.876 958.083 560.517 955.902 561.714 954.353C562.312 953.581 562.797 952.969 563.128 952.555C563.294 952.348 563.421 952.19 563.505 952.087C563.547 952.035 563.578 951.997 563.598 951.973C563.608 951.961 563.615 951.952 563.619 951.948C563.621 951.945 563.622 951.944 563.622 951.943C563.623 951.943 563.623 951.943 563.623 951.943C563.622 951.943 563.622 951.943 563.622 951.943C563.622 951.944 563.622 951.944 558.99 948.13ZM594.83 1068.59C582.193 1091.62 566.453 1113.69 550.691 1135.44C535.017 1157.07 519.255 1178.47 507.045 1199.71C494.826 1220.98 485.859 1242.59 484.111 1264.81C482.346 1287.22 487.968 1309.77 504.082 1332.68L513.898 1325.78C499.305 1305.03 494.54 1285.23 496.074 1265.75C497.623 1246.07 505.638 1226.25 517.45 1205.69C529.271 1185.12 544.59 1164.31 560.408 1142.48C576.139 1120.77 592.304 1098.14 605.35 1074.37L594.83 1068.59ZM504.082 1332.68C504.806 1333.71 505.411 1334.84 506.06 1336.18C506.637 1337.36 507.425 1339.11 508.234 1340.57C510.071 1343.89 512.898 1347.48 518.378 1349.02L521.622 1337.46C520.403 1337.12 519.726 1336.55 518.733 1334.76C518.128 1333.67 517.67 1332.61 516.854 1330.93C516.11 1329.4 515.175 1327.6 513.898 1325.78L504.082 1332.68ZM518.378 1349.02C524.147 1350.64 528.677 1347.79 531.474 1344.62C534.148 1341.59 536.004 1337.55 537.293 1334.02C538.624 1330.38 539.554 1326.7 540.149 1323.98C540.449 1322.61 540.669 1321.45 540.816 1320.63C540.889 1320.22 540.945 1319.89 540.982 1319.66C541.001 1319.54 541.016 1319.45 541.026 1319.38C541.031 1319.35 541.035 1319.33 541.038 1319.31C541.04 1319.3 541.041 1319.29 541.042 1319.28C541.043 1319.28 541.043 1319.27 541.043 1319.27C541.044 1319.27 541.044 1319.27 541.044 1319.27C541.044 1319.27 541.044 1319.27 535.11 1318.38C529.176 1317.49 529.176 1317.49 529.176 1317.49C529.176 1317.49 529.176 1317.49 529.176 1317.49C529.177 1317.49 529.177 1317.49 529.177 1317.49C529.176 1317.49 529.176 1317.49 529.176 1317.5C529.175 1317.5 529.172 1317.52 529.169 1317.54C529.163 1317.58 529.153 1317.64 529.139 1317.73C529.11 1317.9 529.065 1318.17 529.003 1318.52C528.879 1319.21 528.688 1320.22 528.426 1321.41C527.896 1323.84 527.1 1326.95 526.021 1329.9C524.899 1332.97 523.661 1335.34 522.476 1336.68C521.918 1337.32 521.585 1337.47 521.539 1337.49C521.53 1337.5 521.569 1337.48 521.632 1337.48C521.696 1337.47 521.702 1337.49 521.622 1337.46L518.378 1349.02ZM535.11 1318.38C540.911 1319.91 540.911 1319.91 540.911 1319.91C540.911 1319.91 540.912 1319.91 540.912 1319.91C540.913 1319.9 540.915 1319.9 540.917 1319.89C540.922 1319.87 540.93 1319.84 540.94 1319.8C540.96 1319.73 540.99 1319.62 541.03 1319.47C541.11 1319.17 541.231 1318.72 541.39 1318.13C541.708 1316.95 542.18 1315.21 542.796 1312.98C544.028 1308.52 545.833 1302.1 548.119 1294.24C552.693 1278.54 559.188 1257.15 566.88 1234.42C574.577 1211.67 583.443 1187.65 592.752 1166.65C602.129 1145.5 611.716 1127.96 620.711 1117.76L611.709 1109.82C601.419 1121.5 591.226 1140.48 581.781 1161.79C572.268 1183.25 563.27 1207.64 555.513 1230.57C547.751 1253.52 541.203 1275.07 536.597 1290.89C534.294 1298.8 532.474 1305.28 531.229 1309.79C530.607 1312.04 530.128 1313.8 529.805 1315C529.643 1315.6 529.519 1316.06 529.437 1316.37C529.395 1316.52 529.364 1316.64 529.342 1316.72C529.332 1316.76 529.324 1316.79 529.318 1316.81C529.315 1316.82 529.313 1316.83 529.312 1316.84C529.311 1316.84 529.311 1316.84 529.31 1316.84C529.31 1316.85 529.309 1316.85 535.11 1318.38ZM613.357 1119.07C614.285 1119.57 615.617 1120.71 617.2 1122.71C618.728 1124.64 620.235 1127.03 621.604 1129.6C624.423 1134.9 626.214 1140.1 626.57 1142.41L638.43 1140.59C637.786 1136.4 635.327 1129.85 632.198 1123.97C630.593 1120.95 628.702 1117.9 626.602 1115.25C624.556 1112.67 622.03 1110.12 619.063 1108.51L613.357 1119.07ZM626.57 1142.41C630.497 1167.94 627.859 1193.32 623.754 1215.33C621.703 1226.32 619.304 1236.38 617.195 1245.2C615.119 1253.89 613.251 1261.65 612.427 1267.6L624.313 1269.24C625.038 1264.01 626.73 1256.93 628.867 1247.99C630.971 1239.19 633.438 1228.85 635.55 1217.53C639.772 1194.9 642.649 1168.01 638.43 1140.59L626.57 1142.41ZM612.436 1267.53C611.118 1276.33 609.77 1283.81 607.154 1295.15L618.846 1297.85C621.537 1286.19 622.942 1278.39 624.304 1269.31L612.436 1267.53ZM607.154 1295.15C605.961 1300.32 604.663 1305.18 603.427 1309.88C602.204 1314.54 601.031 1319.08 600.167 1323.4L611.933 1325.76C612.719 1321.84 613.803 1317.62 615.034 1312.93C616.251 1308.3 617.603 1303.24 618.846 1297.85L607.154 1295.15ZM600.492 1322.32L595.442 1334.74L606.558 1339.26L611.608 1326.84L600.492 1322.32ZM600.534 1342.98C614.979 1344.11 624.234 1339.69 632.324 1334.93C640.354 1330.19 646.334 1325.85 655.949 1324.3L654.051 1312.46C641.64 1314.44 633.336 1320.4 626.23 1324.59C619.183 1328.74 612.451 1331.87 601.466 1331.02L600.534 1342.98ZM655.949 1324.3C661.169 1323.47 668.085 1322.96 673.841 1322.67C676.689 1322.52 679.197 1322.43 680.992 1322.38C681.889 1322.35 682.606 1322.34 683.096 1322.32C683.342 1322.32 683.53 1322.32 683.656 1322.31C683.718 1322.31 683.766 1322.31 683.796 1322.31C683.812 1322.31 683.823 1322.31 683.83 1322.31C683.833 1322.31 683.836 1322.31 683.837 1322.31C683.838 1322.31 683.839 1322.31 683.839 1322.31C683.839 1322.31 683.839 1322.31 683.839 1322.31C683.839 1322.31 683.839 1322.31 683.74 1316.31C683.642 1310.31 683.641 1310.31 683.641 1310.31C683.641 1310.31 683.64 1310.31 683.64 1310.31C683.639 1310.31 683.638 1310.31 683.636 1310.31C683.633 1310.31 683.629 1310.31 683.625 1310.31C683.615 1310.31 683.6 1310.31 683.582 1310.31C683.545 1310.31 683.492 1310.31 683.423 1310.32C683.285 1310.32 683.084 1310.32 682.825 1310.33C682.308 1310.34 681.561 1310.36 680.631 1310.39C678.774 1310.44 676.18 1310.54 673.232 1310.69C667.396 1310.98 659.942 1311.51 654.051 1312.46L655.949 1324.3ZM689.74 1316.27C689.708 1312.04 690.593 1305.37 692.281 1296.49C693.947 1287.72 696.315 1277.2 699.082 1265.48C704.594 1242.12 711.682 1213.98 717.654 1186.27C723.624 1158.57 728.576 1130.87 729.777 1108.18C730.377 1096.85 730.06 1086.48 728.339 1077.86C726.64 1069.35 723.401 1061.68 717.412 1056.83L709.867 1066.17C712.684 1068.44 715.105 1072.86 716.571 1080.21C718.015 1087.44 718.369 1096.69 717.794 1107.54C716.646 1129.23 711.867 1156.16 705.923 1183.74C699.982 1211.31 692.973 1239.11 687.403 1262.72C684.628 1274.48 682.209 1285.21 680.492 1294.25C678.796 1303.17 677.699 1310.86 677.74 1316.36L689.74 1316.27ZM717.412 1056.83C715.554 1055.33 713.181 1054.15 710.389 1054.14C707.566 1054.13 705.231 1055.32 703.485 1056.79C700.291 1059.49 698.11 1063.94 696.484 1068.38C693.094 1077.66 690.605 1091.37 688.898 1106C685.485 1135.26 684.939 1170.64 687.729 1186.66L699.551 1184.6C697.061 1170.31 697.445 1136.29 700.817 1107.39C702.502 1092.95 704.869 1080.4 707.755 1072.51C709.267 1068.37 710.579 1066.51 711.226 1065.96C711.401 1065.82 711.075 1066.15 710.346 1066.14C709.649 1066.14 709.458 1065.83 709.867 1066.17L717.412 1056.83ZM687.74 1186.72C692.581 1212.93 701.558 1237.63 708.438 1261.82C715.4 1286.28 720.519 1311.05 718.515 1339.07L730.485 1339.93C732.634 1309.87 727.099 1283.55 719.98 1258.53C712.779 1233.22 704.249 1210.03 699.54 1184.54L687.74 1186.72ZM718.515 1339.07C718.247 1342.82 717.72 1345.73 717.278 1347.65C717.058 1348.61 716.858 1349.32 716.724 1349.77C716.657 1349.99 716.606 1350.15 716.577 1350.24C716.562 1350.28 716.553 1350.3 716.55 1350.31C716.548 1350.32 716.548 1350.32 716.55 1350.31C716.551 1350.31 716.552 1350.31 716.554 1350.3C716.554 1350.3 716.555 1350.3 716.556 1350.3C716.557 1350.29 716.557 1350.29 716.558 1350.29C716.558 1350.29 716.559 1350.29 716.559 1350.29C716.559 1350.29 716.56 1350.29 722.19 1352.36C727.82 1354.43 727.821 1354.43 727.821 1354.43C727.821 1354.43 727.822 1354.43 727.822 1354.43C727.823 1354.43 727.824 1354.42 727.824 1354.42C727.826 1354.42 727.827 1354.41 727.829 1354.41C727.832 1354.4 727.836 1354.39 727.84 1354.38C727.848 1354.36 727.858 1354.33 727.869 1354.3C727.892 1354.23 727.92 1354.15 727.954 1354.05C728.021 1353.85 728.11 1353.58 728.213 1353.23C728.421 1352.54 728.689 1351.57 728.973 1350.34C729.54 1347.88 730.168 1344.35 730.485 1339.93L718.515 1339.07ZM722.19 1352.36C716.494 1350.47 716.494 1350.47 716.493 1350.48C716.493 1350.48 716.492 1350.48 716.491 1350.48C716.49 1350.49 716.487 1350.5 716.484 1350.51C716.477 1350.53 716.468 1350.55 716.455 1350.59C716.43 1350.67 716.393 1350.78 716.344 1350.93C716.247 1351.22 716.104 1351.66 715.92 1352.23C715.55 1353.37 715.013 1355.03 714.339 1357.15C712.99 1361.39 711.094 1367.44 708.896 1374.74C704.504 1389.33 698.897 1408.9 694.062 1428.81C689.243 1448.65 685.126 1469.08 683.81 1485.27C683.156 1493.32 683.156 1500.72 684.291 1506.62C685.359 1512.16 687.858 1518.44 694.036 1520.8L698.324 1509.6C698.307 1509.59 696.972 1509 696.075 1504.35C695.245 1500.04 695.148 1493.9 695.77 1486.24C697.008 1471.01 700.942 1451.33 705.723 1431.64C710.488 1412.02 716.03 1392.67 720.386 1378.2C722.563 1370.97 724.441 1364.97 725.773 1360.79C726.44 1358.69 726.969 1357.05 727.332 1355.94C727.513 1355.38 727.652 1354.96 727.746 1354.67C727.793 1354.53 727.828 1354.42 727.852 1354.35C727.863 1354.31 727.872 1354.29 727.878 1354.27C727.881 1354.26 727.883 1354.26 727.884 1354.25C727.885 1354.25 727.885 1354.25 727.885 1354.25C727.886 1354.25 727.886 1354.25 722.19 1352.36ZM590.146 744.955C587.188 740.88 582.698 736.796 579.251 733.911C577.473 732.422 575.863 731.163 574.695 730.275C574.11 729.829 573.633 729.475 573.298 729.228C573.13 729.105 572.998 729.008 572.905 728.941C572.858 728.907 572.822 728.881 572.795 728.862C572.782 728.853 572.772 728.845 572.764 728.839C572.76 728.837 572.757 728.834 572.754 728.832C572.753 728.831 572.752 728.831 572.751 728.83C572.75 728.829 572.75 728.829 572.749 728.829C572.749 728.828 572.748 728.828 569.26 733.71C565.772 738.592 565.771 738.592 565.771 738.591C565.771 738.591 565.771 738.591 565.77 738.591C565.77 738.591 565.77 738.591 565.77 738.591C565.77 738.591 565.771 738.591 565.772 738.592C565.775 738.594 565.78 738.598 565.788 738.604C565.804 738.615 565.83 738.634 565.865 738.659C565.936 738.711 566.046 738.79 566.189 738.896C566.477 739.107 566.901 739.422 567.428 739.823C568.485 740.628 569.944 741.77 571.549 743.112C574.867 745.89 578.392 749.191 580.434 752.004L590.146 744.955ZM569.26 733.71C563.367 732.58 563.367 732.581 563.367 732.583C563.367 732.583 563.366 732.585 563.366 732.586C563.366 732.588 563.365 732.591 563.365 732.594C563.364 732.599 563.362 732.606 563.361 732.614C563.358 732.63 563.354 732.651 563.349 732.675C563.34 732.725 563.328 732.792 563.314 732.875C563.284 733.041 563.245 733.273 563.198 733.565C563.106 734.149 562.985 734.974 562.865 735.988C562.625 738.008 562.38 740.821 562.364 744C562.334 750.079 563.12 758.659 567.487 765.297L577.513 758.702C575.17 755.141 574.336 749.576 574.364 744.06C574.377 741.441 574.58 739.095 574.781 737.404C574.881 736.563 574.979 735.895 575.05 735.449C575.085 735.226 575.113 735.06 575.132 734.956C575.141 734.905 575.147 734.869 575.151 734.849C575.153 734.839 575.154 734.833 575.154 734.832C575.154 734.831 575.154 734.831 575.154 734.833C575.154 734.834 575.154 734.835 575.153 734.836C575.153 734.836 575.153 734.838 575.153 734.838C575.153 734.839 575.153 734.84 569.26 733.71ZM568.913 696.745C567.233 704.604 565.829 713.701 564.851 720.766C564.36 724.313 563.972 727.376 563.707 729.555C563.574 730.645 563.472 731.515 563.403 732.114C563.368 732.414 563.342 732.646 563.324 732.805C563.315 732.884 563.308 732.945 563.303 732.986C563.301 733.007 563.299 733.023 563.298 733.034C563.298 733.04 563.297 733.044 563.297 733.047C563.297 733.049 563.296 733.05 563.296 733.051C563.296 733.051 563.296 733.052 563.296 733.052C563.296 733.052 563.296 733.053 569.26 733.71C575.224 734.367 575.224 734.367 575.224 734.368C575.224 734.367 575.224 734.367 575.224 734.367C575.224 734.367 575.224 734.366 575.224 734.365C575.224 734.364 575.225 734.36 575.225 734.356C575.226 734.347 575.228 734.334 575.23 734.316C575.234 734.279 575.24 734.223 575.248 734.149C575.265 734.001 575.29 733.78 575.323 733.491C575.39 732.914 575.489 732.069 575.619 731.005C575.878 728.878 576.257 725.881 576.737 722.412C577.702 715.444 579.059 706.686 580.648 699.255L568.913 696.745ZM656.839 736.744C667.028 757.799 678.596 761.961 699.409 775.734L706.031 765.726C683.684 750.939 676.019 748.829 667.641 731.516L656.839 736.744ZM699.43 775.747C731.593 796.838 761.52 815.259 791.478 849.961L800.562 842.119C769.322 805.933 737.927 786.642 706.01 765.713L699.43 775.747ZM791.478 849.961C805.542 866.251 819.951 890.118 830.948 910.19C836.417 920.172 840.99 929.117 844.194 935.565C845.795 938.787 847.053 941.383 847.909 943.168C848.337 944.061 848.664 944.751 848.883 945.215C848.993 945.448 849.075 945.623 849.13 945.74C849.157 945.798 849.177 945.842 849.191 945.87C849.197 945.884 849.202 945.894 849.205 945.901C849.207 945.904 849.208 945.907 849.208 945.908C849.209 945.909 849.209 945.909 849.209 945.909C849.209 945.909 849.209 945.909 854.65 943.38C860.091 940.851 860.09 940.85 860.09 940.849C860.09 940.849 860.089 940.847 860.089 940.846C860.087 940.844 860.086 940.84 860.084 940.836C860.079 940.827 860.073 940.814 860.066 940.797C860.05 940.764 860.028 940.715 859.998 940.652C859.939 940.525 859.851 940.339 859.737 940.096C859.507 939.61 859.17 938.898 858.731 937.982C857.853 936.15 856.569 933.503 854.94 930.224C851.682 923.669 847.035 914.577 841.471 904.423C830.403 884.222 815.497 859.42 800.562 842.119L791.478 849.961ZM842.562 1234.3C851.907 1276.4 848.493 1309.52 842.836 1337.44C839.946 1351.7 836.625 1363.97 833.875 1376.32C831.195 1388.34 829.196 1399.91 829.502 1411.17L841.498 1410.85C841.233 1401.12 842.958 1390.73 845.587 1378.93C848.145 1367.44 851.719 1354.02 854.596 1339.82C860.474 1310.81 864.092 1275.92 854.277 1231.7L842.562 1234.3ZM482.003 1390.86C484.74 1397.26 489.436 1401.41 495.454 1403.43C501.187 1405.35 507.725 1405.21 514.324 1404.06C527.484 1401.77 543.274 1395.03 558.805 1387.64C574.732 1380.05 590.268 1371.86 604.253 1365.7C611.165 1362.66 617.383 1360.26 622.703 1358.81C628.153 1357.32 632.006 1357.01 634.473 1357.5L636.827 1345.74C631.596 1344.69 625.562 1345.59 619.541 1347.23C613.387 1348.91 606.548 1351.58 599.417 1354.72C585.32 1360.93 568.842 1369.57 553.648 1376.8C538.057 1384.22 523.619 1390.26 512.269 1392.24C506.613 1393.22 502.325 1393.08 499.265 1392.05C496.49 1391.12 494.425 1389.39 493.037 1386.14L482.003 1390.86ZM629.867 1350.02C620.491 1383.95 595.905 1469.07 590.066 1505.36L601.914 1507.26C607.615 1471.83 631.888 1387.76 641.433 1353.22L629.867 1350.02ZM590.056 1505.42L587.066 1525.39L598.934 1527.17L601.924 1507.2L590.056 1505.42ZM677.938 1317.84L679.697 1324.53L691.303 1321.47L689.543 1314.78L677.938 1317.84ZM685.5 1323C679.649 1324.33 679.649 1324.33 679.649 1324.33C679.649 1324.33 679.649 1324.33 679.649 1324.33C679.649 1324.33 679.649 1324.33 679.649 1324.33C679.65 1324.33 679.651 1324.34 679.653 1324.35C679.657 1324.37 679.664 1324.39 679.673 1324.43C679.69 1324.51 679.718 1324.64 679.755 1324.81C679.828 1325.15 679.938 1325.67 680.08 1326.37C680.362 1327.75 680.77 1329.84 681.262 1332.59C682.246 1338.1 683.565 1346.25 684.887 1356.79C687.529 1377.87 690.18 1408.46 690.18 1446.36H702.18C702.18 1407.9 699.491 1376.81 696.793 1355.3C695.445 1344.54 694.094 1336.18 693.075 1330.48C692.566 1327.63 692.14 1325.45 691.838 1323.97C691.688 1323.23 691.568 1322.67 691.485 1322.28C691.444 1322.09 691.411 1321.94 691.389 1321.84C691.377 1321.79 691.369 1321.75 691.362 1321.72C691.359 1321.71 691.357 1321.7 691.355 1321.69C691.354 1321.68 691.353 1321.68 691.352 1321.68C691.352 1321.68 691.352 1321.67 691.351 1321.67C691.351 1321.67 691.351 1321.67 685.5 1323ZM854.277 1231.7C845.026 1190.02 838.136 1169.4 820.952 1131.99L810.048 1137C826.864 1173.6 833.488 1193.41 842.562 1234.3L854.277 1231.7ZM820.952 1131.99C815.626 1120.4 803.566 1096.7 792.986 1081.67C790.332 1077.9 787.639 1074.49 785.052 1071.9C783.757 1070.61 782.371 1069.41 780.919 1068.46C779.516 1067.55 777.687 1066.64 775.56 1066.41C773.194 1066.16 770.773 1066.8 768.8 1068.51C767.025 1070.05 766.044 1072.08 765.461 1073.91C764.314 1077.5 764.054 1082.43 764.358 1088.45L776.342 1087.85C776.054 1082.14 776.431 1079.01 776.893 1077.56C777.115 1076.86 777.181 1077.13 776.665 1077.58C775.951 1078.2 775 1078.42 774.283 1078.34C773.805 1078.29 773.803 1078.15 774.375 1078.52C774.897 1078.86 775.633 1079.46 776.574 1080.4C778.458 1082.28 780.695 1085.06 783.174 1088.58C793.124 1102.71 804.824 1125.64 810.048 1137L820.952 1131.99ZM764.358 1088.45C765.584 1112.73 776.257 1154.76 788.282 1196.15C800.375 1237.78 814.105 1279.63 821.76 1303.79L833.2 1300.17C825.495 1275.86 811.845 1234.25 799.806 1192.8C787.698 1151.12 777.486 1110.47 776.342 1087.85L764.358 1088.45ZM821.988 1304.4C825.629 1312.67 830.987 1321.74 837.46 1328.45C843.737 1334.97 852.438 1340.6 862.332 1338.35L859.668 1326.65C856.081 1327.47 851.482 1325.71 846.099 1320.13C840.912 1314.75 836.251 1307.02 832.972 1299.56L821.988 1304.4ZM862.332 1338.35C870.644 1336.46 875.214 1328.86 877.824 1321.72C880.561 1314.25 881.974 1305.09 882.703 1296.5C883.438 1287.83 883.507 1279.36 883.396 1273.09C883.34 1269.95 883.238 1267.34 883.15 1265.51C883.106 1264.59 883.066 1263.87 883.036 1263.37C883.021 1263.12 883.008 1262.93 883 1262.79C882.995 1262.73 882.992 1262.67 882.989 1262.64C882.988 1262.62 882.987 1262.6 882.986 1262.59C882.986 1262.59 882.986 1262.59 882.985 1262.58C882.985 1262.58 882.985 1262.58 882.985 1262.58C882.985 1262.58 882.985 1262.58 877 1263C871.015 1263.42 871.015 1263.42 871.015 1263.42C871.015 1263.42 871.015 1263.42 871.015 1263.42C871.015 1263.42 871.015 1263.43 871.015 1263.43C871.016 1263.43 871.016 1263.44 871.017 1263.46C871.019 1263.48 871.022 1263.52 871.026 1263.58C871.033 1263.69 871.044 1263.86 871.057 1264.09C871.085 1264.54 871.123 1265.22 871.164 1266.08C871.247 1267.81 871.344 1270.3 871.397 1273.31C871.505 1279.33 871.435 1287.36 870.746 1295.48C870.049 1303.68 868.749 1311.61 866.555 1317.6C864.234 1323.94 861.655 1326.2 859.668 1326.65L862.332 1338.35ZM882.985 1262.58L860.635 942.961L848.664 943.798L871.015 1263.42L882.985 1262.58ZM640.593 786.456C662.463 800.717 675.549 821.321 679.867 839.796L691.552 837.064C686.511 815.499 671.536 792.308 647.147 776.404L640.593 786.456ZM680.056 840.437C681.307 843.962 681.905 848.851 681.897 854.824C681.89 860.722 681.296 867.279 680.422 873.939C679.55 880.588 678.416 887.215 677.355 893.263C676.308 899.229 675.304 904.784 674.759 909.013L686.661 910.547C687.161 906.665 688.097 901.479 689.174 895.337C690.237 889.277 691.411 882.429 692.32 875.5C693.228 868.584 693.889 861.461 693.897 854.84C693.906 848.295 693.283 841.827 691.364 836.423L680.056 840.437ZM685.72 913.081C686.942 911.227 688.218 908.593 689.481 905.799C690.782 902.92 692.247 899.464 693.812 895.803C696.979 888.395 700.647 879.942 704.766 872.255C708.948 864.45 713.286 858.038 717.577 854.308C719.678 852.482 721.475 851.56 722.955 851.23C724.295 850.931 725.704 851.035 727.412 851.918L732.928 841.261C728.801 839.125 724.521 838.586 720.342 839.518C716.304 840.418 712.754 842.601 709.706 845.251C703.698 850.472 698.524 858.496 694.189 866.587C689.79 874.797 685.935 883.701 682.778 891.086C681.18 894.823 679.782 898.122 678.547 900.857C677.273 903.675 676.338 905.51 675.7 906.478L685.72 913.081ZM726.343 851.211C726.825 851.61 727.529 852.579 728.139 854.543C728.727 856.436 729.064 858.73 729.215 861.094C729.363 863.426 729.319 865.631 729.235 867.267C729.193 868.079 729.142 868.735 729.102 869.177C729.083 869.398 729.066 869.565 729.055 869.67C729.049 869.723 729.045 869.76 729.043 869.781C729.042 869.791 729.041 869.798 729.041 869.8C729.041 869.801 729.041 869.801 729.041 869.8C729.041 869.799 729.041 869.798 729.041 869.797C729.041 869.797 729.041 869.796 729.042 869.795C729.042 869.794 729.042 869.793 735 870.5C740.958 871.206 740.958 871.205 740.959 871.204C740.959 871.203 740.959 871.202 740.959 871.201C740.959 871.199 740.959 871.196 740.96 871.193C740.96 871.188 740.961 871.181 740.962 871.174C740.964 871.158 740.966 871.138 740.969 871.114C740.974 871.066 740.981 871.001 740.99 870.919C741.007 870.756 741.03 870.528 741.055 870.242C741.106 869.67 741.168 868.865 741.219 867.886C741.319 865.942 741.377 863.253 741.19 860.331C741.006 857.44 740.572 854.117 739.599 850.985C738.649 847.924 737.005 844.46 733.997 841.969L726.343 851.211ZM735 870.5C729.315 868.581 729.315 868.582 729.314 868.584C729.314 868.585 729.313 868.587 729.312 868.59C729.31 868.595 729.308 868.603 729.304 868.613C729.298 868.632 729.288 868.661 729.276 868.699C729.25 868.774 729.213 868.886 729.164 869.032C729.066 869.325 728.921 869.757 728.735 870.319C728.362 871.443 727.821 873.086 727.143 875.17C725.788 879.338 723.888 885.275 721.702 892.363C717.334 906.527 711.81 925.338 707.224 943.831C702.667 962.205 698.925 980.688 698.302 994.023C698.001 1000.46 698.348 1006.81 700.511 1011.35C701.675 1013.79 703.624 1016.24 706.749 1017.46C709.843 1018.66 713.008 1018.24 715.748 1017.21L711.532 1005.97C710.514 1006.35 710.558 1006.06 711.103 1006.27C711.679 1006.5 711.65 1006.83 711.344 1006.19C710.564 1004.55 709.997 1000.84 710.289 994.583C710.853 982.521 714.33 965.027 718.871 946.719C723.382 928.529 728.835 909.953 733.169 895.9C735.334 888.879 737.216 883 738.555 878.88C739.225 876.82 739.759 875.2 740.125 874.097C740.308 873.546 740.448 873.124 740.543 872.841C740.591 872.699 740.626 872.593 740.65 872.522C740.662 872.486 740.671 872.46 740.677 872.443C740.68 872.434 740.682 872.428 740.683 872.424C740.684 872.422 740.684 872.42 740.685 872.419C740.685 872.418 740.685 872.418 735 870.5ZM718.745 1014.74C741.782 977.44 765.58 940.942 795.778 916.25C825.608 891.858 861.692 878.982 909.979 889.102L912.441 877.357C860.247 866.418 820.527 880.512 788.182 906.96C756.205 933.107 731.458 971.32 708.535 1008.44L718.745 1014.74ZM909.293 888.915C958.391 905.471 1023.52 921.774 1085.59 925.731C1147.32 929.668 1207.65 921.498 1245.47 887.29L1237.43 878.39C1203.39 909.171 1147.38 917.647 1086.35 913.756C1025.66 909.886 961.599 893.889 913.127 877.544L909.293 888.915ZM1244.91 887.743C1250.46 883.826 1255.14 880.108 1260.44 876.717C1265.56 873.437 1270.49 870.994 1275.61 869.935L1273.17 858.184C1266.02 859.666 1259.66 862.963 1253.96 866.613C1248.44 870.151 1242.79 874.553 1237.99 877.937L1244.91 887.743ZM1275.47 869.961C1282.61 868.652 1288.77 869.361 1292.98 871.755C1296.84 873.944 1299.91 877.998 1300.31 885.661L1312.29 885.039C1311.71 873.841 1306.79 865.791 1298.91 861.32C1291.4 857.053 1282.09 856.548 1273.31 858.158L1275.47 869.961ZM536.508 972.738C535.203 976.187 534.585 979.77 535.359 983.204C536.181 986.849 538.402 989.569 541.294 991.353C546.483 994.553 553.955 994.839 561.213 994.18C576.342 992.808 596.98 986.605 615.821 979.173C634.626 971.756 652.605 962.732 662.22 955.261C664.636 953.384 666.832 951.372 668.375 949.276C669.755 947.4 671.617 944.073 670.485 940.221C669.304 936.199 665.738 934.444 663.188 933.665C660.436 932.825 656.974 932.5 653 932.5V944.5C656.511 944.5 658.599 944.811 659.683 945.142C660.968 945.534 659.524 945.485 658.971 943.603C658.468 941.89 659.466 941.136 658.709 942.164C658.114 942.972 656.902 944.196 654.857 945.785C646.631 952.178 629.95 960.701 611.418 968.01C592.922 975.306 573.546 981.012 560.129 982.229C553.112 982.866 549.177 982.116 547.594 981.139C547.099 980.834 547.092 980.68 547.065 980.564C546.992 980.236 546.905 979.17 547.732 976.982L536.508 972.738ZM653.287 932.507C646.957 932.204 640.748 934.857 635.219 938.637C629.61 942.472 624.118 947.863 619.043 954.041C608.896 966.395 599.825 982.628 594.473 998.102C591.794 1005.85 589.98 1013.6 589.503 1020.71C589.031 1027.75 589.834 1034.7 592.949 1040.4C596.22 1046.38 601.729 1050.4 609.239 1051.74C616.45 1053.03 625.254 1051.83 635.649 1048.28L631.771 1036.92C622.339 1040.14 615.752 1040.71 611.351 1039.93C607.248 1039.19 604.923 1037.28 603.478 1034.64C601.879 1031.72 601.085 1027.34 601.476 1021.51C601.862 1015.76 603.37 1009.09 605.814 1002.02C610.709 987.873 619.086 972.894 628.316 961.658C632.929 956.041 637.607 951.541 641.992 948.543C646.456 945.49 650.063 944.366 652.713 944.493L653.287 932.507ZM636.496 1047.91C646.695 1042.57 659.531 1032.35 668.722 1020.16C677.769 1008.17 684.421 992.651 678.748 977.523L667.512 981.737C670.989 991.008 667.37 1002.03 659.141 1012.94C651.054 1023.66 639.605 1032.73 630.924 1037.29L636.496 1047.91ZM677.127 975.155C674.268 972.601 670.99 970.848 667.264 970.701C663.549 970.554 660.453 972.047 658.052 973.796C655.7 975.508 653.582 977.781 651.706 979.958C650.746 981.072 649.775 982.249 648.825 983.401C647.861 984.57 646.909 985.725 645.923 986.877L655.037 994.683C656.108 993.432 657.132 992.19 658.084 991.035C659.05 989.864 659.936 988.79 660.795 987.793C662.559 985.746 663.936 984.355 665.115 983.496C666.245 982.674 666.718 982.689 666.79 982.691C666.852 982.694 667.582 982.719 669.132 984.104L677.127 975.155ZM-280.312 1060.28C-277.697 1052.5 -271.794 1044.41 -263.367 1036.75C-254.991 1029.12 -244.431 1022.2 -233.034 1016.65C-209.899 1005.4 -184.887 1000.56 -168.674 1005.43L-165.226 993.933C-185.722 987.786 -214.126 994.111 -238.283 1005.86C-250.533 1011.82 -262.088 1019.36 -271.444 1027.87C-280.749 1036.34 -288.193 1046.06 -291.688 1056.46L-280.312 1060.28ZM-171.674 1003.38C-168.498 1007.44 -168.416 1014.5 -173.698 1025.57C-178.773 1036.21 -187.846 1048.39 -198.526 1060.34C-209.148 1072.22 -221.094 1083.59 -231.629 1092.59C-242.323 1101.73 -251.097 1108.03 -255.439 1110.17L-250.141 1120.93C-244.323 1118.07 -234.554 1110.88 -223.833 1101.71C-212.952 1092.42 -200.61 1080.68 -189.579 1068.33C-178.606 1056.06 -168.663 1042.89 -162.868 1030.74C-157.279 1019.03 -154.472 1005.88 -162.226 995.981L-171.674 1003.38ZM-247.493 1118.37C-219.805 1066.33 -189.123 1033.9 -156.339 1013.18C-123.52 992.447 -88.1555 983.172 -50.608 978.124C-31.8171 975.598 -12.5585 974.139 7.18976 972.809C26.8834 971.484 47.103 970.284 67.5421 968.274C108.477 964.246 150.736 956.931 193.261 938.547L188.499 927.532C147.589 945.219 106.713 952.362 66.3672 956.331C46.1661 958.319 26.2089 959.502 6.38373 960.837C-13.3869 962.167 -32.9892 963.647 -52.207 966.231C-90.677 971.403 -127.922 981.034 -162.748 1003.04C-197.61 1025.07 -229.61 1059.21 -258.087 1112.73L-247.493 1118.37ZM194.28 937.983C221.832 919.032 249.352 901.893 269.679 881.127C290.356 860.003 304 834.782 304 799.5H292C292 831.073 280.019 853.407 261.103 872.732C241.838 892.414 215.798 908.618 187.48 928.096L194.28 937.983ZM304 799.5C304 796.1 303.357 790.844 300.741 787.077C299.289 784.987 296.81 782.812 293.162 782.547C289.739 782.298 286.704 783.853 284.252 785.815L291.748 795.185C293.046 794.147 293.136 794.577 292.291 794.515C291.221 794.437 290.774 793.763 290.884 793.922C291.049 794.16 291.371 794.823 291.633 796.011C291.88 797.133 292 798.383 292 799.5H304ZM284.252 785.815C260.607 804.73 244.887 837.948 234.413 878.151C223.887 918.55 218.405 967.017 215.991 1017.59C211.163 1118.74 218.572 1229.36 223.121 1302.68L235.098 1301.94C230.538 1228.45 223.186 1118.53 227.978 1018.16C230.373 967.972 235.797 920.434 246.025 881.177C256.304 841.723 271.187 811.634 291.748 795.185L284.252 785.815ZM233.944 1298.76C222.207 1282.79 212.15 1256.65 204.018 1223.57C195.926 1190.66 189.882 1151.48 185.846 1109.93C177.771 1026.82 177.78 934.762 185.256 865.302L173.324 864.018C165.75 934.397 165.759 1027.28 173.902 1111.1C177.974 1153.01 184.094 1192.79 192.365 1226.44C200.596 1259.92 211.103 1287.95 224.276 1305.86L233.944 1298.76ZM184.546 867.554C187.596 862.016 193.348 855.957 201.297 848.913C209.276 841.842 218.492 834.591 228.588 826.037C248.329 809.311 269.969 788.795 281.977 761.95L271.023 757.05C260.196 781.256 240.401 800.3 220.831 816.881C211.272 824.981 201.363 832.821 193.338 839.932C185.284 847.069 178.155 854.284 174.034 861.766L184.546 867.554ZM444.5 466H462.5V454H444.5V466ZM559.902 460.751L578.902 450.251L573.098 439.749L554.098 450.249L559.902 460.751ZM650.48 990.78C645.508 987.421 645.508 987.421 645.508 987.422C645.507 987.422 645.507 987.423 645.506 987.424C645.505 987.425 645.504 987.428 645.501 987.431C645.497 987.437 645.491 987.446 645.483 987.458C645.467 987.482 645.443 987.518 645.411 987.565C645.348 987.658 645.255 987.797 645.132 987.979C644.888 988.343 644.527 988.879 644.063 989.573C643.134 990.96 641.789 992.975 640.119 995.494C636.78 1000.53 632.142 1007.59 626.943 1015.67C616.566 1031.79 603.874 1052.11 594.83 1068.59L605.35 1074.37C614.182 1058.27 626.685 1038.24 637.034 1022.16C642.198 1014.14 646.806 1007.13 650.122 1002.12C651.78 999.622 653.114 997.623 654.033 996.25C654.493 995.564 654.848 995.035 655.089 994.677C655.209 994.499 655.3 994.363 655.361 994.273C655.392 994.228 655.415 994.194 655.43 994.171C655.437 994.16 655.443 994.152 655.447 994.146C655.448 994.143 655.45 994.141 655.451 994.14C655.451 994.14 655.451 994.139 655.452 994.139C655.452 994.139 655.452 994.139 650.48 990.78ZM829.502 1411.17C830.085 1432.6 833.76 1457.28 836.868 1478.49C838.433 1489.18 839.853 1498.96 840.714 1507.19C841.592 1515.57 841.81 1521.71 841.249 1525.37L853.111 1527.19C853.931 1521.83 853.523 1514.29 852.648 1505.94C851.757 1497.42 850.298 1487.38 848.741 1476.76C845.604 1455.34 842.057 1431.42 841.498 1410.85L829.502 1411.17ZM445.33 256.7C443.882 250.877 443.882 250.877 443.881 250.878C443.88 250.878 443.879 250.878 443.877 250.878C443.874 250.879 443.871 250.88 443.866 250.881C443.856 250.884 443.843 250.887 443.825 250.892C443.789 250.9 443.738 250.913 443.671 250.93C443.537 250.964 443.341 251.014 443.085 251.079C442.575 251.209 441.829 251.401 440.876 251.652C438.97 252.152 436.234 252.886 432.896 253.822C426.226 255.694 417.124 258.384 407.42 261.653C397.732 264.916 387.349 268.787 378.15 273.034C369.1 277.211 360.618 282.008 355.2 287.296L363.58 295.884C367.462 292.097 374.372 287.995 383.18 283.929C391.838 279.932 401.778 276.215 411.25 273.025C420.706 269.84 429.601 267.21 436.138 265.376C439.404 264.46 442.075 263.744 443.924 263.258C444.849 263.015 445.568 262.83 446.053 262.706C446.295 262.644 446.479 262.598 446.601 262.567C446.662 262.552 446.708 262.54 446.737 262.533C446.752 262.529 446.763 262.526 446.769 262.525C446.773 262.524 446.775 262.523 446.777 262.523C446.777 262.523 446.777 262.523 446.778 262.523C446.778 262.523 446.777 262.523 445.33 256.7ZM639.995 372.346C654.536 397.134 661.015 421.133 665.882 445.076C670.7 468.786 674.036 493.231 682.351 517.224L693.689 513.295C685.724 490.309 682.663 467.397 677.641 442.686C672.667 418.209 665.861 392.723 650.345 366.274L639.995 372.346Z" fill="#E72F1E"/>
</g>
<defs>
<clipPath id="clip0_951_178">
<rect width="1080" height="1512" fill="white"/>
</clipPath>
</defs>
</svg>
