<svg width="1080" height="1512" viewBox="0 0 1080 1512" fill="none" xmlns="http://www.w3.org/2000/svg">
<g clip-path="url(#clip0_951_181)">
<rect width="1080" height="1512" fill="white"/>
<path d="M326.545 687.838C359.595 683.498 370 644.5 370 644.5C370 644.5 375.618 595.599 380.315 564.418C391.583 489.634 381.501 440.349 418.975 374.658C450.285 319.773 475.5 282.676 520.975 267.176C533.883 262.776 547.775 258.778 559.805 260.348C585.285 259.018 655.17 274.691 690.426 316.676C709.3 339.152 710.191 353.914 721.305 385.798C726.235 399.94 725.982 412.189 727.305 429.278C728.45 444.059 728.256 463.848 728.276 467.228V486.488C730.156 534.898 722.753 556.033 728.276 600.028C732.642 634.814 738.386 665.778 748.176 687.568C751.796 696.068 757.305 707.057 757.305 707.057L767.386 724.778C767.386 724.778 733.526 691.967 727.305 675.557C729.175 698.727 758.365 742.358 758.365 742.358M388.5 663.5C385.062 687.672 366.79 708.53 342.5 711M719.185 722.288C652.5 725 672.126 616.598 690.426 591.548C708.726 566.498 697.791 632.82 697.522 659.5C697.252 686.18 683.636 710.248 683.636 710.248C683.956 710.648 658.425 714.068 645.855 715.828M719.185 722.288C731.035 720.348 765.356 753.968 777.216 762.628C780.096 765.988 789.625 772.048 796.325 772.608C798.265 772.768 808.795 772.448 810.415 772.608C814.495 773.068 826.526 779.058 831.046 785.018C831.926 786.198 839.976 800.168 840.756 803.468C853.056 874.008 868.095 937.218 862.065 1003.2C858.965 1035.6 875.335 1082.92 883.535 1108.97C884.685 1129.65 902.625 1188.9 904.845 1214.8C904.905 1220.98 908.048 1248.41 903.466 1269.14C901.647 1277.36 901.865 1281.31 897.225 1289.79C886.335 1311.84 873.526 1333.27 874.796 1359.56C874.076 1359.32 871.836 1360.96 870.776 1361.24C870.076 1361.4 862.096 1361.16 860.276 1361.1C837.266 1355.72 769.785 1349.4 745.105 1345.4M719.185 722.288C693.765 736.008 656.235 768.088 642.975 786.338C633.315 802.238 612.655 833.598 592.395 847.408C574.715 861.478 538.885 874.688 512.865 884.028C497.205 890.008 453.985 903.048 443.695 913.148M645.855 715.828C640.915 716.248 636.631 711.909 631.326 708.368C590.158 680.894 623.256 615.339 644.196 582.288C653.549 570.97 657.76 563.296 662.285 549.328M645.855 715.828C626.775 725.418 499.015 797.228 487.125 806.048C487.565 798.928 466.345 771.378 464.395 760.008C463.555 756.888 459.915 743.308 459.335 742.648M662.285 549.328C668.785 529.265 668.293 522.753 667.5 505.557C666.928 493.147 662.285 474.176 662.285 474.176C662.285 474.176 627.806 404.898 624.406 383.438M662.285 549.328C658.815 549.138 640 537.176 640 537.176L636.595 547.258C636.595 547.258 625.235 571.158 623.385 573.628M397.489 425.738C408.773 425.738 435 389.5 435 389.5C435 389.5 488.855 303.211 513.515 306.008C481.906 338.676 449.895 388.928 430.715 421.178C430.715 421.178 426.774 434.069 425 442.508C419.928 466.634 421.994 490.711 421.805 505.557C421.555 525.205 432.29 565.979 441.805 584.057C447.41 594.705 453.305 604.557 464.975 615.118C481.64 630.2 499.735 631.378 508.655 632.248C541.605 632.608 579.595 618.548 602.555 600.028C605.395 598.728 618.125 582.808 623.385 573.628M529.585 322.458C510.982 368.057 491.516 392.038 450.716 419.618M546.296 300.788C538.885 328.926 537.145 365.008 541.815 393.728C544.545 406.518 551.086 417.948 563.006 425.738M562.556 308.468C553.416 327.148 560.495 366.698 565.335 385.798C570.505 404.578 588.616 420.948 600.486 423.038M586.486 341.438C590.436 361.288 586.387 404.309 614.565 422.278M614.565 422.278C611.595 419.478 568.665 409.688 564.035 410.908M614.565 422.278C619.853 425.65 629.017 429.278 629.017 429.278M598.035 341.218C595.905 377.458 614.9 425.224 649 446.414C651.415 451.157 655.109 487.764 651.5 491.676M450.885 402.608C462.735 396.718 483.561 397.137 502.205 404.528C505.735 405.928 508.649 407.412 511 408.676M520.975 427.518C523.315 446.868 513.175 471.128 500.605 486.488C499.065 489.978 497.339 493.921 497.685 499.288C498.026 504.561 500.986 509.318 502.326 511.998M569.105 558.238C569.105 558.238 531.117 543.826 509.845 540.196C500.059 538.526 484.605 537.176 484.605 537.176C484.605 537.176 474.07 537.71 472.5 534.5C470.93 531.29 472.937 542.607 474.5 547.5C479.662 563.654 488.328 572.141 507.135 576.148C517.076 578.266 523.333 577.675 533.135 574.988C536.846 573.971 538.811 573.022 542.385 571.598C553.223 567.28 569.105 558.238 569.105 558.238ZM569.105 558.238L571.5 555M459.335 742.648C458.935 736.588 458.775 724.378 458.835 723.358C458.955 721.678 461.855 709.72 464.395 708.5M459.335 742.648C459.695 749.548 451.155 776.788 449.595 786.088C443.845 819.798 443.935 863 443.935 863C443.935 863 444.345 888.208 443.935 889.078C443.815 893.698 445.255 910.228 443.695 913.148M414.146 704.778C421.372 690.869 398.642 682.643 411 673C423.776 663.031 447.085 650.268 449.745 650.068C443.825 693.628 459.165 676.67 464.395 708.5M414.146 704.778L390.225 737.668C390.225 737.668 344.275 808.098 340.545 818.848C340.865 834.508 356.916 856.176 356.916 856.176C356.916 856.176 381.442 880.552 398.595 892.838C414.299 904.086 439.635 923.298 443.695 913.148M414.146 704.778C401.336 716.018 346 737.838 346 737.838H318.555C312 753.608 306.065 794.268 304.405 808.348C304.085 813.428 303.925 826.718 303.345 828.838C302.005 833.718 303.745 841.746 303.345 850C302.697 863.381 299 884.028 299 884.028C299 884.028 279.614 939.463 276.326 976.5C270.493 1042.2 297.406 1135.98 307.106 1142.58M464.395 708.5C464.515 707.54 469.915 693.707 470.855 690.318C475.893 672.162 468.816 654.898 468.276 642.138C468.276 642.138 478.441 646.087 484.605 649.338C494.67 654.647 502.85 656.001 508.655 665.788C519.805 684.585 468.81 700.42 490 721.5C524.08 701.96 587.346 654.848 613.866 650.068C615.096 637.118 621.105 574.618 623.385 573.628M307.106 1142.58C313.126 1135.3 316.166 1114.13 315.106 1102.56M307.106 1142.58C307.106 1142.58 305.394 1152.99 298.5 1162C289.611 1173.62 269.77 1187.12 264.785 1187.52C244.074 1189.19 247.708 1125.28 267 1133C280.412 1138.37 272.285 1152.83 264.785 1168.08C255.631 1186.69 227.648 1180.9 211.34 1168.08C194.538 1154.87 188.5 1152 188.5 1152M315.106 1102.56C313.696 1094.66 309.357 1079.52 297.396 1074.85C279.452 1067.83 221.5 1109 202.046 1107M315.106 1102.56C317.066 1104.96 329.646 1125.19 330.926 1133C331.446 1135.06 332.452 1180.07 332.992 1182.61C340.102 1201.89 355.665 1225.32 377 1214.65C383.295 1211.5 409.92 1190.08 399.275 1176.5C388.633 1162.93 352.331 1167.02 356.916 1189.01C361.5 1211 385.041 1204.49 396.5 1211.5C407.959 1218.51 425.682 1215.98 444 1213C453.35 1211.48 459.196 1208.12 467.446 1206.78C469.506 1206.46 500.365 1193.59 510.885 1193.59M315.106 1102.56C316.366 1100.5 336.4 1096.55 350.055 1092.74C366.346 1088.19 374.883 1081.32 391.795 1081.19C418.208 1080.98 429.601 1097.62 453.865 1108.06C466.952 1113.69 496.753 1120.19 505.543 1133M202.046 1107C192.936 1090.36 223.855 1082.57 234.815 1070.39C236.175 1068.45 240.555 1057.84 241.015 1054.48C242.155 1001.36 239.275 832.098 239.275 832.098C239.275 832.098 239.963 817.938 246.555 814.478C254.205 810.464 258.822 823.863 267.295 822.176C283.143 819.02 262.304 796.167 267.295 780.798C273.279 762.374 299 742.648 299 742.648M202.046 1107C142.136 1127.12 -1.08424 1264.7 -73.5542 1205.86C-94.0042 1187.19 -137.865 1167.58 -156.155 1179.81C-168.815 1188.27 -184.925 1237.5 -186.035 1241.02C-192.665 1262.16 -210.895 1314.11 -201.235 1319.67C-114.135 1295.29 -125.555 1219.05 -130.765 1150.94C-130.845 1146.32 -128.125 1105.72 -126.385 1101.34C-123.815 1094.76 -118.495 1094.85 -112.475 1094.76M188.5 1152C188.5 1152 173.827 1176.33 178.495 1204.22C180.012 1213.28 188.5 1225 188.5 1225C188.5 1225 215.475 1246.7 235.775 1246.62C254.546 1246.54 263.857 1237.37 280 1227.79C303.965 1213.57 335.842 1194.06 332.992 1180M188.5 1152C188.5 1152 191.212 1158.81 202.046 1180C202.046 1180 211.315 1192.12 211.34 1204.22C211.359 1213.02 209.155 1225.17 209.455 1227.79C210.475 1236.31 215.215 1248.72 217.635 1252.12C224.575 1261.31 236.133 1270.89 251.505 1272.71C274.667 1275.44 302.125 1241.02 302.125 1241.02C302.125 1241.02 301.245 1253.82 306.525 1259.45C315.425 1269.09 325.915 1284 325.635 1285.74C306.355 1318.01 261.535 1402.8 249.205 1438.57C247.745 1443.13 243.705 1460.1 242.625 1465.96C240.565 1477.23 240.585 1509.7 240.705 1511.92L248.285 1513.46V1514.56M767.446 754.128C758.206 749.168 733.995 758.018 723.185 765.228C702.645 775.948 700.122 813.171 671.865 826.258C668.292 827.914 663.14 829.32 662.5 830C661.86 830.68 658.489 906.039 666.385 954.168C674.515 1003.72 707.5 1076 707.5 1076C707.5 1076 694.174 981.791 726.5 899C730.405 889 743.557 849.243 753.865 845.198C777.142 836.067 765.446 908.168 765.446 908.168C765.446 908.168 765.72 941.921 763.685 963.408C759.1 1011.83 722.09 1037.5 734.595 1084.5C739.868 1104.31 761.252 1111.25 758 1131.5C756.608 1140.17 750.565 1149.24 749.015 1152.11C767.935 1154.14 777.395 1139.69 794.575 1156.39C798.835 1160.07 809.258 1165.97 817.265 1173.74C830.688 1186.75 823.5 1189.5 832.5 1203.5C836.562 1209.82 839.508 1214.09 847.5 1216.68C854.745 1219.02 867.241 1218.06 869 1216.68C884.281 1204.71 860.486 1179.4 846.115 1166.36C831.058 1152.69 807.265 1155.25 794.955 1156.65M794.955 1156.65C788.375 1156.67 782.905 1157.95 771.145 1162.17C759.515 1166.21 719.025 1174.86 718.825 1175.08L720.486 1173.08C704.376 1148.64 707.325 1116.39 678.065 1147.91C671.725 1152.79 651.595 1160.2 648.875 1159.98C643.015 1159.4 615.165 1149.96 607.975 1148.25M794.955 1156.65C892.465 1027.48 1262.49 1113.22 1458.49 1004.88C1485.73 987.468 1556.25 924.228 1599.16 894.028C1670.28 887.908 1519.71 1065.28 1491.53 1088.14L1494.61 1087M607.975 1148.25C596.405 1145.21 515.746 1130.83 502.486 1124.78C502.846 1127.26 509.045 1140.51 510.105 1145.53C512.705 1158.2 511.865 1186.73 510.885 1193.59M607.975 1148.25C646.285 1204.55 593.965 1232.17 593.085 1295.95C590.615 1322.9 578.636 1333.54 553.716 1355.29C535.046 1371.13 479.01 1401.23 481.486 1439.68C482.157 1450.09 488.195 1451.42 494.265 1454.13C533.975 1467.27 625.325 1469.51 665.815 1474C688.205 1473.55 754.79 1588.68 758.385 1547.18C767.485 1540.23 759.145 1463.48 758.385 1450.46C750.125 1412.56 742.645 1377.72 701.365 1366.28C715.505 1365.63 735.595 1354.93 745.105 1345.4M510.885 1193.59C505.195 1218.6 490.915 1273.53 490.915 1273.53M510.885 1193.59C507.295 1192.93 472.104 1224.66 471.805 1238.81C471.479 1254.28 490.915 1273.53 490.915 1273.53M490.915 1273.53C503.921 1280.41 568.365 1287.49 580.625 1291.13C594.785 1296.16 619.996 1300.99 630.946 1309.92C645.376 1321.55 649.816 1323.37 652.736 1324.17C658.606 1305.88 666.715 1283.75 655.595 1267.5C649.395 1257.97 643.185 1246.45 646.385 1235.29C649.885 1224.62 669.965 1202.96 681.765 1209.3C683.145 1210.8 701.295 1242.03 711.015 1252.26C717.175 1258.8 717.997 1260.36 718.315 1266.65C719.035 1280.86 685.625 1282.74 685.625 1282.74C685.285 1283.82 688.076 1287.11 689.145 1290.12C692.35 1299.13 694.087 1306.05 689.805 1314.61C687.069 1320.08 683.846 1322.33 678.906 1325.85C682.866 1329.29 684.77 1329.46 688.685 1331.49C708.838 1341.92 731.625 1342.43 745.105 1345.4M561.296 454.868C570.959 447.541 580.731 446.161 592.046 450.528C594.24 451.375 597.435 453.218 597.435 453.218C605.755 457.068 616.805 463.718 624.125 466.208M452.145 435.888C452.655 435.908 464.535 433.528 470.165 431.218C479.375 429.228 488.104 430.928 496.115 437.618C498.808 439.866 501.585 442.018 502.085 444.328M478.565 435.908L479.526 434.928L477.006 444.768L491.815 446.888M481.906 439.628C486.746 440.688 489.976 440.958 491.946 442.508M583.705 452.408C583.215 452.748 582.055 459.388 581.285 460.428L597.315 463.848M597.315 463.848L596.196 463.648M597.315 463.848C600.525 463.258 586.105 459.078 583.245 458.858" stroke="#E72F1E" stroke-width="12" stroke-linecap="round" stroke-linejoin="round"/>
</g>
<defs>
<clipPath id="clip0_951_181">
<rect width="1080" height="1512" fill="white"/>
</clipPath>
</defs>
</svg>
