<svg width="1080" height="1512" viewBox="0 0 1080 1512" fill="none" xmlns="http://www.w3.org/2000/svg">
<g clip-path="url(#clip0_951_182)">
<rect width="1080" height="1512" fill="white"/>
<path d="M738.01 230.585C773.39 262.405 793.32 310.945 806.28 360.285M794.342 321.5C798.342 335.83 832.96 377.025 838.5 390.275C849.82 414.455 849.5 430.175 849.5 430.175C849.5 430.175 908.65 529.392 906.18 585.622M823.702 367.245C827.606 378.041 834.01 406.085 835.18 417.505C836.27 430.885 835.088 454.153 838.5 475.5C844.141 510.795 855.96 535.395 862.49 561.585C873.83 599.625 926.759 692.345 1004 701.935C1230 729.995 1064.12 932.745 1435.5 745.265M837.05 463.045L836.75 463.145C833.28 484.265 827.389 539.042 793.75 567.555M793.75 567.555C785.393 574.639 781.65 578.29 776.5 581.5C771.35 584.71 770.535 584.99 764.5 585.622C759.075 586.359 730.613 588.356 709.62 583.995C699.606 581.915 689.59 578.595 684.51 576.555C672.66 571.735 638.96 544.165 638.96 544.165M793.75 567.555C794.794 569.288 794.4 576.715 803.71 590.615C813.02 604.515 803.24 615.925 797.53 628.095C787.95 656.815 825.93 696.425 812.64 746.685L807.74 766.015M638.96 544.165C638.96 544.165 614.218 510.225 602.61 486.135C595.626 471.641 587.23 447.915 587.23 447.915C587.23 447.915 591.26 386.995 597.17 371.285M638.96 544.165C638.96 544.165 646.15 562.985 651.39 569.535C670.2 592.675 693.78 621.97 703.5 651.5C713.358 681.448 722.02 726.415 695.39 706.395C706.31 729.555 717.37 772.485 710.2 797.675M618.44 405.505C626.09 397.535 643.124 382.566 661.88 384.455C671.74 385.448 677.613 387.79 685.45 393.855M644.55 390.055H643.87C643.66 390.855 647.74 401.995 649.87 403.925C654.46 404.245 664.37 401.475 665.09 402.025L661.61 387.775V388.155M747.67 381.005C747.98 376.275 754.784 370.547 761.52 366.615C772.516 360.197 789.99 362.425 794.05 364.435C796.15 365.595 799.89 368.085 800.83 369.435M756.44 372.725C756.73 375.155 759.59 379.515 760.44 380.725M774.58 367.245L774.76 366.365L775.1 366.145L777.46 378.075C774.96 381.165 763.82 380.075 759.17 382.115M740.21 342.895C747.48 338.715 783.5 326.5 793.09 333.915M608.87 374.605C624.16 358.865 646.98 350.621 668.8 352.955M740.99 233.405L741.47 232.765C751.49 250.555 772.25 316.725 768.56 345.795M768.22 318.925C768.23 322.685 767.53 346.355 767.52 350.675M613.59 280.525C607.89 311.045 602.95 357.758 602.14 388.795M617.43 273.885C615.21 313.025 616.267 339.418 621.61 378.255M642.03 336.095C641.7 344.345 643.15 363.963 644.69 372.075M660.69 329.005C660.57 328.115 660.65 328.045 660.33 327.445C661.07 334.755 661.972 358.42 661.79 365.765M683.78 361.865C687.618 355.468 690.38 317.975 687.52 311.085C689.1 321.485 693.1 348.065 694.68 358.085M708.2 308.115C712.19 326.185 714.77 338.495 715.9 354.675M734.85 305.895L734.59 306.075C735.92 310.405 751.71 343.725 751.08 355.175M729 370.485C729.12 386.905 740.25 418.045 750.57 431.535C756.44 441 753.42 451.565 751.67 457.705M807.74 766.015C802.16 755.555 797.22 721.355 797.22 721.355C797.22 721.355 790.034 723.685 786.02 726.275C774.255 733.867 768.37 757.485 768.37 757.485L749.82 729.995C749.82 729.995 747.079 738.727 745.27 744.305C732.354 784.133 724.5 843 695.03 855.655C726.75 854.705 725.52 902.055 732.99 933.125C751.09 1051.65 808.323 1150.35 796.2 1292.22C795.489 1300.54 794.06 1313.49 794.06 1313.49C788.72 1310.29 784.085 1285.3 777.53 1267.3C736.753 1155.28 727.04 1165.28 695.03 1099.22C672.221 1052.16 653.419 1021.49 623 990C613.102 979.752 568.5 893 583.01 861.405C597.52 829.81 629.783 923.213 634 969.805C638.219 1016.42 611.386 1039.55 603.27 1085.65C599.785 1105.44 596.072 1116.53 596.2 1136.62C596.466 1178.27 604.54 1199.84 628.6 1238.22C660.82 1284.02 671.942 1290.33 702.99 1320.56C732.29 1349.09 753.567 1359.85 782.29 1388.95C802.073 1409 830.03 1443.02 830.03 1443.02L808.44 1434.26C808.44 1434.26 768.85 1431.88 747.77 1443.26C720.555 1457.94 708.923 1509.78 708.923 1509.78C708.923 1509.78 776.72 1458.06 808.46 1460.71C810.4 1460.47 814.68 1465.15 821.11 1473.1C832.29 1486.99 846.8 1502.87 862.81 1519.58M807.74 766.015C806.07 787.045 815.29 808.005 820.77 831.665C828.32 971.575 812.7 1126.13 825.07 1251.89C832.86 1338.12 844.682 1345.62 880.584 1332.5C891.933 1328.35 897.031 1322.58 905 1313.49C928.991 1286.15 922.5 1217 922.5 1217C922.5 1217 917.466 1169.06 902 1151C894.292 1142 888.302 1138.68 876.66 1143.89C826.351 1166.4 882 1337 882 1337C882 1337 881.072 1414.64 893.14 1462.23C899.202 1486.14 909.54 1510.39 913.5 1522.02M490.142 394.535C484.172 444.405 493.42 495.135 515.93 543.145C539.37 588.745 553.68 644.965 550.85 695.095C550.56 707.415 541.01 729.035 536.02 738.575C534.98 739.63 442.93 834.69 462 911C469.27 936.72 485.124 951.395 510.12 960.86M515.5 962C452.61 890.23 542.53 830.275 551.69 753.515C555.04 713.525 558.384 674.98 545.754 629L534.5 654L525 673L500.56 701.935M515.5 962C514.25 961.49 511.47 960.901 510.12 960.86M515.5 962C515.5 962 512.221 961.305 510.12 960.86M620.24 636.725C620.24 636.725 687.66 777.095 579.4 826.885C563.11 835.915 553.9 845.095 546.71 860.755C538.32 883.625 540.655 912.798 543.67 945.955C548.386 997.827 564.856 1001.09 556.37 1052.47C556.25 1048.2 554.91 1044.68 551.83 1039.36C505.52 1039.36 425.22 1293.04 457.23 1319.12M481.32 1290.12C483.01 1247.22 437.662 1206.44 422.5 1148.5C418.085 1131.63 415.88 1127.11 412.5 1110C404.479 1069.4 427.128 1029.01 397.58 1000.03C384.084 986.801 363.965 988.488 355 977.018C336.581 953.455 378.523 936.141 380.99 906.335C382.292 890.613 382.391 881.706 381.71 865.945C380.069 827.95 373.5 798.605 363.26 770.325C354.16 740.565 328.17 703.435 348.87 676.985C354.49 670.765 364.922 655.903 378.47 646.155C408.833 624.307 453.78 626.005 472.23 626.565C488.17 626.725 514.99 632.065 523.07 631.825C520.23 628.755 497.17 563.575 497.18 560.125C470.88 461.915 487.6 357.475 531.04 260.555C549.72 235.235 600.55 186.395 643.95 183.025C660.41 178.485 702.31 182.615 715.26 185.345C734.64 189.815 771.06 213.075 787.71 224.425C860.266 273.885 861.277 355.024 892.5 445.215C901.826 472.155 910.44 490.845 914.11 514.945C919.39 557.195 891.08 637.675 891.08 637.675C891.08 637.675 841.36 717.115 867.66 785.695C874.87 809.295 901.62 831.835 901.62 831.835C901.62 831.835 951.753 870.93 969.16 906.035C980.665 929.236 982.225 944.42 987.35 969.805C996.08 1013.04 992.26 1058 994.69 1082.52C998.79 1099.33 1058.51 1199.94 1061 1214M481.32 1290.12C480.89 1288.83 471.82 1294.37 467.27 1299C461.112 1305.26 460 1310 457.23 1319.12M481.32 1290.12C487.73 1297.78 508.778 1306.68 526.12 1317.69C535.984 1323.96 538.598 1327.56 545.5 1335C564.594 1355.57 563.054 1374.5 579.08 1398.54C600.66 1430.93 611.888 1451.51 642.79 1475.16C648.89 1479.83 653.165 1481.34 658.92 1486.42C671.486 1497.54 682.97 1522.02 682.97 1522.02M457.23 1319.12C456.19 1320.1 448.114 1340.71 457.23 1345.55C460.728 1347.41 467.27 1346.99 467.27 1346.99C452.3 1394.2 406.92 1470.89 374.45 1507.42C341.98 1543.95 346.5 1533.5 346.5 1533.5M1050.13 1386.92C1019.21 1377.51 993.82 1377.9 969.51 1405.55C964.56 1411.91 964.39 1419.3 967.97 1426.38C984.37 1451.42 1007.66 1456.98 1041.6 1469.61M969.45 1099.22C944.81 1186.21 939.68 1301.51 931 1392.63C931.5 1422.94 921.97 1484.48 934.38 1511.08M653.37 394.535L651.33 394.015L659.85 391.155L654.53 397.395L657.93 398.095M768.68 375.145L767.16 372.085L764.1 373.405L766.28 370.905M-330 1163C-232.49 1033.83 123.68 1112.3 319.68 1003.96C346.92 986.555 485.566 938.145 479 1000.03C476.56 1023.03 470.772 1039.69 451.5 1052.47C416.757 1075.52 447.974 984.487 444.5 945.955C440.206 898.336 420.205 878.039 432.5 831.835C444.801 785.609 473.981 741.706 500.56 701.935M500.56 701.935C500.56 701.935 423.743 863.955 472.063 933.125M688.05 504.645C690.65 505.085 694.3 506.523 697.5 508C711.539 514.48 724.533 521.451 742.53 519.275C755.657 517.688 765.008 516.353 773.92 506.585C778.923 501.102 782.71 492.035 785.42 485.625C781.94 489.485 778.58 490.385 778.58 490.385C778.58 490.385 760.457 494.818 748.77 497.325C732.139 500.893 697.28 504.415 688.05 504.645Z" stroke="#E72F1E" stroke-width="12" stroke-linecap="round" stroke-linejoin="round"/>
</g>
<defs>
<clipPath id="clip0_951_182">
<rect width="1080" height="1512" fill="white"/>
</clipPath>
</defs>
</svg>
