<svg width="1080" height="1512" viewBox="0 0 1080 1512" fill="none" xmlns="http://www.w3.org/2000/svg">
<g clip-path="url(#clip0_951_183)">
<rect width="1080" height="1512" fill="white"/>
<path d="M-129 692.967C74.02 700.687 -2.35999 929.567 369.02 742.087M670.69 160.037C627.52 152.704 614.268 159.153 582.87 173.987C566.273 181.828 557.781 188.229 543.81 200.137C481.827 252.965 473.19 342.747 476.96 397.677C480.94 506.217 439.44 588.936 404.45 654.787C393.095 676.158 383.152 710.082 404.45 716.757C429.53 724.617 428.585 698.581 416.5 683.436C400.272 663.1 377.99 701.527 373.06 722.787C361.3 772.887 347.91 835.447 316.63 879.737C304.39 894.527 307.592 909.49 310.5 928.436C316.462 967.287 423.72 1040.35 423.72 1040.35M670.69 160.037L670.63 160.637M670.69 160.037C672.53 160.177 714.59 163.897 714.59 163.897C714.59 163.897 720.715 165.188 724.58 166.247C747.879 172.63 761.122 179.253 779.21 195.267C812.776 224.983 817.63 257.447 823.56 301.147C826.988 326.407 831.21 390.647 829.24 407.187C828.9 447.417 837.93 535.927 843.05 575.917C849.42 619.127 859.39 635.177 837.97 662.357M845.87 647.787C845.91 654.797 837.82 658.507 831.74 668.277C822.8 681.927 808.63 701.407 806.27 704.937C791.16 730.377 808.084 762.772 792.42 794.517C775.78 828.24 757.08 829.317 724.49 862.767C713.27 877.757 701.98 899.587 714.85 916.527C720.13 921.517 727.57 923.477 734.22 920.287C745.75 915.537 757 909.577 764.45 897.857C771.99 884.957 774.47 874.787 773.23 857.457C767.34 831.497 764.71 776.637 775.59 749.527C780.13 740.057 788.63 742.697 795.78 745.067C807.85 750.837 816.889 760.248 823.19 774.697C829.423 788.989 814.869 803.969 826.37 814.497C841.87 828.686 860.437 807.13 875.44 792.417C897.424 770.857 896.11 738.377 896.03 716.307C895.84 695.707 881.27 673.187 871.26 666.067C869.36 665.407 865.5 665.727 865.4 666.067C860.8 692.227 879.69 709.517 897.44 730.277C926.76 758.537 963.02 800.704 970.16 816.087C976.65 823.227 986.98 844.757 988.23 857.847C994.22 879.657 968.09 911.017 959.2 928.077C933.9 967.157 906.12 1064.27 907.46 1100.24C907.83 1117.26 917.825 1142.6 908.16 1166.69C897.677 1192.81 878.057 1198.95 856 1216.44C817.911 1246.64 793.096 1260.59 747.5 1277.44M766.13 369.707C766.54 379.237 748.8 445.197 743.06 456.547C726.9 488.317 672.15 541.677 640.17 544.587C631.02 545.627 610.06 548.704 597.84 538.697C574.44 516.427 548.182 487.466 533.17 445.936C523.705 419.751 520.731 403.665 520.207 375.827C510.487 335.867 538.33 285.267 556.36 250.457M766.13 369.707H766.97M766.13 369.707C760.12 353.047 761.179 347.821 747.16 329.667C743.827 325.35 741.966 322.924 738.66 318.587M766.97 374.747C768.962 369.481 775.467 360.859 783.58 361.957C793.707 363.328 793 387.936 793 387.936M793 387.936C793 387.936 777.75 441.006 764 438.936C764 438.936 754.431 470.909 748.02 489.377C728.639 545.208 755.099 580.164 727.09 626.557C704.516 663.947 632.42 634.986 602.5 640.936C616.76 624.635 644.5 603 656.6 582.207M793 387.936L798.02 495.204M642.92 372.667C643.31 368.377 651.53 359.417 657.41 356.137M659.24 355.457C664.67 351.937 690.99 353.717 699.68 355.357C701.17 355.887 708.83 355.867 708.68 355.727L708.28 355.907M661.28 355.687L660.9 355.527C659.86 370.477 673.68 378.127 681.99 363.967C682.09 363.137 682.35 357.927 682.35 355.627M532.83 360.207L532.39 360.007C544.41 357.837 559.47 353.045 571.76 362.327C577.317 366.523 581.77 370.987 582.84 376.297M556.84 359.087C555.34 359.867 557.9 369.287 560.94 371.977C569.79 378.637 573.48 379.877 580.61 375.537M632.27 331.907C657.23 323.937 696.36 329.797 698.5 331.287M525.14 334.157C538.2 328.577 570.77 331.967 579.48 335.177M595.35 352.977C602.85 375.327 594.51 407.357 589.27 418.107M588.11 420.087C587.82 427.787 590.06 433.787 593.35 439.657M587 477.436C601 482.936 642.33 481.357 656.3 472.117M572.89 231.947C566.62 272.737 550.57 338.407 533.17 375.827M581.39 224.527C578.66 252.697 572.24 317.657 593.01 339.817M600.92 230.347C594.47 250.097 597.04 335.527 616.39 351.077M622.03 222.747C609.465 237.545 647.33 350.747 666.27 355.007M677.01 343.377L669.85 326.407M668.67 249.697C677.44 290.877 709.77 348.137 751.61 363.947M668.95 211.137C673.79 268.017 723.13 327.317 758.59 371.247M597.84 540.204C601.97 588.184 598.555 592.284 571.755 620.204C580.035 676.264 522.84 657.027 487.5 699.387C463.66 725.227 444.53 738.707 439.44 775.287M439.44 775.287C431 835.936 473.03 729.087 521.15 699.387C538.99 691.317 534.971 709.104 545.02 712.704C549.97 714.477 553.073 714.425 558.02 716.204C570.459 720.677 605.5 719.436 626.01 712.057M439.44 775.287C435.2 769.727 435.25 743.967 422.17 746.857C393.57 760.757 385.45 797.617 379.01 827.297C372.92 871.077 370.72 923.257 386.73 964.637C388.11 970.887 423.72 1040.35 423.72 1040.35M627.63 713.997C627.63 713.997 626.643 712.814 626.01 712.057M626.01 712.057C631.2 709.517 636.343 709.534 638.62 704.197C641.9 696.511 634.599 689.894 627.13 686.147C619.554 682.346 607.869 683.3 605.5 687.936C600.813 697.109 617.571 709.1 630.29 716.757C666.401 738.495 713.5 683.436 713.5 683.436C713.5 683.436 731.262 662.294 737 658.436C763.029 640.937 705.2 732.187 705.2 732.187M705.2 732.187C705.2 732.187 692.714 754.742 689.9 770.667C686.836 788.006 686.243 799.071 692.02 815.704C696.506 828.618 710.5 845.436 710.5 845.436C710.5 845.436 709.57 829.957 711.81 821.637C715.29 791.287 761.086 733.733 725.1 729.937C717.322 729.116 705.2 732.187 705.2 732.187ZM423.72 1040.35C424.04 1038.59 471.983 1036.37 502.97 1034.92C524.546 1033.91 542.44 1026.84 558.25 1033.16C571.19 1038.12 596.89 1047.32 610.45 1044.79C637.05 1038.26 681.21 991.017 688.8 981.857C686.47 1004.72 685.28 1034.53 699.96 1056.93C702.01 1035.41 705.72 973.87 714.85 953M747.5 1277.44C705.222 1290.28 661.142 1277 633 1242.94C596.624 1198.9 643.89 1148.09 661.74 1099.54C665.115 1090.36 672.327 1071.38 682 1069.94C689.457 1068.82 688.799 1086.89 688.8 1086.94M747.5 1277.44C737.248 1261.05 614.466 1148.15 537.5 1191.94C483.458 1222.68 453.911 1272.85 465.51 1333.94C468.205 1348.13 472.648 1357.72 479.5 1370.44C485.941 1382.39 489.406 1386.57 498.5 1396.66C557.632 1462.25 537.155 1224.57 465.51 1172.94C460.598 1169.4 448.5 1164 448.5 1164M747.5 1277.44C769.15 1312.05 764.45 1360.94 764.45 1410.13C764.45 1457.62 764.45 1539 810 1552.94C855.55 1566.87 827.47 1520.28 844.5 1521.44C864.105 1522.77 874.83 1472.97 874.83 1472.97C883.65 1466.83 898.583 1460.15 908.3 1446.66C937.646 1405.91 862.36 1326.57 862.36 1326.57C862.36 1326.57 837.085 1302.89 833.65 1282.71C832.472 1275.79 833.09 1264.74 833.09 1264.74C830.17 1264.92 826.487 1286.46 822.47 1300.44C799.189 1381.46 788.98 1459.32 774.19 1510.85M688.8 1086.94C702.158 1099.81 764.34 1141.83 781.27 1149.42C790.57 1153.2 801.02 1156.02 809.54 1149C822.235 1138.53 811.854 1114.85 796.5 1108.94C789.393 1106.2 777.942 1103.91 777 1108.94C772.824 1131.21 814.476 1121.97 839.2 1121C889.372 1119.03 924.36 1067.72 950.67 1056.93C1042.49 1023.47 1072.23 1047.96 1179.58 1014.41C1219.12 1000.98 1228.72 976.747 1265.73 966.147C1292.57 960.937 1334.36 947.057 1356.57 966.267C1357.31 968.587 1353.63 972.027 1345.87 978.167C1326.18 993.217 1277.9 1029.55 1259.69 1046.76C1251.01 1054.66 1240.36 1062.57 1235.92 1063.31C1227.7 1064.43 1224.87 1062.57 1219.63 1066.91C1218.53 1067.39 1206.4 1066.05 1205.44 1065.91C1203.38 1065.37 1205.1 1038.38 1207.34 1024.83C1222.75 930.727 1297.17 822.597 1342.58 734.977C1347.2 725.277 1357.37 712.867 1357.77 712.187C1357.97 711.847 1361.79 700.757 1361.97 700.117C1362.03 699.837 1362.03 699.317 1361.97 698.537M688.8 1086.94C653.437 1088.92 586.34 1085.45 551.37 1079.83C531.18 1075.14 483.5 1056.93 483.5 1056.93C483.5 1056.93 474.28 1055.44 474.28 1069.6C474.28 1083.25 425.364 1102.55 416.5 1112.94C399.458 1132.91 416.5 1151.44 416.5 1151.44M243.7 1522.14C254.88 1458.8 290.74 1277.93 290.74 1277.93C290.74 1277.93 302.442 1245.15 299 1224.2C295.558 1203.25 296.254 1212.54 293.68 1205.34C290.068 1195.22 282.732 1190.23 282 1180.44C281.488 1173.58 278.845 1161.3 279.5 1157.45M279.5 1157.45C281.06 1148.29 310.648 1160.01 319.341 1156.72M279.5 1157.45C241 1169.67 267.98 1118.09 269.26 1110.42C270.66 1103.94 270.98 1085.63 270.64 1080.47C270.24 1073.23 263.76 1067.4 265.5 1059.58C272.76 1036.95 330.91 1044.39 339.03 1040.35C323.38 1031.12 303.51 1018.53 299.01 999.807C297.25 993.187 296.98 985.357 302.69 980.317C306.53 980.157 308.91 981.337 311.73 985.337C316.33 991.817 322.03 998.047 326.78 1002.17C343.7 1014.95 374.99 1028.33 389.47 1040.35C396.28 1042.62 422.17 1059.58 422.17 1059.58C422.17 1059.58 409.76 1069.73 404.13 1078.78C389.13 1103.71 381.81 1116.24 381.48 1141.77M319.341 1156.72C351.938 1144.4 368.81 1205.34 368.81 1205.34L400.32 1274.09M319.341 1156.72C326.111 1154.87 380.44 1141.71 381.48 1141.77M448.5 1164L416.5 1151.44M448.5 1164C448.5 1164 445.974 1181.03 444.672 1188.94C439.848 1218.22 422.71 1236.33 411.21 1257.16C407.01 1267.63 369.81 1347.78 369.81 1347.78C369.81 1347.78 351.05 1388.5 344.2 1410.13M416.5 1151.44C416.5 1151.44 398.124 1150.88 392 1148.94C387.261 1147.43 381.59 1149.86 381.48 1141.77M333.28 1516.4C329.56 1491.19 338.21 1433.52 344.2 1410.13M344.2 1410.13C344.2 1410.13 326.985 1442.26 313.5 1461.24C294.829 1487.52 261.19 1519.58 258.81 1523.08M483.15 1520.16C457.63 1511.39 355.11 1474.43 335.26 1461.24M563.1 362.927L571.58 371.267L571.62 368.007L568.24 370.167L571.38 371.347M669.71 361.027L668.35 359.487C667.69 361.367 668.89 363.567 670.65 364.087C675.15 365.227 676.87 359.847 676.95 358.787C674.25 358.247 671.05 362.347 671.25 363.947L673.47 365.267M798.02 495.204C798.02 495.204 822.49 571.097 825.89 577.007C832.64 588.137 844.61 601.217 844.76 612.087M798.02 495.204C798.02 495.204 792.72 575.747 751.61 602.007M841.16 602.007C847.52 620.027 850.02 637.097 845.5 651.827M476.6 406.967C476.78 419.277 483.08 449.287 484.2 457.607C491.42 499.927 519.48 556.376 492.5 588.936M678.27 344.797L678.07 345.077C674.84 327.027 663.7 273.487 668.39 253.317" stroke="#E72F1E" stroke-width="12" stroke-linecap="round" stroke-linejoin="round"/>
</g>
<defs>
<clipPath id="clip0_951_183">
<rect width="1080" height="1512" fill="white"/>
</clipPath>
</defs>
</svg>
