<svg width="1080" height="1512" viewBox="0 0 1080 1512" fill="none" xmlns="http://www.w3.org/2000/svg">
<g clip-path="url(#clip0_951_184)">
<rect width="1080" height="1512" fill="white"/>
<path d="M-124.86 812.92C-118.37 820.06 -108.04 841.59 -106.79 854.68C-100.8 876.49 -126.93 907.85 -135.82 924.91C-161.12 963.99 -188.9 1061.1 -187.56 1097.07H-183.38C-182.72 1096.02 -181.3 1093.91 -180.58 1092.89C-180.21 1109.91 -176.09 1147.03 -186.86 1163.52C-221.29 1220.95 -281.89 1247.3 -342.73 1264.08C-334.56 1264.5 -328.69 1262.76 -320.16 1258.66C-321.42 1258.66 -325.38 1258.62 -325.6 1258.52C-348.3 1248.24 -398.32 1241.29 -418.5 1228.01C-452.33 1203.84 -441.02 1135.12 -433.28 1096.37C-430.76 1086.99 -425.62 1075.74 -422.68 1073.68C-422.64 1073.66 -417.36 1078 -406.33 1083.84C-383.52 1096.15 -330.68 1138.66 -313.75 1146.25C-304.45 1150.03 -287.28 1146.25 -285.48 1145.83C-277.36 1124.7 -297.51 1105.42 -319.05 1107.25L-319.61 1110.59C-306.64 1125.26 -273.28 1120.67 -255.82 1117.83C-222.34 1116.3 -170.66 1064.55 -144.35 1053.76C-52.5302 1020.3 -22.7901 1044.79 84.5599 1011.24C124.1 997.81 135.579 978.882 170.71 962.98C227 937.5 281.133 933.519 261.55 963.1C258.1 968.311 250.85 975 250.85 975C250.85 975 182.88 1026.38 164.67 1043.59C155.99 1051.49 145.34 1059.4 140.9 1060.14C132.68 1061.26 131.112 1063.34 124.61 1063.74C119.065 1064.08 115.535 1064.91 110.42 1062.74C95.6322 1056.47 110.08 1035.21 112.32 1021.66C127.73 927.56 202.15 819.43 247.56 731.81C252.18 722.11 262.75 709.02 262.75 709.02C261.07 765.12 252.9 847.86 277.76 899.82C247.3 861.56 239.77 850.11 251.37 797.01C268.36 741.62 293.82 667.55 353.9 648.96C390.59 634.07 470.74 564 470.74 564M470.74 564C470.74 564 465.74 591.22 469.49 601.69C471.45 608.85 485.36 633.22 492.36 645.45C503.82 666.87 523.88 687.44 524.63 697.43C511.26 705.04 504.23 694.06 495.82 684.6C484.15 669.6 476.27 633.75 458.86 632.96C457.36 638.43 417.53 699.61 411.18 702.61C403.17 678.62 419.33 645.854 442 615.67C447.243 608.689 450.312 604.768 456.75 598.87C470.377 586.385 482.6 579.93 496.55 570.59C502.39 567.22 523.51 558.51 526.24 555.6C528.97 552.69 525.74 557.94 525.74 557.94C524.99 560.56 533.7 565.74 538.49 572.6C538.71 575.28 537.95 577.28 534.85 581.46C518.3 608.27 505.12 640.49 527.63 666.04C530.1 669.61 544.5 687.5 544.5 687.5C544.5 687.5 547.59 683.96 549.88 679.24C552.66 674.04 554.18 661.85 555.14 657.39C556.58 650.91 568.27 627.98 577.65 615.67C597.77 596.38 651.46 542.28 657.61 529.77C657.91 529.13 658.01 521.7 657.75 520.92C653.12 522.77 645.2 534.93 638.24 526.38M470.74 564C470.74 564 471.52 553.03 470.74 549.4C469.98 545.86 467.08 537.29 466.28 534.95L466.96 535.67M638.24 526.38C639 515 635.43 469.3 636.68 461.93C620.74 493.79 605.38 511.97 576.05 535.02M638.24 526.38C638.24 533.53 639 548.25 640.48 552.18C641.56 553.92 646.16 555.04 649.24 554.44C652.4 553.47 662.24 540.22 669.5 533.53C669.5 533.53 674.129 531.493 674.53 532.27C674.897 532.982 676.15 533.53 676.15 533.53C676.91 533.47 684.25 537.03 685.05 538.79C694.4 567.34 697.12 603.55 733.05 615.58C731.69 610.19 734.24 590.83 717.47 601.99C684.72 631.58 643.74 723.07 614.2 750.82C615.07 727.64 619.17 653.61 614.58 639.91C611.9 639.89 606.4 639.73 605.06 640.17C601.08 641.51 592.93 648.99 590.47 652.4C589.01 654.54 587.11 659.86 586.91 662.82C586.87 663.64 596.53 690.85 597.49 699.2C598.53 709.22 593.27 728.09 587.63 743.12C580.1 761.93 559.96 812.48 550.61 825.16M406.63 363.04C376.5 345.5 381.05 397.35 385.17 412.54C387.47 419.2 392.23 428.15 394.77 430.63C396.09 431.89 414.52 446.76 417.18 447.14C415.44 441.52 412.14 432.39 410.12 426.09C409.41 420.74 395.77 413.85 395.59 407.84C396.71 403.96 404.25 392.14 408 388.35M406.63 363.04C406.49 362.88 402.41 352.5 401.61 351.44C398.65 350.19 386.54 341.46 383.54 336.03C380.61 331.95 377.89 327 376.96 324.06C376.6 323.02 373.26 296.07 374.68 284.94C380.78 252.36 387.54 232.03 400.77 214.97C415.61 191.48 432 175.5 463.42 165.89C478.853 161.17 484.63 162.73 494.03 163.33C493.95 163.31 497.19 162.77 505.38 158C508.46 155.14 521.64 151.02 525.66 149.8C529.98 148.5 537.5 146.2 544.15 146.24C575.502 146.429 600.279 158 613.9 163.03C625.68 167.38 645.32 184.51 652.76 191.7C680.5 221.5 695.4 254.92 693.04 288.65L689.08 273.44C689.98 291.01 702.61 347.87 675.05 348.79C662.98 345.12 661.72 330.24 660.26 317.08C657.59 302.97 666.97 240.1 640.81 242.55L625.15 242.71C631.15 253.66 677.59 320.77 689.1 340.25M406.63 363.04C413.28 382.55 429.5 458.5 432.04 469.27C436.876 489.777 458.5 510.79 475.64 520.55C482.29 524.14 498.5 535.09 506.63 539.1C509.59 540.56 519.07 543.78 525.66 546.32C538 549.5 546.72 549.37 557.86 544.5M401.57 331.97C402.38 335.33 417.73 343.79 421.18 343.5C419.89 340.74 410.48 327.5 409.57 321.15C416.56 334.56 433.06 330.9 445.83 327.33M451.31 323.62C444.97 321.73 441.41 315.23 437.9 308.73C449.13 317.21 465.17 317.7 482.12 316.35C469.99 316.93 465.6 304.65 461.99 292.14C458.88 275.48 460.33 251.57 467.57 236.1M488.31 316.86C474.64 311.55 470.8 236.84 472.14 233.22M484.73 219.74C484 247.14 487.27 294.85 519.29 303.44M489.51 224.12C490.47 242.34 524.5 303.44 550.4 306.5L584.58 313.66L569.91 298.59C572.24 299.16 597.62 313.77 602.26 316.86M614.87 316.46C610.29 309.85 600.06 299.52 595.62 293.45C595.98 294.47 612.95 308.1 625.81 316.52C635.74 323.85 652.24 332.16 656.69 341.23C653.8 349.41 654.57 353.39 662.15 358.42C674.48 343.61 679.62 319.03 678.61 299.23M544.82 312.48C554.79 309.14 578 308.65 581.84 309.28M445.73 316.06C455.42 312.97 492.59 316.64 493.59 318.54M555.87 825.16C557.91 803.56 563.2 764.1 558.87 741.56M511.03 801.37C511.03 801.37 551.777 786.302 555.62 803.03C557.06 809.296 555.66 816.64 553.1 819.3C550.1 822.32 543.4 827.96 540.59 830.2C540.91 829.92 541.83 829.1 541.47 829.32C539.57 830.5 531.35 837.34 530.57 838.08C539.44 837.95 549.454 833.756 555.98 841.34C558.868 844.697 552.32 854.02 553.1 857.72C554.67 865.26 564.776 874.973 564.11 887.27C562.933 908.994 544.459 925.65 522.73 924.57C516.886 924.279 513.472 923.495 508.18 921C489.042 911.976 527.006 869.996 558.865 901.856C574.975 919.016 561.499 921.32 558.865 933C551.147 967.225 514.5 986.21 499.29 1001.42C469.26 1031.45 427.88 1004.87 406.11 1030.35C401.05 1035.7 394.8 1053.71 384.5 1061.88C378.04 1067.42 370.97 1072.05 364.51 1074.65C339.69 1084.58 313.35 1097.65 293.5 1111.19C295.07 1110.92 298.7 1110.41 300.26 1110.57L300.14 1108.45C286.96 1098.54 244.26 1119.57 236.43 1124.08C242.14 1089.78 226.88 1049.12 253.08 1021.57C276.93 1006.79 295.77 1004.88 323.11 988.18C351.36 972.79 400.012 957.441 416 924.91C424.972 906.654 452.97 847.5 452.97 847.5C452.97 847.5 487.22 806.17 511.03 801.37ZM511.03 801.37C511.03 801.37 524.483 773.946 515 761.5C512.13 757.734 499.518 767.027 491.5 773.5C476.637 785.499 469.66 812.85 468.02 816.41C468.48 818.53 468.912 822.954 469.26 827.17C478.117 934.512 334.295 928.012 255.47 1001.41C247.429 1008.9 239.59 1016.53 235.01 1020.72C211.14 1043.19 186.584 1067.69 174.62 1107.06C173.165 1111.85 173.734 1115.05 171.36 1119.45C163.63 1133.79 135.16 1182.24 130.53 1127.96C131.46 1102.02 164.71 1053.25 188.48 1044.48C188.48 1044.48 153.23 1059.18 144.58 1064.75C133.11 1072.27 109.18 1094.5 108.74 1099.31C108.34 1106.09 109.26 1112.66 112.34 1120.76C126.6 1157.03 131.68 1175.94 151.3 1198.19C159.47 1205.52 179.93 1211.37 191.36 1211.96V1209.82L196.24 1206.94C201.31 1198.11 216.36 1190.31 228.71 1190.71C234.21 1190.35 249.35 1194.28 249.62 1192.51M256.45 1195.69C248.64 1191.25 249.65 1174.16 247.55 1168.02C245.59 1157.9 243.41 1152.47 244.31 1150.75C249.71 1145.82 250.02 1147.55 253.57 1140.73C261.62 1136.45 295.99 1143.96 305.01 1144.37C305.11 1144.37 292.16 1144.25 286.5 1143.11C264.27 1138.55 257.89 1136.57 254.19 1134.97C253.77 1125.73 260.46 1115.38 266.34 1110.68L286.07 1113.06M312.79 1108.07C340.61 1118.96 391.564 1107.06 427.94 1135.6C469.26 1168.02 478.52 1160.94 524.8 1159.69C549 1158.17 564.84 1169.06 594.25 1172.44C602.17 1173.46 617.452 1171.23 630.5 1177C646.48 1184.07 649.37 1195.06 662.43 1208.35C688.25 1237.53 699.51 1253.2 729.44 1258.53C746.47 1260.39 751.11 1257.89 751.89 1257.03C721.34 1207.52 657.97 1206.82 646.35 1174.41C645.65 1171.73 647.81 1168.21 651.23 1165.15C671.05 1144.78 703.363 1129.47 741.37 1128.34C797.508 1126.67 850.78 1188.73 866.6 1199.05C869.2 1201.07 881.89 1210.43 885.19 1210.33C888.45 1187.67 861.98 1140.59 841.47 1126.51C825.15 1114.6 788.49 1114.66 771.28 1114.36C755.83 1114.62 765.452 1113.74 750.21 1116.28M750.21 1116.28C751.048 1115.21 754.25 1102.29 754.01 1100.95C748.34 1077.01 718.14 1083.42 720.87 1053.19C732.13 992.48 790.05 874.91 810.33 829.67C828.56 793.92 840.73 775.49 861.91 752.84C855.95 752.66 847.248 754.74 838.38 757.84C800.127 771.211 788.93 808.69 775 840C761.5 832.5 777.422 805.96 778.79 782.97C779.477 771.422 778.363 764.76 780.55 753.4C784.405 733.374 790.22 718.72 801.94 705.76C809.1 696.52 842.28 682.78 846.78 685.49C845.66 685.53 838.677 678.785 833.38 674.62C819.068 663.366 809.614 658.929 795.58 647.33C777.835 632.664 760.58 605.9 753.4 606.15C787.77 609.63 818.44 627.45 845.9 647.33C870.74 662.64 925.14 699.75 936.14 731.31M750.21 1116.28C768.328 1065.26 790.96 1005.28 811.06 955.01C840.83 892.06 931.13 694.536 957.28 779.75C969.641 820.031 970.681 853.217 945.5 887C924.043 915.787 833.38 986.5 864.12 929.78C968.84 781.32 1212.6 942.82 1288.67 783.28H1275.78C1275.62 778.14 1279.44 769.97 1283.52 761.73C1301.25 726.65 1319.32 693.48 1320.76 694.12C1335.42 742.73 1331.72 820.99 1339.28 875C1339.95 892.17 1347.47 922.75 1342.23 937.17C1311.85 936.17 1326.63 813.08 1305.93 806.45C1305.61 806.47 1305.65 804.85 1305.61 800.25M937.39 731.3C926.19 806.33 917.33 940.41 931.24 1018.21C935.94 1064.26 976.58 1135.02 974.58 1185.94C973.86 1189.88 966.9 1202.27 963.96 1211.87C959.98 1224.66 956.22 1235.02 953.54 1238.88C946.34 1248.91 929.13 1259.81 917.36 1260.29C917.36 1260.29 915.58 1234.05 912.5 1240.5C909.42 1246.95 904.25 1267.36 896.09 1269.04C881.14 1240.04 777.595 1170.33 778.04 1220.22C778.194 1237.48 784.21 1256.35 792.5 1262C798.76 1265.38 801.739 1267.58 808.17 1269.99C822.868 1275.51 840.37 1288.14 856 1277.5C865.07 1271.33 872.451 1265.16 868 1257.03C863.477 1248.77 852.002 1249.84 843.89 1256.77C837.806 1261.97 836.67 1272.82 835.37 1275.4C834.67 1276.74 809.3 1306.45 798.57 1319.06C787.89 1332.09 775.62 1343.45 764.91 1344.65H769.29C756.12 1344.88 751.84 1346.72 744.88 1329.64C730.4 1299.42 717.015 1280.06 685.81 1272.05C676.431 1269.64 651.23 1266.74 651.23 1266.74L537.5 1257.03C537.5 1257.03 452.81 1258.53 452.97 1255.09C412.95 1242.08 363.13 1252.67 320.15 1252.05C313.75 1252.01 313.31 1252.29 312.41 1253.27C309.47 1253.31 295.6 1250.61 291.5 1248.13C283.09 1242.21 270.78 1234.87 271.97 1225.86L320.29 1210.71M324.04 1213.21C301.07 1209.44 255.91 1206.01 250.31 1177.93C252.65 1175.77 257.07 1173.21 264.46 1173.17C297.76 1171.91 299.98 1179.57 312.64 1169.41C313.1 1162.07 308.78 1140.22 311.26 1135.6C317.01 1132.02 321.49 1136.23 323.53 1143C327.75 1162.89 339.19 1238.75 339.19 1238.75M339.19 1238.75L340.31 1244.51M339.19 1238.75C339.19 1238.75 343.21 1257.66 324.32 1266.74C298.09 1279.76 278.47 1284.67 270.08 1305.34C269.64 1309.67 286.58 1317.07 288.99 1320.85L301.38 1321.23C329.02 1317.88 350.69 1324.28 374.12 1334.38C397.5 1343.57 428.16 1359.74 444.71 1352.91C446.39 1345.94 426.27 1324.76 424.54 1316.47C420.27 1300.5 430.84 1292.68 445.49 1290C471.34 1288.63 472.93 1321.83 464.24 1335.9C464.24 1335.9 474.606 1342.47 481.534 1346.16C545.476 1380.29 616.36 1363.76 666.81 1357.11C723.36 1352.06 744.46 1343.52 775.04 1353.03C781.22 1356.35 786.86 1365.95 787.17 1365.93C774.57 1366.48 765.82 1362.14 767.14 1377.58C767.14 1377.82 754.62 1385.96 754.62 1385.96C754.62 1385.96 775.458 1428.09 758.13 1425.9C758.13 1425.9 713.98 1417.67 684.04 1419.64C639.66 1425.04 562.759 1434.43 484.71 1434.15C450.375 1434.03 429.542 1441.39 396.85 1430.89C388.231 1428.12 375.34 1422.25 375.34 1422.25C375.34 1422.25 392.25 1409.38 393.25 1408.12C398.53 1399.77 390.99 1370.86 396.63 1359.42C401.07 1358.28 403.43 1358.04 405.67 1358.9C412.8 1363.52 458.2 1377.85 456.21 1387.33L453.45 1388.45C451.484 1388.9 457.97 1385.95 457.97 1385.95C450.71 1391.25 437.33 1396.47 424.66 1395.96C402.84 1394.95 298.27 1383.27 272.33 1384.71C277.72 1380.89 290.6 1366.34 286.34 1357.42C282.58 1351.66 274.42 1346.06 271.33 1345.9C257.41 1346.16 263.02 1391.01 260.57 1409.11C259.85 1421.27 256.85 1454.87 255.17 1457.05C254.43 1458.01 251.53 1459.93 251.05 1461.67C248.57 1470.49 244.17 1480.12 242.65 1483.46C241.67 1495.04 235.29 1506.56 233.89 1519L236.39 1519.88M786.8 1519.91C759.59 1491.04 738.7 1447.15 752.36 1408.38C756.63 1395.26 779.366 1374.8 786.736 1365.41M512.52 332.73C524.03 347.56 519.99 386.42 518.74 407.24C519.19 410.84 522.92 420.81 526.48 425.09M492.03 464.68C495.01 466.38 502.5 468 505.38 468.42M505.38 468.41C510.89 471.7 532.99 468.63 536.43 468.09C543.78 468.64 574.41 464.43 572.87 463.63C573.71 462.97 575.43 462.03 575.55 461.89L573.27 462.35M634.69 465.56C639.7 456.03 642.5 447.5 644.88 434.99L653.62 366.9C653.46 365.99 664.74 358.8 669.97 358.72L673.73 355.9C685.18 360.03 692.28 377.49 690.23 391.36C688.94 393.01 687.39 397.55 686.66 399.36C681.54 411.55 658.2 443 650 444C647 438.5 654.66 431.47 658.22 423.36C665.68 406.71 669.67 390.39 669.1 388.56C666.47 380.64 663.3 378.87 658.2 380.38M557.44 352.72C561.36 346.91 570.49 340.15 572.01 340.69C583.02 335.94 608.01 341.31 615.53 346.01M572.69 344.63C573.92 352.46 580.9 355.18 587.66 353.75C591.95 351.18 593.91 345.21 593.62 342.22M499.92 356.1C498.06 353.25 484.64 344.52 479.23 344.45C471 343.5 444.97 350.57 441.45 352.77M484.31 350.01C485.17 353.54 478.31 359.72 473.91 358.33C469.71 357.06 464.28 352.12 463.65 348.75M477.25 353.04L475.39 350.62L471.75 350.38L476.93 348.52C478.22 350.18 478.44 350.68 477.75 351.5M584.91 350.49L588.87 348.95L580.67 350.69C582.57 346.43 585.35 346.05 586.77 346.23L587.17 349.05L580.61 348.85L586.09 345.41C586.8 348.64 582.26 350.17 579.63 350.49C578.31 348.07 581.85 347.32 583.53 346.61" stroke="#E72F1E" stroke-width="12" stroke-linecap="round" stroke-linejoin="round"/>
</g>
<defs>
<clipPath id="clip0_951_184">
<rect width="1080" height="1512" fill="white"/>
</clipPath>
</defs>
</svg>
