<svg width="1080" height="1512" viewBox="0 0 1080 1512" fill="none" xmlns="http://www.w3.org/2000/svg">
<g clip-path="url(#clip0_951_185)">
<rect width="1080" height="1512" fill="white"/>
<path d="M-174.965 882.225C-56.835 824.411 122.088 905.367 184 804.81C201.73 769.73 209.471 725 242.23 725C278.471 745.32 262.711 815.142 254.04 855.26C247.18 887 257.5 914.39 242.23 941.73C224 929.5 220.5 853.64 220.5 804.81C220.5 755.98 229.67 731.24 251.35 706.25C278.66 669.25 317.09 647.82 364.5 634.82C399.78 624.12 426.55 613.67 432.27 609.37C432.55 607.56 428.58 602.97 430.51 600.37C432.47 594.21 447.2 580.72 452.82 573.07C453.2 575.37 471.61 610.13 476.17 616.51C487.58 635.66 522.1 654.96 522.35 676.58C499.49 667.85 474.8 682.72 456.52 691.49C449.15 695.01 432.43 710.06 429.65 707.48C431.48 673.01 430.28 635.731 440.5 609.37C450.72 583.01 463.63 514.5 463.63 514.5V506.356M-174.965 882.225C-198.028 893.513 -218.774 910.09 -235.88 934.34C-206.418 932.226 -188.751 908.656 -174.965 882.225ZM-174.965 882.225C-170.038 872.779 -165.607 862.968 -161.31 853.64C-155.55 834.33 -134.57 796.95 -142.72 784.31C-209.84 804.91 -259.17 896.62 -288.94 959.57C-309.04 1009.84 -343.88 1078.18 -349.79 1120.84L-338.05 1117.4M437.795 451.5C432.5 447.5 412.3 420.87 409.1 414.26C403.82 401.75 401.104 379 425.994 372.5M463.63 506.356C459.5 499 445 478.5 440.5 465.5L425.39 387.29C425.51 384.27 427.38 327.62 431.45 315.54C436.03 295.43 455.87 252.02 470.83 234.96C479.126 225.5 504.61 211.49 512.97 208.57C510.16 206.08 508 201.41 504.11 200.99C510.65 201.66 531.27 203.58 540.59 205.45M463.63 506.356C469.5 514.5 490.62 529.54 496.12 532.5C510.5 540.239 523.5 543.05 540.7 541C579.225 536.408 593.86 528.69 626.7 507.95C632.45 503.41 642.34 492.85 648.21 487.25M648.21 487.25C655.523 480.274 666.109 472.26 671 465.5M648.21 487.25C648.48 509.84 605.471 529.53 586.481 543.05C576.101 548.93 541.68 563.94 538 566.88C536.26 568.34 536.14 582.79 536.66 584.27C539.1 590.83 540.36 598.8 539.62 603.36C538.2 611.41 518.57 637.6 532.05 641.06C568.45 624.88 608.08 594.39 642.12 568.89C660.48 554.27 659.26 548.86 657.59 528.61L645.6 524.81C636.29 537.19 657.93 543.2 666.79 549.58C673.87 555.16 677.1 570.47 685 592C689.36 604.27 686.5 612.782 699.08 616.59C708 619.29 705.53 599.2 699.08 595C668.5 579.5 623.53 695.65 591.68 726.02C592.86 720.78 558.15 677.72 549.64 669.3C542.29 671.54 519.941 716.43 521.951 716.72C524.101 723.02 535.221 730.6 534.161 738.45C534.021 740.15 524.461 749.56 520.731 754.14C517.531 758.2 515.99 765.1 516.79 772.75C520.99 795.71 521 828.99 519.47 857.69C510.05 981.56 511.53 1113.57 530.09 1239.36C535.644 1277 511.84 1366.7 503.42 1415.46C500.48 1436.25 487.43 1506.51 514.54 1512.08C514.28 1513.52 515.841 1515.06 516.281 1515.76C516.561 1516.2 516.54 1519.2 518.04 1520.84M671 465.5C690 467.56 709.6 442.15 721.32 429.43C727.23 415.45 719.92 374.18 700.65 383.47M671 465.5C680 453.06 709.77 419.63 700.97 411.52C694.55 407.02 684.31 400.31 677.8 405.9L672.18 409.62C670.4 414.34 673.001 426.19 673.901 428.75C676.761 428.79 678.84 427.27 681.42 422.95C691.84 409 706.96 357.07 701.05 345.02C715.5 319.74 714.5 280.06 702.19 281.38L703.5 313.92C697.67 311.28 693.67 276.17 691.52 273.22L691.48 284.66L693 302C681.81 296.22 672.02 255.35 662.55 240.2C663.91 240.29 651.28 238.72 652.79 238.5C641.13 224.22 626.5 208.52 608.39 207.67C598.58 202.01 584 179.99 579.13 171.63C580.47 181.151 586.33 194.28 594.76 205.71L574.87 201.43M425.79 328.28C420.99 310.36 424.72 271.49 430.69 250.39C436.66 229.29 458.76 209.42 476.03 191.66M453.38 198.33C460.02 182.42 503.76 170.44 505.9 171.62L484.67 159.25C492.8 157.23 519.37 150.12 526.93 152.55M523.83 132.54C523.25 133.35 551.79 152.01 552.18 153.81M549.2 129C559.37 128.92 565.03 141.5 567.93 150.85M582 157.39C579.59 150.63 582.68 135.09 576.2 129.34C584.57 133.51 596.11 144.06 601.53 154.31M610.47 140.92C610.41 143.37 609.27 148.44 607.69 154.31M642.08 152.04C637.28 154.27 629.05 162.05 627.17 168.11M642.52 171.63L650.5 173.41L643.46 179.99C647.46 179.14 651.4 176.92 654.81 180.97C656.56 183.98 685.3 225.03 690.76 236.07M667.89 183.32C669.89 182.86 676.73 188.48 681.1 193.44C697.3 211.32 715.42 248.39 717.72 268.65C719.292 282.5 712.327 295.41 711.647 302M543.28 202.77C533.82 197.9 524.61 186.65 521.47 175.76C521.79 175.36 531.49 186.1 536.96 190.45C541.84 194.27 552.41 200.31 555.29 201.43M540.6 168.29C545.29 172.19 560.65 188.75 564.81 195.36M666.58 251.01C665.06 261.65 672.18 278.227 676.68 284.175C677.25 310.065 692.49 334.33 695.03 343.85L691.16 340.95C690.35 347.31 689.29 389.38 687.22 404.7M457.66 322.44C462.59 316.09 490.17 306.54 502.36 312.26C504.181 312.9 510.92 318.43 512.5 322.52M487.371 312.68C485.011 315.94 485.801 321.4 487.871 324.65M498.16 317.2L498.62 316.78C500.74 317.46 500.15 324.48 498.16 325.79M481.53 314.42L481.17 314.3L482.07 326.37C482.04 326.43 490.22 326.39 494.7 325.79M531.51 299.71C535.95 307.5 535.78 315.9 535.95 325.64C535.5 337 526.27 360.71 524.35 364.32C523 366.858 522.67 372.1 523.5 376C524.168 379.14 530 384.5 531.51 387.29M496.12 438.05L501.7 436.51C503.8 435.51 531.87 425.91 533.5 427C534.23 428.93 540.7 428.5 542.88 428.01C543.69 428.04 555.07 433.02 558.37 435.19C561.5 436.67 576.39 442.93 577.24 443.13L577.53 441.97L578.29 441.95M507.62 436.29C514.88 437.06 534.771 439.69 540.7 439.69C545.57 440.36 558.74 440.64 563.15 440.05M579.13 325.02C587.1 318.36 595.85 316.81 603.96 317.32C612 319.5 625.36 327.38 628.02 329.14C632.5 331.5 634.3 331.62 635.44 332.3M594.401 319.74C593.891 319.78 596.781 331.63 596.781 331.63L597.74 332.82L611.45 334.5M614.93 323.92C616.91 325.08 615.07 331.47 614.19 334.86M521.69 1408.94C569.58 1215.86 677.8 1028.28 761.41 841.09C775.86 802.93 793.67 754.63 787.25 713.64C777.43 708.35 771.71 722.42 768.08 729.91C752.16 769.57 728.86 802.11 731.32 823.97C761.41 815 780.961 732.52 787.111 704C787.111 704 787.56 696.49 786.49 685.1C785.47 677.04 782.05 663.01 779.11 655.43C776.09 647.83 769.87 637.2 765.56 631.8C756.64 621.63 736.5 614.03 722.5 622C728.54 642.14 781.63 657.26 800 663.11C819.19 668.02 859 677.176 876.45 689.82C890.5 700 937.19 735.55 948.04 747.37C967.92 789.47 978.97 866.84 989.78 916.04C1003.06 981.74 1010.1 1101.81 1038.78 1161.17C1045.7 1175.5 1045.52 1188.2 1042.62 1202.55C1031.41 1249.92 995.93 1307.42 968.05 1362.84C954.27 1392.79 912.2 1494.34 903 1524M498.8 1517.33C480.91 1518.62 472.72 1512.35 460.42 1499.84C429.68 1463.85 396.83 1401.26 371.2 1357.32C349.96 1313.45 307.38 1238.03 291.63 1193.19C285.93 1170.68 285.67 1162.19 297.57 1170.82C324 1189.99 407.69 1436.37 429.91 1478.51L412.5 1471.87C419.62 1480.11 424.56 1491.35 416.46 1498.1C401.98 1502.21 358.59 1494.44 339.23 1486.74C327 1481.88 304.79 1467.43 299.49 1464.87C302.47 1464.37 304.01 1462.75 304.73 1458.11C313.37 1406.07 304.21 1346.08 284.44 1293.46C257.75 1221.86 269.06 1147.82 271.55 1074.34C271.05 1057.05 270.76 1043.46 254.04 1031.3C250.74 1029.4 249.02 1027.98 247.18 1025.32C227.6 996.7 214.08 950.48 210.56 914.39C209.84 907.19 207.74 878.15 205.8 872.91C200.165 857.69 194.42 854.75 184.29 855.26C185.19 972.76 194.68 1112.04 207.22 1226.02C215.33 1285.12 228.96 1361.57 254.04 1410.68C263.14 1428.5 278.38 1488.69 289.01 1507.16C290.19 1509.74 293.5 1516 296 1522M634.85 294C631.03 291.87 623 289.5 616 288.54C605.369 287.083 586.97 287.25 565.5 289.5L566.57 284.24C566.61 283.63 570.07 282.5 575.5 282.5C582.72 282.12 604.24 282.14 613.93 284.64C619 285.948 620.5 286.92 624.32 288.54C629.5 290.737 638.68 295.79 641.16 297.31L643.82 299.71M486 278.227C490 277.5 502.86 277.98 518.59 280.06L522.97 286.66C513.46 283.4 489.11 276.88 481.17 278.5C475.79 277.69 460.47 286.32 459.4 287.5C463.97 284.73 478.086 281.798 485.316 280.558M515.21 284.3C505.12 281.75 485.67 279.848 472.5 280.558M497.26 313.92L495.84 314.06L494.58 319.76L494.26 316.42M606.411 328.66L605.27 324.64L608.151 322.7L608.831 328L603.79 327.86C601.25 322.68 610.55 320.6 611.43 321.1C611.87 321.34 612.71 322.14 613.97 323.46M850.32 1518.5C847.5 1511 849.98 1498.76 850.32 1489.31C859.79 1408.57 926.319 1247.82 936.309 1169.37C936.109 1161.05 930.01 1155.56 923.51 1153.88C920.23 1153.32 913.1 1158.5 910 1162.36C892.32 1184.43 861.76 1286.09 854.38 1304.92C821.3 1271.67 827.349 1165.5 827.349 1117.4C825.789 1040.55 839.1 961.86 879.93 897.18C887.1 887.29 896.93 865.66 903.1 864.57C930.51 910.53 859.5 1068.5 817.98 1066.43C763.5 970.5 1023.79 925.3 1023.79 925.3H1023.73C1103.47 921.09 1178.82 1004.05 1230.47 1027.14C1274.3 1048.66 1391.35 1095.87 1416.64 1084.53C1441.99 1073.16 1429.25 942.4 1405.08 893.05C1402.4 889.35 1397.28 887.17 1394.38 888.55C1393.41 889.07 1380.65 906.19 1380.46 906.53C1386.27 979.3 1450.54 1116.18 1491.04 1183.98" stroke="#E72F1E" stroke-width="12" stroke-linecap="round" stroke-linejoin="round"/>
</g>
<defs>
<clipPath id="clip0_951_185">
<rect width="1080" height="1512" fill="white"/>
</clipPath>
</defs>
</svg>
