<svg width="1080" height="1512" viewBox="0 0 1080 1512" fill="none" xmlns="http://www.w3.org/2000/svg">
<g clip-path="url(#clip0_951_187)">
<rect width="1080" height="1512" fill="white"/>
<path d="M375.35 336.899L375.47 336.639C384.87 362.589 388.56 404.209 394.3 422.379C401.94 434.489 418.54 464.5 432.94 473.179C418.54 471.5 408.48 465.039 408.12 465.499C412.41 479.329 420.05 526.11 417.88 536.53L418.54 536.229M640.26 331.459C647.76 347.289 650 353.309 649.62 356.049C649.52 356.629 630.57 387.079 630.41 387.439C629.59 392.929 628.37 399.459 626.17 405.029C622.14 412.919 616.44 411.1 611.76 406.09C605.74 393.11 634.75 375.659 636.41 369.569C633.66 361.279 630.77 349.749 620.66 344.669C617.07 356.529 606.11 398.07 603.37 415.77C601.541 427.584 571.48 472.08 567.79 479.22C563 483 558.12 485.539 548.24 491.559C532.11 499.159 505.63 506.399 493.26 504.489C485.95 501.429 463.66 494.509 447.36 483.439C444.5 504.489 493.02 524.129 489.88 541.599C488.8 542.899 480.24 552.419 479.68 554.949C479.38 556.669 488.36 569.639 490.22 573.899C493.64 582.059 495.3 594.109 495.26 594.669C498.5 607.5 505.92 624.019 513.17 639.089C530.36 666.239 505.3 711.589 506.35 734.409C505.51 759.389 515.23 773.339 516.3 799.339C516.33 811.549 517.63 818.819 512.42 823.609L519.94 877.089C525.37 896.119 545.54 968.269 545.87 988.199C549.24 1018.43 536.81 1065.81 538.85 1087.9C548.7 1119.04 563.62 1144.4 570.11 1186.8C578.58 1239.28 574.71 1273.52 584.49 1299.37C583.31 1282.82 528.79 1302.36 509.6 1302.19C507.29 1301.49 456.26 1305.38 438.53 1307.75C454.73 1302.05 464.06 1277.38 471.92 1259.15C480.99 1235.27 473.66 1212.46 473.76 1183.06C475.36 1163.94 474.6 1156.93 470.6 1137C466.42 1111.62 470.19 1073.81 462.9 1054.72C461.24 1048.08 459.1 1015.14 455.72 998.739C451.66 979.249 443.67 952.759 441.99 944.739C434.06 875.209 426.6 794.329 425.3 724.039C424.31 710.439 416.38 699.269 413.04 685.159C409.45 663.329 425.23 644.729 435.55 621.949C437.65 617.629 440.85 612.889 442.61 611.959C444.99 610.799 471.5 623.139 478.81 629.989C481.87 632.629 495.36 648.909 502.76 647.919C496.6 643.709 485.55 624.089 480.95 614.309C464.73 591.999 420.89 570.389 410.28 551.699M368.68 330.029C359 321 357.2 313.03 352.15 313.65C349.41 326.37 346.51 360.66 360.63 371.92C361.91 373.3 372.06 383.28 372.8 385.19C374.49 392.89 370.31 402.65 380.72 403.62C394.76 394.31 376.77 352.08 365.01 347.96L364.23 357.6M368.68 330.029C381.83 332.389 393.82 324.22 408.12 306.959C417.82 288.72 424.24 262.69 422.31 256.02M368.68 330.029C376.6 329.499 382.98 318.279 386.91 308.359C391.92 292.899 393.81 274.689 390.01 259.119M489.04 178.99C487.56 174.97 487.28 165.979 488.28 162.239C491.62 154.469 493.084 148.81 499.86 139.5C511.31 123.771 555.17 112.87 576.08 122.32C589.92 127.69 598.71 141.89 606.17 154.23M523.45 135.129C537.8 125.829 548.78 137.399 577.83 143.739C597.18 148.859 615.56 162.899 617.77 184.339C643.48 229.699 663.99 237.409 652.31 295.299M615.39 172.43C614.53 191.75 611.7 204.25 604.35 223.73C599.18 248.26 606.04 290.249 630.41 307.649C639.15 315.549 645.16 320.39 654.77 323.73M656.35 280.279C656.85 297.639 693.57 312.969 667.03 326.399M667.03 326.399C665.83 316.969 654.1 304.309 645.22 305.909C645.32 307.629 648.88 309.999 650 311.009C657.31 317.719 665.93 328.069 666.45 328.239M667.03 326.399C667.61 334.459 665.1 338.729 660.01 346.289M654.77 335.819C654.46 340.759 651.309 345.74 646.629 345.5M499.86 183.31C511.83 164.48 540.91 153.819 558.11 163.499M507 185.946C507.08 184.446 509.99 181.45 511.73 180.83C521.22 176.77 542.27 189.95 548.55 192.38H547.07M551.82 209.729C551.36 205.689 529.24 191.3 525.13 191.34C517 185 477.779 180.83 471.23 194.079C457.37 184.889 446.3 173.589 428.09 174.789M551.82 209.729L550.3 181.52C552.77 200.48 564.24 228.887 559.49 248.267M551.82 209.729C560.51 233.369 560.461 285.069 573.341 307.649C581.931 323.319 593.511 336.129 612.961 336.099M616.048 325L595.1 295.719C594.8 317.399 622.51 333.759 641.12 327.929M491.564 154.23C492.334 145.89 472.479 122.42 466.789 118.99C462.089 116.41 456.05 115.17 443.581 118.99C431.111 122.809 409.67 141.089 404.05 149.489M404.05 149.489C425.41 140.959 461.971 137.799 482.461 142.489M404.05 149.489C391.1 156.009 369.78 173.009 365.23 181.199M377.13 168.378C375.8 184.168 332.89 247.609 325.39 258.589C320.99 268.699 318.93 303.519 323.25 312.789C325.54 317.259 330 322.149 336.95 322.209C336.31 345.609 334.1 372.069 349.14 389.879C352.46 393.579 365.957 398.58 374.127 399.5M345.35 322.149C344.99 321.429 338.05 311.429 336.69 308.179C332.7 292.299 332.03 277.159 340.71 267.339M477.75 181.889C477.71 181.589 478.21 178.149 476.27 176.529M476.27 176.529C474.07 174.729 463.88 169.249 457.74 167.109C441.63 162.749 417.29 158.769 409.1 177.929M476.27 176.529C475.03 174.789 452.58 155.919 447.76 153.419C444.14 151.619 435.91 149.899 427.89 150.039M375.289 233.369C375.509 236.489 377.31 251.879 377.13 259.559C377.05 272.089 363.59 319.669 348.52 306.959M401.56 236.999C403.13 229.179 409.19 203.989 416.27 198.859C423.17 193.309 453.68 187.14 459.5 191.6M435.95 191.6C430.95 197.67 421.57 206.83 419.32 217.39C417.61 229.21 413.87 253.429 420.48 259.729M526.71 279.569L558.72 273.629M524.95 315.189V314.509C530.81 309.329 549.22 299.989 559.49 304.639C568.75 307.429 569.1 306.639 570.13 308.519M419.08 308.549C421.09 304.589 433.99 302.129 439.01 301.249C449 301.399 465.14 303.199 474.65 310.969M425.481 293.08C433.771 287.59 460.881 289.73 466.461 295.84M436.351 305.889C437.851 301.489 437.701 310.019 438.831 312.089C440.891 317.049 449.911 316.369 454.361 314.609C458.081 307.089 454.641 305.369 453.241 304.889L443.581 311.369L450.821 309.529C450.661 309.159 445.401 310.419 444.161 309.549M546.58 311.609C545.47 319.409 554.37 319.579 560.51 316.089C562 306.809 550.16 310.469 546.58 311.609ZM546.58 311.609L555.14 310.629L548.02 313.009L548.76 316.229C549.67 316.229 549.53 315.699 550.26 314.609M426.31 267.169C427.75 266.489 460.06 272.089 463.63 274.029C468.76 276.709 471 278.99 473.79 279.97M483.62 291.56C490.89 305.05 490.19 329.97 487.18 343.34C486 346.7 484.54 351.24 484.46 351.3C482.42 354.46 485.8 366.44 488.38 370.93M457.98 416.789C458.31 416.699 460.5 419.62 463.71 419.62C464.6 418.93 488.69 416.63 497.1 415.54C511.5 416 527.36 420.419 534.05 419.909C533.93 419.839 534.91 418.65 535.09 418.59M530.08 296.5C537.97 292 554.93 287.79 563.67 291.04M589.4 445.589C590.37 446.549 580.2 501.489 588.26 506.949C583.76 533.659 511.22 602.46 514.49 608.11C515.89 610.29 523.21 612.409 527.44 610.069C531.02 608.029 549.97 589.199 556.17 584.939C564.02 591.959 594.31 635.649 603.79 638.399C608.9 624.209 606.48 556.069 604.89 541.779C603.8 535.609 603.23 528.269 595.44 526.949C604.68 526.989 616.26 530.359 622.44 533.779C636.09 541.319 653.57 548.109 665.12 551.029C672.26 552.789 717.56 557.329 723.37 558.109C730.7 559.279 783.5 565.5 798.919 569.859C805.743 571.788 817.39 579.319 820.37 581.259C833.49 590.159 824.46 594.489 821.35 610.469C812.85 649.309 805.39 715.859 815.61 754.389C817.12 735.869 833.22 670.259 830.75 653.449C828.38 626.469 830.259 620.569 851.919 610.769C862.139 625.949 849.28 687.349 849.1 685.159L850.16 690.129C850.66 693.589 840.94 702.559 838.98 702.819C837.82 693.279 848.22 684.229 853.43 676.749C866.79 663.439 869.45 663.959 878.08 663.459C876.87 691.219 886.17 714.969 895.73 736.589C898.89 744.829 903.93 770.079 905.51 784.709C907.01 801.419 908.37 822.869 908.25 841.449C909.15 876.779 886.09 960.959 879.08 976.449C873.71 992.529 838.5 1035.5 831.98 1041.44C829.5 1043.7 821.94 1048.16 821.2 1048.18C818.65 1027.14 831.94 1002.13 846.09 980.669C878.33 932.749 929.78 897.039 978.47 875.459C1039.42 848.439 1114.11 818.379 1165.77 799.789C1177.6 795.519 1207.63 784.899 1222.63 780.819C1248.37 772.919 1287.38 751.989 1305.95 749.809M385.7 497.329C384.83 487.419 379.9 465.959 379.36 457.569L357.33 462.709C380.89 456.719 377.14 427.519 368.57 409.069C365.72 407.829 359.33 398.434 357.33 394.734M385.13 483.239C394.78 506.059 403.91 516.139 395.41 544.289C395.99 541.489 398.59 535.929 399.75 534.189C400.76 536.159 404.5 547.5 410.28 551.699M410.28 551.699C408.02 554.939 405.92 585.149 406.16 602.299C406.48 615.869 411.32 634.569 410.82 635.249C386.44 630.699 394.27 584.739 391.07 568.879L384.51 556.229C378.63 562.509 359.64 578.499 350.46 584.259C328.46 596.169 275.63 618.099 257.14 634.719C242.08 644.709 232.01 644.879 213.14 651.129C195.35 658.389 186.34 658.389 178.42 667.579C179.84 684.149 209.01 752.619 219.54 790.329C225.97 819.459 254.09 872.819 237.06 895.899L234.6 895.799C223.58 875.569 216.67 835.369 207.19 820.069C197.42 797.679 165.96 751.229 161.25 729.969L169.19 727.069C178.85 739.499 157.49 762.539 155.46 780.029C147.13 827.119 172.41 835.289 172.61 878.709C172.49 886.709 162.45 925.329 157.88 942.139C148.04 977.609 140.84 1069 138.71 1081.9C138.45 1083 118.44 1121.8 116.22 1128.56C116.08 1129 111.2 1146.21 109.08 1151.53C106.26 1157.9 104.98 1158.05 105.4 1164.82C104.02 1167.81 130.09 1186.82 135.49 1187.47C138.76 1156.99 163.16 1136.83 193.68 1136.13C217.29 1135.13 252.15 1164.46 261.55 1176.73C255.95 1176.87 241.66 1177.91 236.1 1177.83C223.55 1178.61 184.29 1170.7 171.67 1178.23L180.37 1181.03C179.27 1182.97 170.73 1194.22 166.41 1199.44C160.87 1206.06 151.66 1214.75 150.62 1215.71C137.87 1228.22 148.27 1229.08 129.25 1237.18C127.33 1236.22 122.55 1225.73 122.59 1221.41C123.88 1210.21 139.91 1201.81 150.18 1205.72L150.72 1207.88L142.24 1212.18C143.32 1214.16 144.2 1218.02 144.14 1221.07C143.06 1257.81 151.31 1299.18 158.67 1328.98C167.62 1342.8 181.86 1360.93 194.15 1380.16C214.43 1409.78 240.49 1488.61 252.52 1507.5L261 1532M640.75 378.819C637.18 405.729 617.19 445.629 634.25 467.719C635.17 468.339 642.89 473.079 643.55 474.119C637.47 474.419 625.58 469.839 619.4 466.239C624.58 476.459 633.5 485.779 642.91 484.429C642.57 483.449 625.9 478.229 625.12 478.089C623.3 477.889 620.9 481.249 620.9 486.089C622.39 499.339 627.54 525.829 638.21 529.709M364.39 1516.9C364.73 1515.28 372.43 1498.05 373.13 1496.93C373.97 1495.61 376.29 1492.55 375.51 1491.69L364.63 1496.69C362.66 1495.31 361.6 1494.4 361.77 1491.07C362.39 1472.93 387.79 1445.76 394.39 1434.03C395.11 1432.41 399.75 1404.88 406.69 1389.23C423.27 1354.38 425.72 1318.4 443.15 1283.66C448.63 1272.06 451.63 1264.77 451.03 1259.41C449.24 1244.68 454.83 1221.35 457.19 1207.33C458.41 1202.49 465.31 1193.06 465.35 1190.92C466.62 1192.64 473.84 1196.06 475.46 1196.8C487.22 1203.55 523.01 1250.17 541.85 1242.48C544.63 1234.41 523.29 1208.47 519.14 1202.92C500.31 1178.38 451.86 1128.92 438.4 1100.08L442.85 1095.4L447.21 1091.04C448.05 1089.46 446.29 1080.92 442.69 1068.51C437.4 1052.92 415.19 962.349 399.27 934.449C388.67 915.689 293.23 760.069 314.07 750.829C313.63 741.749 303.52 730.879 301.72 726.499C300.56 723.979 300.46 719.239 301.58 716.759C303.08 713.719 336.83 688.399 349.02 679.339C337.49 658.279 334.81 659.629 316.81 649.369C305.67 640.329 326.45 611.289 325.05 606.949C298.33 613.889 287 655.929 282.87 681.819C276.35 699.189 269.25 766.639 261.14 812.299C252.86 865.309 264.14 930.449 273.69 979.429M603.85 1544.59L601.81 1544.21C603.58 1504.56 590.23 1397.8 589.76 1362.27C564.73 1365.38 552.61 1359.34 527.67 1348.63C516.84 1346.42 533.52 1328.74 538.2 1323.54C540.72 1320.7 542.1 1319.86 544.8 1319.86C549.62 1319.86 565.11 1316.84 568.29 1315.92C573.37 1314.42 589.42 1307.78 593.08 1306.6C623.07 1299.87 620.37 1304.55 643.19 1286.72C634.74 1231.95 607.66 1118.47 603.43 1054.78C597.25 937.159 598.62 850.019 603.59 765.789C604.47 752.799 607.43 723.429 609.05 707.339C613.24 668.659 633.57 610.689 639.4 585.369C644.67 574.689 652.77 570.869 658.69 564.419C675.77 576.099 705.5 604.239 713.93 625.869C716.48 631.529 720.78 637.719 715.45 643.379C699.1 662.129 673.13 700.489 672.93 703.809C685.03 706.739 709.94 684.479 710.25 705.849C695.12 770.039 636.63 960.319 634.48 1044.62C634.11 1093.76 635.14 1143.7 645.42 1187.22C655.7 1230.74 670.88 1315.24 682.06 1364.99C697.76 1421.62 704.26 1448.83 746.05 1491.27C786.5 1530 845.28 1531.92 888.37 1534.17C878.32 1504.89 860.75 1410.45 856.25 1392.43C855.17 1388.87 842 1355 832.76 1343.73C824.5 1335 820 1333.5 813.09 1336.61C799.67 1356.83 831.56 1440.84 848.89 1458C842.17 1378.89 823.49 1266.43 813.72 1190.36C803.04 1138.59 800.82 1001.63 800.39 979.049C806.15 904.789 805.01 848.559 836.19 795.489C839.99 795.549 837.47 802.979 839.23 806.159C849.46 833.819 842.69 839.599 833.63 874.989C820.38 921.869 781.68 1045.64 781.97 1073.42C785.71 1073.16 786.61 1070.44 786.67 1064.66C788.93 1065.14 812.56 1087.09 825.33 1097.39C855.78 1120.49 914.02 1148.52 927.35 1183.51C922.85 1183.43 914.85 1182.91 906.58 1178.39C896.03 1172.3 834.54 1148.61 822.48 1148.46C844.61 1164.37 866.62 1188.45 889.13 1199.62C908.98 1211.43 921.44 1238.29 926.33 1252.2C929.776 1262 936.5 1283 921.25 1265.27C937.82 1306.46 947.5 1364.64 943.6 1403.97C941.34 1421.09 918.5 1465.63 912.37 1473.24C908.37 1471.19 905.082 1466.5 899.42 1461.68C889.72 1453.42 880.63 1446.23 880.63 1443.91C880.83 1439.35 895.48 1411.64 901.92 1399.39C916.99 1365.15 933.35 1331.27 950.18 1300.81C956.14 1289.24 957.58 1264.15 956.79 1253.83C954.85 1247.75 945.586 1233 945.38 1222.34C945.28 1217.16 944 1207.21 943.98 1199.03C944.06 1192.61 946.76 1185.56 951.44 1176.72C957.62 1165.28 966.33 1139.52 966.45 1139.56C956.78 1119.41 941.01 1054.51 936.28 1032.03M936.28 1032.03C935.17 1014.71 934.02 994.529 932.68 972.739C932.65 966.659 931 957.5 925.15 954.509C920.67 962.049 911.28 992.089 911.24 997.209C911.32 1001.93 916.08 1007.15 923.79 1015.84C926.03 1018.38 928.19 1021.26 931.45 1025.9L936.28 1032.03ZM-30 725.879C-5.53 735.379 13.97 741.909 41.24 759.309C78 782.779 95.17 800.359 120.18 828.959C163.73 878.769 206.85 980.049 270.89 996.329C271.49 994.409 274.43 983.309 273.69 979.429M273.69 979.429C270.03 965.189 259.94 949.329 249.82 939.819C245.96 936.519 237.81 931.939 234.45 930.819C222.18 928.599 203.51 925.789 197.01 933.059C202.64 970.929 274.89 1013.49 275.37 1056.11C250.67 1079.03 274.76 1083.19 277.63 1108.53C278.92 1121.94 263.03 1152.8 259.16 1162.07L266.16 1161.07C287.64 1200.93 260.42 1205.8 275.18 1241.59C277.1 1245.51 286.73 1261.62 289.11 1266.38C294.91 1277.99 296.99 1288.65 297.85 1290.85C299.2 1311.66 302.27 1383.8 284.12 1417.89C290.16 1414.66 303.02 1392.55 305.59 1386.8C309.33 1373.21 316.05 1348.56 319.94 1334.76C323.54 1320.67 326.06 1293.8 325.06 1289.46C324.28 1286.22 317.7 1271.65 316.2 1269.37C314.69 1265.57 305.37 1268.92 303.84 1264.63C296.49 1221.86 319.59 1136.4 312.89 1107.5C312.79 1107.06 298.68 1063 294.34 1053.54C290.06 1044.46 274.89 1028.03 272.89 1023.77C284.41 1023.46 277.49 1001.78 273.69 979.429Z" stroke="#E72F1E" stroke-width="12" stroke-linecap="round" stroke-linejoin="round"/>
</g>
<defs>
<clipPath id="clip0_951_187">
<rect width="1080" height="1512" fill="white"/>
</clipPath>
</defs>
</svg>
