<svg width="1080" height="1512" viewBox="0 0 1080 1512" fill="none" xmlns="http://www.w3.org/2000/svg">
<g clip-path="url(#clip0_951_186)">
<rect width="1080" height="1512" fill="white"/>
<path d="M549.12 459.39C545.43 426.9 541.45 397.88 545.68 365.09C549.44 345.07 553.08 317.97 567.03 303.94C585.51 281.03 620.89 226.16 651.67 220.95C657.26 212.88 701 213.92 711.82 216.61C704.72 206.38 671.22 197.9 662.34 196M569.79 412.15C570.05 418.48 536.72 476.14 539.66 489.22C550.68 495.67 550.34 475.31 558.11 461.05C561.31 454.27 565.49 445.44 566.47 443.4M579.1 424.46C576.42 430.71 564.061 497.36 572.201 504.54M579.88 440.24C580.01 394.36 626.97 308.38 669.9 288.67M594.87 415.79C620.81 369.76 654.88 301.17 703.56 282.95L704.5 284.05M649.67 330.26C662.92 309.22 705.92 310.33 725.62 315.79C721.16 314.3 698.35 294.57 697.31 290.48C717.09 290.85 737.25 297.94 751.91 311.01M751.59 311.69C754.86 305.36 767.45 299.44 774.16 301.43L772.92 301.01M771.28 301.44C765.59 304 772.629 300.43 776.179 303.12C785.359 311.75 808.707 353.61 814.437 372M758.98 314.57L759.3 313.45C767.68 311.14 784.81 329.83 789.41 332.92C790.67 333.94 791.39 341.888 800.82 350.68C823.69 372 834.39 439.84 837.14 466.05M842.27 441.34C846.39 457.72 853.79 476.19 855.54 493.04C862.31 520.51 855.99 626.67 888.63 639.52C876.2 641.71 864.29 626.98 860.38 620.74M726.98 284.21L726.64 283.31C727.94 279.65 746.75 262.32 754.71 258.72C761.35 255.84 776.38 256.88 777.24 257.24L773.34 262.88M759.38 272.31L755.94 274.27C780.18 263 806.65 272.18 828.01 285.64C847.38 301.4 873.47 372.87 878.13 396.97M854.46 295.74C887.12 323.99 902.409 346.88 900.519 391.7C903.319 417.4 900.74 455.23 895.92 489.44C894.69 512.92 889.47 541.84 896.84 559.51M882.469 454.89L883.009 453.03C878.869 492.91 864.42 577.45 886.63 611.96M861.856 566.5C860.286 567.16 849.61 578 845.55 578.38M839.39 457.35C840.33 480.8 852.07 510.73 869.64 525.94M713.84 211.18C723.42 202.8 738.647 205.994 750.64 207.9C771.28 211.18 786.93 213.78 805.34 224.29C807.12 225.81 835.11 240.36 841.8 246.04C868.25 271.26 877.067 294.734 889.86 326.86C893.5 336 895.007 348 895.007 348M601.05 257.28C620.16 231.77 676.18 215.59 707.16 225.21L708.14 227.17C707.46 228.93 693.39 235.13 689.75 237.31C685.03 240.43 663.7 254.8 661.16 260.32C675.17 257.64 704.62 246.1 718.47 254.44C710.74 261.53 691.25 265.33 683.84 268.99M671.62 275.91C691.97 271 708.67 271.1 721.36 285.87L720.98 287.39M638.41 226.005C623.32 225.435 587.77 253.98 584.76 261.07M638.41 206.9L638.45 206.56C638.7 205.04 671.76 206.68 678.95 217.8C677.23 216.16 671.44 207.83 668.83 205.81M577.099 439.9C570.889 473.72 569.13 564.11 583.84 602.85C597.84 634.33 622.41 663.16 654.31 683.2M778.57 671.91C766.87 679.32 745.71 697.458 726.18 699.14C712.71 700.3 680.39 697.73 669 691.5C657.73 712.34 669.74 730.95 680.85 753.43C704.92 795.58 674.8 795.84 648.51 816.52C622.77 839.42 631.4 850.29 641.23 876.35L638.91 890.84C623.69 848.92 593.01 795.72 560.01 760.62L564.87 747.46C571.17 729.76 582.949 687.69 584.669 672C585.714 662.469 592.5 641.5 583.86 633.53L579.34 631.51C576.02 633.89 572 641 572.25 647.72M778.57 671.91C796.54 655.07 816.73 626.63 827.45 599.9M778.57 671.91C777.72 696.14 740.07 747.71 728.19 760.4C748.18 764.35 767.42 722.99 769.87 719.98C749.14 776.67 674.06 896.44 668.81 965.25C662.98 975.56 644.8 941.87 633.77 929.56C622.72 914.65 616.68 905.13 602.38 881.68C590.79 865.4 589.79 840.66 582.57 825.62C577.62 811.4 568.39 803.96 568 796.89C578.74 816.44 594.63 874.7 602.92 895.03C619 930.15 657.67 1008.67 683.84 1051.96C687.2 1056.98 731.13 1119.51 737.83 1130.27C757.65 1163.39 820.66 1239.33 840.67 1263.89C849.35 1275.62 860 1296 857.15 1312C848 1314 841.62 1308.53 837.97 1304.81C824.52 1290.68 810.62 1277.68 797.67 1268.27M831.89 597.59C832.89 593.61 847.26 545.15 850.04 534.42M661.86 610.02C662.09 608.75 662.43 608.26 663.42 607.8L665.1 608.28L665.4 610.92C669.19 610.86 680.22 610.68 684.17 610.72C686.03 611.92 708.66 617.72 717.7 616.78L719.44 616.22L742.77 619.22L745.71 620.82L747.87 618.52L747.15 617.8M543.28 493.27L542.96 491.99C540.7 504.2 537.6 522.98 544.78 532.61C550.44 534.41 563.49 533.19 566.29 525.23M586 671.91L576.17 655.44L572.25 647.72M572.25 647.72C556.41 672.87 516.36 738.66 482.27 749.66C481.11 741.86 524.88 674.25 530.21 659.32C539.22 628.94 549.6 569.24 537.27 539.43C518.65 610.78 499.61 698.11 444.09 752.72L453.6 737.44C432.77 746.53 401.13 768.02 383.87 775.48C357.06 788.71 321 791.5 304.63 806.11L296.73 814.51C296.73 818.63 301.31 819.07 309.66 820.39C349.43 826.66 384.18 819.1 423.47 809.47C441.16 805.97 471.07 802 481.9 801.02C503.73 798.33 537.39 806.49 545.87 798.56C537.75 770.79 466.752 813.256 447.57 818.63C412.16 828.55 316.11 847.48 284.87 854.65C282.27 855.03 280.23 854.61 275.99 852.99L266.28 855.27C261.74 855.78 259.71 859.21 254.61 859.17C251.59 858.87 248.63 859.81 245.41 862.29C201 906 210.06 965.38 200.09 1013.12C186.114 1080.04 167.45 1205.29 141.95 1267.52C126.92 1305.68 148.05 1289.16 164.96 1318.16C178.67 1344.23 163.55 1360.01 143.45 1375.45C141.17 1376.51 124.2 1374.07 122.66 1372.23C128.9 1353.77 145.61 1332.32 158.9 1319.85C174.06 1307.02 214.139 1287.24 228.889 1281.51C229.869 1281.61 232.5 1283.5 240 1283.5C250 1283.5 265 1281.15 266.68 1291.51C263.3 1305.39 216.74 1351.76 206.22 1369.79C183.24 1403.03 170.86 1423.09 146.82 1463.39C135.719 1482 108.08 1517.81 117.96 1527.72M797.67 1268.27C756.16 1239.05 685.02 1206.22 640.82 1184.79C627.11 1178.33 612.61 1168.56 589.58 1152.24C573.38 1141.98 559.26 1137.11 544.8 1133.49C611.97 1195.56 714.76 1253.22 797.67 1268.27ZM822.691 1289.54C821.491 1289.48 818.27 1290.62 816.95 1290.7C778.03 1284.42 747.92 1286.66 687.31 1277.82C644.44 1272.71 616.34 1266.54 577.2 1274.9C550.39 1279.11 540.84 1281.6 526.42 1294.13C517.86 1274.62 494.31 1145.46 466.95 1128.88C453.64 1154.21 491.18 1281.59 507.03 1306.42M504.611 1302.18C502.931 1302.2 499.25 1301 498.87 1301.04C495.59 1301 457.54 1322.4 441.68 1329.29C437.43 1297.62 397.38 1235.72 388.62 1203.55C386.36 1214.97 380.9 1217.44 383.8 1233.86C387.28 1240.04 402.611 1293.56 410.151 1308.37C416.821 1317.64 431.54 1328.49 432.26 1336.66M430.294 1360C432.234 1359.82 450.37 1348.05 457.51 1345.01C469.74 1339.83 498.19 1332.8 512.77 1329.18C548.17 1320.16 597.51 1308.21 630.9 1304.97C685.94 1298.11 722.82 1321.94 771.56 1337.6C801.78 1344.1 828.82 1343.66 850.27 1362.35C850.47 1364.03 851.11 1363.85 852.35 1361.21C854.79 1355.89 855.79 1352.31 856.01 1350.41C855.9 1360.38 857.57 1413.4 866.35 1418.16C867.17 1416.92 879.02 1411.04 882.2 1410.24C893.37 1407.51 930.37 1406.44 933.54 1393.01C922.29 1388.88 925.89 1371.42 923.76 1362C922.64 1357.08 917.78 1350.95 915.38 1351.55C915.14 1351.63 903.27 1357.53 901.95 1359.25C905.69 1365.51 920.02 1373.42 921.12 1373.04C920.14 1372.75 886.03 1301.8 886 1299.48C912.02 1307.83 925.43 1330.83 929.52 1352.71L928.36 1353.85C931.66 1329.82 942.51 1323.3 958.13 1292.26C972.5 1258.9 1014.47 1182.89 1032.88 1145.7C1037.5 1164 1038.69 1159.68 1048.93 1158.64M1028.26 1137.97C1029.66 1132.45 1054.93 1107.47 1056.73 1095.03C1037.19 1065.24 1020.83 993.21 1012.13 962.15C1003.66 934.9 1019.07 926.96 1037.44 939.3C1036.08 939.36 1032.28 939.22 1031.82 939.3C1031.5 940 1025.16 1026.35 1024.02 1057C1024.28 1078.15 1023.12 1097.75 1029.4 1101.22C1018.28 1035.34 991.07 929.44 964.07 858.63C953.21 827.46 931.83 783.643 918.13 764.29C892.71 728.38 872.14 648.58 852.56 626.15C859.5 625.5 856.81 618.67 853.7 605.12L844.28 605.94C841.82 612.9 846.879 630.39 854.459 652.06C879.919 727.05 903.64 812.12 931.83 884.2C960.44 962.15 993.309 1032.34 985.429 1107.3L989.22 1085.95L945.8 1017.96C951.55 1036.98 970.65 1090.33 967.29 1112.58C955 1109.6 937.57 1034.75 922.03 1015.32C923.57 1040.21 946.28 1097.86 909.54 1108.64C904.53 1110.08 902.42 1108.05 901.6 1105.93C901.12 1104.63 894.409 1097.87 890.14 1076.32C877.84 1014.25 859.13 921.95 852.74 891.72C842.8 848.06 836.46 832.73 818.12 802.2C816.18 799.4 813.08 796.94 810.18 796.1C806.08 795.61 799.73 795.96 799.74 801.28C799.94 806.8 831.11 906.27 832.78 912.01C834.96 919.57 838.02 934.36 838.08 935.06C838.33 945.3 780.7 988.26 773.37 999.77C764.27 1011.89 758.51 1026.93 765.13 1039.87C772.42 1048.64 797.24 1036.6 815.93 1038.11C825.01 1038.68 832.95 1036.34 839 1032.65C851.91 1027.63 842.79 1078.2 843.2 1091.68C842.19 1140.96 830.74 1254.21 857.15 1275.54L860.13 1274.38C863.16 1262.87 860.34 1231.64 864.39 1221.44C875.77 1187.48 894.421 1151.32 918.691 1131.86C926.161 1127.14 929.75 1127.52 937.3 1131.52C940.3 1134.3 943.12 1147.21 943.42 1153.19C947.27 1192.24 902.417 1276.25 897.987 1304.81M909.925 1268.27C871.5 1284.5 824.5 1395.48 809.8 1419.1C798.71 1436.92 798.738 1441.48 798.59 1453C798.5 1460 798.41 1481.84 798.59 1483C799.79 1490.68 798.61 1499.55 798.59 1500.51C808.08 1490.74 853.49 1490.71 862.66 1484.44L863.36 1481.44C852.78 1466.81 849.07 1459.89 841.59 1439.84C835.73 1425.51 830.09 1393.05 818.12 1393.52C785.26 1377.81 696.17 1341.04 659.06 1350.53C658.6 1350.71 666.621 1358.21 669.621 1363.05C679.241 1379.97 707.92 1471.09 728.31 1494.19C731.77 1497.83 739.531 1501.61 739.911 1500.73C718.161 1471.72 663.921 1387.51 630.441 1369.91C619.821 1365.23 599.21 1365.21 598.77 1364.65C595.05 1357.52 584 1346 574.661 1341.22C564.4 1335.97 556.01 1334.09 546.39 1338.58C519.24 1353.59 470.34 1390.15 449.27 1414.13C440.75 1423.73 422.54 1444.1 416.52 1447.92C414.57 1454.58 412.701 1511.15 417.571 1514.53C459.901 1491.39 468.08 1426.09 457.53 1394.06C441.41 1387.38 430.23 1357.18 415.33 1333.31C400.2 1309.12 397.27 1294.38 378.29 1291.85C390.79 1329.25 389.85 1406.63 370.13 1445.5C355.95 1472.39 339.41 1497.79 317.54 1503.03C311.59 1479.06 347.31 1371.56 335.58 1364.43C301.6 1350.95 258.48 1463.07 244.95 1479.52C236.79 1493.51 210.17 1530.69 197.07 1535.88M428.93 1276.52C401.58 1248.97 402.5 1215 391.04 1179.49C366.784 1104.33 267.5 946.5 280.46 902.04C283.27 892.401 293.41 884.58 294.38 884.06C297.28 882.68 302.4 884.86 305.08 888.56C329.25 937.91 341.99 1068.67 316.64 1080.04C291.35 1091.38 174.3 1044.17 130.47 1022.65C78.8197 999.56 3.47041 916.6 -76.2696 920.81H-76.21C-76.21 920.81 -317.51 929.69 -282.02 1061.94C-232.04 1051.73 -169.49 906.04 -196.9 860.08L-197.64 866.24M1088.94 1268.41C1083.76 1264.76 1048.08 1245.31 1036.42 1234.76C1038.98 1233.48 1041.6 1228.04 1043.04 1224.5C1045.72 1218 1050.7 1210.23 1055.17 1205.75C1065.09 1196.01 1083.24 1177.98 1084.64 1176.48M1089.16 1250.54C1076.02 1287.57 1039.63 1325.28 1018.73 1358.99C1005.76 1390.71 1016.74 1422.56 1027.11 1455.83V1453.77L1029.07 1455.03L1030.57 1457.21C1031.67 1458.35 999.83 1445.75 976.59 1438.84L978.55 1439.88C988.01 1421.87 992.6 1389.36 992.66 1387.16M994.96 1391.76C995.23 1394.06 983.66 1409.72 976.57 1422.53C970 1436.39 954.41 1457.63 954.3 1472.03L957.18 1472.15C954.78 1477.14 937.46 1474.7 930.33 1466.75C927.53 1463.33 924.41 1451.38 924.27 1447.56C925.73 1413.67 937.07 1367.86 956.92 1347.74M955.92 1348.12C953.24 1334.9 960.7 1294.77 965.1 1276.93M984.62 1240.16C984.56 1239.8 984.82 1239.3 985.08 1238.1C991.34 1235.16 1004.35 1231.58 1009.77 1228.56C1012.17 1227.18 1027.38 1208.65 1044.21 1191.82C1059.04 1177.05 1072.68 1151.02 1082.53 1132.19M1083.88 1044.29L1067.77 1058.72L1074.21 1061.02M1030.66 1453.09H1029.1C1048.97 1468.76 1059.3 1498.96 1071.84 1521.84M879.5 638.378C880.12 662.198 933.29 730.81 944.92 751.92C962.6 772.99 983.46 807.55 1004.3 811.39C1011.28 806 1009.07 793.41 1007.78 784.62C1001.19 757.52 975.61 738.6 949.15 730.6C951.57 734.14 959.63 740.42 964.74 741.1C976.54 741.43 998.17 728.01 1010.56 723.27C1024.59 719.17 1055.08 720.055 1070 725.85C1094.47 735.35 1113.97 741.88 1141.24 759.28C1178 782.75 1195.17 800.329 1220.18 828.929C1263.73 878.739 1306.85 980.02 1370.89 996.3C1371.49 994.38 1374.37 982.21 1373.63 978.33C1369.97 964.09 1359.94 949.3 1349.82 939.79C1345.96 936.49 1337.81 931.91 1334.45 930.79C1322.18 928.57 1303.51 925.76 1297.01 933.03C1302.64 970.9 1374.89 1013.46 1375.37 1056.08C1350.67 1079 1374.76 1083.16 1377.63 1108.5C1378.92 1121.91 1363.03 1152.77 1359.16 1162.04L1366.16 1161.04C1387.64 1200.9 1360.42 1205.77 1375.18 1241.56C1377.1 1245.48 1386.73 1261.59 1389.11 1266.35C1394.91 1277.96 1396.99 1288.62 1397.85 1290.82C1399.2 1311.63 1402.27 1383.77 1384.12 1417.86V1414.62L1385.88 1413.12C1391.92 1409.89 1403.02 1392.52 1405.59 1386.77C1409.33 1373.18 1416.05 1348.53 1419.94 1334.73C1423.54 1320.64 1426.06 1293.77 1425.06 1289.43C1424.28 1286.19 1417.7 1271.62 1416.2 1269.34C1414.69 1265.54 1405.37 1268.89 1403.84 1264.6C1396.49 1221.83 1419.59 1136.37 1412.89 1107.47C1412.79 1107.03 1398.68 1062.97 1394.34 1053.51C1390.06 1044.43 1374.89 1028 1372.89 1023.74C1384.41 1023.43 1377.49 1001.75 1373.69 979.399C1364.14 930.419 1352.86 865.28 1361.14 812.27C1369.25 766.61 1376.35 699.16 1382.87 681.79C1387 655.9 1398.33 613.859 1425.05 606.919C1426.45 611.259 1405.67 640.3 1416.81 649.34C1434.81 659.6 1437.49 658.25 1449.02 679.31C1436.83 688.37 1403.08 713.689 1401.58 716.729C1400.46 719.209 1400.56 723.949 1401.72 726.469C1403.52 730.849 1413.63 741.72 1414.07 750.8C1393.23 760.04 1488.67 915.659 1499.27 934.419C1515.19 962.319 1537.4 1052.89 1542.69 1068.48C1546.29 1080.89 1548.05 1089.43 1547.21 1091.01L1542.85 1095.37C1542.42 1099.19 1549.03 1108.97 1549.55 1111.76M687.95 434.7C669.51 427.53 641.28 424.88 620.8 428.96M773.89 445.53C785.26 441.42 813.98 449.45 823.69 454.15M718.9 457.93C719.64 474.16 716.64 501.38 715.14 508.59C712.96 519.67 706.08 532.22 705.26 536.76M705.17 538.13C702.87 543.7 704.539 558.72 707.349 561.82M758.64 493.65C761.02 486.82 777.38 479.36 780.5 479.5H783.49C796.46 479.91 817.98 487.35 826.71 496.05M774 484.74C774 491.28 784.51 499.95 789.35 499.19C794.04 498.16 801.44 488.9 799.63 487.16M684.83 486.46C681.18 475.45 670.05 464.11 662.1 460.39C644.5 458 619.81 465.21 615.63 469.59M666.46 465.55C670.22 471.5 661.26 480.06 654.27 478.46C645.41 475.77 642.98 464.18 644.81 462.19M652.99 462.91L651.91 462.87C647.55 474.14 669.44 473.18 662.01 464.33L656.21 470.03C656.96 470.23 659.88 468.05 661.15 468.17M784.31 488.83L783.49 484.41L782.63 493.23L784.37 494.31C790.89 494.03 791.67 486.67 791.39 485.25L788.49 484.29L785.69 490.37C790.52 494.77 796.54 487.99 796.04 484.83L794.44 483.47C790.73 483.41 788.68 485.45 786.88 489.11M652.11 466.96C650.79 466.16 646.87 471.58 646.67 475.32C646.65 476.22 650.05 482.46 650.17 482.6C655.45 486.37 668.09 481.88 665.7 473.86M649.269 482.32C647.849 485.4 642.94 477.51 648.61 474.06M783.99 489.21L782.23 489.09C781.25 490.03 779.65 495.71 779.65 496.97C780.07 499.87 784.65 502.72 786.23 502.45L785.33 500.19C791.51 505.46 799.9 490.56 795.91 487.38M671.1 429.6C674.65 427.84 684.33 429.77 688.21 430.74M771.18 443.04C771.18 441.17 775.107 441.66 778 442C786.5 443 791.36 444.386 799.5 446.555M654.27 427.537L677.514 428.96" stroke="#E72F1E" stroke-width="12" stroke-linecap="round" stroke-linejoin="round"/>
</g>
<defs>
<clipPath id="clip0_951_186">
<rect width="1080" height="1512" fill="white"/>
</clipPath>
</defs>
</svg>
