<svg width="1080" height="1512" viewBox="0 0 1080 1512" fill="none" xmlns="http://www.w3.org/2000/svg">
<g clip-path="url(#clip0_951_188)">
<rect width="1080" height="1512" fill="white"/>
<path d="M-247.3 688.594L-249.84 693.674C-249.34 697.134 -259.06 706.104 -261.02 706.364C-262.18 696.824 -251.78 687.774 -246.57 680.294C-233.21 666.984 -230.55 667.504 -221.92 667.004C-223.13 694.764 -213.83 718.514 -204.27 740.134C-201.11 748.374 -196.07 773.624 -194.49 788.254C-192.99 804.964 -191.63 826.414 -191.75 844.994C-190.85 880.324 -213.91 964.504 -220.92 979.994C-226.29 996.074 -254.96 1028.94 -268.02 1044.98C-268.64 1045.46 -272.24 1045.3 -273.22 1046.38C-274.6 1047.88 -278.06 1051.7 -278.8 1051.72C-281.35 1030.68 -268.06 1005.67 -253.91 984.214C-221.67 936.294 -170.22 900.584 -121.53 879.004C-60.58 851.984 14.1099 821.924 65.7699 803.334C77.5999 799.064 107.63 788.444 122.63 784.364C148.37 776.464 187.38 755.534 205.95 753.354C198 793.5 86.0396 938.644 93.7696 985.944C107.13 993.324 120.6 964.994 135.93 943.984C146.77 924.964 154.58 914.624 148.26 909.334C138.28 908.264 118.04 919.054 107.8 928.044C51.8796 980.604 13.15 1090.41 -2 1159C-3.01 1166.91 -8 1177.5 -12.4602 1184.89M295.74 280.234C290.73 284.254 256.68 323.554 253.86 330.464C240.68 362.764 236.59 447.284 233.99 491.154C235.27 523.394 252.96 581.714 263.9 598.244C274.84 614.774 312.23 636.254 324.33 640.754C338.73 646.944 370.3 641.854 385.06 639.394C403.08 636.174 455.64 627.274 477.58 617.584C449.64 635.904 412.88 648.254 381.62 658.524C355.96 669.424 333.76 671.404 348.63 692.664C349.25 693.564 362 700.024 363.62 702.664C372.11 720.294 356.49 750.324 354.52 770.474C351.26 809.694 357.64 829 357.64 836.684V875.444C349.18 870.604 328.35 833.544 314.58 818.294C285.32 782.294 289.16 698.354 287.39 654.804C284.83 659.144 281.13 667.814 281.11 672.494C279.45 698.024 240.51 717.854 232.83 735.064C232.77 735.044 236.23 738.324 236.39 738.584C238.49 767.334 222.49 861.034 235.09 894.114C236.33 894.194 237.03 893.754 237.71 891.994C248.48 868.284 254.62 849.534 267.58 833.854C275.79 826.714 285.4 829.164 285.39 839.614C285.17 841.454 281.53 852.344 281.93 854.784C282.49 857.444 287.69 859.984 295.78 863.084C310.36 868.874 325.89 879.364 334.42 895.334M492.26 603.864C492.2 603.504 510.01 577.774 514.53 568.144C522.37 550.954 526.14 544.754 526.46 544.274C526.56 544.094 526.68 543.934 526.78 543.794M526.78 542.854V543.254C527.02 543.254 538.18 537.054 544.63 535.174C548.13 534.154 559.52 531.974 559.8 531.434C560.54 529.634 566.02 523.574 566.74 522.354C567.28 521.474 572.62 511.154 573 509.684C573.5 507.624 575.62 474.384 575.7 473.364C576.12 468.284 578.08 462.664 581.18 455.334C583.5 449.774 585.28 436.004 585.86 432.444C585.16 431.764 582.1 427.824 578.2 427.564C570.12 428.104 560.4 430.254 559.89 437.844M559.43 440.684C557.85 448.424 568.44 463.254 570.49 468.454C572.71 474.174 573.61 484.944 572.29 488.784C570.51 498.004 537.32 523.864 536.39 521.574C536.12 510.754 540.41 472.044 552.48 463.204L552.8 463.524M552.33 465.754V466.214C554.39 466.814 557.25 473.514 556.97 476.454C554.66 482.684 539.26 493.264 532.72 499.604M303.06 271.814C304.32 263.304 314.16 227.494 325.75 223.554C346 224.5 344.18 246.404 351.6 274.194C356.23 299.284 365.67 347.024 360.75 367.834M308.74 270.394L308.26 271.154C316.41 260.214 327.78 240.484 340.95 237.284L340.89 239.644M326.23 261.404L323.57 262.684C325.46 262.784 343.32 254.544 348.72 259.164M231.15 419.874C209.51 390.054 190.04 339.834 198.98 304.444C203.57 289.924 216.8 265.834 231.55 254.224C241.663 246.264 276.74 229.544 288.81 229.154L295.04 228.294C293.16 220.104 307.24 197.564 312.57 192.054C317.78 186.924 325.94 183.044 332.12 182.414C348.72 180.721 376.57 182.604 389.36 188.874M216.96 338.504C218.09 361.174 222.56 392.354 233.35 410.074M225.47 403.774C223.59 418.354 219.07 455.534 229.43 467.064M320.07 200.864C320.65 198.844 324.65 197.244 331.31 195.964C369.96 189.564 403.77 188.874 436.14 195.964C457.96 200.384 468.57 206.774 478.09 209.854C517.06 229.014 559.61 260.274 581.06 300.204L585.86 308.424C596.31 338.504 603.1 360.734 583.14 407.514C578.2 414.894 550.82 450.544 545.55 456.624C549.49 448.314 559.77 417.444 553.47 406.304C552.21 403.584 550.39 402.164 548.63 403.024C552.29 420.554 545.39 440.864 535.5 465.374C540.94 455.714 537.62 398.064 534.82 386.044L534.36 390.064M581.18 361.214V359.654C581.48 372.794 578.81 392.164 574.02 403.374M360.75 246.264C366.83 283.994 379.48 326.994 374.8 357.034M377.31 363.094C376.6 365.694 376.19 367.714 376.37 368.774M485.16 289.784L485.58 289.824C488.97 307.404 484.81 339.684 473.53 356.474L473.81 356.014M470.03 294.524C470.27 317.064 469.48 341.324 457.86 359.514M429.82 268.494C428.72 295.294 422.01 342.054 403.77 356.954M435.5 265.654C435.65 284.104 435.62 342.984 427.88 356.534L427.44 356.014M497.93 364.514L497.73 366.614L500.81 308.424C504.59 312.684 510.84 353.864 507.39 368.314M538.14 377.764C537.98 377.624 542.6 365.434 543.62 360.314C544.24 357.174 545.2 347.664 545.48 347.364C547.86 354.864 549.56 378.954 547.74 386.384L556.64 361.874C557.72 362.644 557.21 386.354 556.86 392.844M574.08 366.414C577 374.834 572.45 389.324 569.94 398.284M387.84 363.254C406.86 353.714 472.07 360.484 484.52 374.114M251.84 373.134C255.67 370.524 274.54 363.204 281.09 363.274C289.03 362.094 299.82 362.834 305.32 363.334C310.87 363.844 319.14 366.384 321.81 366.034M256.68 366.534C257.08 364.774 264.64 359.434 267.7 359.094C281.95 358.444 300.84 358.924 311.14 362.514M421.65 359.034C439.01 356.264 469.71 350.634 479.48 365.694M399.06 405.714C406.88 395.614 434.53 394.174 444.68 396.814C460.61 401.634 469.97 410.684 470.11 410.864M425.79 398.494C425.4 399.954 425.33 405.784 425.95 409.844L442.1 410.744C438.85 407.844 434.99 401.284 436.14 400.444C438.84 402.044 433.52 408.004 432.18 406.724C434.13 403.144 441.86 401.154 442.08 407.844C443.23 407.974 443.67 404.754 443.74 403.284M256.74 414.774C267.27 408.084 305.56 393.044 318.75 412.094M288.17 407.174L289.25 414.894L308.64 413.614L308.34 413.374M298.36 413.154L303.04 408.134L303.48 411.274L295.72 410.374L296.06 409.334M334.83 379.144C341.74 387.874 341.9 411.214 340.03 424.584C336.12 440.944 331.12 452.514 329.25 460.424C327.609 467.365 330.11 475.934 335.09 481.164C337.284 483.468 339.64 488.284 340.64 488.764M299.22 537.674L299.16 538.014M299.16 538.014C310.08 539.694 341.1 525.454 347.18 524.044C349.5 523.324 355.14 525.224 357.64 524.284C359.78 523.644 361.64 522.844 363.46 523.324C378.35 527.504 406.5 537 415.42 535.014L420.41 531.624M299.16 538.014L298.3 535.094M308.52 539.854C308.55 540.354 309.73 546.014 314.23 548.514C329.56 553.574 364.09 552.984 372.05 551.454C387.97 550.854 407.2 544.864 412.07 537.744M290.36 416.354L290.6 416.474C291.16 417.894 292.3 417.574 295.2 417.454C300.07 416.944 303.81 415.794 304.32 415.574M301.6 416.554L301.4 415.914L306.78 417.034C307.82 415.894 307.71 411.844 308.54 409.794M532.72 540.244C528.06 552.494 523.07 594.524 521.46 603.604C517.92 616.734 516.6 639.904 516.02 660.244M516.02 660.244C515.84 680.474 514.42 730.107 514.42 737.554C514.42 745 516.92 757.268 517 760.568M516.02 660.244C521 661.5 531 667.5 533.37 670.984M334.87 894.384C338.83 906.504 337.15 923.614 331.19 938.124M146.72 1241.89C146.78 1241.91 160.57 1244.11 164.75 1244.07C165.21 1244.35 177.74 1246.91 185.18 1251.67C186.16 1252.3 197.41 1260.14 201.27 1262.2C208.45 1265.84 233.85 1277.51 242.29 1276.49C244.41 1273.76 227 1259 231.33 1251.91C231.33 1251.91 236.72 1255.29 239.03 1256.93C241.45 1258.49 245.57 1263.07 247.89 1266.39C250.06 1269.83 266.67 1303.9 275.06 1307.63C278.47 1307.53 293.25 1306.96 297.33 1301.09C295.27 1313.97 319.21 1304.37 321.24 1304.37C321.28 1303.69 318.86 1298.79 317.6 1294.35C316.08 1283.92 314.52 1258.94 309.82 1252.19C311.54 1253.09 314.26 1255.09 319.5 1260.41C323.7 1263.71 329.4 1274.43 333.19 1268.99L334.39 1245.14C332.46 1229.3 293.75 1188.4 283.08 1184.89C268.97 1182.44 256.44 1182.23 242.26 1181.55C229.27 1180.45 227.97 1165.86 225.59 1153.36C234.25 1158.3 268.5 1155 275.61 1151.87C277.53 1146.77 278.31 1144.36 280.79 1134.02C285.19 1115.61 291.24 1098.59 298.7 1085.02C300.4 1082 303.01 1078.28 303.05 1073.36C302.58 1056.62 304.39 1023.34 309.39 1006.69C313.09 992.034 328.74 981.154 342.61 986.584C349.64 990.944 345.03 1014.57 339.55 1017.61C320.85 1029.21 310.23 1009.08 312.64 990.824C313.06 987.864 317.98 965.574 319.82 960.594C322.71 953.214 333.25 937.074 334.41 929.624M146.72 1241.89C146.1 1241.55 141.92 1237.87 138.84 1238.09C138.14 1237.51 132.76 1231.09 149 1218.08C151.6 1219.72 161.75 1215.48 165.67 1212.66C170.09 1209.4 171.47 1206.24 176.98 1199.79C183.06 1192.73 205.75 1173.62 209.75 1169.4C209.19 1166.74 210.33 1162.31 205.35 1163.86C204.35 1164.12 192.18 1169.26 186.58 1171.92C164.12 1185.88 130.53 1227.79 109.37 1248.69C104.052 1253.95 98.5211 1263.03 93.04 1267.42C59.4698 1294.35 24.03 1295.1 18.5 1304.37C13.7053 1312.41 -6.5 1335.5 -12.4602 1350.23M146.72 1241.89C146.72 1241.89 131.12 1251.67 130.53 1264C130.39 1266.93 128.92 1278.07 123.46 1285.28C118 1292.5 123.2 1293.64 126.14 1317.97C126.56 1321.17 132.5 1321.5 129.68 1324.29C123.42 1323.55 114.79 1319.11 111.47 1318.93C102.44 1319.25 100.92 1325.53 103.31 1334.26C104.51 1338.06 111.9 1347.91 116.82 1350.23C119.2 1351.79 126.39 1349.88 130.53 1349.15C87.5499 1386.99 39.6699 1455.98 -6.33008 1470.06L-3.2301 1471.12M-10.5 1300C-10.5 1300 -9.1901 1293.96 1.8699 1270.39C14.3699 1247.13 36.4998 1226.87 58.6298 1214.64C68.4998 1209.4 87.3599 1203.92 91.2499 1203.86C107.1 1204.81 99.6699 1214.18 91.2499 1218.55C80.4899 1224.47 76.7798 1216.83 59.4698 1216.67C56.1098 1216.53 6.64988 1216.25 -1.28012 1217.39C-7.34012 1219.19 -13.1002 1220.23 -12.4602 1227.79M35.6802 1511.54C33.7102 1507.79 28.3102 1500.89 27.2402 1497.75C45.5502 1459.98 99.5702 1406.51 125.86 1384.78C125.62 1378.79 130.01 1374.09 133.52 1369.47L131.12 1368.61C130.98 1367.85 132.42 1364.11 136.24 1364.37C196.3 1378.46 249.77 1389.58 288.69 1390.56C308.5 1390.56 323.06 1375.06 331.81 1377.89C334.51 1379.53 345.4 1389.28 350.54 1391.5C358.76 1394.98 380.64 1398.77 387.02 1400.96C380.56 1391.06 375.59 1366.2 370.87 1359.86C371.23 1341.74 399.72 1323.61 413.41 1315.88C412.19 1308.1 416.39 1290.15 416.71 1289.51C412.5 1283 378.57 1267.67 375.01 1265.13C371.67 1262.61 366.57 1254.53 363.38 1245.68C361.58 1241.18 358.48 1238.96 353.18 1235.64C346.04 1227.76 327.81 1212.57 324.95 1208.01C324.07 1206.57 305.56 1180.72 305.36 1180.58C324.24 1184.98 333.36 1189.78 352.4 1190.04C362.16 1190.81 363.17 1192.17 362.92 1199.79C362.22 1202.57 363.91 1208.52 355.72 1214.45L355.56 1219.73C373.326 1229.8 397.37 1204.42 381.85 1185.11C380.99 1184.85 352.06 1178.23 344.07 1177.45C336.82 1177.28 331.3 1177.29 330.44 1169.37C329.24 1139.9 357.24 1064.09 362.92 1034.35C369.31 1008.43 385.94 981.694 386.01 963.324C385.41 959.164 379.49 954.104 379.55 952.764C383.73 940.864 402.01 917.954 410.32 907.524C416.6 900.804 430.77 893.954 433.83 893.034L438.09 879.444C440.43 883.724 447.39 888.244 453.9 890.934C482.23 903.034 539.56 921.094 568.25 912.604C568.37 912.204 567.17 906.524 568.97 901.524C583.88 857.874 614.68 797.734 617.59 758.624C615.03 758.504 579.03 718.964 575.13 712.584C561.24 683.384 566.17 679.014 533.37 670.984M533.37 670.984C535.69 685.414 538.51 707.404 541.25 718.004C542.77 724.104 540.55 731.714 536.61 737.514C517.97 762.134 486.98 791.984 458.68 811.704C434.3 829.924 445.84 838.814 411.02 861.384L410.86 864.964C410.32 875.444 400.35 871.994 398.93 875.694C410.75 903.214 477.37 930.354 505.3 945.544C538.2 962.684 596.86 971.794 621.41 969.694C614.72 936.554 638.43 873.264 646.46 840.234C654.85 801.854 663.5 790 661 782C658.5 774 652 768.5 646.46 771C640.919 773.5 637.62 781.2 639 788.5C641.214 800.208 661.03 795.304 668.31 796.984C680.66 799.884 704.23 810.014 715.05 814.834C729.06 820.094 742.93 822.614 750.95 825.414C771.25 839.824 808 862.724 834.9 886.904C786.18 928.094 733.23 1061.08 714.67 1118.02C714.5 1128.51 726.59 1137.96 736.6 1136.27C760 1126.55 769.32 1092.21 782.68 1069.22C806.57 1023.66 823.56 967 834.9 918.5C836.654 911 839.5 906.264 841.65 906.264C856.2 908.754 872.5 925.544 872.68 941.014C849.09 1040.76 748.03 1162.46 678.83 1230.88C700 1230.88 725.58 1202.89 739.15 1188.28C761.59 1169.27 792.01 1144.96 815.44 1145.64C808 1170.22 786.8 1193.85 773.04 1213.93C744.67 1248.95 718.55 1275.99 697.45 1291.01C696.08 1297.52 701.42 1302.09 708 1307C721.42 1315.59 733.5 1311.94 751.46 1315.96C775.63 1322.35 828.12 1346.24 846.16 1364.3C866.84 1386.8 871.76 1410.19 879.61 1444.88C881.06 1455.99 887.94 1478.55 881.85 1483.98C874.4 1465.66 852.81 1443.36 836.1 1415.25C828.66 1402.1 813.03 1374.93 807.09 1366.71C798.23 1354.58 783.12 1339.14 781.38 1335.54C780.34 1334.08 762.17 1326.56 761.41 1326.22C750 1324.5 743.32 1326.22 743.32 1330.24C743.77 1368.06 768.49 1405.51 794 1431.97C800.36 1438.85 808.51 1445.92 813.53 1445.82C836.9 1433.68 787.87 1398.71 774.95 1390.92C746.62 1375.43 687.51 1342.28 654.88 1337.28C640.52 1333.41 617.15 1316.14 602.52 1312.73C553.26 1294.03 523.05 1301.29 472.96 1298.84C469.1 1301.24 465.96 1297 466.3 1296.4C462.42 1292.22 460.22 1290.26 457.74 1289C448.14 1285.51 432.75 1282.48 431.39 1294.28C432.35 1299.3 456.7 1305.16 462.58 1306.97C469.87 1310.3 474.55 1315.87 474.75 1324.3C473.69 1335.38 478.13 1365.3 480.63 1381.63C483.45 1401.21 486.65 1413.27 486.27 1421.15C485.43 1421.29 475.73 1414.37 470.92 1412.63C459.15 1407.68 413.3 1406.93 412.37 1409.95C414.51 1428.71 442.38 1429.87 458.33 1433.54C461.17 1434.54 475.7 1441.68 482.02 1444.8C489.32 1448.36 491.76 1451.52 500.5 1457C509.24 1462.48 513.84 1466 524.15 1462.82C553.66 1440.31 548.05 1387.82 551.1 1352.01L553.86 1350.31C556.98 1350.47 564.44 1358.27 570.25 1367.66C596.19 1408.42 619.4 1467.48 648.18 1482.49C668.5 1492.33 661.56 1502.53 634.13 1503.54C613.02 1502.37 580.14 1503.43 562.42 1492.33C560.88 1490.09 561.02 1483.55 562.02 1479.29C580.09 1427.32 611.9 1385.94 662 1367.66C688.618 1357.95 692 1445.82 752.85 1502.58L789 1531M918.5 1516C927.43 1499.04 948.31 1443.27 950.03 1416.33C950.179 1414 950.03 1415.25 950.03 1415.25C950.03 1403 950.03 1398 946.13 1394.76C925.63 1393.63 916.9 1379.25 898.07 1361.5C874.29 1333.8 838.99 1311.28 822.56 1283.33C817.74 1270.95 812.77 1250.51 833.2 1259.68C839.24 1263.44 875.04 1288.05 879.62 1292.19C889.54 1303.35 891.68 1307.61 898.59 1326.55C903.13 1338.78 907.41 1348.6 910.39 1349.18C882.18 1260.89 916.06 1149.43 901.94 1059.79C900.1 1051.29 889.871 1030.5 887.06 1010.69C886.2 1004.63 884.28 992.444 882.8 991.064C882.8 991.064 877.5 993 871.42 1001.05C865.34 1009.11 818.96 1111 838.41 1115.84C862.66 1123.97 879.663 1105 895.7 1092.33C1017.49 996.144 1144.22 785.944 1324.73 809.834" stroke="#E72F1E" stroke-width="12" stroke-linecap="round" stroke-linejoin="round"/>
</g>
<defs>
<clipPath id="clip0_951_188">
<rect width="1080" height="1512" fill="white"/>
</clipPath>
</defs>
</svg>
