<svg width="1080" height="1512" viewBox="0 0 1080 1512" fill="none" xmlns="http://www.w3.org/2000/svg">
<g clip-path="url(#clip0_951_189)">
<rect width="1080" height="1512" fill="white"/>
<path d="M322.31 1213.07C301.65 1171.26 276.31 1098.56 237.79 1064.66C228.46 1058.17 211.87 1043.49 200.05 1046.05C198.95 1048.17 198.79 1061.5 200.91 1069.14C202.87 1075.92 220.48 1110.24 225.6 1117.98C244.88 1145.63 282.39 1180.03 306.48 1205.38C311.14 1209.5 324.47 1217.03 325.75 1217.81C330.41 1220.69 345.28 1244.85 346.7 1246.07C355.5 1259.5 357.4 1271.34 365.11 1285.65C376.54 1306.3 380.7 1315.48 380.14 1319.4C369.71 1352.18 323.06 1384.55 292.9 1400.6C280.5 1399.5 255.63 1360.62 237.27 1348.3C222.28 1335.54 207.41 1322.38 202.49 1307.2C207.39 1308.24 209.59 1309.16 212.49 1311.62C233.42 1328.59 246.69 1338.81 260.71 1347.54C272.07 1355.47 285.44 1361.13 292.62 1372.05C294.2 1384.4 275.17 1378.66 266.33 1383.35C260.74 1386.15 253.6 1390.24 247.28 1389.57C226.68 1382.19 217.49 1259.76 212.49 1245.26L201.78 1220.25C195.16 1199.59 187.04 1145.74 182.11 1118.21C173.18 1071.74 178.484 976.5 181.81 945.766C182.31 941.146 191.875 903 194.17 890.486C196.465 877.971 197.89 863.876 198.59 859.096C200.09 849.016 207.59 829.906 209.35 824.886C217.54 863.436 225.92 942.776 244.53 980.946C265.77 1036.26 277.93 1049.23 310.22 1079.8C308.75 1100.26 306.48 1162.5 309.137 1184.5M231.95 1525.88L226.43 1525.44C227.39 1522.88 244.46 1483.99 250.44 1469.8C256.54 1459.51 254.22 1437.63 251.98 1431.16C251.98 1431.16 267.03 1429.86 273.01 1428.14C291.58 1421.61 300.51 1414.92 318.55 1414.3C332.44 1414.75 346.77 1415.49 358.01 1425C361.46 1430.59 354.26 1440.94 352.11 1449.17C346.99 1467 337.9 1504.37 341.08 1522.42C341.58 1523.22 343.94 1522.74 349.56 1520.56C370.21 1512.47 373.51 1510.38 381.91 1487.34C386.91 1472.35 396.32 1443.66 399.26 1429.77C404.59 1409.23 402.22 1376.95 405.52 1358C410.03 1359.48 414.3 1369.81 416.72 1372.91C424.87 1383.35 428.5 1382.3 432.71 1389.32C447.26 1413.57 480.74 1465.05 501.96 1483.98C510.04 1493.1 546.14 1508.24 550.32 1507.23C538.55 1480.32 491.91 1439.58 464.5 1424.29C462.74 1423.23 460.44 1420.07 460.06 1417.97C459.68 1415.62 460.12 1404.02 460.06 1403.34C455.34 1383.29 450.41 1383.36 431.22 1350.96C415.67 1323.07 397.58 1259.6 385.12 1226.32C377.3 1213.65 357.5 1136.31 339.76 1098.16C333.6 1084.91 331.74 1074.3 336.22 1059.96C343.66 1043.68 345.56 1039.75 356.17 1048.62C361.02 1057.74 365.4 1069.96 362.71 1081.83C361.43 1089.03 353.34 1127.03 352.08 1135.01C346.29 1181.86 344.92 1193.43 366.79 1231.29C386.41 1229.23 405.11 1204.74 420.75 1195.85C416.37 1211.94 400.51 1304.51 425.17 1329.19C443.83 1343.96 468.78 1337.84 498.74 1333.37C527.43 1327.26 576.3 1309.48 603.57 1310.66C603.71 1310.7 602.21 1307.12 602.15 1302.22C601.89 1280.91 600.35 1264.05 596.07 1160.26C595.19 1146.9 592.21 1120.97 590.29 1105.22C582.02 1057.35 582.37 995.356 566.26 967.686C545.29 923.936 482.98 874.226 442.84 838.526C435.89 839.176 422.44 841.806 415.15 840.406C410.06 830.566 417.37 818.066 419.87 808.196C428.73 783.686 443.2 768.566 441.42 749.566L443.72 749.846C444.1 754.226 403.6 775.396 396.5 780.996C389.22 785.966 377.79 794.966 371.53 797.346C373.5 765.706 416.28 712.946 429.92 686.436V693C429.16 694.14 415.89 705.006 410.89 709.546C392.85 725.016 373.25 749.516 362.49 752.446C362.81 752.846 359.72 752.266 353.98 756.366C327.12 774.986 287.9 794.636 257.02 793.496C250.38 791.936 234.02 792.766 230.91 783.716C235.2 772.526 256.63 780.996 260.62 789.896C263 798.506 261.38 814.256 252.14 821.326C253.4 821.866 252.72 834.636 252.56 836.756C250.71 866.726 253.97 920.186 259.48 950.986C260.89 959.476 270.41 1001.8 273.49 1009.1C280.6 1026.01 300.66 1046.49 301.52 1014.16C285.52 960.356 274.55 872.806 241.3 823.456C238 820 232.27 812.224 224.5 810.5C43.99 786.61 -82.5098 1001.09 -204.3 1097.28M400.65 485.526C398.29 511.336 424 587.5 432.48 596.816C448 618 492.69 657.976 528.76 661.286C559.5 662.046 578.42 647.536 601.69 625.386C601.69 636.5 598.28 644.556 588.35 655.356C567.06 676.326 546.63 707.726 540.37 729.086C540.33 731.486 550.7 739.736 551.16 742.736C548.02 765.466 545.65 817.806 558.26 842.146C564.69 844.436 572.64 828.626 571.45 824.416C566.42 818.336 560 820.796 550.92 820.796C550.32 821.446 497.461 802.136 494.261 794.746M652.18 483.926C650.32 525.496 639.71 578.276 618.85 609.716C613.29 655.936 617.75 746.956 624.59 787.536C613.85 814.396 569.621 881.116 561.021 910.056C566.5 903 577.401 894.786 584.051 888.846C599.051 876.306 607.202 866.55 622.632 863M334.46 569.166C345.6 498.226 356.52 376.636 399.19 319.976C412.693 302.046 422.29 291.016 435.2 281.196C448.5 271.08 493.781 249.246 525.061 256.826C545.521 247.886 577.03 254.776 598.66 262.106C612.11 266.726 633.5 284.352 642.39 294.126C674.77 329.726 689.64 377.826 702.66 429.066C710.266 459 711.09 483.616 717.81 499.416M321.329 745.016C283.399 690.816 328.85 637.626 336.5 581.786C343.29 549.956 357.03 505.576 385.92 486.046M334.46 763.586C324.24 755.486 323.92 704.656 324.24 689.356C324.37 677.966 332.86 647.756 339.08 644.716C341.21 659.286 324.53 700.856 315.65 711.746C309.43 718.766 290.26 735.816 279.77 739.776C274.5 741.066 268.33 741.296 266.72 736.456M339.48 748.526C334.05 715.976 357.14 640.866 368.63 621.006C370.18 650.046 363.91 699.116 348.38 728.676C348.38 721.766 355.84 723.036 354.98 727.136C385.56 715.916 418.57 679.536 436.58 649.846C437.8 646.856 445.72 639.495 450.89 641.715C463.08 661.765 442.5 711.845 451.91 730.175C455.413 737 463.25 749.506 472.56 756.626C478.86 760.706 481.44 764.166 482.32 766.306C497.35 802.146 528.261 878.166 549.311 898.246M712.05 483.546C720.84 516.876 724.36 526.366 710.63 562.016M536.83 308.086C537.02 300.116 544.44 289.036 554.36 290.676M542.03 308.086C542.11 305.386 548.77 302.326 552.45 302.046C555.33 301.926 566.96 309.146 572.28 315.196C577.4 321.216 591.43 351.736 591.89 352.876C600.41 377.236 617.14 451.366 630.85 471.906M635.69 467.316C643.05 479.876 652.42 485.596 666.48 490.446M618.521 392.386C619.351 413.206 641.121 444.576 652.521 462.036C672.101 488.386 695.86 508.196 705.4 538.086C706.13 580.766 710.54 627.806 738.88 657.446C760.02 683.626 780.3 711.556 782.72 750.126M667.95 448.586C676.89 460.526 690.25 474.936 696.06 488.946C703.18 506.366 710.05 541.016 706.98 560.456M782.72 750.126C782.56 759.076 781.95 770.776 773.59 774.836M782.72 750.126C785.3 753.126 799.97 763.696 801.34 763.586C828.47 775.386 869.631 784.986 868.781 816.506C868.401 846.666 865.87 844.976 849.45 883.736C811.23 973.136 802 1022.05 800.57 1107.16C800.83 1117.51 802.13 1124.85 804.87 1128.09C805.5 1130 806.62 1132.04 806.62 1132.04C811.59 1120.63 818.57 1105.88 841.14 1072.21C874.22 1023.04 888.5 926.5 887.44 918.116L885.52 917.016C869 922 832.5 1000 817.92 1036.97C790.04 1032.86 764.21 1000.56 753.49 976.036C769.29 980.016 796.5 996.5 805.68 988.226C783.92 980.346 753.34 944.336 742.97 927.616C728.82 897.766 716.91 857.586 731.15 825.696C750.8 785.696 749.14 868.926 748.08 875.876C744.5 907.526 724.3 935.566 705.12 957.936C699.21 964.716 693.09 967.376 693.21 967.236C707.23 966.496 743.41 960.646 758.38 943.306C785.76 906.586 782.97 853.446 772.37 811.106C770.57 804.386 758.58 769.316 753.86 756.126C748.25 740.376 729.45 700.43 731 676.5C756.31 706.09 780.98 746.946 770.46 787.326M532.15 311.726C531.51 311.346 526.07 313.616 525.37 313.806C523.29 307.496 513.5 300.556 503.96 298.996C505.1 297.956 507.47 295.786 507.69 294.126C506.11 293.346 501.77 295.806 498.37 298.666C474.11 325.426 463.581 360.386 456.271 395.566L452 414.95M449.07 426.786C439.8 444.556 431.29 458.476 416.26 469.606C408.31 474.396 392.55 488.036 384.19 480.206M449.41 363.236C439.16 402.846 436.03 414.086 413.81 450.036C407.61 460.906 383.64 486.386 375.53 486.036M442.13 339.826C450.57 319.706 463.47 293.216 479.31 280.816C490.29 274.226 504.49 266.506 516.01 273.216M483.76 282.576L483.92 281.956C487.9 280.876 497.97 280.556 503.93 282.716C507.34 284.376 523.07 291.546 526.14 294.266M640.87 557.462C640.87 563.5 640.23 572.426 640.87 577.706C644.63 611.896 679.48 704.716 665.2 751.666M666.77 720.626C662.79 737.346 640.83 782.026 637.26 792.176C616.51 847.416 613.54 910.726 656.62 951.636C622.15 918.786 634.13 823.636 658.64 787.016C650.79 802.286 658.86 839.036 661.38 854.926C670.73 890.106 683.64 925.796 716.08 938.666M856.95 1538.57H853.811C859.431 1503.9 900.23 1380.07 902.37 1333.4C911.23 1231.71 907.3 1137.57 906.85 1023.64C905.61 1023.44 905.19 1023.82 900.23 1028.9C885.82 1048.15 801.21 1157.98 812.33 1191.79C829.05 1200.4 852.15 1184.28 873.88 1179.3C893.83 1174.44 916.976 1170.26 946.25 1170.48C1017 1171 1113.75 1209.81 1174.57 1200.22C1220.83 1192.49 1253.73 1165.71 1298.57 1141.97M781.02 1205.29C783.93 1207.42 787.15 1214.62 788.62 1217.96C790.05 1228.99 776 1314.14 755.55 1316.46C753.88 1282.67 764.58 1247.67 774.06 1212.89C783.93 1168.31 787.01 1150.38 788.13 1145.06L778.47 1145.18C780 1159.18 756.1 1179.15 749.76 1187.56C734.95 1203.83 652.29 1270.06 644.48 1286.27C640.513 1294.5 637.88 1295.61 631.21 1301.96C631.21 1305.5 634.32 1309.71 636.15 1311.38C656.12 1325.42 692.21 1322.79 715.72 1324.61C726.69 1324.43 740.96 1333.42 750.7 1335.77C748.96 1341.24 725.95 1369.36 731.15 1380.07C734.17 1385.99 747.96 1395.1 750.7 1396.12L744.66 1400.94C773.65 1406.59 761.88 1421.5 749.88 1438.6C738.55 1451.65 719.65 1476.44 707.62 1482.18C720.89 1426.76 822.01 1333.37 858.13 1354.36C868.781 1389.32 731.88 1512.21 687.92 1563.67L696.38 1563.91M551.67 458.116C553.22 452.986 564.28 447.266 569.2 445.406C584.48 438.826 603.13 443.746 615.22 452.686M575.08 448.706C574.02 452.966 576.32 455.6 577 456.5C577.08 456.27 577.23 456.646 577.28 456.426L590.71 455.886L590.23 445.386M498.89 434.486C509.64 449.386 511.9 456.556 512.82 475.346C510.85 493.006 506.14 501.936 516.28 520.146M582.89 450.436L581.01 449.436L584.75 449.456L583.27 449.976M484.34 459.056C475.75 447.796 454.091 447.146 444.021 453.976M446.59 452.776C439.46 455.476 431.54 464.366 430.62 466.066M454.291 454.736C453.681 456.596 454.3 460.536 455.17 462.476C457.15 463.106 469.23 462.316 472.6 461.796C472.85 461.096 473.38 456.276 472.38 454.116M485.82 421.096C486.33 419.566 461.5 420.216 455.41 420.216C451.43 420.216 441.28 421.706 438 423.156M462.36 457.516L462.2 455.716L467.52 455.316L462.52 457.116L464.58 457.056M452.23 458.676L451.43 461.696L452.93 463.216M554.08 452.596C562.04 440.396 581.18 437.396 593.7 437.066C597.21 437.386 609.82 440.376 611.49 441.886M441.61 448.916C447.64 444.076 461.03 446.856 466.44 448.396M482.083 321C490.703 316.71 510.68 311.686 520 317.236M505.311 309.566C506.811 306.156 516.61 309.956 520.22 311.986M538.771 312.306C555.421 312.806 568.19 323.806 580.47 336.016M552.78 417.436C564.37 410.946 601.18 411.906 607.16 415.696M480.66 557.936C489.41 559.246 519 558.68 530.55 557.996C539.5 557.466 566.01 555.526 575.33 551.836C576.53 552.016 577.1 553.166 577.59 554.296C565.67 577.646 539.78 591.066 513.59 584.666C504 582.486 484.08 570.536 481.36 567.856C479.78 565.816 479.38 562.116 479.8 560.936L480.66 557.936Z" stroke="#E72F1E" stroke-width="12" stroke-linecap="round" stroke-linejoin="round"/>
</g>
<defs>
<clipPath id="clip0_951_189">
<rect width="1080" height="1512" fill="white"/>
</clipPath>
</defs>
</svg>
