<svg width="1080" height="1512" viewBox="0 0 1080 1512" fill="none" xmlns="http://www.w3.org/2000/svg">
<g clip-path="url(#clip0_951_190)">
<rect width="1080" height="1512" fill="white"/>
<path d="M566.31 300.328C559.09 294.628 540.23 287.068 529.41 288.838C524.81 289.638 502.64 305.509 500.96 307.989C480.35 338.809 482.911 382.869 471.621 421.179C464.481 437.039 450.751 443.379 435.781 449.409C428.761 451.949 423.87 453.409 421.43 451.949L420.771 448.469M445.26 432.748C442.94 417.038 431.21 371.678 431.21 359.098C431.13 349.928 434.61 326.478 440.37 315.918C446.29 305.158 470.89 279.019 485.25 270.719C520.01 247.279 607.61 191.108 648.34 226.438C658.54 221.998 681.67 223.688 691.58 224.658C709.9 228.728 739.79 243.058 753.81 254.428C775 268 793.22 286.019 796.2 288.639C821.93 310.809 839.429 350.959 846.479 387.009C854 438.5 872.12 455.878 819.54 551.858C817.06 553.918 813.34 562.338 809.68 572.588C796.01 611.158 780.15 624.158 775.28 651.098C774.22 654.098 769.52 669.749 765.88 676.229C761.46 683.329 744.951 702.678 736.061 704.188C737.971 697.318 739.811 682.778 735.081 678.118C729.021 678.158 725.98 679.038 724.26 682.038C708.67 715.608 665.52 833.818 650.15 874.138C634.94 898.328 613.63 922.188 608.01 926.008C595.01 892.178 575.84 836.399 562.59 832.729C557.18 876.249 579.68 915.228 594.88 949.638C596.3 952.718 603.921 959.378 604.081 959.518C605.421 960.538 607.861 960.838 608.441 961.098C608.841 961.218 624.711 934.469 632.731 924.699C641.871 913.629 645.7 911.048 646.3 911.128C640.79 935.948 617.12 981.158 609.32 1000.17C581.96 1066.32 529.15 1215.89 506.65 1280.16C495.28 1306.82 490.785 1338.17 496.05 1361.56C497.5 1368 500.98 1378.67 502.97 1385.99C520.11 1444.64 544.016 1391.5 552 1370.5C555.429 1361.48 560.5 1341.66 550.35 1336.59C548.75 1335.79 542.55 1335.11 539.61 1335.29C522.36 1337.25 516 1356 512.5 1366.02C506.978 1381.83 484.76 1516.33 488.67 1537.29M439.15 396.108C436.11 408.058 411.03 448.018 422.2 465.478M487.31 365.279C486.59 349.929 499.04 328.629 508.04 318.759C524.35 304.789 542.36 304.839 556.82 315.299M523.03 297.229C534.32 294.419 563.76 302.539 568.03 311.259M571.65 313.279C585.89 300.699 606.34 313.129 619.01 321.519M579.29 303.948C583.04 297.028 597.45 283.878 607.12 288.158C608.84 289.338 614.1 298.088 617.08 305.408C625.47 327.218 624.64 392.448 639.67 412.338M631.15 387.009C642.18 424.459 674.95 456.949 705.36 481.229C732 501.629 755.43 515.279 782.61 519.269M747.33 500.239C764.92 512.489 806.83 509.419 818.72 495.539M553.36 252.448C563.03 253.038 583.54 259.479 587.84 271.679C590.4 266.919 588.06 256.749 586.72 254.089M575.67 248.388L575.391 247.708C581.621 246.788 604.771 251.348 606.061 260.218M805.91 505.258L803.71 503.838C806.77 507.938 812.05 519.208 812.03 523.108C811.89 526.788 804.27 538.158 801.41 543.038C793.42 557.188 772.89 600.558 777.5 613.168C773.21 618.858 766.15 626.578 756.31 618.908C752.1 614.268 752.96 596.528 756.97 590.278C761.32 585.778 769.44 582.808 774.22 585.858C774.04 587.818 773.82 588.458 772.8 588.958C766.89 594.028 754.83 594.288 749.23 591.818C747.39 590.398 746.89 584.358 749.07 580.928C750.75 578.328 763.48 565.238 767.38 561.358C777.82 551.058 790 537 789.5 532C785.5 530.5 766.95 526.988 757.25 541.728C753.21 558.948 726.59 639.818 716.13 656.458C701.22 671.088 723.42 815.758 752.95 813.918C761.75 814.418 767.05 810.368 770.68 803.008C776.96 789.498 770 765.5 785.64 764.558C776.25 749.668 761.56 741.898 753.45 730.058C750.11 713.158 778.52 730.498 784.24 730.638C759.1 703.528 757.07 654.288 773.28 622.708M446.57 447.528C467.51 441.908 538.82 457.048 564.94 461.038C598.53 462.648 669.45 469.169 701.32 488.369C709.38 490.359 706.55 502.069 708.76 506.539H711L730.86 507.779L718.331 508.619M709.67 508.378C714.27 509.568 725.76 508.788 731.64 511.078M596.96 476.309C589.28 485.059 588.71 485.229 585.94 492.839C583.47 490.679 555.991 484.77 552.401 490.5L550 495.958C548.07 503.979 534.821 532.698 526.831 540.698C516.291 547.708 503.081 550 483.75 547.779C470.601 545 452.5 538.5 443.9 523.288C432.89 509.228 432.27 464.558 432.82 458.158C431.28 457.868 429.64 457.578 428.12 457.318M587.17 494.959L586.91 494.599C586.55 508.999 588.415 536.703 592 545C593.91 549.421 597.38 553.218 600.1 555.758C607.5 560.5 631.77 571.669 645.4 571.669C656.5 572.588 668.62 571.739 674.05 569.409C694.2 556.469 703.46 534.169 706.86 511.739C707.09 511.769 708.83 511.619 709.84 511.219M533.291 455.558C539.601 460.528 549.37 466.979 548.46 471.569M606.54 452.879C623.29 446.819 666.01 454.198 678.39 459.478M473.76 422.519C492.6 421.869 536.16 433.139 539.23 435.949C539.46 435.829 547.1 439.219 548.07 441.749M609.9 502.438C615.49 498.448 625.5 493.848 634.01 493.378M631.15 493.678C633.43 493.038 648.58 493.229 651.95 493.749C659.96 495.729 677.52 503.019 683.6 506.419M637.96 495.958C636.61 498.218 639.88 503.049 639.96 503.259L640 502.759L639.92 502.958C641.58 503.638 655.93 505.159 660.13 506.119L659.39 505.519M646.38 501.059L645.8 500.099L656.5 501.599L651.28 500.219L653.94 500.279M533.291 489.169C530.721 482.059 522.56 475.259 515.78 471.259C509.81 463.679 474.03 469.999 472.72 469.909C472.399 469.399 470.831 469.269 470.601 469.419M521.791 478.789L519.351 484.909C518.851 484.379 508.51 482.528 505.78 482.188L506.24 482.049M513.8 482.768C514.22 482.608 514.24 482.678 514.72 482.808L507.621 481.708C510.351 481.748 514.61 481.318 517.84 480.548C517.22 479.878 509.48 477.158 508.78 474.668L510.541 473.168C510.931 473.988 509.441 479.458 508.601 480.228C508.741 478.968 508.81 477.798 508.38 475.928L506.78 480.968L507.101 476.388L508.141 478.688C508.591 477.368 508.5 477.368 508.36 475.828M506.82 482.548C505.71 482.628 502.101 481.008 502.061 481.148L503.081 472.168L502.78 477.508M524.75 484.828L525.17 484.168M435.35 503.979C433.24 551.989 440.13 610.249 461.9 652.209C465.943 660 470.101 663.668 478.751 676.678C490.011 693.668 508 726.5 532 735.439H496.76C490.5 739 493.64 745.659 494.78 748.949C499.9 762.139 509.81 792.048 509.75 796.888C509.45 807.528 502.76 827.008 500.5 833.508L499.48 843.709C478.43 831.479 471.55 767.298 475.31 743.608C475.43 742.768 478.03 726.078 478.25 724.078L477.65 713.678C463.86 725.058 440.91 782.529 432.15 801.199C422.6 822.649 376.01 889.148 376.17 920.528L380.69 922.888C382.45 921.748 394.56 895.538 398.94 887.788C409.07 870.198 434.15 842.948 451.24 840.548C451.32 850.348 439.56 902.419 448.22 916.239C451.12 921.799 461.91 931.288 466.75 936.508C469.29 939.228 482.581 954.558 484.681 956.078C495.141 962.688 496.731 969.289 502.391 977.469C500.391 959.319 496.76 952.148 486.8 939.828C492.61 899.198 510.76 840.788 550.79 821.058C580.97 803.038 633.67 756.688 655.98 734.058C670.65 716.848 681.99 701.228 685.95 697.198M557.021 742.178C579.281 750.708 613.871 743.508 635.351 734.798C648.791 729.698 675.421 707.914 685.95 697.198M685.95 697.198C692.73 690.228 699.66 679.939 700.06 677.729M506.42 611.008C526.56 615.578 541.1 618.488 555.96 620.688C575 622.708 617.5 626.138 627.09 628.808L631.77 627.979L629.71 633.198C613.33 658.808 558.571 679.708 530.851 655.668C523 648.86 508.04 626.668 508.88 615.648M825.42 497.419C816.55 503.069 810.24 494.279 800.45 487.329C783.92 468.269 734.78 423.799 734.42 406.189L735.92 404.769C752.88 411.059 765.91 447.299 787.02 448.749C796.84 437.589 769.81 338.449 761.43 331.639C753.85 336.189 757.84 352.049 758.13 358.449C766.37 392.579 798.93 424.449 818.7 449.129C826.26 455.179 831.63 489.319 828.8 501.429M829.96 491.389C828.36 494.829 828.42 503.119 828.44 508.839C827.81 531.779 824.51 547.599 817.54 563.119M690.34 404.599C708.35 443.649 751.83 484.839 788.8 498.179M802.03 503.458C803.46 504.168 808.04 507.288 810.73 506.078M671.5 1516.5C639.26 1428.59 652.661 1295.09 662.021 1200.42C626.021 1213.39 605.191 1241.48 581.001 1270.63C565.601 1290.88 556.051 1301.77 549.891 1304.91C548.451 1296.06 557.5 1260.37 576.22 1243.12C632.35 1167.23 732.45 1058.63 792.65 987.838C791.95 983.498 766.4 960.439 760.36 953.479C749.64 941.849 738.451 927.438 729.931 918.918C730.371 908.878 745.86 905.258 755.24 902.028C773.41 897.048 800.54 897.538 815.13 904.388C808.59 888.258 805.41 838.769 806.61 815.979C803.75 807.379 808.95 791.938 811.49 784.628C824.86 791.658 890.42 822.118 907.99 834.088C931.18 846.988 978.01 883.062 994.5 891C1012.01 907.062 1043.53 929.518 1042.11 956.678C1046.03 1028.22 1057.1 1166.67 1045.25 1243.59C1036.35 1274.98 1026.12 1308.96 998.05 1330.17C934.02 1386.94 921.32 1391.37 875.07 1439.26C871.21 1443.38 862.14 1449.26 861.66 1449.14C862.24 1419.7 877.11 1373.91 888.19 1345.75C900.59 1318.18 928.19 1281.13 947.08 1257.69C965.77 1236.55 989.61 1205.92 1010.39 1197.92C1015.5 1195.95 1020.31 1192.68 1022.84 1193.28C1025.44 1194.06 1028.2 1201.7 1028.94 1208.65C1032.42 1288.05 1013.49 1431.85 1012.83 1512.72C1010.28 1516.52 1009.11 1520.83 1006.73 1524.91M826.32 1568.65C811.35 1517.46 812.474 1429.5 817.2 1377.09C828.48 1251.98 821.79 1128.41 860.18 1034.34C878.7 996.048 929.19 915.128 971.23 904.768C980.71 925.158 941.54 994.798 927.24 1034.86C917.07 1061.4 872.94 1138.71 864.28 1136.55C864.2 1111.12 882.01 1070.66 894.11 1040.49C919.91 980.849 944.83 929.928 997 892.818L1012 880.5C1020.07 874.142 1022.27 873.938 1032.03 867.748C1098.84 826.128 1165.81 824.148 1240.9 835.068C1296.67 839.738 1354.85 826.218 1412.58 799.858C1445.6 785.818 1474.89 769.898 1494.1 752.258L1493.52 752.138M464.52 1530.15C464.27 1533.34 465.24 1534.97 463.94 1535.63C434.78 1499.44 432.54 1494.43 433.81 1445.73C441.42 1357.25 470.67 1147.02 490.67 1070.99C494.18 1061.34 494.64 1040.86 494.08 1028.62C489.65 1019.55 474.73 987.899 457.98 987.219C456.72 988.179 455.1 992.418 460.66 1009.65C465.81 1028.73 471.13 1063.19 459.44 1082.54C408.57 1069.72 398.93 1036.53 365.6 1000.84C343.35 980.068 327.35 950.508 303.57 927.548C299.32 922.948 274.37 892.868 268.23 886.388C262.9 880.128 229.74 857.658 221.17 857.608C150.36 855.998 78.1502 1100.96 62.7802 1165.68C74.1102 1153.97 99.2801 1141 121.95 1140.93C140.37 1142.44 168.83 1139.63 168.95 1161.92C168.95 1180.43 156 1188.17 144.62 1194.75C133.84 1200.98 61.3501 1240.48 45.7201 1264.42C31.9701 1282.43 14.1199 1309.27 11.3299 1333.27C9.35994 1357.68 6.27999 1382.62 20.37 1403.02C34.1 1425.35 55.98 1441.28 74.89 1460.59C80.78 1466.17 87.6401 1470.47 88.9401 1470.19C92.4601 1468.6 163.25 1446.37 167.67 1441.9C181.02 1435.52 201.13 1421.93 207.65 1413.81C224.22 1393.07 234.55 1358.14 270.2 1375.21C268.61 1390.35 243.11 1413.37 231.57 1428.61C205.13 1462.09 174.7 1508.09 165.24 1550.14C174.71 1558.69 241.44 1562.63 264.16 1560.25C275.46 1559.23 304.06 1548.23 304.06 1564.09C323.48 1499.6 338.5 1409.26 354.08 1343.17C325.5 1359.71 325.89 1337.28 322.27 1336.28C315 1331.5 303.82 1335.6 299.18 1335.16C298.66 1335.06 272 1318.5 262.32 1308.63C252.5 1297 240.75 1260.35 240.13 1256.13C238.94 1231.43 238.55 1202.66 248.13 1182.5C251.64 1175.36 258.28 1161.83 260.06 1157.51C261.78 1153.14 261.88 1144.36 260.5 1142.14C260.2 1141.56 253.95 1143.86 248.15 1147.7C225.12 1164.92 184.39 1186.02 184.08 1219.39C182.34 1239.25 182.849 1255.55 189 1274C198 1301 204.36 1350.12 214.13 1366.97C215.69 1366.97 223.86 1366.29 231.6 1359.71C236.32 1355.75 243 1352.97 255.07 1349.87C265.05 1347.48 320.87 1310.24 342.29 1307.77C368.56 1300.07 400.99 1292.01 426.92 1281.41C432.44 1278.66 429.58 1262.56 427.98 1257.82C411.17 1251.94 371.68 1275.95 361.23 1265.46C369.19 1254.54 396.951 1239.47 408.531 1231.65L407.85 1215.46C407.81 1214.68 405.71 1205.53 406.93 1200.35C407.27 1198.89 409.93 1194.5 409.93 1182.82C408.531 1180.5 407.77 1178.66 406.93 1177.5C404.5 1164.35 390.53 1163.5 378.32 1162.03C377.96 1160.71 381.04 1152.89 394.33 1140.2C398.31 1136.34 399.17 1134.96 399.17 1132.38C398.95 1129.86 386.94 1124.14 382.1 1123.68C374.66 1122.92 359.47 1121.5 358.87 1120.1C363.26 1111.86 377.81 1091.46 375.24 1086.46C371.89 1076.49 363.96 1076.9 350.97 1080.08C324.54 1088.63 293.7 1132.34 278.9 1152.33C292.02 1154.06 295.199 1156.54 303.6 1152.12C312 1147.7 332.87 1135.29 341.12 1127.75C382.99 1088.38 395.72 1067.42 403.17 1008.54M403.05 1010.14C405.35 986.928 432.65 917.109 426.72 898.969C422.45 876.229 331.07 886.329 319.19 885.659L317.69 883.579C331 872.739 437.561 766.128 451.291 747.038C450.051 746.958 444.69 745.038 444.19 744.758C440.49 742.818 429.981 743.299 425.781 744.959C378.061 763.139 319.081 785.469 274.791 798.859C260.271 802.989 234.23 813.148 215.82 823.588C209.8 834.558 209.8 859.509 210.13 872.469C212.57 958.579 242.27 1059.88 231.66 1137.85C227.83 1136.07 230.08 1133.11 225.26 1126.2C219.61 1114.97 191.01 1060.66 184.3 1046.57C169.33 998.468 170.3 976.819 170.38 924.479C170.46 908.719 170.58 879.318 173.14 869.998L175.32 868.979C201.87 875.909 207.95 1098.17 202.47 1140.4C157.63 1164.14 120.83 1191.83 74.5696 1199.56C13.7496 1209.15 -81.8603 1168.55 -153.57 1173.69M556.281 493.958L556.581 494.318C558.581 502.388 537.951 548.238 535.871 558.528C534.841 568.568 545.401 583.079 552.401 587.119" stroke="#E72F1E" stroke-width="12" stroke-linecap="round" stroke-linejoin="round"/>
</g>
<defs>
<clipPath id="clip0_951_190">
<rect width="1080" height="1512" fill="white"/>
</clipPath>
</defs>
</svg>
