<svg width="1080" height="1512" viewBox="0 0 1080 1512" fill="none" xmlns="http://www.w3.org/2000/svg">
<g clip-path="url(#clip0_951_191)">
<rect width="1080" height="1512" fill="white"/>
<path d="M-127.42 921.393C-125.88 922.073 -120.84 917.873 -111.49 908.003C-96.8402 892.573 -77.7302 876.873 -67.9702 870.683C-1.16022 829.063 65.8099 827.083 140.9 838.003C196.67 842.673 254.85 829.153 312.58 802.793C345.6 788.753 374.89 772.833 394.1 755.193L393.52 755.073C393 748.803 408.19 733.973 411.97 730.773C436.44 729.573 473.02 751.663 493.8 763.323C498.571 766 506.47 775.613 511.27 781.333C512.91 783.253 525.92 799.063 527.9 801.083C576.13 842.263 639.46 940.573 661.54 992.843C671.6 1011.36 681.45 1065.46 684.72 1081.42C693.61 1134.71 700.431 1176.26 689.141 1224.08C672.591 1188.32 656.401 1069.42 647.081 1034.38C644.121 1026.5 631.29 1008.11 627.71 1001.93C623.23 994.173 610.02 964.413 602.96 953.773C597.16 945.053 574.75 917.033 566.84 909.053C550.82 894.333 526.721 868.443 504.891 870.473C523.421 905.413 569.831 978.343 590.771 1000.09C608.441 1019.3 635.251 1041.83 638.891 1047.43C678.211 1089.25 749.57 1132.25 733.22 1197.32M282.457 1006.07C276.427 997.423 224.59 935.113 228.22 911.553C221.15 860.863 244.28 811.993 261.74 759.883C279.2 707.773 281.77 668.273 289.74 618.903C294.911 586.873 301.03 527.633 303.57 501.893C305.92 481.503 315.5 423.5 324.5 398.5C333.317 374.009 351.125 339.5 365.82 322.413C384.07 301.193 436 274.203 456.5 275.193L478.541 268.843C495.89 263 533.501 267.713 542.041 268.843C553.251 271.503 578.241 281.593 588.181 289.613C594.621 294.853 601.39 298.267 608.57 304.273C624.07 317.237 633.839 336.673 633.839 336.673C644.831 350 668.829 406.983 675.739 432.613C684.899 464.693 691.869 513.003 695.629 538.803C700.519 562.873 705.83 594.823 707.88 617.423C707.82 652.873 714.02 716.593 736.55 738.693C739.921 742 757.079 756.723 780.779 769.233C783.639 770.393 798.729 775.873 803.569 779.213C774.529 771.913 756.129 769.413 735.779 748.363M717.24 725.193C723.38 755.643 777.86 782.983 798.98 799.923C810.15 810.553 818.24 830.329 823.51 844.349C830.831 863.826 837.759 918.179 841.189 943.169C845.389 967.519 855.97 991.129 870.54 1012.18C882.76 1028.3 891.589 1032.7 898.529 1048.94C906.209 1075.9 894.249 1114.91 877.959 1138.24C871.799 1146.68 865.859 1150.83 859.859 1158.83C856.232 1163.66 832.03 1192.07 817.3 1187.15L814.84 1172.52C814.84 1164 821.561 1136.64 822.871 1128.31C826.801 1106.62 850.99 1056.74 852.9 1039.41C852.37 1017.27 838.88 1034.73 832.03 1048.85C829.79 1053.17 815.261 1107.91 813.681 1127.38C812.941 1137.16 813.881 1146.75 816.621 1148.29C822.751 1150.42 841.5 1142 850.59 1137.13C861.07 1133.71 921 1075.23 935.87 1060.36C985.75 1010.48 1035.1 971.743 1092.94 923.653C1193.28 837.773 1316.45 779.623 1441.1 751.923C1454.59 749.083 1527.73 738.733 1540.54 743.283L1541.62 746.683M785.891 1154.41C787.411 1172.8 787.511 1182.38 795.871 1192.07M795.029 1194.61L795.129 1190.65C802.639 1188.87 822.149 1200.62 829.729 1205.74C855.029 1222.69 856.88 1288.5 866.729 1306.88C873.5 1306.88 870.54 1297.16 870.62 1295.94C870.88 1292.52 876.78 1283.67 880.62 1283.31C883.14 1283.17 889.579 1291.01 892.509 1296.78C897.169 1305.96 900.87 1309.17 902.79 1309.71C903.81 1309.65 908.609 1269.83 909.089 1257.41C908.799 1241.21 909.089 1199.86 901 1182C898.547 1176.58 893.589 1162.46 878.439 1160.63C870.62 1162.5 867.959 1169.23 864.589 1171.67C849.249 1183.11 839.399 1189.49 838.859 1199.86C836.259 1213.29 832.949 1234.91 832.229 1248.17C831.549 1261.56 832.89 1283.87 836.43 1295.21C837.64 1299.74 840.159 1304.89 839.649 1308.36C841.499 1312.43 837.15 1315.65 835.61 1317.67C816.38 1343.84 800.79 1381.08 786.15 1412.95C774.24 1440.62 760.96 1460.14 765.22 1485.86L767.96 1487.02C784.04 1472.39 806.42 1434.56 821.18 1417.25C837.94 1391.68 859.35 1368.06 856.88 1346.66C851.44 1342.03 841.13 1344.29 837.13 1350.34C833.91 1355.94 828.49 1365.24 833.51 1370.17C846.6 1370.14 882.54 1330.83 881.83 1329.81H884.05C870.25 1400.14 963.23 1478.07 939.25 1540.66M734.501 1198.75L733.24 1197.69C725.54 1198.41 723.201 1211.68 723.501 1213.86C732.601 1213.3 746.051 1199.78 750.711 1191.73C757.081 1178.99 752.88 1167.99 761.09 1153.59C762.81 1150.21 768.691 1140.44 773.601 1133.52C778.821 1126.12 781.654 1121.07 781.621 1114.81M781.621 1114.81C781.51 1094 786.31 1071.18 788.3 1037.22C793.32 976.183 788.96 865.983 768.99 826.813C760.12 838.863 709.79 966.063 686.49 969.913C686.36 951.113 692.311 940.443 694.811 918.133C696.591 901.623 697.05 887.343 697.03 887.583C698.11 893.303 709.321 919.093 719.161 914.993C717.371 898.323 702.07 860.393 686.51 849.323C689.28 879.793 678.001 907.273 663.311 933.503L655.59 941.243C664.34 893.793 656.651 843.593 624.581 806.063C601.311 773.163 599.55 701.863 607.1 666.213M781.621 1114.81C781.821 1118.27 785.43 1144.77 785.25 1153.97M607.1 666.213C612.81 663.993 617.12 660.093 623.43 654.863C661.07 611.233 659.539 598.153 667.689 523.243C668.389 509.803 670.405 496.5 666.939 489.563C659.021 473.713 652.24 457.203 646.35 445.183M607.1 666.213C586.45 674.523 479 651 457.08 635.553M457.08 635.553C445.73 617.043 420.49 577.673 418.06 580.473C415.63 582.933 409.82 580.843 406.2 582.263C409.59 599.653 423.32 612.373 435.01 636.083C449.8 663.403 452.211 698.933 427.331 716.783C444.931 712.653 458.56 694.333 461.89 676.043C461.77 673.053 459.11 649.93 457.08 637.5M457.08 635.553C479.5 666 550.32 676.283 554.89 702.443C548.26 707.573 536.23 704.793 538.72 718.473C553.42 756.033 556.19 784.603 554.05 817.953M533.3 478.683C512.48 450.603 478 473.713 461.23 483.323L454.101 486.063M506.02 467.453C514.1 474.753 502.05 487.493 493.55 481.243C489.64 477.033 489.08 467.693 496.65 469.073C498.63 469.653 502.03 472.273 502.33 473.813C502.57 475.273 500.35 477.733 498.99 478.093C496.75 478.613 495.27 473.233 495.89 472.113L498.45 476.173M595.541 464.073C598.331 455.273 610.191 443.603 620.871 443.263C630.031 443.653 636.571 447.313 637.781 451.003M603.351 454.493C601.651 458.013 607.561 466.343 611.431 462.093C617.671 453.793 611.21 450.383 610.45 450.183C604.4 453.613 608.26 460.373 612.63 460.063C614.49 458.203 612.631 451.363 610.711 451.003C608.461 453.153 606.571 459.373 610.811 460.143L611.291 456.603L608.57 460.703L610.47 462.223C614.42 460.353 612.77 456.063 610.63 454.703M577.45 445.983C572.32 468.603 586.8 508.843 599.92 526.523C600.13 528.733 593.39 545.183 593.24 546.773M552.94 600.173C565.6 599.023 572.43 595.067 585.5 590.5C594.17 586.567 622.67 584.653 624.19 583.533M532.48 314.783C555.54 338.143 582.731 390.063 583.141 421.613M525.73 327.073C539.52 347.183 559.971 406.193 556.061 433.403M516.49 333.213C527.51 354.223 541.99 411.923 535.9 439.203M509.95 331.293C510.09 343.873 496.97 407.613 491.54 419.973M490.5 423.5L475.21 454.773M478.45 377.413C477.33 380.833 475.451 405.143 473.671 416.253C470.931 438.433 448.471 498.263 438.311 516.353C426.421 540.333 395.79 580.62 401 610.5M429.63 420.853L429.57 420.573C421.54 446.743 410.69 475.743 406.46 509.373C400.61 554.583 402.92 625.253 426.05 661.023M424.49 658.093C428.52 676.883 420.5 708.023 406.3 720.623C411.06 696.823 406.8 657.713 397.4 630.763C388.14 604.853 366.1 649.233 359.34 658.993C348.84 678.283 336.48 713.633 338.33 735.803C339.45 744.863 349.98 761.293 350.46 762.133C355.14 770.273 357.42 771.333 359.66 771.653M556.07 333.213C561.12 331.243 587.85 357.483 589.26 358.203C607.79 375.743 632.641 412.593 644.831 443.023M583.76 416.613C595.43 409.103 616.54 404.833 626.62 404.703M601.211 464.153L601.271 464.553L606.111 462.133L603.571 463.513M663.651 571.123C662.831 630.433 670.311 672.343 696.561 722.613C709.861 747.903 733.521 786.063 759.431 804.973C758.371 806.513 756.011 807.073 751.891 806.433C737.781 804.013 720.661 789.473 710.771 779.363C691.571 757.043 681.871 740.043 672.531 714.793C664.521 691.893 654.151 634.303 659.021 617.053M360.3 770.353L359.661 769.273C365.611 778.323 399.27 786.513 398.48 790.343C389.28 798.383 362.291 806.873 356.141 824.073C360.101 825.593 373.58 829.133 381.51 827.273C384.31 827.733 393.231 834.533 397.021 839.153C409.191 854.543 463.36 927.343 469.65 935.893C482.75 958.013 536.97 1052.86 552.23 1088.99C560.87 1107.34 578.86 1163.64 579.88 1163.32C553.12 1177.26 496.56 1177.11 462.51 1163.98C454.73 1160.88 416.33 1137.13 411.19 1133.55C386.26 1114.96 368.04 1062.37 367.65 1034.79C383.1 1036.04 392.591 1057 409.811 1077.97C427.311 1103.25 471.801 1163.45 484.601 1176.67M487.34 1181.43C505.12 1186.47 524.52 1194.13 546.75 1196.4C559.53 1198.72 571.51 1197.96 568.2 1211.59C555.46 1229.72 520.26 1272.72 512.95 1296.87C505.46 1319.5 499 1367.5 512.49 1386.6C526.29 1343.08 540.89 1293.49 565.47 1255.18C573.96 1243.23 595.371 1211.87 607.831 1229.57C611.597 1234.92 625.419 1256.28 632.899 1266.32C647.219 1284.34 672.099 1308.28 693.009 1320.82L653.87 1237.48C657.31 1237.64 668.599 1235.86 673.899 1234.92C679.819 1234.14 695.25 1235.42 696.83 1235.5C729.08 1236.44 765.729 1208.96 775.459 1200.24L787.79 1198.58C795.23 1201.95 805.699 1217.65 806.979 1224.99C816.039 1237.37 822.97 1257.57 820.39 1271.09C813.99 1293.1 802.079 1337.32 790.979 1364.89C779.779 1387.3 764.989 1405.9 749.779 1424.54L744.5 1431C739.5 1436.5 729.85 1440.07 720.58 1442.46C697.77 1446.35 636.85 1442.49 617.69 1439.1C563.08 1439.23 507.89 1415.26 456.96 1393C438.03 1384.55 390.9 1339.42 375.94 1321.07C363.65 1307.1 352.23 1295.14 347.33 1287.25C341.79 1278.21 334.7 1261.3 333.96 1259.5C316.28 1225.74 317.53 1215.05 299.65 1170.08C284.66 1136.26 274.28 1090.73 278.44 1062.23C283.36 1014.33 285.37 978.173 275.58 937.053C276.08 903.103 291.57 878.953 312.21 857.613C314.71 855.273 322.76 849.353 326.02 849.153C327.66 849.113 332.78 849.593 333.66 850.113C336.52 852.013 341.82 886.793 343.26 897.753C341.4 935.053 380.09 1131.84 339.42 1153.32C329.85 1152.71 332.08 1066.14 336.04 1062.7C354.17 1095.13 361.86 1128.48 368.4 1162.26C373.25 1210.61 390.75 1290.93 384.57 1332.94C386.45 1338.2 381.43 1348.41 379.21 1349.67C372.5 1347.65 354.7 1319.49 353 1317.78C345.16 1331.77 346.19 1384.81 337.9 1435.53C332.88 1473.26 330.19 1508.2 329.85 1526.49L329.67 1525.91M386.69 1530.86C385.45 1504.93 422.16 1428.44 452.12 1422.79C462.62 1450.04 419.05 1547.67 400.84 1563.93M491.54 473.713C487.39 471.493 489.36 481.773 490.3 482.673C499.93 491.763 515.44 479.173 507.09 467.603M601.39 462.273L601.189 461.993L605.549 464.673C604.709 465.983 608.089 467.053 609.069 463.153M427.19 317.153C434.78 304.323 485.97 288.853 483.59 290.463C483.63 291.763 474.73 299.823 470.4 304.933C447.37 332.383 448.971 342.853 449.311 343.493C453.021 341.413 490.28 302.613 499.71 304.273C492.28 311.283 477.761 346.123 477.641 353.673L478.541 354.013M442.4 452.293C454.9 443.353 482.15 431.733 497.9 429.903C501.21 429.573 519.26 429.543 521.99 429.903" stroke="#E72F1E" stroke-width="12" stroke-linecap="round" stroke-linejoin="round"/>
</g>
<defs>
<clipPath id="clip0_951_191">
<rect width="1080" height="1512" fill="white"/>
</clipPath>
</defs>
</svg>
