<svg width="1080" height="1512" viewBox="0 0 1080 1512" fill="none" xmlns="http://www.w3.org/2000/svg">
<g clip-path="url(#clip0_951_193)">
<rect width="1080" height="1512" fill="white"/>
<path d="M-299.26 1272.4C-288.04 1262.62 -263.44 1241.41 -250.04 1229.98C-209.92 1199.01 -139.389 1162.27 -91.1694 1146.64C1.84057 1120.36 172.12 1133.79 265.21 1136.36C312.63 1137.83 368.991 1138.72 408.811 1116.22C391.971 1092.62 320.331 1034.41 308.951 1029.68C289.931 1020.76 242.961 1004.21 224.971 1018.54C221.501 1029.79 228.591 1037.87 240.801 1047.19C283.261 1077.84 354.729 1101.69 406.169 1088.42C400.389 1039.1 368.4 973.527 348 926.467C321.61 865.257 292.471 798.787 252.641 753.577C242.631 749.127 243.481 755.877 240.581 769.787C221.411 884.117 224.381 925.137 208.341 1001.59C202.311 1028.04 191.481 1048.52 193.341 1062.88C194.801 1067.36 200.141 1078.27 202.481 1082.59C206.811 1088.76 204.891 1128.78 203.661 1135.01C187.161 1210.58 218.5 1302 243.301 1318.97C243.301 1318.97 251 1322.15 257.39 1323.69C269.64 1326.63 304.409 1328.41 312.209 1328.39C355.719 1328.55 431.47 1315.84 474.64 1308.24C523.21 1300.72 532.409 1294.18 574.279 1277.75C588.169 1272.62 596.87 1268.14 599.95 1264.26C587.13 1251.73 599.631 1189.64 600.231 1182.58C600.821 1190.17 574.851 1195.41 572.421 1197.47C568.691 1200.6 563.321 1203.72 557.271 1209.92C549.721 1219.01 552.521 1237.36 561.691 1241.69C564.991 1211.67 558.94 1156.84 554.09 1126.54C551.39 1111.29 549.509 1105.69 549.949 1104.51C553.339 1099.39 592.859 1043.11 599.589 1026.88C612.669 1025.25 615.559 1010.4 616.739 998.017L616.1 995.297C623.54 1004.23 642.97 1011.8 641.37 1023.19C641.27 1023.37 626.159 1035.7 625.759 1036.28C628.099 1035.5 653.359 1036.88 664.489 1033.1C670.889 1030.9 709.449 1015.23 716.149 1012.99C750.679 1001.71 757.949 1008.3 772.899 1001.95L774.551 1014.55C775.951 1018.59 719.681 1045.5 710.16 1051.81L698.979 1055.15C702.859 1056.43 713.869 1054.47 721.489 1051.01C753.489 1037.21 764.679 1030.64 782.879 1031.14C788.439 1031.12 791.12 1039.6 791.06 1041.56C790.68 1042.28 781.379 1050.48 780.199 1052.84C778.589 1056.33 786.44 1060.9 788.56 1068.67C789.06 1070.57 789.58 1075.95 789.16 1077.19C787.27 1082.55 759.46 1104.05 760.25 1108.44C763.88 1109.35 764.189 1123.54 762.649 1128.05C738.389 1151.14 691.5 1159.6 666.93 1176.15M667.14 1177.44L666.98 1176.58C638.33 1175.08 626.04 1178.95 618.52 1165.67C611.5 1145.08 620.15 1108.64 625.74 1091.12C627.7 1086.68 634.2 1078.29 638.91 1075.57C640.93 1074.45 644.27 1073.43 645.55 1073.49C647.11 1073.71 657.46 1082.17 661.1 1086C677.84 1103.42 680.13 1125.22 676.25 1149.21C669.42 1161.78 642.68 1259.68 614.9 1236.65C610.58 1227.87 610.8 1215.28 622.22 1213.58C632.43 1213.4 635.15 1227.15 636.03 1236.43C634.33 1252.11 623.9 1275.11 622.06 1288.29C620.14 1302.82 625.37 1311.4 632.45 1325.71C636.24 1338.29 643.3 1394.58 652.5 1413.45C656.54 1420.71 664.52 1432.55 673.67 1434.56C676.73 1435.2 686.32 1426.28 687.88 1421.57C688.5 1419.45 688.42 1414.07 687.52 1412.71C685.02 1409.69 679.48 1400.19 673.41 1402.55C651.45 1425.44 690.49 1458.33 698.42 1482.58C701.94 1492.08 705.4 1500.79 708.84 1508.73C711.98 1515.8 712.33 1529.97 714.12 1531.98M607.34 248.467L609.24 246.567C591.3 233.867 560.12 242.787 542.31 246.827C491.71 267.347 455 329 443.681 361.777C438.061 367.747 403.661 516.427 402.081 573.227C397.831 624.457 396.681 682.417 356.801 718.987L352.91 715.837C349.01 713.817 361.61 738.767 366.52 751.357C374.74 775.107 394.53 858.437 393.51 864.247C386.87 862.527 372.66 848.577 352.95 827.927C343.83 818.567 318.92 798.917 314.13 794.637C307.05 787.137 280.51 760.957 279.66 756.257C279.78 755.697 292.38 745.217 294.2 744.537C318.34 735.697 393.16 721.427 406.79 727.527C418.03 757.557 413.339 784.807 408.969 815.177C404.009 835.477 398.619 885.507 377.779 903.277M379.439 896.177C394.969 897.307 410.699 873.307 423.299 857.977C431.129 845.537 441.38 825.347 443.25 809.657L440.31 808.777C439.09 808.937 437.01 815.517 436.85 823.127C438.36 853.437 432.189 893.007 440.469 907.147M432.199 918.427C464.509 891.257 503.899 816.477 510.529 784.387C516.969 799.397 520.789 807.047 512.729 823.987C507.889 832.207 506.45 836.517 507.87 837.857C515.91 845.017 520.599 854.447 521.399 856.907C518.089 857.637 504.269 853.167 500.689 857.427C498.139 866.427 502.1 874.437 509.23 882.627C522.6 897.377 540.861 922.137 556.831 933.247C561.471 935.757 592.79 948.247 599.17 957.717C603.23 962.367 608.51 971.267 614 974.207M616.32 969.467C622.08 978.297 651.29 1011.5 660.94 1020.41C687.41 1020.63 699.19 999.947 714.76 979.767C718.56 975.067 719.901 968.807 719.681 967.457C719.201 967.377 704.15 946.387 699.23 942.587C671.09 927.467 651.851 968.147 650.411 987.527C651.151 987.347 652.271 986.667 660.371 993.027C693.011 1013.19 700.591 994.527 725.521 979.037C725.541 978.117 730.52 971.237 732 967.577C732.8 965.297 719.25 942.687 717.75 940.767C708.15 928.937 702.241 924.917 702.081 924.717C700.621 924.657 691.721 925.697 689.911 924.777C689.151 924.337 669.44 901.967 664.2 888.977C656.69 870.207 653.641 830.837 652.341 828.867C651.381 827.187 644.341 819.207 639.251 814.637C626.711 805.637 613.451 798.627 605.131 786.127C595.121 773.347 570.211 726.447 549.391 747.927C540.461 743.697 571.851 794.947 573.281 800.067C569.641 798.887 558.651 791.587 555.151 789.627C550.051 786.807 541.221 784.147 540.461 784.187C535.831 790.267 531.261 798.5 531.261 807.497C533.321 815.787 547.551 830.807 555.731 832.167C566.231 816.597 547.351 787.267 541.001 765.817C533.621 749.017 531.88 733.657 526.72 729.807C527.78 714.847 532.12 668.877 523.38 647.287C521.34 640.547 519.12 634.357 515.59 626.917C509.15 613.727 505.1 605.96 502.271 598.907M502.271 598.907C500.881 592.347 510.21 607.957 512.82 610.077C527.37 625.897 550.89 639.247 572.05 643.157C603.89 654.277 579.02 660.667 570.05 675.527C566.05 688.217 573.59 711.347 579.49 724.147C592.89 738.537 590.881 738.017 592.121 750.167C594.841 752.967 602.861 758.347 605.581 758.027C608.001 756.927 669.4 713.157 669.92 709.077C668.07 702.757 653.18 708.407 647.83 708.877C648.3 698.857 668.97 645.817 670.58 627.297L671.22 626.657M502.271 598.907C500.891 595.467 490.93 570.357 485.82 535.477C484.42 525.047 484.521 503.177 485.581 495.657M605.891 646.907L605.73 647.127C607.38 647.407 618.5 646 624.199 644.687C631.5 643.157 657.256 630.5 661.561 627.297C699.111 599.357 715.59 560.407 726.95 516.047C741.13 577.577 733.44 657.677 707.84 713.137M610.359 298.697C608.139 296.077 597.41 289.097 597.29 289.037C575.03 281.177 546.63 305.187 535.18 317.887M547.29 308.337L547.01 307.897C552.31 303.837 574.81 302.937 581.95 303.637C586.17 304.217 597.8 307.257 599.46 307.377L599.5 307.697M612 305.757H612.54L613.36 306.557M560.44 303.577C521.01 320.197 504.31 479.177 462.98 517.947M502.931 393.657C494.481 435.087 443.8 514.397 422.51 562.967C413.28 587.477 406.43 633.027 411.99 651.687M483.94 492.957C446.3 566.817 438.27 688.657 483.4 756.657C496.24 797.617 496.64 836.767 476.82 871.467M470.92 612.867C475.36 637.557 477.88 649.907 481.66 663.087C495.55 697.027 531.11 777.767 511.07 808.747M612.359 249.207L612.5 248.387C625.33 243.617 650.11 243.307 666.62 249.527C674.5 249.257 698.071 265.907 706.181 271.147C721.471 283.087 747.83 326.737 753.8 339.357C756.16 344.217 767.77 375.297 770.03 385.957C772.29 396.617 775.154 410.457 777.851 420.167C783.5 440.5 805.37 511.677 810.34 529.257C818.27 558.217 809.69 591.447 796.24 613.237M624.12 306.877H623.58C629 307.457 634.34 311.577 639.29 315.837M622.84 302.377L622.16 298.917C637.58 285.817 647.05 313.687 650.01 325.487C654.94 344.657 660.55 365.237 665.28 378.287M664.02 374.267L662.68 374.487C676.89 434.467 719.51 500.867 773.35 529.257M705.959 419.947L705.199 420.167C713.989 440.117 751.249 472.767 763.989 490.777C773.349 503.487 787.08 527.137 791 538.937C795.68 557.547 799.71 585.577 793.56 601.147M786.821 553.967C787.901 587.817 782.241 616.127 765.251 650.647C754.781 675.067 749.851 713.617 748.961 740.927M777.851 605.647C743.041 689.647 692.891 773.097 801.081 830.687M825.77 831.787C794.52 835.957 772.63 819.577 758.5 793.427M674.51 620.617C672.2 630.047 677.82 665.507 678.81 679.267C679.75 691.887 679.73 715.547 677.61 729.947C672.16 777.867 659.24 810.297 673.23 840.017C672.26 821.527 680.24 780.407 685.28 769.847M695.461 760.657C691.471 824.687 753.391 863.487 814.091 857.257C783.421 859.087 770.601 835.177 752.841 815.477C779.961 838.457 802.031 840.447 836.781 830.627M727.67 562.967C726.63 580.777 713.8 651.767 712.94 666.837C711.36 705.817 715.06 757.287 735.91 789.867M583.109 270.617C592.689 266.347 608.359 275.087 612.779 284.107M599.449 263.957L599.509 263.577C604.009 263.737 614.94 269.407 619.08 274.437M652.279 410.457C659.209 408.177 666.43 410.457 669.35 411.217M522.4 394.337C530.73 389.407 577.851 391.707 587.431 399.197M604.081 422.847C611.471 447.027 600.88 482.887 595.56 498.257C595.41 500.257 598.21 511.347 600.9 515.307M488.621 546.477C503.401 588.417 527.401 621.687 563.791 641.537M985.31 1581.89C968.09 1526.51 924.93 1387.67 922.76 1385.86C902.6 1325.21 884.37 1268.77 854.39 1227.73C839.45 1211.74 805.27 1169.81 795.26 1146.55C795.18 1147.03 791.84 1149.37 778.63 1159.62C765.83 1167.84 743.86 1204.7 738.01 1212.32C738.67 1213.1 775 1251.7 786.23 1256.98C791.15 1259.23 808.1 1263.23 815.82 1264.85C833.63 1271.33 871.51 1255.7 882.73 1253.06C926.17 1188.46 897.76 1157.33 875.81 1093.75C873.81 1084.57 877.52 1075.68 883.73 1069.7C894.7 1057.37 910.89 1043.54 919.87 1032.58C923.11 1028.72 925.65 1026.72 927.73 1026.72C948.71 1028.93 937.98 1086.87 939.7 1105.27C937.43 1126.77 929.44 1139.52 919.07 1155.61C895.82 1103.64 883.14 1060.66 827.21 1033.38L819.59 1031.01C841.38 968.007 848.23 885.127 862.73 815.847C864.77 798.307 859.66 779.957 863.93 763.287C864.75 759.277 866.61 749.997 866.65 748.297C866.67 746.487 865.33 738.007 865.87 736.087C851.65 752.227 838.93 816.637 830.72 844.097C824.1 869.297 816.67 918.517 821.71 936.937C823.51 940.617 834.12 946.657 836.36 945.477C895.76 889.467 929.32 840.477 1008.99 813.417C1079.02 792.827 1149.49 787.987 1219.76 769.177C1283.13 755.787 1309.79 729.517 1372.67 697.897C1394.92 687.477 1443.41 674.867 1468.69 674.377C1494.78 671.817 1535.68 668.317 1539.62 666.757C1545.49 662.457 1544.81 655.257 1536.48 651.747C1512.34 642.867 1456.56 668.197 1445.42 672.737C1436.6 676.807 1424.93 692.987 1420.09 702.607M538.11 1541.38C537.44 1550.37 563.511 1403.31 576.311 1349.36C581.131 1329.91 581.651 1323.42 581.331 1308C567.811 1319.25 553.73 1326.85 534.65 1332.19C534.67 1325.67 525.46 1314.63 524.27 1307.3C523.65 1295.39 526.129 1221.36 526.109 1197.27C525.659 1145.82 526.05 1061.72 527.87 1012.51C527.87 987.527 528.77 943.077 519.79 918.327C519.33 917.607 518.53 917.187 517.87 917.107L513.729 915.727C506.149 933.977 497.254 957.717 491.08 980.037C483.86 1006.14 469.099 1038.22 453.399 1061.64C451.919 1064.38 406.1 1167.25 403.02 1173.29C376 1220.07 308.03 1322.16 270.14 1370.22C280.59 1376.96 284.449 1383.43 285.709 1399.95C286.749 1428.05 246.76 1527.4 243.35 1538.43L243.449 1538.67M650.24 453.917C651.06 451.617 662.51 441.987 663.55 441.467C668.8 439.137 685.241 441.367 690.121 442.147M657.6 450.877L662.7 455.297L667.66 443.977C665.77 444.037 659.01 454.317 665.6 454.917C666.18 453.477 663.4 451.617 661.88 451.197C657.3 450.017 655.46 453.917 655.34 454.677C655.9 455.537 660.02 456.697 660.72 456.617C663.98 456.597 666.82 449.277 666.98 445.007L665.74 452.107C669.3 451.387 670.05 444.927 668.84 442.667M583.97 445.617C582.06 440.487 578.24 431.887 574.17 429.007C558.24 420.067 538.24 425.047 525.31 428.607L525.09 428.907M557.25 426.647L558.27 426.547C559.93 427.947 556.33 439.437 553.51 441.157C551.69 441.837 547.34 442.557 545.59 441.037M555.149 437.577L555.89 437.117L544.06 434.477C545.17 433.947 554.89 431.317 555.93 430.437C552.77 426.077 542.559 430.537 541.799 431.177L552.16 437.617C550.6 439.737 537.849 438.157 536.609 438.517L537.509 427.677C537.789 428.317 540.809 439.607 541.189 439.847C545.759 441.717 548.289 441.067 550.569 440.087M635.75 566.867C635.61 566.707 617.56 550.417 617.12 550.037C616.96 549.917 616.6 549.657 616 549.257M614.779 549.207C595.219 542.567 571.699 553.457 557.189 552.687M638.85 567.827L644.949 569.527L642.109 569.747M641.689 570.297C639.929 570.937 620.42 575.197 608.6 574.657C596.45 574.847 557.46 559.957 556.68 551.787L557.319 552.247M749.041 740.587C784.591 772.157 794.351 723.727 773.711 714.477C747.311 733.937 826.221 738.647 836.001 741.867C862.381 748.877 880.831 752.977 894.751 759.677C893.811 767.117 894.131 775.547 895.911 782.567C920.611 885.887 931.601 909.297 914.321 995.677C911.711 1000.62 907.761 1005.18 901.941 1002.62C893.401 993.127 893.631 971.307 901.941 967.577L919.87 963.341M656.6 455.917L667.64 456.937C669.58 455.297 671.519 444.977 671.879 444.387" stroke="#E72F1E" stroke-width="12" stroke-linecap="round" stroke-linejoin="round"/>
</g>
<defs>
<clipPath id="clip0_951_193">
<rect width="1080" height="1512" fill="white"/>
</clipPath>
</defs>
</svg>
