<svg width="1080" height="1512" viewBox="0 0 1080 1512" fill="none" xmlns="http://www.w3.org/2000/svg">
<g clip-path="url(#clip0_951_192)">
<rect width="1080" height="1512" fill="white"/>
<path d="M-249.41 1141.75C-238.93 1138.33 -176.26 1081.22 -164.13 1064.98C-114.25 1015.1 -64.9001 976.358 -7.06006 928.268C93.2799 842.388 216.45 784.238 341.1 756.538C354.59 753.698 427.73 743.348 440.54 747.898C422.32 825.198 384.251 934.278 324.431 988.538C319.5 990.238 315.5 991.052 313.261 990.238C302.671 986.388 299.741 940.068 297.641 927.368C295.711 894.688 303.501 861.268 313.521 833.608C322.611 813.368 334.711 780.278 354.241 777.508C378.951 801.738 365.84 875.108 364.46 908.498C361.71 923.488 362.72 1422.63 326.34 1328.02C321.81 1316.78 303.52 1266.09 312.14 1250.91C312.72 1250.17 316.32 1250.07 317.1 1250.29C363.03 1284.33 359 1371.5 368.1 1432.61C372.15 1472.1 389.5 1538.66 370.12 1573.57M644.851 305.858C628.521 302.068 599.531 300.688 582.461 301.698C558.601 300.378 531.158 314.181 509.631 326.288C462.246 352.938 439.181 409.618 443.881 461.248C436.781 456.688 418.01 433.718 417.85 424.528C413.65 392.558 439.31 325.518 441.02 290.768C440.2 282.268 490.599 251.708 504.469 251.908C522.629 250.478 533.329 247.248 545.509 235.428C552.959 227.758 574.3 198.638 590.75 194.608C599.04 192.098 612.081 190.238 619.601 192.748C637.661 201.188 655.03 206.298 670.9 210.198C682.28 211.278 723.09 215.458 733.07 229.808C733.07 229.808 742.311 240.958 744.851 242.618C764.021 251.088 773.891 255.368 785.271 275.388C789.523 282.868 790.97 288.058 794.95 293.558C807.5 306.028 831.8 315.858 839.61 328.098C839.69 337.608 825.31 366.308 825.31 366.308C817.7 385.268 833.24 412.118 828.17 430.368C825.83 436.318 827.64 448.888 825.81 455.518C824.28 463.698 813.421 481.138 810.421 486.198C808.501 491.888 802.541 499.098 794.111 498.228C784.601 496.198 784.651 477.718 785.191 471.498C785.751 469.358 788.071 468.298 789.351 468.778C812.111 488.768 812.47 536.668 814.5 569.118C819.3 634.138 803.29 753.788 859.56 810.368C866.44 816.208 895.041 832.968 907.061 835.398C851.281 984.468 838.101 1186.85 779.101 1334.5C774.661 1325.82 779.041 1293.72 778.981 1286.52C779.721 1280.98 785.261 1271.19 788.061 1268.05C798.591 1258.34 829 1236 849.96 1228.92M645.229 305.698C683.319 311.588 757.129 367.208 783.509 404.518C790.629 414.128 806.26 456.158 807.18 457.238C814.63 450.378 807.01 419.458 806.1 412.458C795.71 364.128 754.82 326.748 712.08 298.258C702.5 293.558 685.11 288.078 667.34 282.868C633.25 276.648 573.96 268.428 534.86 286.428C496.69 304.588 462.07 337.498 452.6 378.928C446.37 407.218 447.4 462.438 455.78 491.558M450.16 477.248C458.09 506.298 452.57 573.128 469.83 604.488C481.6 622.728 492.4 639.358 508.67 647.088C511.79 648.398 526.17 654.178 531.36 656.828M545.67 659.108L546.23 659.688C510.78 640.518 486.63 619.658 476 575.268M480.481 486.398C480.331 493.438 487.361 502.748 496.131 530.458C503.221 552.778 520.981 598.219 532.581 613.519C553.431 638.799 584.38 664.328 611.51 675.958C633.48 686.238 658.08 680.638 674.74 673.518L688.35 666.818M688.35 666.818C723.03 642.908 743.649 620.778 756.819 592.668C759.369 568.018 761.571 503.918 749.941 462.788C745.071 444.438 735.101 410.278 728.291 396.678M688.35 666.818C688.35 664.018 638.881 705.118 626.301 717.818C623.581 720.698 620.921 725.438 621.001 727.898C624.871 735.208 639.181 757.378 640.431 766.978C645.641 788.698 618.321 820.898 619.141 841.108C619.151 848.488 624.081 884.198 634.451 887.348C642.961 887.528 642.961 874.198 641.911 866.598C640.531 861.778 620.981 832.358 618.641 829.458C611.781 821.038 587.351 799.408 580.341 792.018C570.551 781.488 554.711 769.5 554.711 759.128C555.371 741.288 565.479 703.348 568.199 691.748C570.139 685.468 575.459 681.188 578.239 680.478C585.609 698.218 582.139 733.778 581.379 749.948C578.089 768.438 568.078 779.867 563.209 795.628C544.899 854.908 511.61 923.848 448.11 946.418C440.47 948.338 427.92 951.748 420.16 946.398M618.721 304.618C658.161 334.928 680.931 388.098 690.331 418.268C707.571 484.318 716.951 519.548 714.021 586.198M712.32 363.979H712.061C715.741 370.569 722.631 393.548 726.311 405.558C731.851 419.428 737.13 435.548 739.23 453.038C745.55 496.438 748.011 529.118 745.811 571.188C745.326 580.458 743.32 590.408 742.17 594.138M731.729 531.378C731.699 550.828 733.17 574.448 727.43 589.888M536.181 332.388C535.091 358.018 542.751 420.928 561.711 441.618M567.75 326.688C575.28 363.018 592.52 400.688 624.27 415.748M570.779 352.938C574.279 368.158 594.799 424.338 606.419 432.248M575.74 328.208C584.96 345.958 629.85 406.068 654.17 412.408M672 416.848H673.14C654.82 407.658 644.09 387.468 635.1 364.348M625.58 351.418C649 374.538 669.14 396.578 686.63 422.188M528.561 334.288C530.021 380.078 525.59 412.768 511.07 453.278M516.009 377.668C493.859 455.368 474.48 507.098 498.5 580.458M449.041 462.128C451.531 473.568 434.901 540.388 435.151 559.808C432.891 596.858 437.301 616.519 447.901 650.469C454.121 669.369 458.681 687.188 466.511 701.328C468.251 695 469.23 682.95 469.83 677.5C472.19 655.39 469.671 651.828 468.971 649.468C455.631 690.038 411.5 804 378.871 835.928C401 829.458 443.679 772.558 448.419 755.898C447.449 823.208 428.079 920.438 371.109 956.228M620.42 427.308C622.62 425.748 631.89 422.008 636.17 420.708C655.97 415.228 674.2 415.988 676.23 416.328M497.76 460.428L498.34 460.588C505.37 452.648 540.41 438.338 556.41 439.958M639.371 469.148C645.531 447.998 662.971 439.718 685.851 439.858M688.631 439.958C691.781 439.978 692.271 439.868 694.791 439.738M657.029 453.458L660.089 464.138L658.569 457.818M665.961 446.498C671.621 446.278 675.471 455.198 673.801 461.068L673.381 461.088M667.701 461.528L661.541 462.968L674.451 460.428L671.611 460.648M661.16 457.808L660.979 457.568L670.06 454.048C666.41 455.038 663.319 455.198 659.859 455.108C660.729 454.498 665.32 453.408 667.52 452.908M574.121 484.258C564.701 473.378 547.841 471.108 538.281 473.158C532.391 474.608 513.001 485.348 506.471 487.488M557 477C557.969 479.56 558.494 486.292 557.35 487M538.481 476.068C538.201 478.748 543.9 489.228 544.2 490.058M560.07 487.058L546.061 490.378L555.86 486.778L548.36 487.338L555.141 483.758L541.391 479.778L552.351 480.378L543.911 476.578L546.13 476.278M573.68 456.628C582.92 463.888 590.119 483.688 592.629 491.378C595.929 504.068 595.949 524.758 594.089 538.658C593.069 543.638 598.439 553.148 605.009 557.448M585.641 591.578C611.001 591.368 680.401 573.788 688.931 566.748C689.671 569.808 690.26 573.758 689.17 577.028M589.18 593.188C589.6 593.428 597.559 600.248 597.839 600.388C600.459 601.788 615.45 607.528 616.25 607.728C622.61 609.308 635.499 609.368 637.479 609.328C657.599 604.838 677.959 596.408 688.799 575.978M375.89 1519.85C369.88 1540.35 353.29 1567.88 339.29 1581.74C337.35 1582.86 331.829 1583.12 330.669 1583.5L330.27 1584.08M252.04 1524.42C226.93 1373.74 217.26 1203.95 232.73 1058.15C240.65 982.388 259.99 910.648 275.43 848.698C277.09 843.798 281.47 832.488 284.41 825.828C287.55 818.828 299.58 803.158 302.8 800.498C284.24 874.748 270.06 962.238 273.61 1028.5C278.94 1092.69 294.5 1126.5 312.58 1173.36C333.84 1232.85 437.14 1373.82 439.4 1435.64L437.06 1436.32C430.5 1432.61 420.05 1416.79 425.9 1409.23C445.14 1405.27 464.62 1437.56 472.74 1447.37C478.37 1448.68 520.561 1467.71 534.861 1470.25C539.871 1470.27 561.001 1474.35 564.971 1468.99C564.471 1467.35 541.461 1450.16 532.281 1439.36C516.041 1419.64 493.531 1376.71 505.911 1353.6C512.881 1353.78 526.311 1396.74 534.241 1406.52C544.241 1425.04 568.701 1453.12 583.741 1466.25C589.621 1472.53 591.581 1477.69 592.251 1478.97C594.461 1480.51 597.151 1477.08 597.231 1474.75C620.411 1484.64 708.371 1475.19 714.121 1481.53M714.121 1478.97C709.831 1432.6 762.55 1305.03 726.32 1255.61L723.2 1255.41C713.82 1286.88 717.17 1315.24 727.18 1343.81C733.42 1356.89 742.69 1373.14 744.53 1387.01C748.69 1412.37 745.41 1456.02 741.47 1478.87C736.21 1508.32 733.63 1539.49 718.92 1558.12M917.99 1555.71C918.35 1535.55 942.331 1471.48 950.181 1446.92C991.961 1306.01 1014.14 1189.55 1013.4 1052.72C1012.76 1039.35 1007.72 1009.14 1005.1 994.788C1001.85 975.358 994.191 882.638 985.671 858.888C983.011 849.528 969.661 826.018 960.041 826.318C954.841 828.718 938.231 850.508 929.871 865.458C897.731 932.078 860.121 1032.45 871.441 1105.69C883.821 1103.75 909 1020.5 914.74 997.578C924.2 949.608 946.881 870.128 930.311 829.828C929.831 829.168 919.571 817.478 916.311 812.918C913.051 808.358 907.69 806.058 902.53 803.598C885.74 794.388 849.87 760.628 829.96 763.638C829.44 765.018 824.08 772.738 824.1 776.548C824.1 776.928 824.16 800.258 824.28 807.758C814.67 871.168 782.88 954.128 729.34 993.438C747.93 986.728 788.99 857.118 773.24 847.738C767.95 891.008 734.73 957.598 688.5 969.248M670.581 968.008H668.621C699.401 941.078 727.411 878.308 726.811 839.428C726.791 839.348 720.031 829.668 713.921 819.138C694.781 774.098 724.581 673.488 757.621 638.478C757.041 664.628 748.151 707.018 741.231 733.018C728.381 769.868 706.58 816.528 682.31 845.778C665.07 892.668 606.839 1005.04 594.449 1070.24C578.409 1145.82 565.4 1220.96 586.79 1296.48C593.49 1316.13 599.519 1355.05 612.199 1368.95C614.239 1364.07 613.839 1352.18 611.979 1347.02C602.619 1321.51 553.179 1142.87 541.529 1115.3M640.53 1568.76C638.73 1502.46 606.381 1425.19 565.631 1367C524.211 1302.58 459.471 1236.56 461.101 1154.43C461.921 1145.62 462.791 1118.41 471.641 1112.57C472.881 1112.81 473.761 1113.17 474.301 1113.65C488.941 1143.97 494.601 1206.17 505.561 1257.37C506.931 1274.69 514.221 1308.12 500.021 1317.1C478.151 1318.24 459.5 1297.4 448.421 1279.06C440.651 1266.2 435.301 1247.35 433.931 1230.1C426.391 1141.73 453.631 1040.19 509.711 971.088C517.671 963.058 542.221 932.068 549.431 937.988C550.811 951.158 545.171 973.498 541.981 997.958C537.911 1025.12 537.161 1080.28 541.461 1104.83M426.691 944.138C444.351 924.558 463.761 893.778 468.731 869.228C453.451 906.048 402.651 971.818 370.371 997.808C351.201 1012.12 305.101 1030.42 280.971 1026.54M849.96 1228.92C836.56 1240.35 811.96 1261.56 800.74 1271.34M849.96 1228.92C890.08 1197.95 960.611 1161.21 1008.83 1145.58C1101.84 1119.3 1272.12 1132.73 1365.21 1135.3C1412.63 1136.77 1472.79 1134.57 1512.61 1112.07" stroke="#E72F1E" stroke-width="12" stroke-linecap="round" stroke-linejoin="round"/>
</g>
<defs>
<clipPath id="clip0_951_192">
<rect width="1080" height="1512" fill="white"/>
</clipPath>
</defs>
</svg>
