<svg width="1080" height="1512" viewBox="0 0 1080 1512" fill="none" xmlns="http://www.w3.org/2000/svg">
<g clip-path="url(#clip0_951_194)">
<rect width="1080" height="1512" fill="white"/>
<path d="M-274.13 1028.56V1025.9L-272.79 1028.56C-216.86 1055.84 -204.18 1098.82 -180.93 1150.79C-170.56 1134.7 -162.57 1121.95 -160.3 1100.45C-162.02 1082.05 -151.29 1024.11 -172.27 1021.9C-174.35 1021.9 -176.89 1023.9 -180.13 1027.76C-189.11 1038.72 -205.3 1052.55 -216.27 1064.88C-222.48 1070.86 -226.19 1079.75 -224.19 1088.93C-202.24 1152.51 -173.83 1183.64 -217.27 1248.24C-228.49 1250.88 -266.37 1266.51 -284.18 1260.03C-291.9 1258.41 -308.85 1254.41 -313.77 1252.16C-325 1246.88 -361.33 1208.28 -361.99 1207.5C-356.14 1199.88 -334.17 1163.02 -321.37 1154.8C-308.16 1144.55 -304.82 1142.21 -304.74 1141.73C-294.73 1164.99 -260.55 1206.92 -245.61 1222.91C-215.63 1263.95 -197.4 1320.39 -177.24 1381.04C-175.07 1382.85 -131.91 1521.69 -114.69 1577.07M-91.5 815C-21.47 794.41 49.4898 783.167 119.76 764.357C183.13 750.967 209.79 724.697 272.67 693.077C294.92 682.657 343.41 670.047 368.69 669.557C394.78 666.997 435.68 663.497 439.62 661.937C445.49 657.637 444.81 650.437 436.48 646.927C412.34 638.047 356.56 663.377 345.42 667.917C336.6 671.987 324.93 688.167 320.09 697.787C298.19 728.947 309.87 933.177 337.23 960.317L339.249 959.277C340.419 907.717 344.7 831.227 349.65 773.997C349.36 757.507 353.04 746.567 343.89 740.907C291.4 753.777 269.86 851.73 277 900C278.035 907 282.559 915.777 288.029 927.747C319.879 989.457 350.649 1067.74 379.329 1117.85L389.859 1154.85C382.819 1111.9 360.83 1008.54 389.1 967.327C389.52 969.587 394.539 977.867 398.279 980.637C438.769 1003.24 469.029 1002.36 425.709 1057.67C420.519 1065.52 404.15 1088.95 404.44 1096.13C404.84 1097.11 413.5 1087.89 413.5 1100.5C419.81 1135.04 436.521 1147.72 470.381 1154.28C461.471 1149.52 448.711 1119.58 450.891 1115.74C453.731 1114.26 459.351 1117.32 467.601 1123C481.671 1131.79 495.66 1146.48 499.95 1159.18L496.45 1162.14C527.02 1164.09 596.32 1155.47 621.5 1146L608.5 1162.14C607.29 1156.63 642.361 1088.23 653.021 1082.08C661.921 1075.83 671.461 1066.93 682.851 1064.81C693.491 1077.94 670.45 1120.69 661.28 1133.7C655.13 1142.38 647.621 1152.56 643.811 1156.89C640 1161.22 641 1161.22 644.25 1163.41C648.97 1164.26 669.46 1177.29 676.12 1172.45C679.8 1169.39 682.54 1167.47 685.32 1165.99C677.78 1161.86 681.95 1135.06 685.7 1132.89C691.96 1124.85 703.95 1102.28 709.03 1089.51C720.24 1061.68 727.42 1015.04 736.36 989.387L743.101 978.317C774.941 947.047 820.48 886.537 816.69 835.157C807.41 833.167 807.721 838.807 801.561 851.947C798.561 859.927 787.431 898.427 786.091 904.707C781.871 929.377 767.521 1016.87 755.341 1043.27L767.55 1031.84C743.93 1071.09 709.769 1141.14 685.729 1187.59C671.479 1217.74 649.689 1243.83 648.529 1259.48C653.609 1264.14 654.21 1262.84 660.3 1263.64C675.61 1276.09 655.269 1304.79 654.459 1317.04L662.209 1318.27C665.58 1312 676.88 1304.45 687 1299.3C705.92 1293.01 741.54 1287.58 762.5 1293.5C738.37 1287.04 725.24 1250.88 722.91 1229.54C724.73 1228.12 730.471 1229.76 734.301 1233.84C766.631 1271.3 789.71 1286.01 799.53 1322.74C804.46 1339.66 800.671 1340.23 797.851 1351.15C792.631 1360.31 780.88 1355.29 770.12 1349.59C762 1343.99 748.759 1327.17 740.739 1317.15C724.049 1343.82 696.25 1407.29 682.5 1425.07C672.498 1438 699.27 1438.65 676.5 1446C653.73 1453.35 613.45 1473.22 596.34 1486.77C594.02 1488.79 589.48 1488.75 585.56 1489.69C568.56 1482.41 492.389 1481.91 483.579 1482.05C476.239 1471.35 473.56 1462.47 464.5 1454L459.24 1451.33C460.61 1441.26 482.101 1440.02 490.011 1441.55C499.341 1443.4 519.68 1456.7 526.45 1457.38M528.689 1456.27C528.209 1455.77 537.069 1447.21 539.129 1441.9C540.989 1436.84 541.069 1414.13 540.709 1413.63C538.089 1414.69 533.209 1414.85 530.829 1413.07C526.739 1408.55 514.649 1395.56 518.919 1387.52M518.919 1387.52C519.309 1376.11 565.03 1396.46 582.01 1396.4C595.64 1397.42 596.34 1400.18 609.48 1400.18C622 1398.5 651.901 1406.59 637.311 1422.61C633.591 1426.86 620.28 1428.63 617.78 1425.07C617.46 1401.69 657.11 1358.97 665.58 1337.35C669.67 1322.12 710.039 1347.03 720.189 1354.55C738.849 1370.51 800.32 1438.56 795.1 1467.78C793.37 1502.81 797.881 1512.56 782.591 1537.59M518.919 1387.52C532.469 1386.54 544.309 1371.3 553.609 1364.45C558.699 1359.2 571.95 1342.41 570.1 1334.06C559.13 1329.79 530.68 1346.83 522.3 1348.99C517.42 1350.75 501 1350.5 491.35 1353.02C469 1358.85 433.66 1369.57 422.3 1373.85C417.78 1367.63 413.62 1359.66 411.22 1352.12C403.47 1325.62 396.999 1298.15 393.989 1272.82C392.269 1271.94 384.75 1267.1 379.26 1266.18C375.66 1265.62 317.569 1267.42 317.049 1267.54L309.149 1267.34C315.869 1273.35 328.269 1294.78 326.939 1304.18C319.089 1307.93 274.849 1334.94 258.729 1324.59C250.909 1318.48 249.989 1299.98 252.069 1292.5C258.199 1271.78 286.879 1255.67 303.689 1252.8C316.049 1243.39 350.971 1250.24 365.681 1252.06C372.821 1253.7 386.31 1257.94 387.57 1258.06C387.51 1258.12 389.831 1256 389.671 1253.12C388.621 1226.39 385.291 1198.39 369.341 1178.93C353.911 1164.53 327.07 1154.6 306.41 1165.22C290.77 1173.22 266.5 1208.5 257.05 1211.76C240.5 1154.28 219.619 963.137 227.459 893.757C228.799 884.147 229.34 872.257 236.42 867.867C238.36 867.807 242.999 875.067 247.279 884.097C256.919 904.447 271.11 952.497 270.63 973.957C268.33 972.977 266.789 971.097 264.829 966.357C248.939 925.487 242.26 896.257 235.42 854.907C225.34 798.727 240.199 755.807 267.569 707.527C271.209 723.717 268.1 749.717 249.18 746.967M277.939 1319.03C278.369 1294.34 284.119 1235.2 301.069 1211.96C313.989 1246.46 300.499 1297.97 293.449 1335.83C294.949 1327.67 286.619 1474.03 274.779 1505.68C271.609 1519.46 257.69 1548.25 254.77 1556.04M412.42 442.777C417.02 475.357 437.279 527.097 459.819 545.847C471.439 555.127 499.939 567.437 515.249 571.177C523.5 572.527 529.25 571.41 535.5 569.5C541 582 518.851 606.437 527.891 620.357C538.081 633.517 537.24 631.277 538.55 647.527C535.51 646.627 481.83 653.177 474.92 658.597C485.62 667.647 528.649 660.927 537.909 662.317C572.329 662.217 590.109 657.497 590.649 657.277H587.89C590.08 656.537 598.689 653.027 600.079 651.077M549.779 564.847C563.699 559.787 591.469 535.837 600.359 524.867C609.179 511.137 612.089 502.807 615.329 494.297M615.061 491.297V491.777C615.061 491.097 620.541 457.497 621.021 449.737C622.341 426.327 622.28 418.127 623.94 413.357C624.38 412.157 629.921 410.737 633.641 411.017C639.091 413.207 645.851 427.117 642.841 434.087M644.301 433.317L644.78 432.837C643.39 448.597 643.09 464.277 633.29 470.537C627.16 466.357 623.461 445.407 632.511 440.907C634.071 441.527 639.991 448.167 641.131 451.147C643.621 459.737 635.201 490.347 622.181 491.227L622.16 490.427M619.45 493.237C609.28 510.697 612.88 558.707 611.75 572.527C609.667 598 600.13 652.617 589.19 701.007C580.5 740.727 578.769 746.097 583.409 776.677M579.709 768.737C579.149 769.377 578.81 774.697 580.17 778.937C588.34 803.457 619.049 823.667 637.149 837.987C651.279 855.827 674.68 886.897 657.76 906.177M633.091 924.847C651.031 914.497 663.58 898.387 666.82 878.067C669.21 864.577 664.06 845.557 658.9 831.467C655.96 823.087 639.781 803.117 632.551 802.357L632.41 801.417M650.42 822.107C597.81 801.587 580.02 715.977 594.64 672.617M612.401 621.957C588.451 670.997 704.291 773.217 714.611 836.787C720.231 869.587 701.401 913.907 673.051 929.247C668.201 929.997 666.721 929.467 668.631 924.647C669.291 923.547 703.391 879.247 707.231 873.327C716.921 856.287 726.751 828.017 727.421 809.617M729.141 808.757C740.831 841.377 747.551 892.207 718.471 919.507M726.489 910.167C727.449 910.167 729.229 910.087 732.369 905.967C742.959 895.107 751.699 873.157 764.369 855.067C769.049 849.147 771.39 845.007 774.13 837.077C783.81 807.117 785.86 795.007 780.93 772.927C770.37 748.787 734.449 712.627 714.739 689.527C701.039 676.657 689.789 670.557 683.519 654.057C674.259 627.397 677 584.5 673.309 559.467C673.309 545.847 679.259 517.937 684.599 512.727C705.969 544.797 720.509 627.707 720.699 669.777C720.359 670.817 717.839 671.437 716.559 671.097C710.539 667.967 702.539 656.127 703.389 648.047C706.019 633.537 724.249 655.947 735.199 660.617C750.969 668.187 770.549 674.807 777.219 693.987M795.001 697C801.001 691.5 815.001 705.689 817.501 707.5C837.001 730 845.169 753.857 851.689 769.177C858.289 783.867 865.42 847.827 866.34 867.637M867.001 870C873.001 1038 832.979 1324.59 821.999 1309.78C801.729 1282.44 812.585 1262.72 834.115 1256M454.61 540.901C467.4 564.601 477.52 610.117 466.34 633.807C464.5 632.987 462.759 629.427 461.659 623.567C456.839 604.187 454.129 568.547 444.869 551.057L442.609 551.517C427.919 566.717 454.67 691.997 479.13 666.427M338.699 665.097C370.049 616.537 366.319 501.757 369.039 452.207C370.149 417.247 384.589 346.487 405.689 309.167C406.049 308.627 412.42 297.492 418.88 291.197C433.73 276.727 461.499 258.517 482.609 257.467C489.649 252.177 522.53 252.177 539.4 252.177C575.5 252.177 619 279.519 625.311 287.837C644.78 313.5 659.44 352.067 668.91 376.627C670.33 380.407 676.71 408.767 679.15 418.977C681.11 427.197 688.221 446.627 689.391 455.407M689.381 455.407C698.441 484.747 703.76 559.057 698.23 588.567C693.7 608.797 674.46 646.817 666.73 662.157M667.13 655.187L667.89 654.447C658.8 695.297 645.16 745.347 669.51 783.027M662.65 774.827C669.01 792.977 693.17 808.737 708.65 822.327M489.07 293.137C481.49 281.147 454.8 334.227 450.65 342.617M454.87 330.727C437.63 370.687 420.801 424.947 396.881 451.897M429.619 396.437C410.929 441.287 360.691 528.343 365.5 585C368.69 605 367.5 616.5 362.52 632.297M489.43 292.367L489.649 293.407C508.939 297.177 521.45 324.017 538.93 342.987C560.34 366.257 576.19 384.677 603.42 380.787M539.811 320.607C543.841 335.227 575.331 358.657 584.891 368.847C593.291 377.757 616.38 395.127 624.71 412.347M445.35 325.907C452.39 305.047 466.079 276.927 484.229 275.207L484.81 276.287M472.141 270.137C474.621 268.197 478.3 269.257 481.86 269.577M531.189 398.977C537.169 387.707 556.949 382.857 568.989 384.587C572.259 385.237 579.679 389.567 582.119 390.307C582.449 390.267 584.891 391.577 585.77 391.577M525.43 368.647C542.27 363.377 550.52 362.567 568.93 362.467M432.46 389.897C432.26 388.657 456.59 378.267 460.91 377.427C461.65 377.297 473.781 375.217 474.221 375.287M480.27 408.487C455.89 393.857 441.389 411.337 425.709 422.057M450.631 409.827L454.61 416.687L462.971 413.807L464.551 411.807L457.271 410.547L461.33 409.067C461.54 409.507 463.81 413.027 461.41 414.227L466.23 413.587C466.54 413.217 465.99 409.947 465.73 408.487M547.591 392.557L546.891 392.337L548.03 398.097L560.601 395.877C556.801 395.957 556.24 389.597 556.28 388.957L556.641 393.097C556.301 391.727 556.251 391.767 556.101 390.517M486.25 388.577C499.86 403.487 500.561 418.717 498.301 435.077C499.771 444.277 501.65 451.017 503.16 454.087M479.609 490.197L479.17 491.197C482.15 494.817 525.089 483.177 551.079 481.117C559.019 480.457 564.47 477.977 564.35 476.077M794.999 696.227C790.846 693.631 788.001 714.06 788 720.226C787.998 737.726 791.525 755.472 799.5 775.226C805.313 789.624 812 808.726 826.056 819.726C840.111 830.726 836.936 825.17 838.042 822.837C839.067 820.673 839.775 817.678 840.174 814.16M840.174 814.16C842.358 794.865 835.197 759.837 819.597 759.837C813.5 759.837 818.744 775.79 819.597 778.837C823.301 792.067 833.678 802.13 840.174 814.16ZM840.174 814.16C840.591 814.932 840.992 815.713 841.375 816.504C862.5 840.726 882.314 863.069 908.042 878.171C954.047 905.174 1001.65 909.726 1054.37 909.726C1093.17 909.726 1135.9 898.107 1174.37 907.726C1184.5 910.257 1194.49 913.627 1203.71 917.726C1213.79 922.205 1221.01 927.708 1230.49 933.282C1240.9 939.405 1266.5 957.527 1266.5 969.726C1266.5 987.023 1267.98 1005.23 1263 1028.73C1259.5 1045.23 1257.5 1051.23 1254 1065.73C1247 1080.73 1245.9 1094.37 1232.49 1097.73" stroke="#E72F1E" stroke-width="12" stroke-linecap="round" stroke-linejoin="round"/>
</g>
<defs>
<clipPath id="clip0_951_194">
<rect width="1080" height="1512" fill="white"/>
</clipPath>
</defs>
</svg>
