<svg width="1080" height="1512" viewBox="0 0 1080 1512" fill="none" xmlns="http://www.w3.org/2000/svg">
<g clip-path="url(#clip0_951_196)">
<rect width="1080" height="1512" fill="white"/>
<path d="M415.691 1550.75L412.631 1548.47C419.831 1518.78 432.272 1488.32 453.711 1454.47C464.172 1437.96 483.562 1414.29 483.562 1414.29L487.821 1408.39C487.821 1408.39 413.43 1355.19 441.301 1354.21C443.785 1354.13 445.182 1354.26 447.661 1354.43C478.401 1356.54 504.654 1385.6 521 1390.5C526 1392 543.51 1392.77 545.76 1378.5V1376.58C538.833 1353.04 522.39 1305.89 522.39 1305.89C514.466 1282.53 511.14 1269.02 502.099 1246.06C487.505 1209 415.854 986.771 395.19 1065.92C382.841 1113.23 402.093 1142.8 418.04 1189.01C439.32 1250.69 429.61 1313.45 497.5 1348.5C513.779 1356.91 483.5 1291 430.09 1246.06C388.811 1211.33 395.19 1148 373 1156.84C334.698 1172.11 294 1156.84 294 1156.84C294 1156.84 325.031 1159.9 347.74 1148C391.182 1125.24 368 1001.22 357.6 963.784C343.495 913.009 391.214 879.608 411.58 825.224C430.266 775.326 458.98 739.004 457.88 696.884C457.62 688.644 455.2 658.654 452.9 646.704C450.44 634.184 435.89 598.444 435.61 592.044M388.811 1100.02C396.954 1126.21 413.35 1149.29 430.09 1156.84L420.5 1127C420.5 1127 415.649 1112.22 413.5 1102.5C407.326 1074.6 411.471 1071.58 410.36 1029.38C407.984 939.126 440 870.054 450.58 810.054M450.58 810.054H450.24C413.41 846.284 379.021 910.444 399.821 962.184M450.58 810.054C482.77 771.884 498.74 720.514 493.1 669.854C493.1 669.854 497.546 675.767 500.5 679.474C524.365 709.414 544.547 719.88 571.69 746.884C588.281 763.389 598.581 771.778 613.53 789.784C613.53 789.784 650.095 848.05 667 888.504C677.594 913.856 693.056 944.357 701.5 970.504C715.975 1015.33 723 1071 723 1071C723 1071 739.631 1053.49 745.181 1034.02C746.461 1035.52 748.581 1039.75 750.661 1048.01C755.251 1062.93 751.991 1072.26 758.141 1074.4C759.361 1074 761.381 1072.18 762.921 1066.1C770.381 1030.46 762.081 1022.81 741.451 965.284C728.301 935.944 712.66 886.54 713.18 861.89M538.101 295.114C498.881 312.304 493 374.504 476 398.534M491.416 383.024C492.246 450.784 442.711 545.984 458.911 627.464C462.851 648.814 477.681 706.734 477.681 706.734C477.681 706.734 478.483 711.756 478.5 715C478.536 721.754 476.99 725.644 475.23 731.984C460.65 773.804 441.19 798.354 400.66 820.004M545.42 297.554C549.49 284.484 563.1 286.754 573.99 288.114C585.12 291.694 607.67 305.244 616.45 309.604C624.53 313.704 640.82 331.494 644.68 335.794M637.42 327.304C638.2 328.644 654.95 344.594 661.97 353.274C671.09 364.754 677.5 372.874 685.22 381.684M680.18 375.904C692.49 391.484 720.15 416.284 733.82 434.734C741.54 444.874 751.49 459.384 752.83 461.344M710.92 408.484C733.12 432.874 733.82 502.804 733.82 502.804C733.82 502.804 733.571 527.964 728.271 544.244C722.971 560.524 710.76 586.394 707.98 589.444M706.75 590.744C683.08 609.814 670.15 610.794 638.38 612.114C620.06 611.384 598.91 609.514 584.92 604.334M458.911 536C463.151 537.48 480.901 556.73 480.901 556.73C480.901 556.73 461.112 550.161 455.131 539.68C439.34 512.006 483.341 520.984 495.821 537.594C513.761 563.744 539.087 589.714 566.077 602.144C562.696 623.384 558.554 628.245 546.426 637.884C523 656.5 535.712 715 579.341 715C568 705 559.987 694.618 550.5 679.474C538.753 660.721 539.831 638.279 528.016 627.464C516.368 616.801 504.413 619.242 491.416 610.274C489.56 608.993 486.741 606.884 486.741 606.884C475.871 598.944 460.961 580.554 461.031 566.064M585 604C583.4 605.54 602.861 628.584 602.151 631.994C597.921 636.734 587.048 633.404 579.341 638.554C554.175 655.371 600.051 688.864 614.661 707.544C624.441 717.824 638 736 638 736C638 736 668.73 777.844 677.62 787.784C677.06 776.194 653.52 712.084 655.35 694.124C657.11 671.224 660.15 638.144 672.24 628.534C680.08 664.514 663.44 713.504 689.99 745.684C702.57 758.964 717.819 778.833 719.721 804.5C721.154 823.843 709.88 852.314 708.9 852.974C720.58 876.784 744.471 900.474 768.741 914.764C781.111 919.994 796.721 927.194 812.141 925.894C829.211 925.074 855.041 911.794 850.921 892.594L849.062 892.934M761.89 854.494C807.86 785.434 784.557 755.962 770 682.004C768.591 674.843 761.021 643.244 761.021 643.244C761.021 643.244 745.149 582.923 748.5 544.004C748.667 542.061 748.794 540.975 748.98 539.034C752.485 502.488 768.362 480.111 756.6 445.334C752.142 432.155 740.25 413.684 740.25 413.684L737.141 408.484C737.141 408.484 709.424 360.372 696.771 327.304C694.968 322.591 694.338 319.798 692.319 315.174C683.748 295.539 669.979 282.384 658.329 272.114C651.909 267.444 646.164 261.736 637.42 256.504C628.01 250.873 611.89 244.814 611.89 244.814C611.89 244.814 595.571 238.432 584.619 236.314C572.174 233.907 535 232.004 535 232.004C535 232.004 482.613 231.154 459.201 255.254C456.413 258.124 452.5 263.004 452.5 263.004C452.5 263.004 423.62 273.404 411.94 282.184C390 302.034 370.657 324.41 364.42 359.194C363.982 361.636 363.46 365.474 363.46 365.474C363.46 365.474 353.55 431.814 355.92 462.454C359.09 508.404 355.062 582.004 355.062 582.004V585.534L347.74 876.504C347.74 876.504 345.213 897.306 342.441 910.424C335.308 944.165 312.5 954.053 312.5 993.504C312.5 1061.5 356.5 1088.5 356.5 1088.5C356.5 1088.5 345.737 1070.4 342.441 1063C330.956 1037.22 325.654 980.963 345.3 1001.22C351.479 1007.6 356.5 1021 356.5 1021C356.5 1021 367.925 1039.86 368 1054.5C368.095 1073.02 366 1091 356.5 1102.5C311.66 1156.8 207 1134.5 130 1087.18C53 1039.87 40.43 977.484 -113 871.254M751.371 760.714C745.571 794.644 749.422 846.094 762.812 865.824M756.141 853.474C769.991 871.034 779.081 894.984 803.461 906.194C810.341 909.674 820.291 913.314 824.151 913.914C836.181 914.534 848.971 913.744 851.461 900.264M486.04 440.094C485.89 463.734 506.67 500.794 484.68 513.504M445.561 282.024C449.201 275.894 474.15 266.734 478.33 267.754L458.46 285.124C470.06 276.604 491.7 275.684 501.12 275.424M476.111 297.714C480.011 293.354 512.121 278.714 520.251 284.844M689.04 1533.16C687.5 1522.41 681.5 1494.07 644.5 1434.5C634.465 1418.35 606.068 1378.65 596.5 1397C590.846 1407.85 587.5 1430 591 1447.5C608.344 1534.22 624.598 1434.47 607 1393.72C590.32 1355.1 556.676 1279.62 544.961 1250.5C534.5 1224.5 515.771 1179.82 508.5 1156.84C481.97 1073.01 474.187 1044.21 472 970.504C470.91 933.786 467.878 892.167 481.407 876.504C490.228 866.291 493.147 863.504 503.074 868.004C520.225 875.779 524 927.504 515 941.504C507.205 953.63 489.5 943.504 483.5 909.004C474.105 854.985 503.814 793.46 531 787.784C551.5 783.504 528 814.504 531 842.004C547.396 992.301 571.814 1079.82 652.721 1209.51C667.063 1232.5 674.82 1239.37 686.801 1259.87C705.277 1291.49 723.74 1321 730 1345.5C731.964 1353.19 734.862 1359.2 732.5 1361.62C726.545 1367.73 715 1350 702.5 1328.5C695.441 1316.36 689.5 1312.5 683.641 1310.54C655.312 1301.07 717.901 1378.93 717.901 1378.93C717.901 1378.93 770.767 1436.13 809.521 1467.23C843.5 1494.5 832.5 1507 810.68 1494.07C776.146 1473.61 769.5 1403.5 760.5 1375.5C736.228 1299.99 729 1235.5 729 1207C729 1174.2 726.476 1135.94 712 1106.5C700.794 1083.72 686.801 1068.12 674.5 1078C670.078 1081.56 667.12 1085.74 667 1102C666.685 1144.61 686.801 1182 707.5 1214.5C747.87 1277.89 919.496 1452.33 845.562 1465.78C844.393 1466 843.738 1466.12 842.562 1466.28C803.059 1471.8 906.174 1398.09 877.541 1370.32C873.454 1366.36 870.285 1365.18 865.841 1361.62C781.404 1293.96 832.19 1195.3 827.761 1087.18C826.84 1064.69 840.268 1047.41 826.562 1029.54C816.154 1015.98 795.829 995.779 787.141 1010.5C780.857 1021.15 787.158 1032.01 795.641 1041C812.37 1058.75 819.691 995.384 820.371 983.664C819.451 969.574 825.269 937.957 808.871 941.984C807.166 942.402 804.641 943.504 804.641 943.504C804.641 943.504 754.111 981.903 769.691 984.893C785.271 987.883 803.588 987.997 820.299 977.004C822.748 975.392 823.957 974.254 826.309 972.504C1025.52 824.326 1130.87 704.994 1418.21 740.484M762.601 1533.25L757.401 1533.95C741.011 1517.21 730.151 1488.88 716.781 1467.44C707.911 1450.93 704.351 1440.77 704.131 1436.59C707.731 1436.91 714.241 1442.85 720.441 1449.4C745.301 1478.01 788.351 1521.46 797.591 1542.24M572.96 398.534C572.66 398.814 551.158 404.491 538.64 411.444C525.823 418.562 509.86 431.614 508.93 434.394M656.711 353.754C656.711 353.754 645.58 357.51 639.961 362.214C638.319 363.588 637.547 364.524 636 366.004M592.7 433.434C571.42 417.224 540.66 433.134 532.33 457.424M562.53 432.594L562.73 432.134L563.311 432.234C571.481 441.134 567.56 446.994 558.13 449.864L554.67 438.054C556.91 436.994 561.79 441.754 562.47 443.074C558.42 446.904 555.64 439.024 557.89 438.354C559.24 438.274 559.151 438.514 560.271 439.574M677.22 383.024C662.2 372.264 643.31 389.654 649.05 405.274M655.99 388.094C663.62 390.354 661.2 400.574 654.83 403.104C654.35 402.984 651.75 402.404 650.91 401.984L650.97 395.764C654.55 397.024 654.83 402.484 653.89 403.104C651.73 402.034 655.621 396.074 658.271 400.584C657.331 403.624 652.95 403.244 652.43 402.104L652.811 401.104M632.361 396.154C632.361 396.154 633.166 404.632 634.541 409.884C638.868 426.417 652.491 442.114 658.191 446.704C659.871 448.044 666.127 451.205 669.201 455.884C673.66 462.67 673.371 470.704 672.241 476.454M696.771 502.804C692.391 504.524 686.451 507.974 681.861 508.084C668.521 509.894 655 521.5 628.5 536C626.562 537.06 620.301 538.843 620.301 538.843C620.301 538.843 623.519 542.352 624 542.5C643.5 548.5 653.85 546.553 665.5 544.004C672.5 542.472 676.684 539.75 680 537.594C687.5 532.716 689.99 525 692.371 517.564C694.811 512.724 694.1 509.024 693.5 508.084M672.48 630.014C673.19 624.344 676.38 612.084 677.66 608.784" stroke="#E72F1E" stroke-width="12" stroke-linecap="round" stroke-linejoin="round"/>
</g>
<defs>
<clipPath id="clip0_951_196">
<rect width="1080" height="1512" fill="white"/>
</clipPath>
</defs>
</svg>
