<svg width="400" height="200" viewBox="0 0 400 200" fill="none" xmlns="http://www.w3.org/2000/svg">
<path d="M86.6057 111.309C80.9764 117.13 85.6845 128.368 89.6762 129.095C98.3759 130.632 124.373 81.1532 133.687 61.9925C135.529 58.1927 137.985 53.0185 139.725 53.261C143.819 53.827 141.568 85.8424 136.757 112.926C134.71 124.649 133.38 127.964 134.71 128.287C140.749 129.823 184.657 59.0012 174.627 53.9078C172.682 52.9376 169.304 54.6354 167.462 55.6056C140.749 69.107 143.615 122.87 157.227 125.862C173.501 129.419 216.692 63.852 206.662 57.3034C204.001 55.5247 197.962 58.2735 196.734 58.7586C171.658 69.9964 174.422 122.466 188.853 125.862C204.922 129.661 244.122 75.0089 230.817 62.801C228.667 60.8606 225.187 59.9713 225.494 58.5161C226.416 54.2312 260.498 51.5632 264.592 59.5671C267.048 64.3371 258.861 72.7451 246.169 79.7788C251.696 80.0214 268.174 81.1532 273.804 89.4805C280.968 100.071 268.072 118.262 253.334 126.67C204.615 154.643 104.722 92.4718 86.6057 111.309Z" stroke="white" stroke-width="3" stroke-miterlimit="10"/>
</svg>
