<svg width="400" height="200" viewBox="0 0 400 200" fill="none" xmlns="http://www.w3.org/2000/svg">
<path d="M37.5 75.1441C41.8333 83.9774 51 107.644 53 131.644C55.5 161.644 109.5 120.644 97 75.1441C109.5 119.144 121 143.144 136.5 122.144C152 101.144 144.5 66.6441 158.5 62.6441C154 75.1441 154 122.144 176.5 106.144C199 90.1441 186.5 60.1441 172.5 58.6441C158.5 57.1441 184.5 79.1441 218 58.6441C203.2 71.8441 194.833 85.8108 192.5 91.1441C207.5 79.3108 241.8 55.1441 259 53.1441C280.5 50.6441 195.5 106.644 181 131.644C166.5 156.644 326.5 86.1441 383.5 80.6441" stroke="white" stroke-width="3"/>
</svg>
