<svg width="400" height="200" viewBox="0 0 400 200" fill="none" xmlns="http://www.w3.org/2000/svg">
<path d="M99.2908 55.78L55.5557 144.508" stroke="white" stroke-width="3" stroke-miterlimit="10"/>
<path d="M132.068 69.9162L41.1553 123.236" stroke="white" stroke-width="3" stroke-miterlimit="10"/>
<path d="M76.022 102.785C76.022 102.785 84.0285 132.893 95.8677 135.939C107.707 138.985 122.61 110.521 122.61 110.521C122.61 110.521 110.771 132.689 117.097 134.518C123.422 136.346 131.795 113.369 137.916 113.573C142.512 113.727 141.817 116.452 141.191 117.805C140.818 118.608 140.453 119.418 140.142 120.252L135.131 133.653C135.063 133.826 135.907 132.343 136.012 132.188C138.933 127.931 150.016 111.497 155.883 113.363C160.757 114.914 148.409 135.105 149.352 134.715C149.352 134.715 158.084 122.439 165.297 116.409C166.916 115.056 169.241 116.817 168.361 118.732C166.078 123.668 163.381 130.798 164.218 135.475C164.547 137.335 166.364 138.565 168.224 138.188C170.928 137.644 174.879 136.421 175.276 133.9" stroke="white" stroke-width="3" stroke-miterlimit="10"/>
<path d="M121.382 106.289L125.878 104.867" stroke="white" stroke-width="3" stroke-miterlimit="10"/>
<path d="M291.379 68.5261C291.379 68.5261 270.101 140.072 271.664 141.005C273.226 141.938 274.634 138.935 274.634 138.935" stroke="white" stroke-width="3" stroke-miterlimit="10"/>
<path d="M258.051 120.419L344.653 84.3181C345.05 84.1513 341.639 83.9412 341.378 84.281" stroke="white" stroke-width="3" stroke-miterlimit="10"/>
<path d="M327.145 131.169C327.145 131.169 330.054 127.493 334.066 128.037C338.079 128.58 334.066 134.524 334.066 134.524C334.066 134.524 328.807 140.505 326.171 141.24C323.536 141.975 321.185 139.114 322.016 137.088C322.847 135.061 327.139 131.169 327.139 131.169H327.145Z" stroke="white" stroke-width="3" stroke-miterlimit="10"/>
<path d="M328.41 70.151C328.41 70.151 307.132 141.697 308.695 142.63" stroke="white" stroke-width="3" stroke-miterlimit="10"/>
<path d="M184.652 119.461C183.666 118.695 182.531 117.539 182.686 116.347C182.984 114.073 187.908 112.245 189.626 113.468C191.394 114.716 191.121 120.103 183.033 137.446C183.033 137.446 189.874 113.53 202.358 115.315C209.813 116.384 197.732 136.408 197.732 136.408C197.732 136.408 208.808 114.722 214.247 115.525C219.686 116.328 205.602 135.024 211.27 135.945C216.939 136.865 229.553 109.779 229.553 109.779C229.553 109.779 219.37 135.482 223.308 135.482C227.246 135.482 237.386 112.034 241.783 112.615C246.18 113.196 235.11 136.408 235.11 136.408C235.11 136.408 246.515 112.368 252.767 113.06C259.018 113.752 242.168 140.906 252.469 137.446" stroke="white" stroke-width="3" stroke-miterlimit="10"/>
<path d="M226.893 106.999L231.383 105.578" stroke="white" stroke-width="3" stroke-miterlimit="10"/>
</svg>
