<svg width="400" height="200" viewBox="0 0 400 200" fill="none" xmlns="http://www.w3.org/2000/svg">
<g clip-path="url(#clip0_733_1981)">
<path d="M212.141 27.222C226.996 25.4331 244.54 29.3014 258.313 35.763C274.854 43.521 284.275 52.8907 290.327 63.4377C295.333 72.1651 300.311 92.2255 296.951 108.02C293.59 123.814 282.979 136.627 282.979 136.627C282.979 136.627 271.566 149.602 259.411 157.4C249.35 163.853 241.736 168.329 228.152 172.507" stroke="white" stroke-width="3" stroke-miterlimit="10" stroke-linecap="round"/>
<path d="M247.093 94.1978C248.291 94.1978 249.261 93.2271 249.261 92.0297C249.261 90.8323 248.291 89.8616 247.093 89.8616C245.896 89.8616 244.925 90.8323 244.925 92.0297C244.925 93.2271 245.896 94.1978 247.093 94.1978Z" fill="white"/>
<path d="M261.671 92.2284C262.868 92.2284 263.839 91.2577 263.839 90.0603C263.839 88.8629 262.868 87.8922 261.671 87.8922C260.473 87.8922 259.502 88.8629 259.502 90.0603C259.502 91.2577 260.473 92.2284 261.671 92.2284Z" fill="white"/>
<path d="M342.576 110.188C343.773 110.188 344.744 109.217 344.744 108.02C344.744 106.822 343.773 105.852 342.576 105.852C341.378 105.852 340.408 106.822 340.408 108.02C340.408 109.217 341.378 110.188 342.576 110.188Z" fill="white"/>
<path d="M235.877 115.536L280.594 108.02L357.242 95.1366" stroke="white" stroke-width="3" stroke-miterlimit="10" stroke-linecap="round"/>
<path d="M282.979 136.624C282.979 136.624 282.291 118.334 281.196 110.243" stroke="white" stroke-width="3" stroke-miterlimit="10" stroke-linecap="round"/>
<path d="M309.097 103.451C309.097 103.451 310.073 122.022 310.073 131.508C310.073 137.01 309.932 145.327 308.005 150.948C306.409 155.602 302.828 157.183 301.489 157.397C297.85 157.984 295.024 155.587 295.024 155.587C292.523 153.333 289.238 150.012 298.018 146.309C303.397 144.04 308.4 142.945 314.118 140.838C314.375 140.743 314.635 140.649 314.892 140.56C315.733 140.275 318.785 139.15 323.372 136.425C327.644 133.887 329.243 132.64 329.732 132.221C330.001 131.991 330.274 131.771 330.552 131.548C335.093 127.924 341.053 122.976 341.041 117.698C341.031 113.992 339.759 114.39 338.567 115.579C337.279 116.864 336.289 119.38 335.763 121.123C334.964 123.765 333.98 135.762 333.448 140.542C333.35 141.431 333.374 142.33 333.567 143.205C333.79 144.223 334.503 145.174 335.487 145.566C336.57 145.997 337.68 145.81 339.105 145.107C340.16 144.587 341.117 143.896 341.97 143.086C345.096 140.116 350.037 134.459 352.82 130.579C355.792 126.435 357.416 126.423 358.508 127.307C359.294 127.943 359.658 128.967 359.532 129.97C359.223 132.496 358.019 139.954 358.957 142.847C359.749 145.288 361.587 148.942 366.245 144.832C370.902 140.722 374.55 136.572 374.55 136.572" stroke="white" stroke-width="3" stroke-miterlimit="10" stroke-linecap="round"/>
</g>
<defs>
<clipPath id="clip0_733_1981">
<rect width="166.69" height="150" fill="white" transform="translate(210 24.644)"/>
</clipPath>
</defs>
</svg>
