<svg width="400" height="200" viewBox="0 0 400 200" fill="none" xmlns="http://www.w3.org/2000/svg">
<path d="M376.443 119.15C357.466 119.15 356.35 94.5262 337.477 94.5262C318.604 94.5262 317.205 119.15 298.332 119.15C279.46 119.15 278.061 94.5262 259.188 94.5262C240.315 94.5262 238.505 119.15 219.632 119.15C200.76 119.15 198.95 94.5262 180.077 94.5262C161.204 94.5262 159.67 119.15 140.797 119.15C121.924 119.15 120.389 94.5262 101.516 94.5262C82.6437 94.5262 81.109 119.15 62.2362 119.15C43.3634 119.15 42.4295 94.5262 23.5566 94.5262" stroke="white" stroke-width="3" stroke-linecap="round" stroke-linejoin="round"/>
<path d="M259.101 80.5677C260.708 80.5677 262.01 79.2655 262.01 77.6591C262.01 76.0528 260.708 74.7505 259.101 74.7505C257.495 74.7505 256.193 76.0528 256.193 77.6591C256.193 79.2655 257.495 80.5677 259.101 80.5677Z" fill="white"/>
</svg>
