<svg width="400" height="200" viewBox="0 0 400 200" fill="none" xmlns="http://www.w3.org/2000/svg">
<path d="M70.005 61.7421C70.005 61.7421 62.7823 47.3396 78.1907 43.739C95.5252 42.0588 94.0807 65.5827 94.0807 65.5827C94.0807 65.5827 91.6683 110.626 81.1978 133.231C70.7273 155.835 63.9861 149.837 63.9861 149.837C63.9861 149.837 55.5596 145.516 60.6155 121.032C65.6714 96.5479 78.4315 92.9473 83.2466 91.9871C86.6268 91.3126 91.9139 91.9871 94.8029 92.9473C100.34 94.1475 104.674 96.5479 112.137 91.9871C119.601 87.4264 123.694 81.6654 123.694 81.6654C123.694 81.6654 138.876 57.4429 143.677 48.7799C148.732 39.6584 150.177 36.2978 147.288 36.2978C144.399 36.2978 136.454 41.0986 129.472 57.4213C122.49 73.7441 122.49 97.7481 122.49 97.7481C122.49 97.7481 122.249 109.27 128.75 109.27C135.25 109.27 139.343 100.869 141.991 95.3477C144.64 89.8267 150.153 80.9983 151.381 79.505C152.5 78.144 154.029 76.1445 155.955 76.1445C157.881 76.1445 159.807 83.5857 159.807 83.5857C159.807 83.5857 161.5 91.644 161.733 97.9881C161.93 103.342 162.215 108.55 162.215 108.55C162.215 108.55 162.215 112.871 163.419 112.871C164.622 112.871 166.308 108.79 166.308 108.79C166.308 108.79 172.567 90.5469 174.493 85.9861C176.419 81.4253 179.549 74.4642 182.198 72.5439C184.846 70.6235 187.253 69.4233 187.976 76.1445C188.698 82.8656 190.143 108.55 188.698 121.512C187.254 134.474 181.853 159.644 177.623 166.88C172.5 175.644 168.5 178.644 162.456 178.642C154.5 178.644 157.159 161.119 157.159 161.119C157.159 161.119 159.326 142.396 168.234 127.033C177.142 111.67 189.276 93.0241 197.052 85.9045C204.829 78.7849 205.551 81.1853 205.551 81.1853C205.551 81.1853 207.718 80.7052 206.755 94.3875C205.792 108.07 214.218 93.1873 214.218 93.1873L229.386 66.7829C229.386 66.7829 226.497 66.3028 223.608 80.2251C220.719 94.1475 223.608 96.7879 234.201 89.5867C244.794 82.3855 248.165 77.3447 246.961 82.3855C245.757 87.4263 244.072 94.3875 242.628 98.7082C241.183 103.029 239.979 109.75 244.554 104.229C249.128 98.7082 274.648 59.1016 285.964 33.8974C297.279 8.69317 273.926 23.5757 261.647 44.2191C249.369 64.8626 242.628 74.9443 238.775 91.267C234.923 107.59 240.701 120.312 242.387 128.233C244.072 136.155 241.183 140.715 235.646 144.076C230.108 147.436 219.756 150.557 213.496 147.676C207.236 144.796 215.904 132.314 215.904 132.314C215.904 132.314 227.701 116.231 244.072 109.27C260.444 102.309 262.129 104.469 264.296 110.71C266.462 116.951 260.203 129.913 260.203 129.913C260.203 129.913 256.591 137.835 269.592 125.353C282.593 112.871 291.742 107.11 303.539 107.11C315.336 107.11 318.225 114.071 319.67 117.191C321.114 120.312 321.355 120.072 330.022 109.99C338.689 99.9084 356.265 81.1853 343.505 84.3058C330.744 87.4263 308.836 94.3875 305.706 97.508" stroke="white" stroke-width="3" stroke-miterlimit="10"/>
</svg>
