<svg width="400" height="200" viewBox="0 0 400 200" fill="none" xmlns="http://www.w3.org/2000/svg">
<g clip-path="url(#clip0_733_2033)">
<path d="M70.1173 79.7619C85.5535 74.923 100.335 68.0331 113.926 59.2737C120.399 55.0991 126.946 50.6159 132.422 45.1672C135.028 42.5753 137.382 39.6821 139.162 36.4622C140.941 33.2423 142.306 29.5505 141.527 25.8551C140.872 22.7514 138.543 20.0724 135.279 19.6876C132.324 19.3427 129.821 21.1178 128.056 23.3177C125.789 26.1419 124.5 29.5759 123.052 32.8539C121.204 37.0467 119.355 41.2358 117.507 45.4285C110.112 62.1959 102.722 78.9633 95.3275 95.7307C87.9333 112.498 80.5427 129.265 73.1485 146.033C72.2424 148.087 71.3363 150.146 70.4302 152.2L72.0932 152.418C71.1325 150.099 72.5808 147.772 73.6106 145.732C74.7641 143.445 75.9177 141.158 77.0712 138.871C79.3018 134.449 81.5288 130.024 83.7595 125.603C88.1916 116.811 92.5947 107.997 97.449 99.4261C101.539 92.2059 105.968 84.6662 112.78 79.6567C114.355 78.4987 116.422 76.7707 118.515 77.3189C119.948 77.6928 120.48 79.0759 120.538 80.4335C120.68 83.8748 118.671 86.8878 116.859 89.643C111.666 97.5276 104.694 104.167 96.6048 109.039L97.9402 110.062C100.433 104.047 105.007 99.0777 110.742 95.9957L110.04 96.0865C111.943 96.5438 111.164 99.8726 111.048 101.238C110.887 103.078 110.578 105.63 112.248 106.919C115.141 109.148 118.54 105.223 120.494 103.485C123.816 100.522 126.869 97.2771 129.657 93.8068C130.395 92.8883 129.289 91.7957 128.369 92.5217C125.745 94.5981 123.845 97.5494 123.129 100.827C122.819 102.236 122.546 103.877 123.201 105.223C123.856 106.57 125.155 107.391 126.618 107.155C128.081 106.919 129.337 105.939 130.497 105.176C131.829 104.301 133.117 103.347 134.329 102.305C136.753 100.225 138.936 97.7164 139.958 94.6489C140.33 93.5345 138.59 93.0735 138.205 94.1661C137.469 96.2389 136.905 98.3662 136.571 100.541C136.341 102.029 136.094 103.673 136.571 105.14C137.502 108.019 141.068 107.013 143.135 106.073C146.032 104.751 148.393 102.396 150.333 99.9235C151.869 97.9668 153.288 95.8323 154.197 93.5091C154.576 92.5471 153.015 91.9155 152.534 92.8085C151.006 95.6545 148.797 98.3988 148.401 101.702C148.23 103.132 148.346 105.02 149.518 106.037C150.526 106.911 151.894 106.766 153.026 106.229C157.607 104.051 160.751 96.0683 156.337 92.3402C156.053 92.1006 155.573 91.9518 155.235 92.1986C151.403 95.0083 154.347 100.773 158.08 102.036C163.477 103.862 168 99.5096 170.74 95.4294L169.077 95.2116C170.532 99.2483 169.557 103.79 166.511 106.835L167.942 107.935C169.976 103.572 173.091 99.7456 177.068 97.0012C177.898 96.4277 179.142 95.3786 180.216 95.6871C181.154 95.9558 181.569 97.1827 181.697 98.0358C182.064 100.482 180.754 102.795 181.376 105.285C181.5 105.782 182.024 106.018 182.497 105.92C189.717 104.392 195.55 98.1883 196.55 90.8809C196.656 90.1186 195.67 89.182 195.029 89.9988C192.93 92.6778 191.562 95.7852 191.154 99.1757C190.987 100.57 190.71 102.41 191.682 103.583C192.439 104.497 193.65 104.646 194.757 104.399C197.566 103.775 200.204 101.089 201.972 98.9651C204.043 96.4821 205.56 93.6253 206.463 90.5252C206.747 89.5523 205.284 88.9025 204.8 89.8245C201.998 95.1935 203.155 101.172 204.148 106.853C204.669 109.834 205.167 112.843 205.025 115.881C204.869 119.243 203.941 122.524 202.718 125.646C200.601 131.059 197.737 136.322 194.658 141.252C191.834 145.775 188.552 150.113 184.386 153.493C182.457 155.054 180.31 156.397 178.01 157.344C176.893 157.805 175.732 158.168 174.553 158.441C173.076 158.782 171.013 159.402 170.605 157.428C169.972 154.364 171.566 150.981 173.025 148.396C174.484 145.811 176.315 143.129 178.036 140.559C181.846 134.859 185.892 129.342 189.913 123.795C193.006 119.53 195.881 115.112 198.949 110.825C202.165 106.327 205.633 101.935 209.88 98.348C214.126 94.7615 219.552 92.1115 225.261 91.0116L224.777 89.2619C221.189 90.0242 218.089 92.4455 216.353 95.6581C215.105 97.9668 213.424 103.241 216.557 104.806C219.69 106.371 223.202 103.034 224.927 100.907C227.372 97.8942 228.664 94.0718 228.467 90.1912C228.424 89.3018 227.255 88.9461 226.771 89.7338C225.123 92.4092 223.697 95.6908 225.112 98.7764C226.328 101.426 228.813 102.265 231.553 101.789C232.954 101.546 234.359 101.023 235.494 100.156C236.513 99.3789 237.168 98.2391 237.845 97.1719C239.249 94.9648 239.649 92.7141 239.828 90.1331C239.893 89.1929 238.583 88.957 238.132 89.6757C236.356 92.4963 235.96 95.7743 237.299 98.8598C237.874 100.185 238.671 101.412 240.017 102.051C241.185 102.606 242.495 102.25 243.652 101.826C248.743 99.9598 249.758 94.4384 250.643 89.7229C250.806 88.8589 249.809 88.1765 249.122 88.8408C247.164 90.7248 245.472 92.7903 245.45 95.6327C245.428 98.4751 247.229 101.15 250.231 101.121C253.233 101.092 256.024 98.2318 257.993 96.3152C260.315 94.0572 262.287 91.4581 263.881 88.6448L262.218 88.427C263.339 92.2023 262.469 96.3151 259.838 99.27L261.359 100.152C262.08 96.0465 263.841 92.0099 266.694 88.9243C268.12 87.3815 270.282 87.8026 270.409 89.9806C270.496 91.4581 269.951 92.8484 269.401 94.1879C268.502 96.3769 267.753 99.967 270.085 101.579C271.482 102.544 273.153 102.232 274.568 101.517C276.395 100.591 278.138 99.477 279.779 98.2572C283.382 95.5782 286.478 92.3366 289.018 88.6411C289.451 88.0095 288.724 87.0366 287.992 87.3089C284.462 88.6085 281.537 91.2403 279.976 94.6743C279.328 96.101 278.535 98.1375 278.92 99.7347C279.364 101.579 281.366 101.695 282.934 101.546C289.913 100.878 295.215 93.6507 293.818 86.837C293.647 86.0057 292.57 86.0384 292.155 86.6192C287.395 93.324 291.711 101.862 292.795 109.028C294.164 118.074 289.564 126.438 284.943 133.858C281.02 140.156 276.708 146.566 270.769 151.159C267.956 153.333 264.74 155.014 261.232 155.707C259.642 156.023 256.727 156.607 255.406 155.42C254.201 154.339 255.067 152.204 255.573 150.988C257.291 146.857 259.965 143.067 262.593 139.47C265.849 135.008 269.361 130.732 272.967 126.547C281.62 116.498 290.87 106.937 300.568 97.8906C309.007 90.0206 317.842 82.1651 327.736 76.1355C328.66 75.5728 329.603 75.0283 330.556 74.5128C331.586 73.9574 330.669 72.3892 329.639 72.9446C319.49 78.4224 310.531 86.3251 302.056 94.0463C291.758 103.43 281.984 113.427 272.836 123.929C268.972 128.365 265.213 132.906 261.701 137.629C258.95 141.332 256.272 145.173 254.318 149.362C253.142 151.885 251.869 155.743 255.078 157.355C256.676 158.157 258.757 157.896 260.468 157.66C262.178 157.424 263.986 156.938 265.653 156.252C272.654 153.366 277.887 147.369 282.181 141.343C284.586 137.967 286.817 134.446 288.876 130.852C291.122 126.935 293.134 122.793 294.16 118.375C295.186 113.957 294.961 110.037 294.044 105.844C293.138 101.695 291.638 97.4877 291.82 93.1896C291.908 91.1205 292.53 89.2292 293.731 87.534L292.068 87.3162C293.13 92.5072 289.422 98.0177 284.382 99.437C283.305 99.742 280.762 100.388 280.678 98.7292C280.609 97.3969 281.428 95.7162 282.053 94.5872C283.465 92.0534 285.747 90.0641 288.476 89.0586L287.45 87.7264C285.059 91.2112 282.101 94.3077 278.695 96.8197C277.068 98.0177 275.311 99.2047 273.466 100.051C271.359 101.016 270.256 99.6512 270.387 97.6837C270.58 94.7215 272.698 92.2712 272.148 89.1784C271.57 85.9222 267.753 85.3015 265.558 87.4868C262.363 90.6704 260.38 95.2987 259.612 99.6766C259.471 100.49 260.475 101.299 261.133 100.559C264.187 97.1247 265.293 92.362 263.983 87.9478C263.764 87.2145 262.713 87.0366 262.32 87.73C259.965 91.8864 256.639 95.8469 252.56 98.4279C251.352 99.1938 249.933 99.6984 248.638 98.7909C247.615 98.0757 247.262 96.8161 247.277 95.6327C247.302 93.2913 248.823 91.6577 250.417 90.1222L248.896 89.2401C248.252 92.6705 247.728 97.259 244.547 99.3717C243.794 99.8726 242.954 100.188 242.077 100.399C240.621 100.744 239.773 99.7819 239.166 98.5658C237.834 95.9049 238.147 93.0735 239.708 90.5905L238.012 90.1331C237.757 93.8068 236.389 98.4061 232.47 99.6911C230.348 100.388 227.965 100.428 226.833 98.1738C225.556 95.6363 226.997 92.8339 228.343 90.6486L226.648 90.1912C226.797 93.157 226.025 96.0574 224.406 98.5513C223.609 99.7819 222.609 100.896 221.455 101.807C220.509 102.559 219.093 103.543 217.798 103.299C216.255 103.009 216.63 100.729 216.848 99.5895C217.11 98.2318 217.641 96.9504 218.391 95.7852C219.959 93.3385 222.416 91.6106 225.261 91.008C226.411 90.7647 225.92 89.0368 224.777 89.2583C219.425 90.2892 214.45 92.5144 210.127 95.8287C206.048 98.9579 202.664 102.842 199.567 106.922C196.194 111.369 193.155 116.063 189.946 120.626C185.954 126.3 181.758 131.828 177.858 137.571C175.856 140.515 173.84 143.47 172.01 146.523C170.405 149.198 169.011 152.095 168.742 155.242C168.531 157.722 169.139 160.706 172.203 160.637C174.746 160.582 177.414 159.624 179.699 158.571C189.728 153.95 195.914 143.495 200.764 134.093C204.269 127.302 207.427 120.143 206.754 112.327C206.154 105.325 202.871 97.4405 206.368 90.7393L204.705 90.0387C203.319 94.7905 200.295 99.0486 196.132 101.778C195.441 102.232 194.313 102.965 193.443 102.642C192.344 102.236 192.882 99.6766 193.024 98.7764C193.461 96.0465 194.596 93.451 196.307 91.273L194.786 90.3908C193.865 97.1247 188.68 102.751 182.006 104.163L183.127 104.799C182.413 101.949 184.269 99.1575 183.09 96.3115C182.17 94.0935 180.048 93.255 177.883 94.344C172.814 96.8887 168.717 101.974 166.366 107.017C165.951 107.91 167.021 108.89 167.796 108.117C171.271 104.646 172.497 99.3535 170.831 94.7288C170.562 93.981 169.619 93.8431 169.168 94.511C167.119 97.5675 164.183 100.856 160.136 100.595C158.386 100.482 156.861 99.6294 155.981 98.0975C155.253 96.8306 154.761 94.7833 156.152 93.7668L155.049 93.6253C158.324 96.3914 155.991 101.807 153.149 104.018C152.047 104.875 150.559 105.369 150.238 103.532C150.031 102.348 150.267 101.158 150.679 100.043C151.505 97.7962 152.978 95.8287 154.106 93.7305L152.444 93.0299C150.872 97.0448 147.604 101.15 144.009 103.514C143.059 104.138 142.047 104.65 140.945 104.948C140.381 105.1 139.711 105.296 139.122 105.227C138.386 105.144 138.259 104.639 138.165 103.953C137.975 102.537 138.296 101.016 138.568 99.6331C138.903 97.9378 139.38 96.2788 139.958 94.6489L138.205 94.1661C136.673 98.7582 132.157 102.105 128.161 104.497C127 105.194 125.359 106.062 124.733 104.171C124.351 103.016 124.799 101.448 125.137 100.326C125.92 97.7164 127.532 95.4911 129.657 93.8068L128.369 92.5217C125.29 96.3551 121.88 99.9126 118.151 103.125C117.15 103.989 114.574 106.893 113.191 105.332C112.532 104.588 112.732 103.122 112.787 102.225C112.918 100.13 113.642 97.3279 112.299 95.473C112.015 95.0809 111.648 94.7869 111.215 94.5763C110.378 94.1734 109.898 94.3767 109.119 94.8159C107.361 95.8106 105.709 97.0012 104.188 98.3298C100.669 101.408 97.973 105.278 96.1863 109.583C95.8733 110.338 96.8959 110.984 97.5218 110.607C105.276 105.935 112.015 99.6911 117.237 92.3039C119.446 89.182 121.833 85.7951 122.288 81.9037C122.634 78.9561 121.524 75.7797 118.183 75.4312C116.044 75.2098 114.217 76.4477 112.539 77.6093C110.716 78.8726 109.028 80.321 107.474 81.8964C104.337 85.08 101.739 88.7646 99.3921 92.5471C93.7883 101.572 89.0322 111.13 84.2544 120.604C81.4524 126.158 78.6541 131.716 75.8522 137.27C74.4694 140.014 73.083 142.759 71.7002 145.503C70.554 147.783 69.2949 150.356 70.3465 152.901C70.6049 153.522 71.6565 153.921 72.0095 153.119C78.9853 137.302 85.9574 121.483 92.9331 105.666C99.9089 89.85 106.881 74.03 113.857 58.2137C117.343 50.3038 120.832 42.3974 124.319 34.4874C126.138 30.3637 130.174 18.3009 136.916 22.0907C140.482 24.0909 140.333 28.8318 139.151 32.1823C137.968 35.5329 135.741 38.8181 133.332 41.5661C128.481 47.0984 122.339 51.4618 116.277 55.5601C103.522 64.1816 89.6508 71.155 75.1026 76.219C73.294 76.847 71.471 77.4459 69.6442 78.0195C68.5307 78.368 69.0074 80.1213 70.1282 79.7692L70.1173 79.7619Z" fill="white"/>
</g>
<defs>
<clipPath id="clip0_733_2033">
<rect width="262" height="141" fill="white" transform="translate(69 19.644)"/>
</clipPath>
</defs>
</svg>
