<svg width="400" height="200" viewBox="0 0 400 200" fill="none" xmlns="http://www.w3.org/2000/svg">
<path d="M146.86 148C145.36 148 144.17 147.05 143.74 145.52C143.29 143.93 143.45 142.35 143.6 141.3C144.1 137.91 145.06 134.55 146.52 131.03L147.02 129.83C147.86 127.8 148.74 125.7 149.68 123.67C151.88 118.92 154.37 114.27 157.07 109.87C158.88 106.93 160.77 103.97 162.6 101.12L164.29 98.48C164.67 97.88 165.07 97.28 165.48 96.69C165.71 96.36 165.93 96.02 166.16 95.68L165.59 95.66C164.45 95.62 163.35 95.59 162.24 95.59H161.82C161.63 95.59 161.32 95.76 161.08 95.99C160.33 96.7 159.59 97.43 158.85 98.16C158.08 98.92 157.31 99.68 156.52 100.42C153.48 103.28 150.41 106.13 147.34 108.96C145.38 110.77 143.55 112.42 141.75 114.01C140.75 114.9 139.75 115.8 138.75 116.69C135.8 119.34 132.76 122.09 129.55 124.55C128.95 125.01 128.23 125.55 127.43 126.01C126.8 126.37 125.97 126.82 125.07 127.11C124.55 127.28 124.06 127.36 123.61 127.36C121.82 127.36 120.73 126.1 120.69 123.99C120.65 122.09 121.09 120.33 121.48 119.01C123.15 113.34 125.64 107.92 127.86 103.35C128.78 101.45 129.74 99.56 130.7 97.67C131.14 96.81 131.58 95.94 132.01 95.07C131.99 95.07 131.96 95.07 131.94 95.07C129.98 95.02 128.02 94.98 126.06 94.94C125.32 94.94 124.76 95.19 124.21 95.74L122 97.96C116.48 103.5 110.78 109.24 105.11 114.82C99.44 120.4 94.23 125.41 89.18 130.13C84.76 134.27 80.17 138.36 75.73 142.32L75.17 142.82C73.96 143.89 72.65 144.87 71.39 145.81L70.67 146.35C70.19 146.71 69.6 146.89 69.13 147.04C69.08 147.06 68.96 147.07 68.91 147.07C68.61 147.07 68.17 146.88 67.99 146.56C67.8 146.22 67.87 145.64 68.15 145.36C68.23 145.28 68.3 145.2 68.37 145.12C68.68 144.77 69.1 144.29 69.86 144.26C69.92 144.26 70.04 144.21 70.32 143.98C70.89 143.53 71.46 143.09 72.03 142.65C73.49 141.53 75 140.37 76.4 139.13C79.81 136.13 83.48 132.79 87.95 128.64C91.19 125.63 94.34 122.61 98.07 119.01C100.69 116.48 103.3 113.92 105.9 111.36L108.34 108.96C111.8 105.56 115.27 102.16 118.71 98.75C119.78 97.69 120.84 96.57 121.86 95.49L122.44 94.88C122.37 94.88 122.3 94.88 122.23 94.88C122.02 94.88 121.87 94.91 121.72 94.99C121.59 95.06 121.45 95.09 121.28 95.09C121.16 95.09 121.02 95.07 120.89 95.05L120.79 95.03C120.65 95.01 120.52 94.97 120.39 94.94C120.25 94.9 120.12 94.87 120.02 94.87H119.11C118.59 94.85 118.07 94.84 117.55 94.84C116.93 94.84 116.32 94.85 115.7 94.89H115.56C115.06 94.93 114.56 94.96 114.06 94.96C113.86 94.96 113.67 94.96 113.47 94.95C112.79 94.91 112.12 94.89 111.43 94.89C110.44 94.89 109.57 94.95 108.75 95.06C108.33 95.12 107.88 95.15 107.33 95.15C106.95 95.15 106.56 95.14 106.17 95.12C105.8 95.11 105.42 95.09 105.05 95.09H104.84C103.3 95.12 101.77 95.16 100.23 95.23C100.05 95.23 99.85 95.3 99.63 95.37C99.53 95.4 99.42 95.44 99.32 95.46C98.81 95.6 98.34 95.72 97.81 95.72C97.62 95.72 97.45 95.62 97.36 95.46H96.99C96.75 95.46 96.52 95.46 96.28 95.46C95.69 95.48 95.07 95.53 94.4 95.61C94.23 95.63 94.06 95.68 93.89 95.74C93.78 95.77 93.68 95.81 93.57 95.83C93.37 95.91 93.23 95.96 93.06 95.96C93.01 95.96 92.9 95.94 92.85 95.93C92.43 95.8 91.98 95.73 91.42 95.73C90.99 95.73 90.56 95.77 90.12 95.8C89.74 95.83 89.36 95.86 88.98 95.87C87.7 95.9 86.41 96.02 85.05 96.15C84.8 96.17 84.54 96.2 84.28 96.22C84.19 96.34 84.04 96.42 83.88 96.42H82.09C81.68 96.41 81.26 96.42 80.85 96.42C79.89 96.45 78.94 96.52 77.98 96.58L77.01 96.65C76.87 96.65 76.82 96.67 76.81 96.68C76.21 97.11 75.52 97.32 74.64 97.32C74.24 97.32 73.83 97.28 73.42 97.24L73.27 97.22C72.99 97.19 72.72 97.18 72.44 97.18C72.08 97.18 71.73 97.21 71.39 97.26C71.39 97.28 71.38 97.3 71.37 97.32C71.3 97.49 71.16 97.63 70.97 97.65L68.75 97.89C66.99 98.08 65.24 98.28 63.48 98.44C61.68 98.61 59.85 98.73 58.08 98.84C58.08 98.84 56.99 98.91 56.98 98.91C56.74 98.91 56.58 98.88 56.42 98.85C56.34 98.84 56.26 98.82 56.18 98.81C56.08 98.81 55.98 98.78 55.88 98.76C55.8 98.74 55.72 98.73 55.64 98.72C55.19 99.08 54.71 99.13 54.29 99.13H53.82H53.66L53.22 99.15C50.62 99.3 47.93 99.44 45.27 99.44H45.15C44.12 99.44 43.1 99.22 42.12 99.02C41.8 98.95 41.48 98.88 41.17 98.82C40.18 98.68 40.02 97.86 40 97.09C40 96.94 40.06 96.8 40.17 96.71C40.26 96.63 40.38 96.58 40.5 96.58C40.52 96.58 40.81 96.61 40.81 96.61C41.04 96.63 41.26 96.66 41.47 96.72C42.9 97.16 44.45 97.37 46.36 97.37C46.93 97.37 47.51 97.35 48.08 97.32C49.4 97.25 50.72 97.14 52.04 97.03C52.76 96.97 53.49 96.91 54.21 96.86C54.99 96.8 55.77 96.75 56.55 96.7C57.85 96.61 59.15 96.53 60.45 96.41C62.15 96.26 63.84 96.1 65.54 95.93C66.81 95.8 68.09 95.68 69.36 95.56C70.69 95.44 72.02 95.32 73.36 95.21C74.43 95.12 75.5 95.03 76.57 94.93C77.26 94.87 77.96 94.8 78.65 94.73C79.46 94.65 80.26 94.57 81.07 94.5C81.44 94.47 81.82 94.46 82.19 94.45C82.46 94.45 82.74 94.43 83.01 94.42C85.87 94.25 88.72 94.08 91.58 93.9C92.25 93.86 92.92 93.8 93.59 93.75C94.56 93.67 95.53 93.59 96.49 93.55C97.68 93.5 98.88 93.46 100.07 93.43C101.03 93.4 101.99 93.38 102.95 93.34C104.14 93.29 105.33 93.23 106.52 93.17C107.26 93.13 107.99 93.09 108.73 93.06C109.38 93.03 110.03 93.02 110.68 93.02C114.23 93 117.77 92.98 121.3 92.98C122.24 92.98 123.15 93.01 124.02 93.06C124.2 93.06 124.3 93.03 124.45 92.87C125.11 92.15 125.77 91.43 126.43 90.71C127.7 89.33 128.98 87.94 130.22 86.53C132.49 83.97 134.73 81.37 136.88 78.81C138.48 76.9 140.08 74.92 141.76 72.75C143 71.14 144.22 69.51 145.43 67.88L146.96 65.83C148.1 64.31 149.04 62.69 149.76 61.04C150.09 60.27 150.52 59.54 150.92 58.83L151.24 58.28C151.41 57.99 151.63 57.73 151.88 57.55C152.14 57.36 152.42 57.26 152.69 57.26C152.96 57.26 153.25 57.37 153.47 57.56C153.73 57.78 154.09 58.27 153.63 59.06C153.51 59.27 153.39 59.49 153.27 59.71C153.01 60.2 152.74 60.7 152.41 61.18C151.52 62.47 150.86 63.93 150.23 65.34C149.88 66.11 149.53 66.89 149.15 67.64L148.17 69.55C147.14 71.57 146.08 73.65 144.99 75.69C144.08 77.39 143.14 79.07 142.2 80.75C141.68 81.68 141.16 82.61 140.65 83.54C138.99 86.55 137.33 89.56 135.68 92.57C135.57 92.77 135.47 92.98 135.36 93.21C135.37 93.21 135.38 93.21 135.4 93.21C136.57 93.29 137.81 93.33 139.3 93.33C140.46 93.33 141.63 93.31 142.8 93.29C142.8 93.29 143.42 93.29 143.64 93.29C144.76 93.29 145.89 93.34 146.99 93.38C147.55 93.4 148.12 93.43 148.68 93.44C148.77 93.44 148.86 93.45 148.95 93.46C149.02 93.46 149.08 93.48 149.15 93.48C150.11 93.39 151.08 93.36 152.34 93.36C152.87 93.36 153.4 93.36 153.93 93.37C154.45 93.37 154.98 93.38 155.5 93.38C155.94 93.38 156.39 93.38 156.83 93.36H157.16C157.93 93.36 158.71 93.43 159.46 93.5L159.95 93.55C160.01 93.55 160.07 93.55 160.13 93.55C160.58 93.55 160.95 93.38 161.34 92.97C162.52 91.73 163.71 90.49 164.89 89.25C166.53 87.54 168.17 85.84 169.78 84.11C173.04 80.65 176.3 76.89 179.48 72.95C180.4 71.82 181.11 70.52 181.67 68.99C182.14 67.71 182.6 66.56 183.47 65.61C183.8 65.25 184.2 64.98 184.6 64.83C184.71 64.79 184.84 64.77 184.99 64.77C185.27 64.77 185.67 64.86 185.91 65.11C186.23 65.44 186.26 66.09 186.08 66.45C185.59 67.43 185.05 68.43 184.42 69.52C184.19 69.92 183.94 70.3 183.69 70.69C183.25 71.36 182.83 72 182.54 72.69C180.64 77.23 178.11 81.33 176.11 84.4C174.73 86.53 173.31 88.64 171.89 90.74C171.25 91.7 169.92 93.68 169.9 93.71C170.01 93.71 170.11 93.71 170.21 93.71C170.21 93.71 170.81 93.7 170.94 93.7H171.15C172.07 93.74 172.99 93.76 173.91 93.78C174.65 93.8 175.39 93.81 176.13 93.84C176.97 93.87 177.8 93.9 178.63 93.94C179.3 93.97 179.97 94 180.64 94.02C181.98 94.06 183.33 94.1 184.68 94.13L188.72 94.21C189.03 94.21 189.34 94.23 189.65 94.24C190.08 94.25 190.5 94.27 190.93 94.27H191.52C192.5 94.27 193.48 94.27 194.46 94.23C194.46 94.22 194.56 94.13 194.6 94.07C195.06 93.19 195.52 92.3 195.98 91.41C196.65 90.11 197.32 88.8 198.02 87.51C198.98 85.74 200.03 83.84 201.21 81.99C202.78 79.51 204.94 76.33 207.75 73.67C208.89 72.59 210.25 71.39 212 70.72C212.64 70.48 213.19 70.36 213.72 70.36C214.08 70.36 214.44 70.42 214.78 70.53C215.94 70.91 216.56 71.7 216.66 72.95C216.75 74.06 216.43 75.07 216.15 75.96C215.47 78.12 214.44 80.09 213.42 81.9C210.92 86.34 207.9 90.44 205 94.25L206.67 94.28C208.19 94.3 209.71 94.33 211.22 94.36C212.72 94.39 214.22 94.43 215.72 94.48H216.17C217.09 94.52 218 94.55 218.92 94.62C218.97 94.62 219.02 94.62 219.08 94.62C219.53 94.62 219.82 94.46 220.14 94.06C221.46 92.38 222.8 90.72 224.14 89.06C225.08 87.9 226.01 86.73 226.94 85.56L227.24 85.18C228.18 84 229.15 82.79 230.02 81.54C230.61 80.69 231.14 79.74 231.66 78.83L232.61 77.15C233.66 75.3 234.74 73.39 236.11 71.69C236.36 71.38 236.66 71.02 237.02 70.71C237.19 70.56 237.55 70.3 238 70.21C238.14 70.18 238.27 70.17 238.38 70.17C238.93 70.17 239.19 70.45 239.3 70.62C239.41 70.8 239.56 71.19 239.28 71.77C238.76 72.86 238.28 73.7 237.78 74.43C237.11 75.39 236.42 76.34 235.73 77.28C235.02 78.25 234.31 79.22 233.63 80.21C232.65 81.62 231.76 83.03 230.99 84.4C229.53 86.96 228.11 89.54 226.69 92.13L225.52 94.25C225.42 94.43 225.32 94.62 225.22 94.83H225.89C226.27 94.83 226.64 94.83 227 94.8C227.04 94.78 227.19 94.65 227.27 94.57L227.41 94.45C228.12 93.85 228.83 93.23 229.54 92.62C231 91.36 232.5 90.06 234.04 88.85C241.14 83.28 247.47 79.37 253.96 76.57C257.95 74.85 261.62 73.88 265.17 73.6C265.64 73.56 266.1 73.54 266.57 73.54C269.32 73.54 271.65 74.22 273.69 75.62C276.1 77.28 277.43 79.63 277.65 82.62C277.82 85.01 277.39 87.5 276.28 90.45C275.87 91.55 275.38 92.64 274.91 93.69C274.68 94.21 274.44 94.72 274.22 95.25C274.19 95.32 274.17 95.38 274.14 95.46C274.46 95.49 274.76 95.52 275.06 95.52L276.34 95.54C277.66 95.56 278.97 95.57 280.29 95.57C280.79 95.57 281.29 95.57 281.8 95.57C282.78 95.56 283.76 95.52 284.74 95.48C285.52 95.45 286.3 95.42 287.09 95.4H287.46C287.84 95.4 288.22 95.4 288.6 95.42C288.93 95.43 289.27 95.44 289.61 95.44H289.99C290.53 95.44 291.07 95.45 291.61 95.45C292.06 95.45 292.51 95.45 292.96 95.44C293.77 95.42 294.57 95.39 295.38 95.36C296.7 95.31 298.06 95.25 299.4 95.25C301.1 95.25 302.8 95.28 304.5 95.31C305.86 95.33 307.21 95.36 308.57 95.37H308.75C309.4 95.37 310.05 95.35 310.71 95.32C311.37 95.3 312.04 95.27 312.7 95.27C315.1 95.27 317.51 95.28 319.91 95.3L323.51 95.32C324.65 95.32 325.79 95.32 326.93 95.32C328.07 95.32 332.05 95.32 332.05 95.32C334.34 95.32 336.63 95.32 338.93 95.29C340.81 95.27 342.69 95.23 344.57 95.19L356.19 94.96C356.71 94.95 357.24 94.93 357.76 94.93C358.04 94.93 358.33 94.93 358.61 94.94C359.16 94.96 359.63 95.24 359.86 95.7C360.1 96.18 360.05 96.78 359.72 97.26C359.46 97.63 359.13 97.82 358.69 97.82C358.64 97.82 358.59 97.82 358.53 97.82C356.47 97.64 354.44 97.61 352.9 97.61C352.02 97.61 351.13 97.61 350.25 97.63C349.36 97.63 348.47 97.65 347.58 97.65C346.54 97.65 345.5 97.62 344.46 97.59C343.64 97.57 342.81 97.54 341.99 97.53C341.62 97.53 341.29 97.56 340.96 97.59C340.71 97.61 340.45 97.64 340.2 97.65C339.83 97.67 339.46 97.67 339.1 97.68H338.47C338.06 97.7 337.66 97.72 337.26 97.74C337.11 97.77 337.01 97.79 336.9 97.79C336.87 97.79 336.8 97.79 336.77 97.78C336.41 97.72 336.03 97.7 335.59 97.7C335.11 97.7 334.62 97.73 334.14 97.76C333.64 97.79 333.13 97.83 332.63 97.83C332.34 97.83 332.06 97.82 331.77 97.79L331.07 97.73C330.73 97.7 330.39 97.67 330.04 97.64C329.87 97.63 329.8 97.62 329.73 97.62C329.11 97.76 328.61 97.83 328.12 97.83C327.53 97.83 326.96 97.73 326.42 97.53C326.13 97.68 325.81 97.75 325.46 97.75C325.11 97.75 324.77 97.68 324.45 97.6C324.16 97.54 323.9 97.48 323.65 97.48C323.6 97.48 323.54 97.48 323.49 97.48C323.2 97.51 322.91 97.53 322.62 97.53C322.19 97.53 321.75 97.5 321.31 97.47C321.02 97.45 320.73 97.43 320.43 97.42C320.41 97.42 320.36 97.42 320.32 97.41C319.59 97.62 318.89 97.65 318.3 97.65C318.06 97.65 317.82 97.65 317.57 97.64C317.34 97.64 317.1 97.63 316.87 97.63C316.4 97.63 316.04 97.65 315.7 97.71C315.63 97.72 315.55 97.73 315.47 97.73C315.33 97.73 315.18 97.71 315.04 97.69C314.95 97.68 314.85 97.66 314.76 97.66C314.39 97.65 314.03 97.64 313.67 97.64H313.25C313.07 97.64 312.9 97.66 312.73 97.67C312.56 97.68 312.38 97.7 312.2 97.7C311.7 97.71 311.19 97.72 310.69 97.73H310.19C310.13 97.73 310.07 97.74 310.01 97.75C309.92 97.75 309.84 97.76 309.75 97.76C309.59 97.76 309.45 97.74 309.32 97.69C309.09 97.6 308.83 97.56 308.51 97.56C308.24 97.56 307.96 97.59 307.69 97.62C307.44 97.65 307.2 97.67 306.95 97.68C305.76 97.73 304.56 97.75 303.37 97.76H297.3C295.67 97.76 294.03 97.8 292.4 97.83C291.96 97.83 291.52 97.85 291.08 97.86C290.31 97.88 289.54 97.9 288.77 97.9C288.54 97.9 288.32 97.9 288.09 97.9C286.99 97.88 285.87 97.8 284.79 97.73C284.79 97.73 284.01 97.67 283.96 97.67C283.89 97.67 283.87 97.67 283.83 97.72C283.57 97.98 283.17 98 283.05 98C282.9 98 282.77 97.97 282.65 97.92C282.54 97.87 282.41 97.85 282.25 97.85C282.13 97.85 282 97.86 281.88 97.87C281.73 97.88 281.59 97.89 281.44 97.89C281.32 97.89 281.2 97.89 281.08 97.86C280.97 97.84 280.86 97.83 280.74 97.83C280.52 97.83 280.3 97.86 280.07 97.88C279.81 97.91 279.55 97.94 279.29 97.94C278.84 97.94 278.45 97.85 278.1 97.66C278.1 97.66 278.07 97.66 278 97.66C277.93 97.66 277.8 97.67 277.61 97.72C277.25 97.81 276.87 97.89 276.47 97.89C276.12 97.89 275.81 97.83 275.51 97.7L275.36 97.75C275.17 97.77 274.97 97.8 274.77 97.83C274.36 97.89 273.93 97.96 273.5 97.96C273.5 97.96 273.31 97.96 273.3 97.96C272.97 97.96 272.84 98.02 272.66 98.38L272.31 99.05C271.64 100.34 270.94 101.68 270.19 102.97C269.32 104.48 268.43 105.98 267.53 107.48C266.93 108.49 266.33 109.5 265.73 110.51L265.47 110.96C264.2 113.13 262.89 115.37 261.64 117.59L261.41 118.01C260.15 120.26 258.84 122.6 257.67 124.94C256.4 127.49 255.29 129.81 254.69 132.32C254.47 133.22 254.25 134.41 254.49 135.64C254.83 137.4 255.87 138.31 257.68 138.42C257.89 138.43 258.1 138.44 258.31 138.44C259.32 138.44 260.38 138.3 261.76 138C266.01 137.05 270.36 135.72 274.67 134.04C278.34 132.61 282.04 131.08 285.62 129.6L286.18 129.37C287.73 128.73 289.27 128.07 290.81 127.41C291.72 127.02 292.63 126.63 293.55 126.24C293.82 126.13 294.09 126.03 294.41 125.91L294.85 125.75C294.91 125.73 294.96 125.72 295.02 125.72C295.14 125.72 295.26 125.77 295.36 125.85C295.5 125.98 295.55 126.17 295.5 126.35C295.32 127.03 294.9 127.27 294.62 127.43L294.52 127.49C292.78 128.57 290.95 129.52 289.06 130.32C287.6 130.93 286.16 131.57 284.71 132.2C283.09 132.91 281.47 133.62 279.84 134.29C276.15 135.83 272.84 137.02 269.73 137.95L269.45 138.03C267.6 138.58 265.68 139.15 263.77 139.63C261.94 140.09 260.04 140.56 258.08 140.56H257.84C256.87 140.54 255.96 140.42 255.15 140.2C253.87 139.85 252.91 138.95 252.4 137.59C251.92 136.34 251.8 134.99 252.02 133.45C252.25 131.87 252.74 130.26 253.56 128.37C255.66 123.52 258.27 118.93 260.99 114.27C262.34 111.95 263.71 109.64 265.08 107.33C266.1 105.61 267.12 103.89 268.13 102.16C268.83 100.96 269.51 99.72 270.16 98.51C270.3 98.24 270.41 98 270.52 97.74C270.2 97.79 269.85 97.81 269.45 97.81C268.97 97.81 268.5 97.77 268.02 97.74C267.57 97.7 267.12 97.67 266.67 97.67C266.47 97.67 266.26 97.67 266.06 97.7C265.73 97.73 265.4 97.74 265.07 97.74C264.36 97.74 263.65 97.68 262.95 97.63L262.24 97.57C262.17 97.57 262.1 97.57 262.03 97.57C261.69 97.57 261.33 97.62 260.96 97.68C260.66 97.72 260.35 97.77 260.05 97.79C259.88 97.8 259.7 97.81 259.52 97.81C259.05 97.81 258.58 97.77 258.14 97.68C258.04 97.66 257.95 97.61 257.88 97.54C257.42 97.5 256.97 97.47 256.52 97.47C256.02 97.47 255.56 97.5 255.12 97.57C254.76 97.62 254.48 97.66 254.22 97.66C253.96 97.66 253.74 97.63 253.55 97.55C253.26 97.44 252.94 97.39 252.55 97.39C252.25 97.39 251.96 97.42 251.66 97.45C251.36 97.48 251.07 97.5 250.77 97.51H250.48C250.21 97.51 249.93 97.51 249.66 97.51H249.05C248.98 97.5 248.64 97.51 248.55 97.51C248.1 97.51 247.71 97.5 247.33 97.48C247.19 97.48 247.05 97.44 246.92 97.41C246.83 97.39 246.74 97.37 246.68 97.37C246.5 97.51 246.31 97.59 246.12 97.59C246.08 97.59 245.99 97.58 245.95 97.57C245.21 97.37 244.4 97.27 243.39 97.27C242.8 97.27 242.21 97.3 241.61 97.33C241.13 97.35 240.66 97.38 240.18 97.39H239.77C239.13 97.39 238.5 97.37 237.86 97.34C237.24 97.31 236.62 97.29 236 97.29C236 97.29 235.14 97.3 234.9 97.3C234.04 97.3 233.17 97.27 232.31 97.25C231.86 97.24 230.42 97.2 230.42 97.2C229.67 97.19 228.92 97.17 228.17 97.13C228.17 97.13 228.17 97.13 228.16 97.13C227.62 97.13 227.23 97.31 226.84 97.7C225.83 98.71 224.81 99.72 223.8 100.74C222.84 101.7 221.87 102.67 220.91 103.63C219.3 105.23 218.15 107.11 217.24 108.73C216.24 110.51 215.16 112.27 214.11 113.97C213.59 114.81 213.08 115.64 212.57 116.48C212.21 117.08 211.85 117.68 211.5 118.28C210.93 119.25 210.35 120.22 209.76 121.18C209.2 122.08 208.61 122.95 208.03 123.83L206.76 125.74C206.11 126.73 205.44 127.75 204.74 128.73C204.07 129.67 203.31 130.55 202.65 131.31C202.38 131.62 201.98 131.9 201.53 132.08C201.28 132.18 201.07 132.23 200.86 132.23C200.58 132.23 200.33 132.13 200.15 131.95C199.93 131.72 199.82 131.39 199.83 130.96C199.85 130.26 199.95 129.64 200.14 129.11C200.99 126.79 202.26 124.66 203.5 122.61L203.59 122.45C205.7 118.93 208.15 115.52 210.85 112.29L211.4 111.63C213.05 109.66 214.7 107.7 216.38 105.75C217.22 104.78 217.84 103.69 218.5 102.53C218.75 102.08 219.01 101.64 219.28 101.2C219.78 100.38 220.26 99.55 220.74 98.71C221.01 98.24 221.28 97.77 221.56 97.3C221.69 97.08 221.74 96.97 221.75 96.89C221.61 96.87 221.47 96.86 221.35 96.86C220.67 96.86 220.15 97.14 219.66 97.77C218.31 99.48 216.88 101.17 215.49 102.8C214.92 103.47 214.35 104.14 213.79 104.81L211.73 107.28C210.44 108.82 209.15 110.37 207.85 111.9C206.74 113.21 205.62 114.5 204.5 115.8C204.5 115.8 197.61 123.78 196.14 125.48C193.11 128.98 189.86 132.68 186.4 136.08C185.17 137.29 183.77 138.48 181.96 138.98C181.58 139.08 181.22 139.14 180.87 139.14C179.27 139.14 178.22 138.01 178.18 136.26C178.16 135.31 178.24 134.41 178.42 133.57C179.1 130.49 180.12 127.24 181.65 123.32C182.08 122.22 182.53 121.13 182.99 120.03C183.2 119.53 183.4 119.03 183.61 118.53C182.59 119.51 181.57 120.49 180.55 121.48C177.78 124.15 174.92 126.9 172.02 129.52C168.25 132.92 164.3 136.23 160.48 139.44L159.13 140.57C157.22 142.18 155.2 143.75 152.96 145.39C151.8 146.24 150.52 146.91 149.31 147.52C148.54 147.91 147.73 148.03 147.18 148.07C147.1 148.07 147.02 148.07 146.94 148.07L146.86 148ZM169.28 95.64C168.72 95.64 168.31 95.92 167.88 96.6C166.51 98.78 165.07 100.96 163.68 103.07L162.3 105.16C159.71 109.1 157.53 112.8 155.62 116.46C153.98 119.62 152.33 122.98 150.59 126.72C148.17 131.92 146.76 136.09 146.01 140.23C145.71 141.9 145.67 143.17 145.89 144.35C146.08 145.35 146.57 145.85 147.36 145.85C147.57 145.85 147.81 145.81 148.06 145.74C148.55 145.6 149.06 145.38 149.62 145.05C151.9 143.75 153.98 142.07 155.99 140.44L156.93 139.68C158.98 138.04 161.14 136.23 163.94 133.82C167.75 130.54 170.65 127.99 173.34 125.57C177.17 122.12 180.94 118.46 184.84 114.37C185.24 113.95 185.59 113.44 185.82 112.94C186.56 111.32 187.29 109.69 188.01 108.06C188.68 106.56 189.35 105.06 190.03 103.56C190.93 101.59 191.86 99.64 192.79 97.69C192.79 97.69 193.43 96.35 193.44 96.32C193.4 96.32 193.35 96.32 193.3 96.31C192.79 96.28 192.29 96.27 191.79 96.26C190.65 96.25 189.5 96.24 188.36 96.23C186.48 96.22 184.6 96.21 182.72 96.18C181.37 96.16 180 96.09 178.68 96.02C177.08 95.94 175.43 95.85 173.8 95.85H173.17C172.49 95.85 171.81 95.79 171.14 95.73C170.87 95.71 170.59 95.68 170.31 95.66C170.25 95.69 170.19 95.7 170.13 95.7C170.13 95.7 170.13 95.7 170.12 95.7C169.91 95.7 169.79 95.7 169.67 95.68C169.52 95.65 169.4 95.64 169.28 95.64ZM204.2 96.37C203.49 96.37 203 96.63 202.45 97.31C200.83 99.34 198.9 101.73 196.88 104.1C195.08 106.22 193.26 108.25 191.39 110.32C190.79 110.99 190.16 111.64 189.54 112.29C188.94 112.91 188.35 113.54 187.77 114.18C187.48 114.5 187.22 114.92 186.99 115.42C186.59 116.31 186.24 117.24 185.89 118.15L185.78 118.43C184.85 120.85 183.93 123.27 183.01 125.7C181.89 128.67 181.11 131.33 180.61 133.82C180.48 134.49 180.43 135.24 180.48 135.99C180.5 136.39 180.65 136.86 181.2 136.86C181.37 136.86 181.56 136.82 181.76 136.74C181.9 136.69 182 136.63 182.08 136.58C182.38 136.36 182.69 136.15 183 135.94C183.71 135.46 184.38 135 184.94 134.44C187.31 132.08 189.62 129.68 191.79 127.29C193.28 125.65 194.74 123.94 196.16 122.28C196.76 121.58 197.36 120.87 197.96 120.17L200.67 117.02C203.33 113.94 205.99 110.86 208.63 107.76C210.74 105.28 212.83 102.78 214.92 100.28L217.67 97C217.73 96.93 217.79 96.85 217.85 96.76C217.84 96.76 217.83 96.76 217.82 96.76C215.86 96.69 213.89 96.61 211.92 96.57C211 96.55 210.07 96.53 209.15 96.52C207.54 96.49 205.93 96.47 204.32 96.4H204.19L204.2 96.37ZM210.62 115.5C207.84 119.14 205.5 122.65 203.64 126.37C205.93 123.19 207.99 119.82 209.99 116.55C210.2 116.2 210.41 115.85 210.63 115.5H210.62ZM134.69 95.29C134.27 95.29 134.11 95.41 133.87 95.92C133.11 97.48 132.35 99.03 131.59 100.59C130.24 103.34 128.84 106.18 127.52 109C125.9 112.46 124.67 115.73 123.77 119C123.35 120.54 123.08 122.03 122.98 123.44C122.93 124.17 123.05 124.73 123.31 125.02C123.47 125.19 123.69 125.28 123.98 125.28C124.32 125.28 124.75 125.16 125.21 124.93C126.46 124.32 127.39 123.75 128.14 123.13C131.18 120.64 134.32 117.99 137.48 115.24C140.26 112.82 142.95 110.4 145.49 108.03C148.92 104.84 152.31 101.61 155.71 98.38L158.74 95.51C158.66 95.51 156.88 95.49 156.56 95.49C155.8 95.49 155.22 95.52 154.67 95.58C154.39 95.61 154.12 95.62 153.84 95.62C153.29 95.62 152.74 95.57 152.21 95.53C151.8 95.5 151.39 95.46 150.98 95.45C150.21 95.42 149.45 95.42 148.69 95.42H148.02C147.3 95.42 146.57 95.42 145.85 95.44C145.46 95.45 145.07 95.48 144.68 95.51L144.16 95.55C144.05 95.57 143.97 95.58 143.91 95.58C143.85 95.58 143.73 95.56 143.68 95.54C142.88 95.26 142.06 95.23 141.44 95.23C141.08 95.23 140.72 95.24 140.36 95.26C140.04 95.27 139.72 95.28 139.4 95.29C138.94 95.29 138.48 95.31 138.02 95.33C137.47 95.35 136.92 95.37 136.38 95.37C135.84 95.37 135.36 95.35 134.92 95.31C134.85 95.31 134.78 95.3 134.71 95.3L134.69 95.29ZM197.05 96.37C196.55 96.37 196.17 96.4 195.82 96.47C195.75 96.48 195.59 96.61 195.54 96.7L195.45 96.88C194.7 98.32 193.93 99.82 193.24 101.32C192.15 103.7 191.09 106.1 190.02 108.5L189.7 109.21C192.82 105.92 199.01 98.67 200.6 96.39C200.35 96.36 200.11 96.34 199.87 96.34C199.75 96.34 199.62 96.34 199.5 96.37C199.22 96.41 198.94 96.43 198.6 96.43C198.35 96.43 198.1 96.42 197.85 96.41C197.67 96.41 197.5 96.39 197.32 96.39H197.03L197.05 96.37ZM224.32 96.89C224.16 96.89 223.95 96.93 223.76 97.25C223.39 97.87 223.03 98.5 222.68 99.12L224.84 96.96C224.74 96.95 224.63 96.93 224.53 96.91C224.45 96.89 224.38 96.89 224.32 96.89ZM246.57 95C247.67 95 248.77 95.04 249.87 95.07C250.76 95.1 251.64 95.12 252.53 95.13C254.68 95.16 256.83 95.18 258.98 95.2L261.57 95.22H262.99C263.8 95.22 264.62 95.22 265.43 95.24C267.35 95.27 269.28 95.33 271.21 95.39C271.54 95.39 271.68 95.33 271.82 94.98C272.13 94.23 272.45 93.49 272.77 92.75C273.37 91.37 273.99 89.95 274.47 88.52C275.24 86.24 275.46 84.05 275.12 82.03C274.83 80.33 274.12 78.97 272.94 77.89C271.17 76.27 268.98 75.48 266.24 75.48H266.01C262.74 75.54 259.31 76.37 255.21 78.09C250.55 80.05 245.89 82.66 240.94 86.06C237.47 88.46 234.39 90.83 231.54 93.32L229.82 94.83H230.17C230.4 94.83 230.63 94.83 230.85 94.83C231.5 94.86 232.14 94.89 232.79 94.92C233.87 94.98 234.95 95.04 236.03 95.05H236.65C237.43 95.05 238.22 95.04 239 95.02C239.74 95 240.48 94.99 241.22 94.98C241.58 94.98 241.94 95.01 242.3 95.04C242.63 95.07 242.96 95.1 243.28 95.1C243.82 95.1 244.31 95.07 244.81 95.04C245.37 95.01 245.93 94.98 246.5 94.98H246.57V95ZM222.13 94.65C222.3 94.65 222.47 94.65 222.63 94.66C222.63 94.66 222.63 94.66 222.64 94.66C222.86 94.66 222.95 94.62 223.08 94.39C223.61 93.41 224.15 92.43 224.69 91.45L222.12 94.64L222.13 94.65ZM196.76 94.14C197.51 94.21 198.3 94.25 199.14 94.25C200.28 94.25 201.4 94.18 202.37 94.12C202.41 94.11 202.57 93.99 202.67 93.85C203.09 93.3 203.51 92.76 203.92 92.21C205.14 90.63 206.4 88.99 207.53 87.31C208.93 85.24 210.31 82.99 211.89 80.22C213.12 78.05 213.87 76.2 214.23 74.41C214.34 73.9 214.36 73.45 214.31 73.06C214.24 72.54 214 72.28 213.59 72.28C213.5 72.28 213.39 72.29 213.28 72.32C212.7 72.46 212.09 72.73 211.5 73.1C209.6 74.3 207.94 75.93 206.09 78.39C205.38 79.34 204.64 80.32 204 81.33C202.79 83.22 201.59 85.16 200.43 87.11C199.95 87.91 199.51 88.76 199.09 89.58L198.76 90.22C198.13 91.43 197.52 92.64 196.84 93.97L196.76 94.13V94.14ZM164.38 93.47C164.97 93.49 165.57 93.51 166.17 93.54C166.17 93.54 167.07 93.58 167.08 93.58C167.5 93.58 167.71 93.46 167.88 93.15C168.03 92.87 168.21 92.61 168.39 92.36C168.47 92.24 168.56 92.12 168.64 92C169.21 91.14 169.78 90.29 170.35 89.44C171.61 87.56 172.91 85.61 174.15 83.67C174.99 82.34 175.81 80.96 176.61 79.61C172.27 84.44 167.81 89.05 163.45 93.55H163.51C163.7 93.55 163.8 93.54 163.9 93.53C164.04 93.51 164.18 93.5 164.31 93.5H164.38V93.47ZM127.08 93.03C127.61 93.03 128.15 93.03 128.68 93.03C129.71 93.03 130.77 93.03 131.82 93.08C132.07 93.09 132.27 93.11 132.45 93.12C132.62 93.13 132.76 93.14 132.87 93.14C132.997 93.14 133.193 92.8933 133.46 92.4L133.68 92C133.72 91.94 133.86 91.65 133.9 91.57L134.81 89.9C136.11 87.53 137.4 85.16 138.71 82.79C138.71 82.79 143.1 74.83 144.12 72.97C138.05 80.54 132.37 87.13 126.84 93.02C126.92 93.02 127 93.02 127.08 93.02V93.03Z" fill="white"/>
<path d="M215.44 59.32C215.35 59.32 215.26 59.3 215.18 59.25C215.03 59.16 214.94 59 214.94 58.82L214.85 58.4C214.75 57.88 214.65 57.39 214.59 56.89C214.55 56.52 214.8 56.05 215.13 55.85C215.49 55.64 215.69 55.3 215.89 54.81C216.24 53.97 216.93 53.61 217.61 53.35C217.74 53.3 217.88 53.27 218.01 53.25C218.09 53.23 218.17 53.22 218.24 53.19C218.55 53.07 218.79 52.99 219.03 52.99C219.54 52.99 219.84 53.33 220.1 53.68C220.89 54.71 220.88 55.75 220.06 56.75C219.29 57.69 218.36 58.25 217.2 58.48C216.93 58.53 216.65 58.69 216.3 58.9C216.1 59.02 215.88 59.14 215.65 59.26C215.58 59.29 215.5 59.31 215.43 59.31L215.44 59.32Z" fill="white"/>
</svg>
