<svg width="400" height="200" viewBox="0 0 400 200" fill="none" xmlns="http://www.w3.org/2000/svg">
<path d="M138.821 103.406C138.821 103.406 137.656 114.163 115.801 119.687C93.947 125.21 74.4238 116.198 104.728 73.4798C135.051 30.7435 198.975 8.0125 207.007 19.1145C215.038 30.2165 207.298 48.1869 179.616 80.439C152.626 111.91 96.7881 160.261 69.7252 173.125C68.4867 173.725 67.0298 172.816 67.0662 171.436C67.2483 166.257 73.0579 151.848 113.379 115.907C115.528 113.999 117.786 112.201 120.136 110.547C132.411 101.898 173.661 73.28 182.803 72.2988C193.584 71.1359 190.379 79.2761 169.108 106.895C147.836 134.514 199.412 104.278 199.412 104.278L235.672 84.3638C235.945 84.2184 235.818 83.8005 235.508 83.855C228.005 85.0179 192.728 91.2685 141.735 111.837C141.735 111.837 57.5414 142.363 49.6738 146.433C49.6738 146.433 136.199 113.582 190.671 104.278C190.671 104.278 317.699 79.2761 329.627 83.9277C329.627 83.9277 280.838 73.8069 259.566 81.1658C258.637 81.4929 258.31 82.6376 258.983 83.3826C263.118 87.9615 276.321 101.626 287.449 102.77C288.651 102.897 289.78 102.243 290.29 101.153C292.748 95.8837 298.94 79.0763 287.376 63.5044C286.174 61.8872 283.952 61.7419 282.531 63.1773C275.338 70.4091 255.323 91.9408 255.723 107.258C255.76 108.348 256.925 109.021 257.891 108.548C266.942 104.042 304.641 85.3268 311.288 82.783C318.864 79.8758 329.646 72.0262 334.308 73.1891" stroke="white" stroke-width="3" stroke-linecap="round" stroke-linejoin="round"/>
<path d="M304.896 113L263.81 185.954" stroke="white" stroke-width="3" stroke-linecap="round" stroke-linejoin="round"/>
<path d="M297.028 119.687C297.028 119.687 333.452 108.93 334.326 119.687C335.2 130.444 289.179 151.376 289.179 151.376" stroke="white" stroke-width="3" stroke-linecap="round" stroke-linejoin="round"/>
<path d="M303.439 121.14L308.083 127.246" stroke="white" stroke-width="3" stroke-linecap="round" stroke-linejoin="round"/>
<path d="M318.281 121.14L315.95 127.246" stroke="white" stroke-width="3" stroke-linecap="round" stroke-linejoin="round"/>
<path d="M296.864 127.246C296.864 127.246 297.301 128.681 300.361 129.953C303.912 131.425 310.96 132.679 324.892 131.298" stroke="white" stroke-width="3" stroke-linecap="round" stroke-linejoin="round"/>
<path d="M298.958 140.237L300.379 129.953" stroke="white" stroke-width="3" stroke-linecap="round" stroke-linejoin="round"/>
<path d="M308.083 131.897L306.899 140.237" stroke="white" stroke-width="3" stroke-linecap="round" stroke-linejoin="round"/>
</svg>
