<svg width="400" height="200" viewBox="0 0 400 200" fill="none" xmlns="http://www.w3.org/2000/svg">
<path d="M112.568 43.644C103.77 49.9038 97.1411 59.0012 93.422 69.1304C91.7002 73.7908 90.581 78.9328 92.0273 83.6965C93.4736 88.4601 98.1569 92.5015 103.064 91.7448C107.971 90.9881 111.122 84.0748 107.575 80.601C105.113 78.1762 101.101 78.4685 97.7609 79.38C83.9348 83.1978 72.9841 95.8033 71.1245 110.008C70.9523 111.315 70.8663 112.725 71.5033 113.895C72.4331 115.597 74.5509 116.199 76.4621 116.578C106.37 122.545 138.964 112.88 160.762 91.5728C163.224 89.1652 165.635 86.4652 166.427 83.1118C145.335 86.8952 125.499 97.3855 110.52 112.708C108.539 114.738 106.577 116.939 105.698 119.639C104.82 122.339 105.285 125.658 107.506 127.429C109.022 128.633 111.071 128.925 113.016 128.994C121.35 129.252 129.356 126.019 136.898 122.476C160.142 111.556 181.716 97.1103 200.674 79.7927C189.12 88.8729 180.15 101.22 175.122 115.03C174.657 116.32 174.295 117.953 175.294 118.899C175.931 119.484 176.895 119.536 177.756 119.536C188.965 119.501 200.157 116.234 209.627 110.232C208.284 113.413 207.096 117.541 209.592 119.931C211.624 121.874 214.913 121.376 217.651 120.671C235.643 115.959 252.569 107.24 266.86 95.339C271.199 91.7276 275.607 85.6398 272.37 81.0137C270.269 78.0386 265.706 77.6258 262.521 79.3972C259.336 81.1685 257.373 84.5563 256.202 88.013C255.771 89.3028 255.427 90.7302 255.858 92.0371C257.028 95.5798 262.194 95.1671 265.672 93.7913C280.497 87.9614 293.324 78.1074 305.945 68.3909C296.802 78.3653 289.571 90.0595 284.749 102.682C290.552 104.35 296.492 101.014 301.485 97.6263C310.955 91.2117 319.978 84.178 329 77.1615C322.991 86.1901 316.947 95.2702 312.712 105.245C308.476 115.219 306.1 126.243 307.753 136.956C307.925 138.04 308.304 139.295 309.354 139.588C310.095 139.794 310.869 139.398 311.541 138.986C313.934 137.524 316.173 135.821 318.221 133.912C319.013 133.173 319.806 132.348 320.047 131.281C320.684 128.444 317.171 126.552 314.313 126.002C301.606 123.611 287.883 127.24 278.034 135.615" stroke="white" stroke-width="3" stroke-linecap="round" stroke-linejoin="round"/>
</svg>
