<svg width="400" height="200" viewBox="0 0 400 200" fill="none" xmlns="http://www.w3.org/2000/svg">
<path d="M106.427 69.0369C126.817 65.8747 169.493 59.6887 177.082 60.2421M153.761 26.644L146.202 69.0369M146.202 69.0369C143.792 69.2997 135.137 67.8578 139.426 61.4235C142.137 57.3583 146.989 55.0765 148.767 54.6482C154.988 56.9066 155.235 62.7106 155.235 64.1335C155.235 65.5565 152.432 67.1756 150.718 67.747C149.363 68.1987 147.325 68.9144 146.202 69.0369ZM146.202 69.0369L121.151 172.005M93.9764 100.757C115.387 94.499 162.398 82.2785 179.157 83.4643C150.928 100.099 93.9764 136.866 92 150.858C115.058 132.676 163.781 96.4095 174.216 96.8047C179.157 98.287 145.658 132.577 142.792 139.494C139.927 146.411 176.983 110.837 181.134 110.837C185.284 110.837 171.351 130.6 174.216 130.6C177.082 130.6 188.545 112.813 192.498 114.79C196.45 116.766 193.19 130.008 197.142 127.339C201.095 124.671 203.467 117.556 207.222 118.742C210.977 119.928 207.716 128.921 211.174 129.118C214.633 129.316 217.103 115.778 222.538 117.26C227.973 118.742 230.74 131.49 240.82 127.339C250.899 123.189 259.595 116.272 267.006 118.742C274.418 121.213 295.861 129.612 306.237 120.225C311.178 113.307 291.019 102.931 277.382 101.449C267.263 97.7336 233.968 95.6189 218.586 95.026" stroke="white" stroke-width="3" stroke-linecap="round" stroke-linejoin="round"/>
<mask id="path-2-inside-1_733_2113" fill="white">
<ellipse cx="185.498" cy="104.333" rx="2.2584" ry="2.71008"/>
</mask>
<path d="M184.756 104.333C184.756 104.416 184.726 104.405 184.79 104.329C184.859 104.246 185.096 104.043 185.498 104.043V110.043C188.891 110.043 190.756 106.951 190.756 104.333H184.756ZM185.498 104.043C185.899 104.043 186.137 104.246 186.205 104.329C186.269 104.405 186.239 104.416 186.239 104.333H180.239C180.239 106.951 182.105 110.043 185.498 110.043V104.043ZM186.239 104.333C186.239 104.25 186.269 104.261 186.205 104.337C186.137 104.42 185.899 104.623 185.498 104.623V98.623C182.105 98.623 180.239 101.715 180.239 104.333H186.239ZM185.498 104.623C185.096 104.623 184.859 104.42 184.79 104.337C184.726 104.261 184.756 104.25 184.756 104.333H190.756C190.756 101.715 188.891 98.623 185.498 98.623V104.623Z" fill="white" mask="url(#path-2-inside-1_733_2113)"/>
</svg>
