<svg width="400" height="200" viewBox="0 0 400 200" fill="none" xmlns="http://www.w3.org/2000/svg">
<path d="M44.5601 113.02C64.6701 110.23 83.8501 101.09 98.6701 87.23C91.5801 100.37 85.6501 114.13 80.9701 128.31C98.9001 114.38 115.88 99.22 131.73 82.97C123.81 95.53 117.63 109.18 113.39 123.41C128.92 112.96 143.88 101.65 158.16 89.55C154.32 99.35 150.48 109.16 146.63 118.96C165.45 105.24 186.97 93.79 206.56 81.19C200.5 87.67 192.86 90.19 187.63 100.21C184.34 106.5 183.25 113.36 188.96 117.58C193.82 121.18 202.96 118.38 207.94 114.95C216.32 109.18 237.48 90.97 230.53 80.81C222.61 81.97 212.44 94.5 216.74 100.15C227.31 102.72 246.24 85.93 259.26 73.81C253.34 87.46 247.43 101.11 241.51 114.75C258.16 101.13 274.82 87.5 291.47 73.88C285.26 86.87 279.05 99.85 272.85 112.84C292.94 99.28 313.03 85.72 333.12 72.17C326.5 84.69 319.88 97.22 313.25 109.74C334.27 98.1 354.76 85.5 374.64 72" stroke="white" stroke-width="4" stroke-linecap="round" stroke-linejoin="round"/>
<path d="M24 96.9299C35.55 100.06 48.69 96.3699 56.92 87.6799" stroke="white" stroke-width="4" stroke-linecap="round" stroke-linejoin="round"/>
</svg>
