<svg width="400" height="200" viewBox="0 0 400 200" fill="none" xmlns="http://www.w3.org/2000/svg">
<path d="M330 87.2178C325.351 87.2178 321.296 87.0281 317.264 87.2652C310.089 87.6801 302.973 88.1425 295.87 89.8022C289.49 91.2959 283.43 93.5839 277.24 95.5163C274.287 96.4291 271.571 98.0888 268.748 99.3929C267.729 99.8671 267.088 100.697 266.744 101.693C263.104 112.303 257.008 121.443 250.213 130.263C243.038 139.582 235.247 148.331 226.578 156.25C221.028 161.312 215.644 166.635 209.264 170.748C204.378 173.902 199.006 176.012 193.705 178.265C192.863 178.62 191.843 178.585 190.894 178.632C188.226 178.762 187.005 177.245 187.396 174.566C188.38 167.844 191.25 161.893 195.057 156.428C199.373 150.227 203.738 144.027 208.588 138.242C215.608 129.872 223.625 122.522 232.685 116.322C242.457 109.636 252.395 103.269 263.234 98.4208C264.788 97.7213 265.215 96.4647 265.428 95.0421C265.606 93.8329 265.653 92.5881 265.677 91.3552C265.784 87.3126 263.519 85.8426 259.831 87.6564C258.052 88.5218 256.391 89.6362 254.411 90.0037C251.541 90.549 250.13 89.4109 249.928 86.5302C249.739 83.7205 250.782 81.1243 251.245 78.4332C251.387 77.627 251.944 76.7023 251.007 76.0977C250.13 75.5405 249.347 76.1807 248.695 76.7142C243.845 80.6382 238.971 84.5267 234.215 88.5692C230.527 91.7108 226.625 94.5442 222.439 96.9745C219.131 98.895 217.02 98.5038 214.304 95.7178C211.031 92.3628 209.513 92.0309 205.244 93.738C205.066 93.8092 204.9 93.904 204.722 93.9751C199.468 96.192 199.041 95.9312 198.875 90.3001C198.804 87.9172 196.598 85.7477 194.073 85.5106C190.444 85.155 187.182 86.3049 183.933 87.7749C178.371 90.3001 173.628 94.1174 168.493 97.2945C167.639 97.828 166.987 98.4089 165.979 97.6383C165.113 96.9745 164.911 96.1328 165.054 95.1251C165.326 93.2283 166.073 91.4737 166.821 89.731C168.41 85.9848 170.07 82.2861 171.6 78.5161C171.92 77.7337 172.94 76.6549 171.944 75.9555C170.876 75.2086 170.414 76.5956 169.762 77.1884C161.958 84.3607 154.558 92.019 145.546 97.7569C142.96 99.4047 140.114 100.472 137.221 101.361C133.295 102.57 128.753 99.9264 127.769 95.7415C126.654 90.9877 126.773 86.2812 128.314 81.4799C129.726 77.0698 130.71 72.5531 133.106 68.5105C133.366 68.0718 133.793 67.4317 133.129 67.0167C132.607 66.6848 132.038 67.0523 131.528 67.3131C127.401 69.4352 123.18 71.3083 118.863 73.0035C109.601 76.6431 99.936 78.5161 90.0693 79.1445C86.0372 79.4053 81.9459 78.7414 78.0443 77.3544C74.451 76.074 72.3876 73.3355 71.0712 69.9568C70.419 68.2615 72.3164 65.7008 74.1308 65.6771C75.4709 65.6653 75.1981 66.7915 75.2812 67.5502C75.7792 72.0196 77.5937 73.7149 82.0289 74.8885C90.093 77.0224 97.8488 74.9359 105.64 73.5015C116.017 71.5928 125.35 66.9219 134.552 62.0021C136.723 60.8403 138.181 59.0264 139.201 56.7858C144.431 45.3457 151.036 34.8303 159.729 25.6545C161.816 23.4494 163.559 21.0191 166.631 19.9759C169.702 18.9326 172.169 20.2486 172.145 23.485C172.098 29.697 170.224 35.423 166.655 40.5088C161.555 47.776 154.713 53.2767 147.289 57.8646C141.727 61.2908 137.434 65.3096 135.11 71.498C132.477 78.5517 129.809 85.558 131.267 93.2994C132.003 97.1997 133.853 98.3496 137.79 97.4487C141.288 96.6544 144.265 94.7813 147.147 92.7541C154.547 87.5616 161.176 81.4681 167.437 74.9715C169.382 72.9561 171.754 71.5928 174.007 70.0161C174.956 69.3522 176.023 69.3403 176.972 69.862C178.051 70.4547 177.695 71.5809 177.434 72.4345C175.762 77.8523 173.817 83.1633 171.374 88.2847C171.042 88.9842 169.987 89.7073 170.876 90.5016C171.671 91.2248 172.465 90.3712 173.153 89.9444C177.185 87.443 181.277 85.0483 185.724 83.3649C188.772 82.2149 191.938 81.8119 195.211 82.1201C198.864 82.4639 201.022 84.7519 202.469 87.7631C203.168 89.2331 203.856 89.5058 205.315 88.996C209.714 87.4667 213.45 88.3203 216.533 92.0309C218.727 94.6746 220.482 94.6627 223.376 92.6C230.705 87.36 237.583 81.551 244.556 75.8606C247.047 73.8215 249.75 72.0789 252.763 70.8222C253.925 70.3362 254.909 70.2176 255.929 71.0712C257.008 71.9722 257.008 73.2051 256.463 74.1772C255.123 76.5601 255.336 79.346 254.209 81.7881C253.806 82.6654 253.367 83.8865 254.304 84.7163C255.123 85.4514 256.083 84.906 256.961 84.5148C257.648 84.2066 258.396 84.0288 259.107 83.7561C261.87 82.6891 264.799 82.0845 267.195 84.1592C269.59 86.2338 269.78 89.2687 269.46 92.3036C269.377 93.1334 268.239 94.1411 269.567 94.7931C270.515 95.2555 271.547 95.0895 272.579 94.6272C286.715 88.4151 301.515 85.072 316.943 84.9772C321.13 84.9534 325.494 84.9179 329.941 87.1822L330 87.2178ZM191.63 171.104C191.689 175.182 191.867 175.36 194.891 174.329C200.109 172.539 205.066 170.12 209.477 166.813C218.123 160.328 226.021 153.013 233.48 145.165C245.137 132.907 255.585 119.867 262.428 104.23C262.736 103.518 263.293 102.878 262.617 102.203C261.918 101.503 261.348 102.12 260.637 102.475C255.49 105.024 250.509 107.881 245.683 110.987C241.639 113.595 237.346 115.871 233.563 118.811C228.558 122.688 223.767 126.873 219.19 131.247C209.726 140.328 201.899 150.749 195.27 162.023C193.491 165.058 191.831 168.294 191.618 171.104H191.63ZM169.169 26.8992C169.169 24.6942 168.576 24.2674 166.643 24.8246C163.215 25.8086 161.306 28.6419 159.124 31.1078C152.886 38.1497 148.238 46.2467 143.719 54.4385C143.506 54.8298 142.948 55.1973 143.399 55.6478C144.016 56.2642 144.692 55.7782 145.202 55.4344C152.851 50.2774 160.274 44.8478 165.279 36.8812C167.248 33.7515 168.623 30.3016 169.157 26.9111L169.169 26.8992Z" fill="white"/>
</svg>
