<svg width="400" height="200" viewBox="0 0 400 200" fill="none" xmlns="http://www.w3.org/2000/svg">
<path d="M162.17 154.186C162.17 154.186 148 150.306 148 140.716C148 129.096 155.84 122.066 164.9 122.606C164.9 122.606 157.57 122.436 155.69 114.276C153.04 102.776 164.85 98.896 172.97 99.496C172.97 99.496 158.69 96.476 159.28 76.746C159.87 57.016 172.43 44.466 186.5 44.646C200.57 44.816 221.39 47.886 225.08 63.196C228.76 78.506 218.12 93.126 218.12 93.126C218.12 93.126 228.83 87.276 237.11 92.906C245.39 98.536 245.83 108.366 235.78 120.516C235.78 120.516 239.76 117.426 247.37 123.606C254.98 129.786 253.97 149.776 239.3 152.426" stroke="white" stroke-width="3" stroke-linecap="round" stroke-linejoin="round"/>
<path d="M161.34 89.0461L175.71 91.0261L172.51 73.1261L213.59 62.2061V83.0761L224.35 81.2361" stroke="white" stroke-width="3" stroke-linecap="round" stroke-linejoin="round"/>
<path d="M173.21 77.0659L186.13 79.9859C186.13 79.9859 184.82 68.8159 187.19 68.3559C189.56 67.8959 196.86 77.1859 197.31 77.1859C197.76 77.1859 196.44 65.6459 199.16 65.4859C201.88 65.3259 207.41 74.9759 207.41 74.9759H219.19" stroke="white" stroke-width="3" stroke-linecap="round" stroke-linejoin="round"/>
<path d="M173.32 81.5259L184.61 85.2759" stroke="white" stroke-width="3" stroke-linecap="round" stroke-linejoin="round"/>
<path d="M206.61 78.5962L218.43 79.9762" stroke="white" stroke-width="3" stroke-linecap="round" stroke-linejoin="round"/>
<path d="M202.07 81.526C201.73 81.526 193.26 77.696 191.09 79.976C188.92 82.256 190.87 100.076 190.87 100.076L202.07 81.526Z" stroke="white" stroke-width="3" stroke-linecap="round" stroke-linejoin="round"/>
</svg>
