<svg width="400" height="200" viewBox="0 0 400 200" fill="none" xmlns="http://www.w3.org/2000/svg">
<defs><style>.cls-1{fill:#fff;stroke-width:3px;}</style></defs>
<path class="cls-1" d="m281.12,136c7.38-8.74,12.16-19.88,13.82-32.21,3.05-22.58-4.79-46.7-20.99-64.5-15.46-16.99-38.76-27.63-62.35-28.48-.96-.03-1.93-.05-2.89-.05-12.16,0-23.22,2.83-31.98,8.19-10.45,6.39-17.71,15.95-24,25.32-1.67,2.49-3.14,4.77-4.29,7.34-.34.75-.66,1.56-1.02,2.52-1.69-1.38-3.37-2.77-5.03-4.18-.17-.15-.38-.23-.6-.23-.39,0-.78.27-.91.64-.12.33-.02.67.26.9,1.68,1.42,3.47,2.9,5.63,4.66-.4,1.19-.77,2.44-1.1,3.7-1.58,5.95-2.5,11.76-2.73,17.24-.23,5.57.46,11.67,1.99,17.63,1.66,6.43,4.61,12.47,7.27,17.53.42.8.85,1.6,1.28,2.4-4-3.95-8.16-7.48-12.39-10.51-3.2-2.29-6.56-4.39-9.98-6.25-3.05-1.66-6.2-3.37-9.99-3.65-.3-.02-.6-.03-.89-.03-6.75,0-12.08,5.59-14.37,11.13-2.3,5.56-2.19,13.64,3.49,18.23,3.06,2.46,6.92,3.71,11.47,3.71,2.68,0,5.56-.43,8.56-1.29,2.84-.81,5.64-1.88,8.35-2.92,1.22-.46,2.43-.93,3.65-1.37,3.51,8.17,7.33,16.32,11.36,24.22l.27.54c1.15,2.3,2.9,5.77,5.91,5.77.12,0,.23,0,.36-.02,1.34-.12,2.47-1,3.36-2.61.99-1.8,1.73-3.79,2.39-5.54,1.44-3.93,2.48-8.06,3.07-12.28.7-4.94.83-8.73.41-12.27-.44-3.76-2.46-5.91-5.54-5.91h-.24c-1.68.06-3.33.54-4.92,1.01-.34.1-.67.2-1,.29-.22.06-.99.29-.99.29-2.17-4.01-4.27-7.95-6.06-12.1-2.35-5.43-3.88-11.28-4.67-17.88-.61-5.12-.4-10.51.66-16.96.7-4.27,1.5-7.74,2.52-10.88,9.41,7.59,19.17,14.8,29.03,21.42.34.23.7.49,1.08.76,1.64,1.19,3.5,2.53,5.48,2.53.54,0,1.07-.1,1.56-.31,2.45-1,3.58-3.88,4.21-5.97.16-.52.31-1.05.46-1.57l.1-.35c2.18,2.9,4.53,5.64,7,8.15.17.18.39.28.62.28.36,0,.71-.24.86-.6.14-.33.07-.69-.19-.96-2.75-2.82-5.33-5.87-7.65-9.06.74-2.6,1.51-5.4,2.35-8.53,5.56,6.78,10.57,14.04,14.9,21.59.16.28.43.45.75.45.34,0,.67-.19.83-.48.16-.27.15-.59,0-.88-.01-.02-.02-.04-.04-.05-4.56-7.96-9.89-15.62-15.86-22.77l.06-.24c.71-2.68,1.42-5.36,2.15-8.03.33-1.19.64-2.38.96-3.58.65-2.47,1.32-5.02,2.09-7.48.4-1.29.92-2.74,1.93-3.77.69-.69,1.54-1.03,2.59-1.03.68,0,1.45.14,2.36.43,4.93,1.57,9.75,3.41,14.28,5.21-1.07.2-2.04.8-2.8,1.75-1.03,1.28-1.81,2.8-2.58,4.27-.31.6-.62,1.2-.94,1.77-2.95,5.29-5.9,10.58-8.86,15.86-.16.29-.16.6,0,.88.17.29.5.48.83.48.31,0,.58-.16.74-.45,1.19-2.14,10.94-19.59,10.94-19.59.83-1.51,1.78-3.22,3.44-3.22.27,0,.56.04.86.13,2.11.61,3.1,2.75,3.95,4.88.83,2.12,1.65,4.33,2.51,6.75,1.57,4.49,2.98,9.06,4.18,13.61l.15.55c1.03,3.86,2.09,7.85,5.3,10.46.18.15.42.24.66.24.33,0,.61-.17.76-.45,2.83-5.36,6.3-10.34,10.29-14.8,3.72,2.6,4.5,7.92,5.12,12.21l.04.27c.89,6.1,1.17,12.42.84,18.79-.01.25.06.47.22.63.16.17.4.27.66.27.42,0,.85-.26.93-.77.01-.03.02-.06.02-.09.35-6.78,0-13.58-1.04-20.21-.82-5.21-1.99-10.51-6.48-13.06-.14-.08-.3-.12-.46-.12-.25,0-.49.1-.65.27-4.07,4.45-7.6,9.4-10.51,14.72-2.26-2.37-3.12-5.69-3.96-8.91-.14-.55-.29-1.1-.44-1.64-1.36-4.97-2.96-10.01-4.78-14.99-.18-.5-.36-1.04-.55-1.6-.76-2.28-1.68-5.01-3.34-6.85l2.57,1.03c7.08,2.85,14.29,5.93,21.42,9.17,3.42,1.55,6.92,3.18,10.41,4.86,1.73.83,3.45,1.67,5.17,2.51.43.21.86.41,1.3.62,1.16.54,2.37,1.09,3.4,1.8,1.85,1.27,1.09,3.27.36,5.2-.1.27-.21.54-.3.8-.7,1.96-1.4,3.91-2.12,5.86-1.46,3.95-3.03,8.01-4.65,12.07-1.67,4.16-3.49,8.51-5.41,12.93-4.17-4.3-8.41-8.46-12.61-12.39-.18-.16-.39-.25-.61-.25-.38,0-.74.25-.88.61-.13.33-.05.68.23.93,4.38,4.09,8.78,8.42,13.09,12.89-1.57,3.57-3.01,6.76-4.41,9.75-.13.28-.13.6,0,.87.11.23.31.39.56.45,5.66,1.36,11.54,2.67,17.5,3.91l.41.48c.55.64,1.11,1.29,1.66,1.94.17.2.39.3.62.3.34,0,.67-.23.83-.56.16-.34.1-.71-.14-.99l-.5-.58c4.82.98,9.2,1.82,13.37,2.57.06.01.12.02.18.02.56,0,.9-.46.94-.89.04-.43-.21-.77-.62-.87-.02-.01-.05-.02-.07-.02-5.05-.91-10.34-1.93-15.71-3.05-4.02-4.65-8.21-9.26-12.47-13.7,4.7-10.75,9.03-21.72,12.88-32.63l.17-.47c.46-1.28.99-2.73.63-4.16-.39-1.54-1.72-2.44-2.97-3.11-2.84-1.5-5.8-2.91-8.66-4.26l-1.58-.75c-7.35-3.49-14.7-6.8-21.86-9.83-7.41-3.13-14.24-5.86-21.52-8.58-1.79-.67-3.58-1.33-5.39-1.99-.39-.14-.8-.3-1.21-.46-1.5-.58-3.05-1.18-4.63-1.43-.34-.05-.67-.08-1-.08-2.3,0-4.21,1.31-5.38,3.69-1.15,2.32-1.79,4.94-2.4,7.48-.22.91-.44,1.81-.68,2.68l-2.85,10.4c-2.81-3.28-5.67-6.36-8.5-9.17-.17-.17-.39-.27-.62-.27-.36,0-.72.25-.87.6-.14.33-.06.69.2.95,3.09,3.07,6.18,6.44,9.2,10-.78,2.85-1.52,5.56-2.27,8.28-1.81-2.65-3.45-5.37-4.88-8.1-.15-.29-.42-.46-.74-.46s-.65.19-.83.47c-.16.27-.17.59-.02.88,1.7,3.23,3.66,6.43,5.84,9.49l-.13.47c-.09.32-.18.68-.27,1.06-.64,2.59-1.52,6.14-4.05,6.72-.17.04-.36.06-.54.06-1.33,0-2.71-1-3.92-1.89-.31-.22-.6-.44-.88-.62-1.82-1.22-3.64-2.45-5.44-3.7-3.46-2.4-6.93-4.88-10.31-7.38-4.68-3.45-9.51-7.2-14.38-11.15.45-1.22.9-2.33,1.4-3.39,2.29-4.93,5.59-9.3,8.79-13.52l.25-.33c3.87-5.13,7.65-9.26,11.55-12.62,8.56-7.37,19.68-11.77,32.17-12.71,1.97-.15,3.98-.22,5.97-.22,20.9,0,41.89,8.02,57.58,22,17.08,15.23,27.25,37.49,27.21,59.56-.02,12.55-3.23,24.35-9.27,34.13-5.69,9.2-14.05,16.59-23.56,20.81-2.34,1.03-4.83,1.89-7.38,2.54-.27.07-.51.28-.62.57-2.15-3.17-4.52-6.18-7.09-9.01-1.33-1.46-2.72-2.88-4.16-4.24-.17-.17-.35-.34-.54-.52-1.13-1.12-2.42-2.38-4.01-2.63-.15-.02-.29-.03-.44-.03-2.19,0-3.75,2.57-4.79,4.27l-.13.22c-1.8,2.95-2.32,6.72-2.79,10.05l-.02.14c-.59,4.26-.69,8.54-.29,12.72.4,4.27,1.25,8.27,2.57,12.23.99,2.96,2.52,6.67,5.52,9.05,1.35,1.07,2.89,1.64,4.44,1.64,1.43,0,2.82-.49,4.02-1.42,1.33-1.03,2.4-2.36,3.43-3.64.23-.29.46-.57.69-.85l4.59-5.54c2.38-2.86,4.75-5.72,7.12-8.59l.74-.89,8.14,11.26c.58.8,1.14,1.62,1.71,2.45,1.84,2.68,3.75,5.45,6.18,7.61,1.43,1.28,3.67,2.81,6.17,2.81.9,0,1.77-.2,2.59-.6,3.13-1.52,4.14-5.21,4.63-7.84.77-4.15,1.22-8.66,1.33-13.41.1-4.55-.14-9.03-.71-13.3-.44-3.22-1.27-6.79-4.12-8.84-1.31-.95-2.96-1.46-4.76-1.46-1.66,0-3.44.43-5.01,1.22-3.28,1.64-5.64,4.54-7.94,7.34-.31.38-.61.75-.92,1.11l-7.2,8.67-6.62-9.15c9.77-2.8,18.92-8.82,25.81-16.98Zm-143.1-27.55c-.63-1.6-1.25-3.21-1.85-4.81-.14-.38-.48-.61-.88-.61-.32,0-.62.15-.78.38-.15.22-.17.49-.07.75,1.93,5.19,4.03,10.45,6.23,15.65l-.78.28c-.85.3-1.7.61-2.55.93l-.93.35c-3.64,1.39-7.4,2.82-11.29,3.51-1.3.23-2.64.35-3.98.35-6.97,0-12.25-3.03-14.12-8.11-2.76-7.48,1.32-15.36,6.77-19.27,1.9-1.36,3.94-2.02,6.23-2.02,4.86,0,9.75,3,14.05,5.64l.42.26c6.34,3.89,12.36,8.66,17.94,14.21l-.54.16c-.53.15-1.06.3-1.58.46-2.38.74-4.89,1.57-7.89,2.63-1.56-3.65-3.04-7.26-4.41-10.73Zm18.79,12.06c.17.19.39.29.62.29.31,0,.62-.19.79-.47.17-.29.18-.61.02-.9-.51-.96-1.03-1.91-1.55-2.87,1.58-.46,2.95-.83,4.34-1.13.71-.16,1.32-.23,1.88-.23,1.57,0,2.62.62,3.21,1.89.71,1.52.73,3.32.74,5.06v.44c.03,2.05-.05,4.16-.25,6.27-.4,4.22-1.3,8.44-2.65,12.54-.71,2.14-1.52,4.19-2.41,6.1-.83,1.76-1.72,2.65-2.66,2.65-.41,0-.86-.17-1.32-.51-1.27-.93-2.02-2.41-2.75-3.84l-.26-.51c-.82-1.59-1.65-3.26-2.46-4.91-1.61-3.27-3.21-6.67-4.91-10.37-1.33-2.9-2.7-5.99-4.07-9.16,3.53-1.24,7.22-2.43,10.72-3.45,1.09,1.12,2.05,2.15,2.94,3.12Zm111.47-4.87c-4.65-.99-9.37-2.05-14.03-3.15,1.23-2.65,2.47-5.38,3.68-8.15,3.56,3.73,7.04,7.53,10.34,11.3Zm3.85,37.04c2.8-3.37,5.65-6.44,9.65-7.01.4-.06.8-.09,1.19-.09,1.17,0,2.86.26,4.23,1.52,1.12,1.03,1.92,2.57,2.44,4.71,1,4.14,1.12,8.65,1.16,12.92.04,4.75-.31,9.52-1.05,14.18-.46,2.88-1.22,7.71-4.96,8.45-.28.05-.56.08-.84.08-3.72,0-7.2-4.82-8.34-6.4-3.31-4.57-6.61-9.14-9.91-13.71l-2.66-3.69c3.03-3.66,6.06-7.31,9.1-10.96Zm-12.77,10.69s-.01-.06-.03-.08c-.97-2.06-2.03-4.08-3.16-6.04l4.56,6.32-11.33,13.66c-1,1.21-2,2.42-3.02,3.63-1.33,1.59-2.68,3.04-4.54,3.32-.24.04-.47.06-.7.06-3.63,0-6.08-4.44-6.97-6.35-3.28-7.08-4.58-16.07-3.65-25.29.21-2.19.59-4.42,1.11-6.62l.07-.3c.33-1.44.68-2.93,1.43-4.21.86-1.48,1.66-2.55,2.51-3.37.35-.34.71-.5,1.1-.5.94,0,1.95.96,2.75,1.73l.3.29c5.99,5.57,11.08,12.01,15.12,19.14.96,1.69,1.87,3.46,2.8,5.42.14.31.41.49.73.49s.64-.18.82-.47c.16-.25.19-.53.09-.81Z"/><path class="cls-1" d="m237.94,110.18c.32,0,.62-.15.78-.39.14-.22.16-.48.05-.75,0-.02-.02-.04-.04-.06-.1-.23-.2-.45-.3-.68l-.17-.39c.01-.29-.11-.57-.34-.76-3.25-7.15-7.67-13.43-13.13-18.65-1.13-1.08-2.36-2.14-3.87-2.14-.24,0-.49.03-.73.09-1.2.28-2.17,1.25-2.8,2.8-.59,1.44-.85,3.03-1.09,4.56-.08.5-.16,1-.26,1.55l-1.34,7.21c-.9,4.84-1.78,9.68-2.64,14.53-.16.93-.34,1.86-.52,2.8-.71,3.66-1.43,7.44-1.33,11.17.14,4.8,1.63,7.44,4.2,7.44.39,0,.81-.06,1.25-.18,1.7-.47,3.16-1.67,4.45-2.73l.12-.1c1.45-1.19,2.89-2.57,4.28-4.1,5.54-6.15,9.27-13.62,12.88-21.39.16.11.35.17.56.17Zm-11.19,15.48c-2.12,3.01-4.43,5.62-6.88,7.76l-.27.24c-1.21,1.06-2.59,2.27-4.1,2.81-.4.14-.77.21-1.1.21-.56,0-.99-.2-1.3-.62-.5-.68-.68-1.72-.83-2.57l-.02-.11c-.64-3.62.05-7.38.72-11.01.1-.56.21-1.12.3-1.68.73-4.17,1.49-8.4,2.26-12.6.77-4.2,1.55-8.39,2.34-12.58.05-.26.1-.58.16-.93.35-2.21,1.01-6.32,2.94-6.32.52,0,1.13.29,1.81.86,2.69,2.24,5.29,5.21,8.18,9.36,2,2.87,3.85,6.15,5.37,9.51-3.01,6.51-5.81,12.34-9.58,17.68Z"/><path class="cls-1" d="m257.16,123.63c.17.2.39.31.62.31.33,0,.65-.22.81-.55.15-.31.12-.66-.07-.93-.01-.02-.02-.05-.04-.07-5.76-7.11-12.44-13.59-19.84-19.26-.16-.12-.33-.18-.5-.18-.35,0-.67.25-.79.63-.14.41-.01.83.32,1.08,7.18,5.49,13.73,11.87,19.48,18.97Z"/></svg>