<svg width="400" height="200" viewBox="0 0 400 200" fill="none" xmlns="http://www.w3.org/2000/svg">
<g clip-path="url(#clip0_733_2151)">
<path d="M138.922 100.087C139.667 99.5902 140.052 98.6923 140.493 97.9468C142.592 94.405 145.129 91.331 147.862 88.2491C157.056 77.8778 166.895 67.1261 179.826 61.4044C181.386 60.7141 190.368 57.0564 191.962 58.7497C192.72 59.555 192.804 62.6963 192.937 63.6256C193.473 67.3798 193.514 71.1636 193.533 74.9486C193.535 75.3863 193.021 82.9706 194.075 83.1023C194.566 83.1637 197.334 79.881 197.461 79.7704C202.059 75.7472 207.242 72.049 212.712 69.3142C218.089 66.6257 223.961 64.8953 229.832 63.6798C234.119 62.7921 242.78 60.3105 246.789 63.6798C251.478 67.6197 251.035 77.831 249.769 83.0752C248.515 88.2677 245.667 92.7608 241.236 95.8339C234.645 100.405 226.514 99.5992 218.915 99.5992C205.615 99.5992 192.313 99.5473 179.013 99.5992C177.455 99.6053 172.823 99.6896 174.354 99.9785C177.089 100.494 179.813 100.552 182.535 101.279C188.703 102.926 192.662 105.58 195.429 111.491C199.938 121.123 200.007 132.623 199.845 143.049C199.771 147.764 198.223 161.746 199.438 157.19C201.099 150.962 205.218 144.806 208.459 139.311C213.645 130.516 219.639 121.873 226.418 114.227C231.103 108.944 236.075 104.083 240.504 98.5699C241.122 97.8009 241.135 97.0033 241.588 97.9739C242.687 100.328 243.488 102.51 245.787 103.988C255.773 110.407 269.439 97.7722 276.966 92.7729C277.855 92.1822 280.111 90.297 281.354 90.4975C282.84 90.7372 284.512 97.4468 284.957 98.4886C286.984 103.234 290.745 111.006 296.469 112.006C314.154 115.094 325.941 101.117 338.728 91.4727C340.511 90.1275 340.648 90.7126 341.084 92.6646C341.866 96.1576 342.67 99.4563 344.606 102.525C348.244 108.291 353.032 112.404 360.073 111.166C367.177 109.917 372.603 103.882 378.006 99.545C379.322 98.4888 385.742 91.7059 387.216 94.1273C388.703 96.5708 397.036 90.9052 398.052 90.1724C402.61 86.8819 407.498 80.9855 408.074 75.2195" stroke="white" stroke-width="3" stroke-linecap="round"/>
</g>
<defs>
<clipPath id="clip0_733_2151">
<rect width="400" height="200" fill="white"/>
</clipPath>
</defs>
</svg>
