<svg width="400" height="200" viewBox="0 0 400 200" fill="none" xmlns="http://www.w3.org/2000/svg">
<path d="M80.9301 70.1442C80.9301 70.1442 60.1301 94.2542 71.6001 101.824C83.0801 109.384 116.44 70.1442 116.44 70.1442C94.2501 101.434 83.6301 111.724 65.2201 143.514C65.2201 143.514 77.5901 116.264 52.8101 112.854C34.9701 110.404 37.9401 127.184 52.6301 125.124C67.3201 123.064 127.98 76.8542 149.77 71.1442C169.76 65.9042 172.62 90.7042 142.95 84.6842C134.06 82.8742 129.79 78.0042 125.32 81.9342C120.86 85.8642 125.8 101.284 144.08 101.824C162.36 102.354 181.32 92.5042 187.28 79.0542C193.24 65.6042 178.72 68.3042 175.46 80.9842C172.47 90.7642 180.62 101.954 191.76 101.954C205.38 101.954 212.12 86.4142 206.4 76.4642C200.68 66.5142 190.85 69.1342 196.17 83.4742C204.44 105.764 228.71 89.8942 235.88 79.6042C244.18 67.7042 234.92 67.2642 229.28 77.0242C224.41 85.4742 221.55 104.524 221.55 104.524C221.55 104.524 253.38 67.9042 266.23 71.0042C279.09 74.1042 263.09 101.274 275.05 103.484C286.19 105.554 295.79 91.6642 309.18 91.1842C322.57 90.7042 331.56 100.184 341.06 101.014C350.56 101.844 360.86 97.0342 360.86 97.0342" stroke="white" stroke-width="3" stroke-linecap="round" stroke-linejoin="round"/>
</svg>
