<svg width="400" height="200" viewBox="0 0 400 200" fill="none" xmlns="http://www.w3.org/2000/svg">
<g clip-path="url(#clip0_733_2208)">
<path d="M143.697 80.7322L162.537 61.4926L176.681 47.0474L147.051 50.4159" stroke="white" stroke-width="3" stroke-linecap="round" stroke-linejoin="round"/>
<path d="M185.626 80.7324L162.537 61.4927" stroke="white" stroke-width="3" stroke-linecap="round" stroke-linejoin="round"/>
<path d="M165.5 77.3638V101.252" stroke="white" stroke-width="3" stroke-linecap="round" stroke-linejoin="round"/>
<path d="M131.397 104.312L270.602 94.7676" stroke="white" stroke-width="3" stroke-linecap="round" stroke-linejoin="round"/>
<path d="M165.5 111.431C165.5 111.431 148.169 112.065 147.051 130.508C145.933 148.95 169.972 146.407 169.972 146.407C169.972 146.407 189.539 143.229 190.098 126.056C190.657 108.882 172.879 109.522 165.5 111.431Z" stroke="white" stroke-width="3" stroke-linecap="round" stroke-linejoin="round"/>
<path d="M215.563 57.1528L245.445 52.1001V84.1007" stroke="white" stroke-width="3" stroke-linecap="round" stroke-linejoin="round"/>
<path d="M225.476 97.833L230.921 140.012" stroke="white" stroke-width="3" stroke-linecap="round" stroke-linejoin="round"/>
<path d="M253.277 95.958V151.24" stroke="white" stroke-width="3" stroke-linecap="round" stroke-linejoin="round"/>
</g>
<defs>
<clipPath id="clip0_733_2208">
<rect width="142" height="107" fill="white" transform="translate(130 45.644)"/>
</clipPath>
</defs>
</svg>
