<svg width="400" height="200" viewBox="0 0 400 200" fill="none" xmlns="http://www.w3.org/2000/svg">
<path d="M107 145.911C124.43 114.831 142.39 83.8309 161.04 53.4609C188.72 50.9309 233.82 59.0309 260.45 66.9909M138.59 90.8311C145.49 87.9511 158.6 85.7011 166.06 85.2411C167.62 85.1411 169.22 85.5311 170.43 86.5111C173.59 89.0811 171.87 93.0111 170.16 96.0111C167.99 99.8011 165.83 103.601 163.66 107.391C161.62 110.961 159.52 114.751 159.96 118.961C160.17 120.981 161.11 122.931 162.69 124.221C165.56 126.561 168.59 125.481 171.32 124.321C208.78 108.441 235.16 64.0811 238.7 23.1111C238.87 21.1211 236.58 19.8911 235.04 21.1611C216.08 36.7611 193.16 77.5111 193.51 114.631C193.6 124.121 192.73 133.931 196.55 142.621C200.37 151.311 208.61 158.581 218.1 158.831C224.03 158.991 229.74 156.471 234.62 153.111C243.69 146.871 248.83 138.071 250.23 127.151C251.63 116.231 248.53 103.431 238.88 98.1211C246.67 103.861 254.68 104.681 263.03 104.831M271.73 42.291C272.63 43.491 277.95 49.651 278.85 50.851" stroke="white" stroke-width="3" stroke-miterlimit="10" stroke-linecap="round" stroke-linejoin="round"/>
</svg>
